<svg width="88" height="88" viewBox="0 0 88 88" fill="none" xmlns="http://www.w3.org/2000/svg">
    <circle cx="44" cy="44" r="44" fill="#4BB543" />
    <path
        d="M36.9142 59.7008C36.5466 59.7008 36.202 59.643 35.8804 59.5272C35.5588 59.4114 35.2601 59.2166 34.9844 58.9427L23.1298 47.0881C22.6243 46.5826 22.3826 45.9274 22.4047 45.1224C22.4268 44.3174 22.6914 43.6631 23.1987 43.1595C23.7041 42.6541 24.3474 42.4013 25.1285 42.4013C25.9096 42.4013 26.5529 42.6541 27.0583 43.1595L36.9142 53.0154L60.2789 29.6507C60.7843 29.1453 61.4395 28.8926 62.2446 28.8926C63.0496 28.8926 63.7039 29.1453 64.2075 29.6507C64.7129 30.1562 64.9656 30.8114 64.9656 31.6164C64.9656 32.4214 64.7129 33.0757 64.2075 33.5793L38.8441 58.9427C38.5684 59.2184 38.2697 59.4141 37.9481 59.5299C37.6264 59.6457 37.2818 59.7027 36.9142 59.7008Z"
        fill="white" />
</svg>
