<svg width="253" height="266" viewBox="0 0 253 266" fill="none" xmlns="http://www.w3.org/2000/svg">
    <g clip-path="url(#clip0_5116_23969)">
        <path
            d="M227.838 83.3058C228.37 83.0704 228.822 82.6837 229.137 82.1938C229.452 81.704 229.616 81.1324 229.609 80.55C229.638 80.1659 229.588 79.7798 229.461 79.4161C229.334 79.0524 229.133 78.7188 228.871 78.4363C228.609 78.1537 228.291 77.9284 227.938 77.7742C227.585 77.6201 227.204 77.5405 226.819 77.5405C226.433 77.5405 226.052 77.6201 225.699 77.7742C225.346 77.9284 225.029 78.1537 224.767 78.4363C224.505 78.7188 224.304 79.0524 224.177 79.4161C224.05 79.7798 223.999 80.1659 224.028 80.55C224.017 81.1367 224.18 81.7136 224.496 82.2079C224.812 82.7022 225.268 83.0916 225.805 83.3271C221.512 83.9761 221.709 88.6471 221.709 88.6471L231.865 88.695C231.865 88.695 232.099 83.9495 227.838 83.3058Z"
            fill="#E0E0E0" />
        <path
            d="M24.8073 89.0886L25.0467 91.5677L22.8335 91.7805L22.5995 89.3759C20.397 89.4557 18.2264 88.9769 16.9124 88.1416L17.8647 85.322C19.2323 86.0886 20.7764 86.4847 22.3441 86.4711L21.977 82.7737C19.466 82.4173 16.657 81.864 16.3272 78.6986C16.0984 76.3525 17.6093 74.1713 21.0673 73.4318L20.8226 70.974L23.041 70.7559L23.2751 73.1711C24.8665 73.1035 26.4511 73.4153 27.8982 74.0809L27.0576 76.9111C25.9513 76.4002 24.7538 76.1161 23.5358 76.0759L23.9029 79.8424C26.4139 80.1723 29.2229 80.7309 29.4995 83.8484C29.7283 86.1839 28.2387 88.3119 24.8073 89.0886ZM21.6153 79.5126L21.3067 76.3685C20.1576 76.7515 19.7586 77.4325 19.8278 78.1719C19.8969 78.9114 20.6311 79.3051 21.6365 79.5179L21.6153 79.5126ZM25.9457 84.4761C25.8659 83.6994 25.185 83.343 24.2008 83.1036L24.4987 86.1573C25.6053 85.8115 26.0362 85.189 25.967 84.4815L25.9457 84.4761Z"
            fill="#EBEBEB" />
        <path
            d="M180.588 34.4842C181.98 33.645 183.477 32.9938 185.04 32.5477L185.961 28.1428L193.409 28.0098L194.473 32.3828C196.05 32.7719 197.569 33.3695 198.989 34.1597L202.756 31.6912L208.119 36.8676L205.788 40.7139C206.628 42.1053 207.278 43.6029 207.72 45.1668L212.13 46.0871L212.257 53.5351L207.884 54.5991C207.498 56.1777 206.9 57.6969 206.108 59.1158L208.576 62.8824L203.405 68.2396L199.553 65.9094C198.163 66.7511 196.665 67.4007 195.1 67.8406L194.18 72.2562L186.732 72.3892L185.668 68.0162C184.09 67.6252 182.571 67.0258 181.151 66.234L177.39 68.7024L172.028 63.5314L174.363 59.6797C173.522 58.2884 172.871 56.7909 172.427 55.2269L168.022 54.3118L167.889 46.8638L172.262 45.7998C172.651 44.2221 173.248 42.7032 174.039 41.2832L171.57 37.5219L176.746 32.1594L180.593 34.4948L180.588 34.4842ZM184.556 44.406C183.463 45.5427 182.73 46.9779 182.452 48.5305C182.174 50.0831 182.362 51.6833 182.992 53.1291C183.623 54.5749 184.668 55.8014 185.995 56.6536C187.322 57.5058 188.873 57.9456 190.45 57.9174C192.027 57.8892 193.56 57.3942 194.856 56.4951C196.152 55.5959 197.152 54.3328 197.731 52.8654C198.309 51.398 198.44 49.7921 198.106 48.2504C197.773 46.7088 196.989 45.3007 195.856 44.2038C195.101 43.4738 194.21 42.8998 193.234 42.5148C192.257 42.1297 191.214 41.9412 190.164 41.96C189.114 41.9787 188.079 42.2045 187.116 42.6242C186.154 43.0439 185.284 43.6494 184.556 44.406Z"
            fill="#EBEBEB" />
        <path
            d="M212.268 18.62C212.846 18.2733 213.467 18.0033 214.114 17.8167L214.492 15.9919L217.578 15.9387L218.019 17.7528C218.674 17.9113 219.304 18.1583 219.892 18.487L221.451 17.4656L223.669 19.5936L222.706 21.1896C223.052 21.767 223.321 22.3878 223.504 23.0356L225.329 23.4133L225.387 26.4989L223.573 26.9458C223.411 27.5977 223.165 28.2256 222.839 28.8131L223.86 30.3719L221.732 32.5956L220.136 31.6274C219.553 31.9822 218.925 32.2594 218.269 32.452L217.886 34.2768L214.806 34.33L214.359 32.5158C213.705 32.3541 213.076 32.1073 212.486 31.7817L210.928 32.8031L208.709 30.6751L209.677 29.0791C209.329 28.5018 209.059 27.8811 208.874 27.2331L207.049 26.8554L206.996 23.7698L208.805 23.3229C208.966 22.6699 209.215 22.0418 209.544 21.4556L208.544 19.8649L210.672 17.6411L212.268 18.62ZM213.912 22.727C213.458 23.1978 213.153 23.7927 213.037 24.4365C212.92 25.0804 212.997 25.7443 213.258 26.3444C213.519 26.9445 213.952 27.4538 214.502 27.8079C215.052 28.162 215.695 28.3451 216.349 28.3339C217.003 28.3228 217.64 28.1179 218.177 27.7452C218.715 27.3726 219.13 26.8488 219.371 26.2402C219.611 25.6316 219.665 24.9654 219.527 24.3259C219.389 23.6864 219.064 23.1022 218.594 22.6472C218.282 22.3419 217.913 22.1014 217.508 21.9395C217.103 21.7776 216.669 21.6975 216.233 21.704C215.797 21.7104 215.366 21.8032 214.966 21.9769C214.566 22.1507 214.204 22.402 213.901 22.7164L213.912 22.727Z"
            fill="#F5F5F5" />
        <path
            d="M95.7602 212.859C96.5919 212.355 97.4863 211.963 98.4202 211.693L98.9522 209.033L103.437 208.959L104.081 211.592C105.031 211.821 105.946 212.179 106.799 212.656L109.06 211.204L112.289 214.316L110.885 216.636C111.388 217.467 111.78 218.362 112.05 219.296L114.71 219.828L114.79 224.313L112.13 224.956C111.896 225.905 111.538 226.819 111.066 227.675L112.55 229.946L109.433 233.17L107.118 231.766C106.287 232.269 105.392 232.661 104.458 232.931L103.926 235.591L99.4416 235.671L98.7926 233.037C97.8442 232.802 96.9304 232.444 96.0741 231.973L93.8078 233.458L90.5732 230.356L91.9777 228.042C91.4753 227.21 91.0836 226.315 90.8126 225.382L88.1526 224.85L88.0781 220.365L90.7381 219.716C90.9689 218.766 91.3268 217.852 91.8021 216.998L90.3178 214.731L93.43 211.502L95.7496 212.906L95.7602 212.859ZM98.1489 218.833C97.4958 219.516 97.0593 220.377 96.8944 221.307C96.7295 222.237 96.8437 223.196 97.2224 224.062C97.6012 224.927 98.2276 225.662 99.0228 226.172C99.8181 226.682 100.747 226.946 101.691 226.93C102.636 226.913 103.555 226.618 104.332 226.081C105.109 225.543 105.71 224.788 106.059 223.91C106.408 223.031 106.489 222.07 106.292 221.145C106.095 220.221 105.629 219.376 104.953 218.716C104.5 218.27 103.962 217.919 103.371 217.683C102.781 217.447 102.149 217.331 101.513 217.342C100.877 217.353 100.25 217.49 99.6677 217.746C99.0855 218.002 98.5601 218.372 98.1223 218.833H98.1489Z"
            fill="#EBEBEB" />
        <path
            d="M130.425 215.492C131.51 214.836 132.679 214.33 133.899 213.986L134.612 210.55L140.416 210.448L141.251 213.853C142.482 214.156 143.667 214.623 144.773 215.242L147.71 213.316L151.886 217.349L150.067 220.349C150.723 221.435 151.231 222.603 151.578 223.823L155.009 224.536L155.115 230.34L151.705 231.175C151.403 232.406 150.938 233.59 150.322 234.697L152.243 237.634L148.21 241.81L145.236 239.99C144.152 240.644 142.985 241.15 141.767 241.496L141.049 244.933L135.245 245.034L134.41 241.629C133.18 241.322 131.996 240.855 130.888 240.24L127.957 242.166L123.781 238.134L125.552 235.144C124.894 234.059 124.386 232.891 124.041 231.67L120.604 230.957L120.503 225.153L123.914 224.318C124.215 223.087 124.68 221.903 125.297 220.796L123.424 217.849L127.457 213.672L130.452 215.492H130.425ZM133.532 223.227C132.677 224.113 132.105 225.232 131.886 226.444C131.667 227.655 131.813 228.904 132.304 230.032C132.795 231.161 133.61 232.119 134.645 232.784C135.68 233.45 136.89 233.794 138.121 233.772C139.351 233.751 140.548 233.365 141.559 232.663C142.571 231.962 143.351 230.976 143.803 229.831C144.254 228.686 144.355 227.433 144.094 226.23C143.834 225.027 143.222 223.928 142.337 223.073C141.749 222.505 141.054 222.058 140.293 221.758C139.533 221.458 138.72 221.311 137.902 221.326C137.085 221.34 136.278 221.515 135.528 221.841C134.778 222.168 134.1 222.639 133.532 223.227Z"
            fill="#EBEBEB" />
        <path d="M236.07 42.4854H232.739V57.408H236.07V42.4854Z" fill="#E0E0E0" />
        <path d="M226.94 48.2788V51.6091H241.863V48.2788H226.94Z" fill="#E0E0E0" />
        <path
            d="M247.774 50.1994C247.774 50.1994 247.774 50.1249 247.774 49.9813C247.774 49.8376 247.747 49.6195 247.726 49.3482C247.726 49.2099 247.726 49.0556 247.699 48.8854C247.673 48.7151 247.641 48.5289 247.609 48.3534C247.548 47.8896 247.454 47.4309 247.327 46.9808C247.016 45.7369 246.517 44.5476 245.848 43.4536C244.276 40.7984 241.824 38.7767 238.918 37.739C236.012 36.7013 232.834 36.713 229.936 37.7719C229.349 37.9889 228.778 38.2485 228.228 38.5486C227.664 38.8659 227.122 39.2214 226.606 39.6126C226.079 40.0025 225.58 40.4273 225.111 40.8841C224.646 41.3652 224.214 41.8771 223.818 42.4162C222.996 43.5191 222.358 44.748 221.929 46.0551C221.021 48.7579 221.021 51.6834 221.929 54.3862C222.36 55.6924 222.998 56.9209 223.818 58.0251C224.212 58.5638 224.644 59.074 225.111 59.552C225.579 60.0119 226.078 60.4386 226.606 60.8288C227.122 61.2199 227.664 61.5754 228.228 61.8928C228.784 62.1817 229.358 62.434 229.947 62.6482C232.838 63.6952 236.003 63.7059 238.901 62.6783C241.8 61.6507 244.251 59.6487 245.837 57.0143C246.507 55.919 247.006 54.7278 247.316 53.4818C247.444 53.0318 247.538 52.5731 247.598 52.1093C247.63 51.9124 247.668 51.7262 247.689 51.5773C247.71 51.4283 247.689 51.2528 247.715 51.1091C247.715 50.8431 247.753 50.6356 247.763 50.476C247.774 50.3164 247.763 50.2632 247.763 50.2632C247.772 50.3339 247.772 50.4054 247.763 50.476C247.763 50.6356 247.763 50.8431 247.763 51.1144C247.763 51.2528 247.763 51.4124 247.763 51.5826C247.763 51.7528 247.721 51.939 247.694 52.1146C247.642 52.5833 247.555 53.0474 247.433 53.5031C247.135 54.7653 246.645 55.9745 245.981 57.0888C244.396 59.7841 241.916 61.8392 238.974 62.8975C236.031 63.9558 232.811 63.9504 229.872 62.8823C229.269 62.6669 228.68 62.4109 228.111 62.1162C227.538 61.7987 226.987 61.4432 226.462 61.0522C225.923 60.6534 225.412 60.2198 224.93 59.7541C224.455 59.264 224.012 58.7433 223.605 58.1954C222.766 57.0661 222.116 55.8085 221.679 54.4714C221.232 53.0963 220.997 51.6612 220.982 50.2154C221 48.7698 221.235 47.3351 221.679 45.9594C222.118 44.6218 222.77 43.3641 223.611 42.2354C224.015 41.6856 224.456 41.1631 224.93 40.6713C225.403 40.2029 225.908 39.7674 226.441 39.3679C226.965 38.9719 227.518 38.6162 228.095 38.3039C228.662 38.0064 229.249 37.7487 229.851 37.5325C232.115 36.7173 234.556 36.5226 236.921 36.9686C238.796 37.329 240.572 38.0848 242.131 39.1856C243.691 40.2864 244.998 41.7069 245.965 43.3526C246.629 44.465 247.119 45.6724 247.418 46.9329C247.538 47.3888 247.625 47.8529 247.678 48.3214C247.705 48.5236 247.737 48.7098 247.747 48.8854C247.758 49.0609 247.747 49.2099 247.747 49.3535V49.9866C247.765 50.0561 247.774 50.1276 247.774 50.1994Z"
            fill="#E0E0E0" />
        <path
            d="M83.1463 16.9069L63.3718 9.80469L43.7942 16.8111C41.2938 17.9922 39.102 18.6997 39.102 21.0246V32.6222C39.0659 40.7628 41.2986 48.7525 45.5498 55.695C49.7916 62.7116 56.0769 68.2637 63.5634 71.6071C71.5434 69.0056 77.5443 62.0737 81.1938 56.1472C85.4466 49.2051 87.6812 41.2155 87.647 33.0744V22.6472C87.647 19.3275 85.8861 17.7049 83.1463 16.9069Z"
            fill="#EBEBEB" />
        <path
            d="M63.5634 64.9039C57.6255 62.2182 52.6519 57.7794 49.3111 52.1838C45.9485 46.6913 44.1818 40.3709 44.2092 33.9309V25.7966C44.2092 23.9559 45.3211 22.2269 47.5289 21.2001L63.3772 15.2736V9.80469L43.7942 16.8111C41.7354 17.7049 39.102 18.6997 39.102 21.0246V32.6222C39.0659 40.7628 41.2986 48.7525 45.5498 55.695C49.7916 62.7116 56.0769 68.2637 63.5634 71.6071V64.9039Z"
            fill="#E0E0E0" />
        <path
            d="M63.5636 71.6071C64.9058 71.1662 66.2071 70.609 67.4525 69.942C70.501 68.2096 73.2717 66.0289 75.6719 63.4728C77.8517 61.1263 79.771 58.5506 81.3962 55.7908C85.7026 48.7989 87.8767 40.7031 87.6525 32.4945V22.9185C87.6525 18.1305 85.1947 17.7953 83.1412 16.9016L63.3721 9.80469V15.2736L79.4119 21.2799C81.6197 22.3067 82.7315 24.0357 82.7315 25.8764V34.0479C82.7596 40.4888 80.9909 46.8098 77.6244 52.3008C74.7356 56.9931 70.453 61.829 63.5636 64.8986V71.6071Z"
            fill="#E0E0E0" />
        <path d="M65.436 28.5205H61.313V47.0022H65.436V28.5205Z" fill="white" />
        <path d="M54.1313 35.6971V39.8201H72.613V35.6971H54.1313Z" fill="white" />
        <path
            d="M253.487 251.051C253.487 251.131 199.537 251.189 133.005 251.189C66.4735 251.189 12.5127 251.131 12.5127 251.051C12.5127 250.971 66.4468 250.913 133.005 250.913C199.564 250.913 253.487 250.976 253.487 251.051Z"
            fill="#263238" />
        <path
            d="M194.015 223.509L74.48 223.073C73.79 223.071 73.1072 222.933 72.4706 222.667C71.834 222.401 71.2561 222.012 70.7699 221.522C70.2837 221.032 69.8988 220.452 69.6372 219.813C69.3756 219.175 69.2424 218.491 69.2452 217.801L69.8782 43.7518C69.8803 43.0618 70.0184 42.3789 70.2845 41.7423C70.5507 41.1057 70.9397 40.5278 71.4293 40.0416C71.919 39.5555 72.4996 39.1706 73.1381 38.9089C73.7766 38.6473 74.4604 38.5141 75.1504 38.5169L194.712 38.9531C196.105 38.9588 197.439 39.5172 198.421 40.5058C199.402 41.4943 199.951 42.8321 199.947 44.2252L199.309 218.274C199.306 218.966 199.168 219.651 198.9 220.289C198.633 220.927 198.242 221.506 197.75 221.992C197.258 222.479 196.675 222.863 196.034 223.123C195.393 223.384 194.707 223.515 194.015 223.509Z"
            fill="#E0E0E0" />
        <path
            d="M194.015 223.509L194.419 223.483C195.479 223.404 196.489 223.003 197.313 222.334C198.022 221.76 198.572 221.015 198.909 220.168C199.111 219.659 199.228 219.12 199.255 218.572C199.287 217.998 199.255 217.386 199.255 216.753C199.255 215.476 199.255 214.082 199.255 212.571C199.255 209.555 199.255 206.07 199.282 202.144C199.33 186.45 199.399 163.75 199.484 135.692C199.532 121.663 199.585 106.299 199.638 89.8071C199.663 81.554 199.691 73.0313 199.723 64.2391C199.723 59.8448 199.739 55.3884 199.771 50.87C199.771 48.6143 199.771 46.3427 199.771 44.0551C199.743 42.9182 199.337 41.8231 198.618 40.9426C197.898 40.0621 196.906 39.4464 195.797 39.1926C195.235 39.0795 194.662 39.0331 194.089 39.0543H192.344H188.833L181.752 39.0277L167.346 38.9798L137.634 38.8734L75.1501 38.6499C73.8331 38.6413 72.5634 39.1408 71.6052 40.0445C70.647 40.9482 70.0741 42.1865 70.0057 43.5018C69.9685 46.1618 69.9791 48.8218 69.9631 51.4499C69.9419 56.7379 69.9224 61.9888 69.9046 67.2024C69.8621 77.6225 69.823 87.8865 69.7876 97.9945C69.7131 118.179 69.6386 137.65 69.5695 156.201C69.5003 174.751 69.4311 192.377 69.3673 208.869C69.3673 210.933 69.3673 212.976 69.3673 215.003C69.3673 216.013 69.3673 217.03 69.3673 218.024C69.4053 219.009 69.7247 219.961 70.2877 220.77C70.8505 221.57 71.6264 222.197 72.5274 222.578C72.9751 222.757 73.4433 222.878 73.9212 222.94C74.4 222.983 74.8895 222.977 75.3789 222.977H81.1777L103.197 223.068L169.649 223.35L187.737 223.44H192.435H194.031H187.716L169.628 223.403L103.208 223.265L81.1883 223.195H75.3895C74.9001 223.195 74.4107 223.195 73.9106 223.158C73.4137 223.097 72.9272 222.97 72.4635 222.78C71.5264 222.387 70.7188 221.738 70.1334 220.908C69.5455 220.068 69.213 219.076 69.1758 218.051C69.1758 217.04 69.1758 216.04 69.1758 215.024C69.1758 212.995 69.1758 210.951 69.1758 208.89C69.2343 192.398 69.2928 174.767 69.3567 156.222C69.4205 137.676 69.495 118.2 69.5641 98.0105C69.5996 87.9202 69.6368 77.6562 69.6759 67.2183C69.6759 62.0118 69.6936 56.7628 69.7291 51.4711C69.7291 48.8111 69.7291 46.1831 69.7716 43.4911C69.8454 42.1109 70.4472 40.8118 71.4524 39.8631C72.4576 38.9143 73.7892 38.3885 75.1714 38.3946L137.655 38.6287L167.367 38.7404L181.774 38.7936L188.86 38.8361H192.371H194.116C194.705 38.8125 195.294 38.8607 195.872 38.9798C197.033 39.2388 198.073 39.8795 198.827 40.7995C199.582 41.7195 200.006 42.8658 200.032 44.0551C200.032 46.3498 200.032 48.6249 200.032 50.8806C200.032 55.4026 200.016 59.859 199.984 64.2498C199.945 73.0384 199.911 81.5611 199.883 89.8177C199.819 106.31 199.755 121.679 199.702 135.703C199.58 163.76 199.484 186.466 199.42 202.155C199.42 206.081 199.383 209.566 199.367 212.582C199.367 214.093 199.367 215.487 199.367 216.764C199.367 217.402 199.367 218.008 199.367 218.583C199.322 219.316 199.124 220.032 198.785 220.684C198.446 221.335 197.974 221.908 197.398 222.366C196.881 222.775 196.293 223.087 195.664 223.286C195.279 223.398 194.883 223.47 194.483 223.499L194.015 223.509Z"
            fill="#263238" />
        <g opacity="0.3">
            <path
                d="M81.5927 218.514L190.631 218.317L191.956 197.255L188.663 184.54L80.667 201.011L81.5927 218.514Z"
                fill="black" />
        </g>
        <path
            d="M194.015 223.509L194.419 223.483C195.479 223.404 196.489 223.003 197.313 222.334C198.022 221.76 198.572 221.015 198.909 220.168C199.111 219.659 199.228 219.12 199.255 218.572C199.287 217.998 199.255 217.386 199.255 216.753C199.255 215.476 199.255 214.082 199.255 212.571C199.255 209.555 199.255 206.07 199.282 202.144C199.33 186.45 199.399 163.75 199.484 135.692C199.532 121.663 199.585 106.299 199.638 89.8071C199.663 81.554 199.691 73.0313 199.723 64.2391C199.723 59.8448 199.739 55.3884 199.771 50.87C199.771 48.6143 199.771 46.3427 199.771 44.0551C199.743 42.9182 199.337 41.8231 198.618 40.9426C197.898 40.0621 196.906 39.4464 195.797 39.1926C195.235 39.0795 194.662 39.0331 194.089 39.0543H192.344H188.833L181.752 39.0277L167.346 38.9798L137.634 38.8734L75.1501 38.6499C73.8331 38.6413 72.5634 39.1408 71.6052 40.0445C70.647 40.9482 70.0741 42.1865 70.0057 43.5018C69.9685 46.1618 69.9791 48.8218 69.9631 51.4499C69.9419 56.7379 69.9224 61.9888 69.9046 67.2024C69.8621 77.6225 69.823 87.8865 69.7876 97.9945C69.7131 118.179 69.6386 137.65 69.5695 156.201C69.5003 174.751 69.4311 192.377 69.3673 208.869C69.3673 210.933 69.3673 212.976 69.3673 215.003C69.3673 216.013 69.3673 217.03 69.3673 218.024C69.4053 219.009 69.7247 219.961 70.2877 220.77C70.8505 221.57 71.6264 222.197 72.5274 222.578C72.9751 222.757 73.4433 222.878 73.9212 222.94C74.4 222.983 74.8895 222.977 75.3789 222.977H81.1777L103.197 223.068L169.649 223.35L187.737 223.44H192.435H194.031H187.716L169.628 223.403L103.208 223.265L81.1883 223.195H75.3895C74.9001 223.195 74.4107 223.195 73.9106 223.158C73.4137 223.097 72.9272 222.97 72.4635 222.78C71.5264 222.387 70.7188 221.738 70.1334 220.908C69.5455 220.068 69.213 219.076 69.1758 218.051C69.1758 217.04 69.1758 216.04 69.1758 215.024C69.1758 212.995 69.1758 210.951 69.1758 208.89C69.2343 192.398 69.2928 174.767 69.3567 156.222C69.4205 137.676 69.495 118.2 69.5641 98.0105C69.5996 87.9202 69.6368 77.6562 69.6759 67.2183C69.6759 62.0118 69.6936 56.7628 69.7291 51.4711C69.7291 48.8111 69.7291 46.1831 69.7716 43.4911C69.8454 42.1109 70.4472 40.8118 71.4524 39.8631C72.4576 38.9143 73.7892 38.3885 75.1714 38.3946L137.655 38.6287L167.367 38.7404L181.774 38.7936L188.86 38.8361H192.371H194.116C194.705 38.8125 195.294 38.8607 195.872 38.9798C197.033 39.2388 198.073 39.8795 198.827 40.7995C199.582 41.7195 200.006 42.8658 200.032 44.0551C200.032 46.3498 200.032 48.6249 200.032 50.8806C200.032 55.4026 200.016 59.859 199.984 64.2498C199.945 73.0384 199.911 81.5611 199.883 89.8177C199.819 106.31 199.755 121.679 199.702 135.703C199.58 163.76 199.484 186.466 199.42 202.155C199.42 206.081 199.383 209.566 199.367 212.582C199.367 214.093 199.367 215.487 199.367 216.764C199.367 217.402 199.367 218.008 199.367 218.583C199.322 219.316 199.124 220.032 198.785 220.684C198.446 221.335 197.974 221.908 197.398 222.366C196.881 222.775 196.293 223.087 195.664 223.286C195.279 223.398 194.883 223.47 194.483 223.499L194.015 223.509Z"
            fill="#263238" />
        <g opacity="0.3">
            <path
                d="M81.5927 218.514L190.631 218.317L191.956 197.255L188.663 184.54L80.667 201.011L81.5927 218.514Z"
                fill="black" />
        </g>
        <path d="M76.4678 45.9533L75.8506 214.362L192.714 214.79L193.332 46.3816L76.4678 45.9533Z"
            fill="white" />
        <path
            d="M192.722 214.79C192.722 213.822 192.929 145.768 193.227 46.3799L193.334 46.4916L76.48 46.0767L76.597 45.9543C76.3576 109.198 76.1395 167.628 75.9639 214.364L75.8629 214.268L192.733 214.8L75.8629 214.471H75.7671V214.375C75.932 167.639 76.1395 109.209 76.3576 45.9649V45.8479H76.4906L193.334 46.2841H193.445V46.3959C193.015 145.768 192.722 213.822 192.722 214.79Z"
            fill="#263238" />
        <path d="M108.566 99.6738L83.0039 99.5801L82.9841 104.99L108.547 105.084L108.566 99.6738Z"
            fill="#E0E0E0" />
        <path d="M162.92 88.0786L111.689 87.8909L111.669 93.3013L162.9 93.489L162.92 88.0786Z"
            fill="#E0E0E0" />
        <path d="M107.168 87.7627L82.7974 87.6733L82.7775 93.0837L107.148 93.1731L107.168 87.7627Z"
            fill="#E0E0E0" />
        <path d="M184.397 88.1414L165.856 88.0735L165.837 93.4839L184.377 93.5518L184.397 88.1414Z"
            fill="#E0E0E0" />
        <path d="M115.762 184.346L82.8052 184.225L82.7826 190.391L115.74 190.512L115.762 184.346Z"
            fill="#E0E0E0" />
        <path d="M143.438 195.43H83.5239V201.596H143.438V195.43Z" fill="#E0E0E0" />
        <path d="M183.942 113.516L82.8418 113.146L82.8192 119.311L183.92 119.682L183.942 113.516Z"
            fill="#E0E0E0" />
        <path
            d="M181.944 128.701C181.944 128.776 160.159 128.755 133.293 128.659C106.427 128.563 84.6358 128.419 84.6411 128.345C84.6464 128.27 106.421 128.286 133.293 128.388C160.164 128.489 181.944 128.622 181.944 128.701Z"
            fill="#263238" />
        <path
            d="M181.901 134.064C181.901 134.138 160.116 134.123 133.25 134.021C106.384 133.92 84.5933 133.787 84.5933 133.713C84.5933 133.638 106.373 133.654 133.25 133.755C160.127 133.857 181.901 133.974 181.901 134.064Z"
            fill="#263238" />
        <path
            d="M162.552 139.331C162.552 139.405 145.097 139.4 123.562 139.331C102.027 139.262 84.5718 139.129 84.5718 139.049C84.5718 138.969 102.027 138.98 123.567 139.049C145.108 139.118 162.552 139.256 162.552 139.331Z"
            fill="#263238" />
        <path
            d="M111.221 34.0564L164.421 34.2514C165.314 34.2546 166.169 34.6126 166.799 35.2464C167.428 35.8803 167.779 36.7381 167.776 37.6312L167.725 51.644L107.774 51.4243L107.826 37.4062C107.828 36.9631 107.918 36.5248 108.09 36.1164C108.262 35.708 108.513 35.3376 108.828 35.0264C109.144 34.7152 109.517 34.4693 109.928 34.3029C110.339 34.1364 110.778 34.0527 111.221 34.0564Z"
            fill="#263238" />
        <path d="M145.443 27.6374L130.191 27.5842L131.931 40.6608L143.416 40.7034L145.443 27.6374Z"
            fill="#263238" />
        <path
            d="M163.909 34.2448C163.909 34.314 152.205 34.3246 137.793 34.2448C123.381 34.165 111.683 34.0959 111.683 34.0267C111.683 33.9576 123.387 33.9416 137.798 33.9948C152.21 34.048 163.909 34.1757 163.909 34.2448Z"
            fill="#455A64" />
        <path
            d="M109.124 48.6194C109.054 48.6194 109.006 46.1616 109.017 43.1292C109.028 40.0968 109.092 37.6389 109.161 37.6389C109.23 37.6389 109.278 40.0968 109.267 43.1292C109.257 46.1616 109.193 48.6194 109.124 48.6194Z"
            fill="#455A64" />
        <path
            d="M165.766 47.5236C165.647 45.8649 165.611 44.2011 165.659 42.5388C165.659 39.7884 165.734 37.554 165.803 37.554C165.922 39.2145 165.958 40.88 165.909 42.5441C165.948 44.2053 165.9 45.8674 165.766 47.5236Z"
            fill="#455A64" />
        <path
            d="M162.872 49.8271C162.872 49.8963 150.87 49.9069 136.07 49.8271C121.269 49.7473 109.262 49.6729 109.262 49.6037C109.262 49.5345 121.264 49.5239 136.07 49.5771C150.875 49.6303 162.872 49.758 162.872 49.8271Z"
            fill="#455A64" />
        <g opacity="0.3">
            <path
                d="M167.739 39.2297L170.192 46.5926L170.176 50.1996L167.383 50.1889L167.739 39.2297Z"
                fill="black" />
        </g>
        <path
            d="M181.901 151.285C181.901 151.359 165.861 151.423 146.076 151.423C126.291 151.423 110.257 151.359 110.257 151.285C110.257 151.21 126.291 151.141 146.076 151.141C165.861 151.141 181.901 151.205 181.901 151.285Z"
            fill="#263238" />
        <path
            d="M171.953 157.573C171.953 157.653 158.121 157.711 141.097 157.711C124.073 157.711 110.241 157.653 110.241 157.573C110.241 157.493 124.046 157.435 141.097 157.435C158.147 157.435 171.953 157.499 171.953 157.573Z"
            fill="#263238" />
        <path
            d="M181.901 166.942C181.901 167.021 165.861 167.08 146.076 167.08C126.291 167.08 110.257 167.021 110.257 166.942C110.257 166.862 126.291 166.803 146.076 166.803C165.861 166.803 181.901 166.867 181.901 166.942Z"
            fill="#263238" />
        <path
            d="M171.953 173.235C171.953 173.31 158.121 173.374 141.097 173.374C124.073 173.374 110.241 173.31 110.241 173.235C110.241 173.161 124.046 173.097 141.097 173.097C158.147 173.097 171.953 173.161 171.953 173.235Z"
            fill="#263238" />
        <path
            d="M181.901 198.968C181.627 199.165 181.339 199.343 181.04 199.5C180.183 199.935 179.264 200.233 178.316 200.383C177.629 200.489 176.934 200.524 176.241 200.49C175.412 200.458 174.591 200.319 173.799 200.075C171.842 199.509 170.131 198.303 168.942 196.649C167.521 194.62 166.894 192.14 167.181 189.679C167.321 188.31 167.78 186.993 168.522 185.833C168.935 185.239 169.457 184.728 170.059 184.327C170.375 184.128 170.715 183.969 171.07 183.854C171.438 183.748 171.823 183.715 172.203 183.758C172.593 183.817 172.963 183.97 173.281 184.204C173.598 184.437 173.855 184.744 174.028 185.099C174.353 185.814 174.506 186.596 174.475 187.381C174.42 188.967 174.137 190.537 173.634 192.041C173.125 193.594 172.335 195.041 171.304 196.308C170.224 197.63 168.817 198.648 167.224 199.261C165.628 199.883 163.888 200.038 162.207 199.708C160.566 199.381 159.092 198.488 158.041 197.186C157.055 195.928 156.374 194.458 156.052 192.893C155.723 191.411 155.578 189.894 155.621 188.376C155.621 186.913 155.823 185.402 156.605 184.184C156.988 183.586 157.517 183.096 158.142 182.758C158.752 182.419 159.461 182.302 160.148 182.428C160.802 182.573 161.394 182.917 161.845 183.412C162.285 183.877 162.611 184.438 162.797 185.051C163.095 186.2 163.086 187.407 162.771 188.552C162.293 190.513 161.446 192.365 160.276 194.01C159.401 195.251 158.357 196.363 157.174 197.314C156.429 197.916 155.631 198.45 154.791 198.91C154.503 199.064 154.259 199.165 154.126 199.239C154.05 199.278 153.971 199.311 153.892 199.341L154.11 199.213C154.259 199.133 154.482 199.021 154.764 198.856C155.589 198.384 156.372 197.841 157.105 197.234C158.267 196.274 159.291 195.159 160.148 193.919C161.291 192.285 162.116 190.449 162.579 188.509C162.875 187.395 162.875 186.223 162.579 185.11C162.399 184.533 162.09 184.005 161.675 183.567C161.251 183.104 160.693 182.786 160.079 182.657C158.823 182.396 157.504 183.189 156.786 184.317C156.067 185.445 155.876 186.945 155.876 188.392C155.838 189.888 155.983 191.384 156.307 192.845C156.627 194.369 157.291 195.799 158.249 197.026C159.263 198.275 160.682 199.131 162.26 199.447C163.889 199.767 165.576 199.616 167.122 199.011C168.67 198.414 170.035 197.426 171.086 196.143C172.104 194.891 172.885 193.463 173.389 191.93C173.882 190.452 174.161 188.911 174.219 187.355C174.255 186.61 174.112 185.868 173.804 185.189C173.652 184.872 173.425 184.597 173.142 184.387C172.859 184.178 172.53 184.04 172.182 183.987C171.481 183.923 170.781 184.111 170.208 184.519C169.627 184.898 169.124 185.385 168.729 185.955C168.01 187.079 167.562 188.353 167.42 189.679C167.134 192.086 167.735 194.515 169.112 196.51C170.27 198.139 171.941 199.333 173.858 199.899C174.635 200.148 175.442 200.293 176.257 200.33C176.942 200.373 177.63 200.346 178.31 200.25C179.251 200.113 180.166 199.835 181.024 199.426C181.249 199.322 181.469 199.206 181.683 199.08L181.901 198.968Z"
            fill="#263238" />
        <path d="M114.38 62.5312H116.508V69.9792H114.38V62.5312Z" fill="#1CC9BC" />
        <path
            d="M125.046 62.5312V69.9792H123.317L120.04 66.0212V69.9792H117.981V62.5312H119.7L122.977 66.4893V62.5312H125.046Z"
            fill="#1CC9BC" />
        <path
            d="M127.387 69.8836C126.896 69.7673 126.43 69.5657 126.009 69.2878L126.701 67.7396C127.059 67.9693 127.448 68.1484 127.855 68.2716C128.274 68.4007 128.71 68.4671 129.148 68.4685C129.957 68.4685 130.361 68.2716 130.361 67.8673C130.356 67.7632 130.321 67.6628 130.259 67.5786C130.198 67.4945 130.113 67.4302 130.015 67.3938C129.654 67.2543 129.283 67.1457 128.903 67.0693C128.429 66.9725 127.962 66.8445 127.504 66.6863C127.133 66.5489 126.801 66.3202 126.541 66.0213C126.256 65.6772 126.112 65.2383 126.137 64.7924C126.132 64.3541 126.262 63.925 126.509 63.5634C126.788 63.176 127.172 62.8769 127.616 62.7016C128.191 62.4737 128.806 62.3651 129.425 62.3824C129.91 62.3812 130.394 62.4365 130.866 62.5473C131.307 62.6449 131.73 62.8081 132.122 63.0314L131.473 64.5902C130.846 64.229 130.138 64.0314 129.414 64.0156C129.1 63.9939 128.785 64.0582 128.504 64.2018C128.416 64.2476 128.342 64.3172 128.291 64.4028C128.241 64.4884 128.215 64.5865 128.217 64.6859C128.219 64.7863 128.253 64.8834 128.314 64.9629C128.376 65.0425 128.461 65.1001 128.558 65.1275C128.902 65.2634 129.258 65.3667 129.622 65.4361C130.098 65.5331 130.567 65.6628 131.026 65.8244C131.398 65.9625 131.73 66.1889 131.994 66.4841C132.28 66.8257 132.424 67.2633 132.399 67.7077C132.401 68.1381 132.273 68.5592 132.032 68.9153C131.748 69.3032 131.36 69.6036 130.914 69.7825C130.341 70.0118 129.728 70.1222 129.111 70.107C128.529 70.1059 127.95 70.0308 127.387 69.8836Z"
            fill="#1CC9BC" />
        <path
            d="M134.245 69.2025C133.926 68.8619 133.68 68.4597 133.523 68.0205C133.366 67.5813 133.3 67.1145 133.33 66.6489V62.5312H135.431V66.5851C135.431 67.7715 135.899 68.3673 136.841 68.3673C137.783 68.3673 138.24 67.7715 138.24 66.5851V62.5312H140.31V66.6489C140.339 67.1148 140.272 67.5818 140.114 68.0209C139.955 68.4601 139.709 68.8622 139.389 69.2025C138.66 69.7875 137.752 70.1063 136.817 70.1063C135.882 70.1063 134.975 69.7875 134.245 69.2025Z"
            fill="#1CC9BC" />
        <path
            d="M144.975 67.9843H143.831V69.958H141.73V62.51H145.124C145.725 62.497 146.321 62.6112 146.874 62.8452C147.341 63.0428 147.739 63.3742 148.018 63.7975C148.274 64.2319 148.409 64.727 148.409 65.2312C148.409 65.7354 148.274 66.2305 148.018 66.665C147.759 67.0716 147.39 67.3963 146.954 67.6013L148.55 69.9368H146.3L144.975 67.9843ZM145.97 64.4731C145.691 64.2621 145.345 64.1599 144.996 64.1858H143.831V66.3617H144.996C145.344 66.3863 145.689 66.2863 145.97 66.0798C146.178 65.8662 146.294 65.5799 146.294 65.2818C146.294 64.9837 146.178 64.6973 145.97 64.4838V64.4731Z"
            fill="#1CC9BC" />
        <path
            d="M154.551 68.511H151.412L150.833 69.958H148.705L151.982 62.51H154.051L157.339 69.958H155.152L154.551 68.511ZM153.939 66.9629L152.982 64.5901L152.03 66.9629H153.939Z"
            fill="#1CC9BC" />
        <path
            d="M164.979 62.5312V69.9792H163.25L159.972 66.0212V69.9792H157.914V62.5312H159.643L162.92 66.4893V62.5312H164.979Z"
            fill="#1CC9BC" />
        <path
            d="M168.069 69.6122C167.467 69.2964 166.963 68.8217 166.611 68.2397C166.266 67.6314 166.085 66.944 166.085 66.2447C166.085 65.5453 166.266 64.858 166.611 64.2497C166.963 63.6677 167.467 63.193 168.069 62.8771C168.716 62.5411 169.436 62.3711 170.165 62.3824C170.796 62.3731 171.421 62.4963 172.001 62.7441C172.535 62.9786 173.002 63.3446 173.357 63.8081L172.022 65.0158C171.816 64.7466 171.551 64.5285 171.248 64.3781C170.944 64.2277 170.61 64.1492 170.272 64.1486C169.9 64.1442 169.533 64.2359 169.208 64.4146C168.897 64.5879 168.642 64.8463 168.473 65.1594C168.302 65.504 168.213 65.8837 168.213 66.2686C168.213 66.6535 168.302 67.0332 168.473 67.3778C168.638 67.6766 168.881 67.9248 169.176 68.096C169.502 68.2748 169.868 68.3664 170.24 68.362C170.579 68.3616 170.914 68.2827 171.217 68.1313C171.521 67.9799 171.785 67.7603 171.99 67.4896L173.325 68.6972C172.97 69.1602 172.503 69.5262 171.969 69.7612C171.389 70.009 170.764 70.1323 170.133 70.123C169.414 70.1241 168.705 69.9487 168.069 69.6122Z"
            fill="#1CC9BC" />
        <path
            d="M180.252 68.3354V69.958H174.293V62.51H180.114V64.106H176.39V65.3562H179.688V66.9522H176.39V68.3141L180.252 68.3354Z"
            fill="#1CC9BC" />
        <path
            d="M119.907 74.48C120.168 74.7219 120.376 75.015 120.518 75.3409C120.66 75.6668 120.733 76.0184 120.733 76.3739C120.733 76.7293 120.66 77.081 120.518 77.4069C120.376 77.7327 120.168 78.0258 119.907 78.2678C119.259 78.7622 118.455 79.0076 117.641 78.9594H115.811V81.1991H114.747V73.7777H117.636C118.453 73.7336 119.258 73.9826 119.907 74.48ZM119.168 77.5922C119.335 77.4332 119.467 77.2421 119.558 77.0304C119.648 76.8187 119.695 76.5908 119.695 76.3606C119.695 76.1303 119.648 75.9024 119.558 75.6908C119.467 75.4791 119.335 75.288 119.168 75.129C118.72 74.8136 118.177 74.6615 117.631 74.6981H115.832V78.0231H117.631C118.177 78.0596 118.72 77.9075 119.168 77.5922Z"
            fill="#1CC9BC" />
        <path
            d="M123.716 80.7789C123.13 80.4634 122.642 79.9921 122.306 79.417C121.968 78.8277 121.79 78.1601 121.79 77.4805C121.79 76.801 121.968 76.1334 122.306 75.5441C122.641 74.9692 123.129 74.4993 123.716 74.1875C124.339 73.8625 125.03 73.6929 125.733 73.6929C126.435 73.6929 127.126 73.8625 127.749 74.1875C128.335 74.499 128.823 74.9667 129.159 75.5387C129.49 76.1323 129.664 76.8008 129.664 77.4805C129.664 78.1603 129.49 78.8288 129.159 79.4223C128.821 79.9948 128.334 80.4639 127.749 80.7789C127.125 81.1004 126.434 81.2682 125.733 81.2682C125.031 81.2682 124.34 81.1004 123.716 80.7789ZM127.206 79.9597C127.632 79.7144 127.985 79.3623 128.233 78.9382C128.484 78.494 128.613 77.9909 128.605 77.4805C128.614 76.9718 128.485 76.4702 128.233 76.0282C127.989 75.6018 127.634 75.249 127.206 75.0067C126.754 74.7623 126.249 74.6343 125.735 74.6343C125.222 74.6343 124.716 74.7623 124.264 75.0067C123.82 75.2401 123.452 75.5942 123.2 76.0282C122.944 76.4688 122.814 76.971 122.823 77.4805C122.814 77.9917 122.945 78.4955 123.2 78.9382C123.455 79.3697 123.823 79.7231 124.264 79.9597C124.717 80.2005 125.222 80.3264 125.735 80.3264C126.248 80.3264 126.753 80.2005 127.206 79.9597Z"
            fill="#1CC9BC" />
        <path d="M131.281 73.7778H132.345V80.2629H136.357V81.1833H131.287L131.281 73.7778Z"
            fill="#1CC9BC" />
        <path d="M137.57 73.7778H138.634V81.1833H137.57V73.7778Z" fill="#1CC9BC" />
        <path
            d="M142.155 80.7788C141.574 80.4633 141.09 79.9941 140.756 79.4222C140.421 78.8298 140.246 78.1609 140.246 77.4804C140.246 76.8 140.421 76.1311 140.756 75.5386C141.09 74.9668 141.576 74.499 142.161 74.1873C142.778 73.8536 143.47 73.6832 144.172 73.6926C144.718 73.6847 145.26 73.7841 145.768 73.9852C146.238 74.1714 146.657 74.4668 146.991 74.847L146.3 75.512C146.034 75.2267 145.71 75.001 145.351 74.8497C144.992 74.6984 144.604 74.6249 144.214 74.6342C143.694 74.6261 143.18 74.7545 142.725 75.0066C142.281 75.24 141.912 75.5941 141.661 76.0281C141.407 76.4696 141.276 76.9712 141.283 77.4804C141.277 77.9912 141.408 78.4943 141.661 78.9381C141.914 79.3705 142.282 79.7241 142.725 79.9595C143.181 80.2076 143.694 80.334 144.214 80.3266C144.605 80.3349 144.993 80.2599 145.353 80.1067C145.712 79.9536 146.035 79.7257 146.3 79.4382L146.986 80.1085C146.648 80.4879 146.228 80.7846 145.757 80.9757C145.249 81.1761 144.707 81.2754 144.161 81.2682C143.462 81.2776 142.772 81.1092 142.155 80.7788Z"
            fill="#1CC9BC" />
        <path
            d="M151.21 78.6244V81.1833H150.146V78.6031L147.204 73.7778H148.337L150.71 77.6827L153.088 73.7778H154.152L151.21 78.6244Z"
            fill="#1CC9BC" />
        <path
            d="M102.984 61.3184H86.9658C85.2793 61.3184 83.9121 62.6855 83.9121 64.372V80.3906C83.9121 82.0771 85.2793 83.4442 86.9658 83.4442H102.984C104.671 83.4442 106.038 82.0771 106.038 80.3906V64.372C106.038 62.6855 104.671 61.3184 102.984 61.3184Z"
            fill="#1CC9BC" />
        <path
            d="M96.4459 72.5702C96.9786 72.3348 97.4304 71.9481 97.7454 71.4583C98.0603 70.9684 98.2244 70.3968 98.2175 69.8144C98.2465 69.4303 98.196 69.0442 98.0689 68.6805C97.9419 68.3168 97.7411 67.9832 97.4791 67.7007C97.2172 67.4181 96.8997 67.1928 96.5466 67.0386C96.1935 66.8845 95.8124 66.8049 95.4271 66.8049C95.0418 66.8049 94.6607 66.8845 94.3076 67.0386C93.9545 67.1928 93.637 67.4181 93.3751 67.7007C93.1131 67.9832 92.9124 68.3168 92.7853 68.6805C92.6583 69.0442 92.6077 69.4303 92.6368 69.8144C92.6253 70.4011 92.788 70.978 93.1043 71.4723C93.4205 71.9666 93.8762 72.356 94.4137 72.5915C90.1151 73.2405 90.3119 77.9115 90.3119 77.9115L100.473 77.9593C100.473 77.9593 100.702 73.2139 96.4459 72.5702Z"
            fill="white" />
        <path
            d="M101.399 146.805H92.4135C91.2852 146.805 90.3706 147.72 90.3706 148.848V157.834C90.3706 158.962 91.2852 159.877 92.4135 159.877H101.399C102.527 159.877 103.442 158.962 103.442 157.834V148.848C103.442 147.72 102.527 146.805 101.399 146.805Z"
            fill="#1CC9BC" />
        <path
            d="M101.399 164.771H92.4135C91.2852 164.771 90.3706 165.686 90.3706 166.814V175.799C90.3706 176.928 91.2852 177.842 92.4135 177.842H101.399C102.527 177.842 103.442 176.928 103.442 175.799V166.814C103.442 165.686 102.527 164.771 101.399 164.771Z"
            fill="#1CC9BC" />
        <path
            d="M97.1431 156.695L93.1318 154.014L94.0682 152.615L96.7548 154.413L100.101 149.987L101.442 151.003L97.1431 156.695Z"
            fill="white" />
        <path
            d="M97.1431 175.071L93.1318 172.389L94.0682 170.996L96.7548 172.788L100.101 168.367L101.442 169.378L97.1431 175.071Z"
            fill="white" />
        <path
            d="M49.5272 233.767L48.9819 242.863C48.9819 242.863 58.0399 246.489 58.0999 248.18L40.4092 247.722L40.7037 233.543L49.5272 233.767Z"
            fill="#A0A0A0" />
        <g opacity="0.6">
            <path
                d="M43.5233 241.957C43.3524 242.006 43.2053 242.115 43.1098 242.265C43.0143 242.415 42.9771 242.594 43.0052 242.77C43.0409 242.946 43.1441 243.102 43.2927 243.204C43.4414 243.306 43.6239 243.346 43.8014 243.315C43.9832 243.265 44.1398 243.149 44.2406 242.99C44.3415 242.83 44.3793 242.639 44.3468 242.454C44.2857 242.278 44.1591 242.133 43.9934 242.048C43.8277 241.964 43.6358 241.947 43.4579 242.001"
                fill="white" />
        </g>
        <g opacity="0.6">
            <path
                d="M40.4092 247.722L40.4964 246.293L57.4019 247.258C57.4019 247.258 58.1817 247.624 58.0781 248.174L40.4092 247.722Z"
                fill="white" />
        </g>
        <path
            d="M49.2603 242.781C49.2603 242.868 48.824 242.895 48.3877 243.163C47.9515 243.43 47.7224 243.784 47.6461 243.752C47.5697 243.719 47.7061 243.206 48.2351 242.906C48.764 242.606 49.2821 242.705 49.2603 242.781Z"
            fill="#263238" />
        <path
            d="M51.0923 243.593C51.0923 243.681 50.7324 243.817 50.4324 244.177C50.1325 244.537 50.0343 244.918 49.9471 244.913C49.8598 244.908 49.8216 244.417 50.2034 243.975C50.5851 243.533 51.0923 243.512 51.0923 243.593Z"
            fill="#263238" />
        <path
            d="M52.1014 245.84C52.0196 245.84 51.9106 245.426 52.1451 244.957C52.3796 244.488 52.7886 244.313 52.8213 244.384C52.854 244.455 52.6031 244.706 52.4177 245.088C52.2323 245.469 52.1778 245.835 52.1014 245.84Z"
            fill="#263238" />
        <path
            d="M49.1566 240.692C49.1185 240.774 48.7258 240.643 48.235 240.665C47.7442 240.687 47.3625 240.828 47.3189 240.752C47.2752 240.676 47.6515 240.381 48.2296 240.365C48.8076 240.349 49.2003 240.632 49.1566 240.692Z"
            fill="#263238" />
        <g opacity="0.3">
            <path
                d="M49.4182 235.566L49.32 237.191L40.6328 236.891L40.6655 235.015L49.4182 235.566Z"
                fill="black" />
        </g>
        <path
            d="M49.2328 238.854C48.9416 238.928 48.6354 238.919 48.3493 238.827C48.0318 238.766 47.7238 238.663 47.4332 238.522C47.2585 238.441 47.0907 238.346 46.9315 238.238C46.8328 238.183 46.7443 238.111 46.6697 238.025C46.614 237.963 46.5806 237.883 46.5747 237.799C46.5688 237.715 46.5907 237.632 46.637 237.562C46.6833 237.504 46.7422 237.457 46.8092 237.425C46.8763 237.392 46.9498 237.376 47.0242 237.376C47.1354 237.378 47.2457 237.396 47.3514 237.431C47.5391 237.481 47.7218 237.548 47.8967 237.633C48.1919 237.772 48.4641 237.956 48.7038 238.178C49.1019 238.571 49.2491 238.893 49.2055 238.909C49.1619 238.925 48.971 238.663 48.562 238.364C48.3246 238.172 48.0623 238.015 47.7822 237.895C47.6199 237.824 47.4521 237.768 47.2805 237.725C47.0951 237.671 46.9369 237.666 46.8824 237.725C46.8278 237.785 46.8824 237.769 46.8824 237.829C46.9418 237.887 47.0077 237.939 47.0787 237.982C47.2251 238.086 47.3782 238.181 47.5368 238.265C47.8093 238.407 48.094 238.524 48.3875 238.614C48.6743 238.675 48.9567 238.756 49.2328 238.854Z"
            fill="#263238" />
        <path
            d="M49.1181 238.996C48.9619 238.737 48.8877 238.437 48.9054 238.135C48.9005 237.807 48.9503 237.481 49.0526 237.169C49.1124 236.979 49.1929 236.796 49.2926 236.624C49.3425 236.508 49.4223 236.407 49.5238 236.331C49.6253 236.255 49.7449 236.208 49.8706 236.193C49.9492 236.196 50.0254 236.221 50.0894 236.267C50.1535 236.312 50.2026 236.376 50.2306 236.449C50.2737 236.554 50.3013 236.664 50.3123 236.777C50.3425 236.974 50.3425 237.174 50.3123 237.371C50.2541 237.701 50.1155 238.012 49.9088 238.276C49.5543 238.723 49.189 238.822 49.1835 238.789C49.178 238.756 49.4616 238.587 49.7288 238.151C49.8891 237.902 49.9933 237.621 50.0342 237.327C50.0587 237.157 50.0587 236.985 50.0342 236.815C50.0342 236.629 49.947 236.477 49.8761 236.493C49.8052 236.509 49.6307 236.624 49.5543 236.777C49.4649 236.926 49.3883 237.083 49.3253 237.246C49.2192 237.53 49.1532 237.827 49.129 238.129C49.0853 238.642 49.1671 238.963 49.1181 238.996Z"
            fill="#263238" />
        <path
            d="M53.192 178.355L39.1387 182.87C39.3077 182.996 41.7454 198.788 41.7454 198.788L39.7167 240.714L50.8688 240.85L55.8587 196.874L53.192 178.355Z"
            fill="#263238" />
        <path
            d="M33.5596 233.734L33.2761 242.841C33.2761 242.841 42.4377 246.189 42.5468 247.88L24.8615 247.961L24.7197 233.75L33.5596 233.734Z"
            fill="#A0A0A0" />
        <g opacity="0.6">
            <path
                d="M27.8227 242.105C27.6537 242.158 27.51 242.271 27.4185 242.422C27.3271 242.574 27.2944 242.754 27.3265 242.928C27.3728 243.1 27.4834 243.248 27.6356 243.342C27.7877 243.435 27.9698 243.467 28.1445 243.43C28.3238 243.373 28.4759 243.252 28.5715 243.09C28.6671 242.928 28.6995 242.736 28.6625 242.552C28.5962 242.377 28.4647 242.236 28.2958 242.156C28.127 242.077 27.9339 242.066 27.7573 242.126"
                fill="white" />
        </g>
        <g opacity="0.6">
            <path
                d="M24.8887 247.962L24.9323 246.533L41.8704 246.986C41.8704 246.986 42.6557 247.324 42.5739 247.88L24.8887 247.962Z"
                fill="white" />
        </g>
        <path
            d="M33.5597 242.753C33.5597 242.835 33.1235 242.879 32.7036 243.157C32.2836 243.435 32.0546 243.8 31.9728 243.768C31.891 243.735 32.0219 243.222 32.5181 242.906C33.0144 242.59 33.5979 242.672 33.5597 242.753Z"
            fill="#263238" />
        <path
            d="M35.4414 243.512C35.4414 243.593 35.0869 243.741 34.7979 244.106C34.5089 244.471 34.4216 244.864 34.3344 244.859C34.2471 244.853 34.1926 244.368 34.5634 243.921C34.9343 243.473 35.436 243.43 35.4414 243.512Z"
            fill="#263238" />
        <path
            d="M36.5047 245.726C36.4283 245.726 36.3029 245.311 36.5047 244.837C36.7064 244.362 37.1318 244.177 37.1645 244.248C37.1972 244.319 36.9573 244.57 36.7828 244.962C36.6083 245.355 36.5919 245.715 36.5047 245.726Z"
            fill="#263238" />
        <path
            d="M33.4178 240.67C33.3796 240.747 32.9815 240.632 32.4962 240.67C32.0108 240.709 31.6291 240.861 31.58 240.79C31.531 240.72 31.9018 240.403 32.4744 240.37C33.047 240.338 33.456 240.6 33.4178 240.67Z"
            fill="#263238" />
        <g opacity="0.3">
            <path
                d="M33.5219 235.539L33.4728 237.158L24.7801 237.126L24.7583 235.25L33.5219 235.539Z"
                fill="black" />
        </g>
        <path
            d="M33.4396 238.827C33.1509 238.91 32.8448 238.91 32.5561 238.827C32.2349 238.774 31.9216 238.68 31.6236 238.549C31.4496 238.469 31.2803 238.38 31.1164 238.282C31.0171 238.227 30.927 238.157 30.8492 238.074C30.7914 238.014 30.7557 237.936 30.7478 237.853C30.7398 237.77 30.7602 237.686 30.8056 237.616C30.8488 237.556 30.9051 237.507 30.9704 237.472C31.0356 237.437 31.1079 237.417 31.1819 237.415C31.2943 237.413 31.4062 237.428 31.5145 237.458C31.7016 237.506 31.8841 237.57 32.0599 237.649C32.3617 237.786 32.6397 237.97 32.8833 238.194C33.2923 238.571 33.4287 238.892 33.4287 238.909C33.4287 238.925 33.1887 238.669 32.7688 238.363C32.5244 238.184 32.2588 238.036 31.9781 237.922C31.8113 237.858 31.6399 237.807 31.4654 237.769C31.28 237.72 31.1219 237.72 31.0728 237.802C31.0237 237.884 31.0728 237.851 31.0728 237.905C31.1299 237.965 31.1962 238.014 31.2691 238.053C31.4187 238.153 31.5755 238.242 31.7381 238.32C32.0117 238.456 32.2986 238.564 32.5943 238.642C32.8793 238.687 33.1615 238.749 33.4396 238.827Z"
            fill="#263238" />
        <path
            d="M33.3253 238.953C33.1587 238.701 33.0765 238.403 33.0909 238.102C33.0737 237.774 33.1125 237.446 33.2054 237.131C33.2607 236.942 33.3357 236.759 33.429 236.586C33.4753 236.471 33.5494 236.37 33.6445 236.291C33.7397 236.212 33.853 236.158 33.9743 236.133C34.0529 236.135 34.1293 236.159 34.1949 236.203C34.2604 236.246 34.3125 236.307 34.3451 236.379C34.3915 236.483 34.4227 236.593 34.4378 236.706C34.4677 236.903 34.4677 237.103 34.4378 237.3C34.3907 237.632 34.2613 237.947 34.0615 238.216C33.718 238.68 33.3581 238.762 33.3526 238.762C33.5503 238.559 33.7326 238.342 33.8979 238.113C34.0508 237.859 34.144 237.574 34.1706 237.279C34.1975 237.109 34.1975 236.936 34.1706 236.766C34.1433 236.58 34.0724 236.428 34.0016 236.444C33.9307 236.461 33.7616 236.586 33.6907 236.739C33.6063 236.892 33.5351 237.053 33.478 237.219C33.3778 237.503 33.3209 237.801 33.309 238.102C33.2817 238.62 33.3744 238.942 33.3253 238.953Z"
            fill="#263238" />
        <path
            d="M22.2661 180.591C22.2661 183.764 23.5204 242.617 23.5204 242.617L34.1054 241.674L36.2867 205.507L37.4265 202.355L38.7516 182.87L22.2661 180.591Z"
            fill="#263238" />
        <path
            d="M44.6958 104.298C44.8375 104.489 53.1048 117.61 53.1048 117.61L62.4028 107.881L67.1581 114.747C67.1581 114.747 57.2167 128.778 55.7552 129.285C54.2937 129.793 49.5929 128.996 49.5929 128.996L43.0488 120.331L44.6958 104.298Z"
            fill="#EBEBEB" />
        <path
            d="M53.1919 120.609C53.0313 120.123 52.9719 119.609 53.0173 119.099C52.9656 118.591 53.0006 118.078 53.121 117.583C53.2817 118.069 53.3429 118.583 53.3009 119.093C53.3488 119.601 53.312 120.113 53.1919 120.609Z"
            fill="#263238" />
        <path
            d="M23.6731 94.4819L22.2443 98.0103C22.2443 98.0103 14.9095 104.2 14.2442 105.154C13.5789 106.109 19.4794 136.964 19.4794 136.964C19.4794 136.964 19.0977 182.297 19.4794 182.297C19.8612 182.297 24.9328 183.933 35.2942 183.154C45.6556 182.374 47.5806 181.343 47.5806 181.343L44.3468 141.25L39.3897 114.294L30.8879 103.344L23.6731 94.4819Z"
            fill="#EBEBEB" />
        <path
            d="M40.3821 109.79C40.3821 109.79 39.2914 104.56 39.3841 104.396C39.4768 104.233 36.941 98.0542 36.941 98.0542C36.941 98.0542 36.0903 95.2239 36.0903 95.2348C36.0903 95.2457 24.5346 93.2825 24.5346 93.2825L23.9893 95.0275L39.4005 114.502L40.9819 122.862L42.6179 120.582L40.3821 109.79Z"
            fill="#FF960A" />
        <path
            d="M50.6941 149.152L48.1856 118.99L46.1296 107.216C45.8333 105.538 45.2048 103.936 44.281 102.504L38.2823 99.0302C37.6685 98.2966 37.0951 97.5302 36.5645 96.7344L39.4057 103.993L40.4036 109.79L41.0198 123.09L44.2919 140.945L47.4984 180.209L54.4678 178.846L50.6941 149.152Z"
            fill="#EBEBEB" />
        <path
            d="M41.2492 114.011L42.5962 104.113L38.2608 99.0302L36.543 96.7344L39.2097 104.396L41.2492 114.011Z"
            fill="#EBEBEB" />
        <path
            d="M34.3995 132.481L44.8754 117.583L63.106 123.096L49.3145 140.939L32.1909 135.371L34.3995 132.481Z"
            fill="#A0A0A0" />
        <path
            d="M57.7837 122.409C57.7837 122.498 57.7571 122.586 57.7074 122.66C57.6577 122.735 57.587 122.793 57.5043 122.827C57.4216 122.861 57.3305 122.87 57.2427 122.853C57.1549 122.835 57.0743 122.792 57.011 122.729C56.9477 122.666 56.9046 122.585 56.8871 122.497C56.8696 122.409 56.8786 122.318 56.9129 122.236C56.9471 122.153 57.0051 122.082 57.0796 122.033C57.154 121.983 57.2415 121.956 57.331 121.956C57.4511 121.956 57.5662 122.004 57.6511 122.089C57.736 122.174 57.7837 122.289 57.7837 122.409Z"
            fill="#263238" />
        <path
            d="M50.4927 120.375C50.4926 120.464 50.466 120.552 50.416 120.627C50.366 120.701 50.295 120.759 50.212 120.793C50.1289 120.827 50.0376 120.836 49.9497 120.818C49.8617 120.8 49.7811 120.756 49.718 120.693C49.655 120.629 49.6123 120.548 49.5954 120.459C49.5786 120.371 49.5883 120.28 49.6234 120.198C49.6585 120.115 49.7174 120.045 49.7925 119.996C49.8677 119.946 49.9557 119.921 50.0455 119.922C50.1646 119.923 50.2783 119.972 50.362 120.056C50.4457 120.141 50.4927 120.255 50.4927 120.375Z"
            fill="#263238" />
        <path
            d="M41.9471 108.001C41.9198 108.001 42.1434 108.971 42.4542 110.182C42.6194 110.902 42.8233 111.611 43.065 112.309C43.0923 112.309 42.8632 111.338 42.5578 110.155C42.2525 108.971 41.9743 107.995 41.9471 108.001Z"
            fill="#263238" />
        <path
            d="M45.4261 114.687C45.4906 115.114 45.4339 115.55 45.2625 115.946C45.1756 116.149 45.0465 116.33 44.8838 116.479C44.7211 116.628 44.5286 116.74 44.3191 116.808C44.0349 116.898 43.7321 116.913 43.4405 116.851C43.1489 116.789 42.8784 116.652 42.6558 116.454C41.9082 115.583 41.5339 114.452 41.6142 113.307C41.641 112.95 41.767 112.608 41.978 112.319C42.189 112.03 42.4767 111.805 42.8085 111.671C43.1845 111.57 43.5834 111.6 43.9407 111.754C44.298 111.909 44.5927 112.179 44.7772 112.522"
            fill="#E0E0E0" />
        <path
            d="M44.7772 112.533C44.7066 112.386 44.6126 112.251 44.4991 112.135C44.3674 111.997 44.2168 111.88 44.0519 111.786C43.8296 111.661 43.5812 111.59 43.3266 111.578C43.1781 111.574 43.0297 111.589 42.8849 111.622C42.725 111.656 42.5719 111.717 42.4322 111.802C42.138 112.006 41.9059 112.287 41.7615 112.614C41.5978 112.971 41.5212 113.362 41.5379 113.754C41.5567 114.17 41.6319 114.581 41.7615 114.976C41.9252 115.601 42.2615 116.168 42.7322 116.612C42.9661 116.794 43.2451 116.909 43.5393 116.944C43.8067 116.977 44.0779 116.952 44.3355 116.874C44.5254 116.826 44.7 116.73 44.8426 116.595C44.9729 116.481 45.0867 116.349 45.1807 116.203C45.3205 115.963 45.413 115.698 45.4534 115.423C45.4789 115.242 45.4789 115.058 45.4534 114.878C45.4587 114.832 45.4587 114.787 45.4534 114.741C45.4545 114.725 45.4545 114.709 45.4534 114.692C45.4718 114.927 45.4627 115.163 45.4261 115.396C45.3805 115.662 45.2842 115.918 45.1426 116.148C45.0499 116.287 44.9379 116.412 44.8099 116.519C44.6751 116.641 44.512 116.727 44.3355 116.77C44.0818 116.848 43.8131 116.866 43.5514 116.82C43.2898 116.775 43.0427 116.668 42.8303 116.508C42.3826 116.081 42.0601 115.54 41.8978 114.943C41.6138 114.206 41.6138 113.39 41.8978 112.653C42.0323 112.342 42.2492 112.074 42.5249 111.878C42.6538 111.796 42.7959 111.737 42.9448 111.704C43.3231 111.606 43.7244 111.655 44.0682 111.84C44.2334 111.925 44.3843 112.036 44.5154 112.167C44.6115 112.283 44.699 112.405 44.7772 112.533Z"
            fill="#263238" />
        <path
            d="M45.9119 114.605C45.9765 115.03 45.9198 115.465 45.7483 115.859C45.6618 116.062 45.5328 116.245 45.3701 116.395C45.2075 116.544 45.0148 116.657 44.8049 116.726C44.5207 116.817 44.218 116.831 43.9263 116.769C43.6347 116.707 43.3643 116.57 43.1416 116.372C42.394 115.501 42.0198 114.37 42.1 113.225C42.1251 112.869 42.2498 112.526 42.46 112.237C42.6702 111.948 42.9574 111.723 43.2889 111.589C43.665 111.488 44.0644 111.516 44.4225 111.67C44.7806 111.823 45.0767 112.092 45.263 112.434"
            fill="#E0E0E0" />
        <path
            d="M45.2627 112.446C45.1925 112.3 45.0985 112.167 44.9846 112.053C44.8544 111.914 44.7035 111.797 44.5374 111.704C44.3134 111.578 44.0631 111.507 43.8066 111.497C43.6581 111.49 43.5093 111.505 43.3649 111.54C43.2063 111.573 43.0548 111.634 42.9177 111.72C42.6211 111.921 42.3884 112.203 42.247 112.533C42.0828 112.888 42.0061 113.277 42.0234 113.667C42.0422 114.084 42.1174 114.497 42.247 114.894C42.412 115.519 42.7482 116.086 43.2177 116.53C43.4516 116.712 43.7306 116.827 44.0248 116.863C44.2922 116.895 44.5634 116.871 44.821 116.792C45.0131 116.745 45.1897 116.649 45.3336 116.514C45.4639 116.399 45.5777 116.267 45.6717 116.121C45.8114 115.881 45.904 115.616 45.9444 115.341C45.9699 115.16 45.9699 114.977 45.9444 114.796C45.947 114.751 45.947 114.705 45.9444 114.66C45.9455 114.643 45.9455 114.627 45.9444 114.611C45.9623 114.845 45.9513 115.082 45.9116 115.314C45.866 115.581 45.7697 115.836 45.6281 116.067C45.5391 116.207 45.4287 116.332 45.3009 116.437C45.1661 116.559 45.003 116.645 44.8264 116.688C44.5731 116.767 44.3047 116.786 44.0431 116.741C43.7814 116.696 43.5341 116.591 43.3213 116.432C42.8735 116.005 42.5511 115.464 42.3888 114.867C42.1047 114.13 42.1047 113.313 42.3888 112.576C42.5218 112.265 42.7389 111.997 43.0159 111.802C43.1443 111.719 43.2865 111.66 43.4358 111.628C43.573 111.593 43.7142 111.576 43.8557 111.578C44.1 111.582 44.3397 111.646 44.5538 111.764C44.7197 111.848 44.8708 111.958 45.0009 112.091C45.0948 112.204 45.1822 112.323 45.2627 112.446Z"
            fill="#263238" />
        <path
            d="M44.4231 112.424C44.6406 112.34 44.8792 112.328 45.104 112.39C45.3287 112.452 45.5278 112.584 45.6719 112.767C45.9504 113.147 46.0733 113.619 46.0154 114.087C46.0065 114.326 45.9451 114.561 45.8355 114.774C45.7789 114.881 45.7015 114.976 45.6079 115.052C45.5142 115.129 45.4062 115.187 45.2902 115.221C45.1192 115.256 44.9423 115.25 44.7743 115.202C44.6064 115.155 44.4522 115.068 44.3249 114.948C44.1099 114.766 43.9368 114.54 43.8173 114.285C43.6977 114.03 43.6347 113.752 43.6323 113.471C43.6158 113.281 43.6596 113.09 43.7575 112.927C43.8554 112.763 44.0025 112.635 44.1777 112.56"
            fill="#E0E0E0" />
        <path
            d="M44.1774 112.56C44.1504 112.555 44.1227 112.555 44.0956 112.56C44.0187 112.586 43.9494 112.631 43.8939 112.691C43.7942 112.801 43.7182 112.93 43.6704 113.071C43.6225 113.212 43.604 113.361 43.6158 113.509C43.6223 113.95 43.7802 114.375 44.0629 114.714C44.2235 114.92 44.4311 115.084 44.6682 115.194C44.7975 115.259 44.9405 115.294 45.0854 115.294C45.2304 115.294 45.3733 115.259 45.5026 115.194C45.7452 115.038 45.9203 114.797 45.9934 114.518C46.0611 114.269 46.0869 114.011 46.0698 113.754C46.0668 113.534 46.0194 113.317 45.9303 113.115C45.8413 112.914 45.7125 112.732 45.5517 112.582C45.3208 112.388 45.0234 112.292 44.7228 112.314C44.6442 112.325 44.5673 112.345 44.4937 112.374C44.4447 112.402 44.4229 112.413 44.4229 112.418C44.5223 112.388 44.6247 112.368 44.7282 112.358C45.0117 112.349 45.2875 112.451 45.4972 112.642C45.647 112.787 45.7662 112.961 45.8477 113.153C45.9291 113.345 45.9713 113.551 45.9716 113.76C45.9816 114.006 45.954 114.252 45.8898 114.49C45.8198 114.74 45.6632 114.957 45.4481 115.101C45.3335 115.157 45.2076 115.187 45.08 115.187C44.9523 115.187 44.8264 115.157 44.7119 115.101C44.4892 114.998 44.2933 114.845 44.1393 114.654C43.8662 114.333 43.7087 113.93 43.6921 113.509C43.6652 113.226 43.7493 112.945 43.9266 112.723C44.0003 112.655 44.0851 112.6 44.1774 112.56Z"
            fill="#263238" />
        <path
            d="M44.2705 116.017C44.2705 116.017 44.2705 115.946 44.3414 115.848C44.4038 115.718 44.5022 115.608 44.6249 115.532C44.755 115.46 44.892 115.402 45.0339 115.357C45.143 115.319 45.2139 115.292 45.2139 115.276C45.1493 115.261 45.0822 115.261 45.0176 115.276C44.8601 115.301 44.7085 115.354 44.5704 115.434C44.4262 115.52 44.3179 115.656 44.265 115.816C44.2323 115.941 44.2541 116.023 44.2705 116.017Z"
            fill="#263238" />
        <path
            d="M43.1685 112.478C43.1685 112.478 43.2175 112.544 43.3321 112.593C43.4831 112.655 43.6466 112.681 43.8095 112.669C43.9723 112.656 44.1301 112.606 44.27 112.522C44.3737 112.451 44.4227 112.391 44.4118 112.38C44.2169 112.466 44.0116 112.527 43.801 112.56C43.5879 112.555 43.3759 112.528 43.1685 112.478Z"
            fill="#263238" />
        <path
            d="M34.7432 119.807C34.1978 119.965 33.5761 119.562 33.0417 119.769C32.945 119.81 32.8573 119.869 32.7834 119.943C32.7096 120.017 32.6511 120.106 32.6114 120.203C32.5716 120.3 32.5514 120.403 32.5518 120.508C32.5521 120.613 32.5732 120.717 32.6136 120.813C32.6541 120.91 32.7132 120.998 32.7876 121.072C32.862 121.146 32.9501 121.204 33.0471 121.244C33.1441 121.284 33.248 121.304 33.3528 121.303C33.4576 121.303 33.5613 121.282 33.6579 121.242C34.2033 120.991 34.3287 120.205 34.8522 119.895"
            fill="#263238" />
        <path
            d="M30.2879 121.776C30.4585 121.72 30.6244 121.651 30.7842 121.569L30.6969 121.389C30.4291 121.547 30.1315 121.648 29.8227 121.686C29.5139 121.723 29.2007 121.697 28.9028 121.607C28.5 121.434 28.1356 121.183 27.8304 120.869C27.5253 120.554 27.2855 120.183 27.125 119.775V119.737C26.9287 119.344 24.2292 111.306 23.733 109.773C23.4817 109.14 23.4767 108.435 23.719 107.799C23.9612 107.162 24.4331 106.639 25.0418 106.332C25.1181 106.289 26.9232 105.351 28.7828 107.636C30.7296 110.03 34.1325 114.725 34.4488 115.336L34.5961 115.598C35.0269 116.328 35.9267 117.855 35.1414 119.164C34.2634 120.615 33.1618 120.516 33.1182 120.516V120.713C33.1673 120.713 34.3834 120.833 35.3323 119.262C36.1885 117.861 35.245 116.263 34.7869 115.494L34.6452 115.243C34.3289 114.654 30.9096 109.91 28.9628 107.51C27.0159 105.111 24.9927 106.147 24.9709 106.158C24.3303 106.495 23.8347 107.055 23.5767 107.731C23.3188 108.408 23.3162 109.155 23.5694 109.833C23.9784 111.093 26.7596 119.409 26.9668 119.824V119.862C27.1363 120.294 27.3905 120.688 27.7145 121.021C28.0386 121.353 28.4259 121.618 28.8537 121.798C29.3217 121.945 29.8246 121.938 30.2879 121.776Z"
            fill="#263238" />
        <path
            d="M24.0985 111.344C24.075 110.987 24.1044 110.629 24.1857 110.28C24.2836 109.903 24.448 109.547 24.6711 109.228C24.9424 108.839 25.2915 108.51 25.6963 108.263C26.4471 107.826 27.3261 107.664 28.1831 107.805C28.5374 107.869 28.8819 107.979 29.2083 108.132C29.2083 108.132 29.2083 108.132 29.1428 108.083C29.0828 108.045 29.0209 108.01 28.9574 107.979C28.7157 107.867 28.4611 107.784 28.1994 107.734C27.8078 107.656 27.4058 107.645 27.0106 107.701C26.5271 107.766 26.0616 107.927 25.6418 108.175C25.2224 108.43 24.8633 108.772 24.5893 109.179C24.3658 109.51 24.205 109.88 24.1148 110.269C24.0519 110.53 24.0298 110.798 24.0494 111.066C24.0494 111.158 24.0494 111.229 24.0767 111.278C24.1039 111.327 24.093 111.349 24.0985 111.344Z"
            fill="#263238" />
        <path d="M22.2441 98.0159L31.2858 109.217L39.3841 114.3L23.6729 94.4875L22.2441 98.0159Z"
            fill="#EBEBEB" />
        <path
            d="M14.244 105.16C14.244 105.16 12.3462 108.148 12.0626 111.202C11.9426 112.396 14.9202 134.826 15.2528 135.835C15.5855 136.844 19.5446 139.363 20.7062 139.87C21.8678 140.378 36.2592 145.166 42.1434 145.084L43.4031 133.986L28.27 131.461C28.27 131.461 26.5031 129.782 25.5815 129.444L24.3163 117.086L22.4676 107.167C22.4676 107.167 17.1997 103.905 14.244 105.16Z"
            fill="#EBEBEB" />
        <path
            d="M48.2512 118.591C48.1749 118.591 47.3623 115.319 46.4352 111.262C45.5082 107.205 44.7992 103.889 44.8919 103.873C44.9847 103.856 45.7808 107.145 46.7134 111.196C47.6459 115.248 48.3276 118.569 48.2512 118.591Z"
            fill="#263238" />
        <path
            d="M23.5747 115.99C23.5747 115.99 23.5747 116.066 23.6183 116.219C23.662 116.372 23.6892 116.612 23.7383 116.906C23.8365 117.523 23.9783 118.411 24.1582 119.562C24.5127 121.885 25.0308 125.244 25.6743 129.427L25.6143 129.356C26.1219 129.586 26.5954 129.886 27.0213 130.245C27.4684 130.6 27.9047 130.981 28.341 131.385L28.2864 131.358L43.425 133.855H43.5449V133.975C43.1523 137.444 42.7324 141.185 42.2907 145.073V145.204H42.1652C39.351 145.071 36.5592 144.635 33.838 143.906C30.3478 143.072 26.9885 142.074 23.7656 141.043C22.9639 140.781 22.1678 140.498 21.3825 140.241C20.597 139.971 19.8478 139.605 19.152 139.151C18.4595 138.725 17.7833 138.278 17.1398 137.809C16.4806 137.358 15.8798 136.826 15.351 136.228C15.2161 136.073 15.1273 135.884 15.0947 135.682C15.0457 135.48 15.0129 135.295 14.9857 135.104C14.9202 134.722 14.8602 134.346 14.8003 133.975C14.6912 133.223 14.5821 132.487 14.4731 131.756L13.8841 127.519C13.5133 124.792 13.1806 122.229 12.8916 119.884C12.6026 117.539 12.3462 115.445 12.1663 113.585C12.1226 113.122 12.0681 112.674 12.0409 112.238C11.9864 111.82 11.9864 111.397 12.0409 110.978C12.1593 110.256 12.3306 109.543 12.5535 108.846C12.8567 107.881 13.2492 106.946 13.7259 106.054C13.8841 105.749 14.0259 105.509 14.1186 105.372C14.163 105.295 14.2141 105.222 14.2713 105.154L14.1404 105.389C14.0586 105.541 13.9277 105.771 13.775 106.081C13.3242 106.981 12.9502 107.917 12.6571 108.879C12.4445 109.573 12.2823 110.282 12.1717 111C12.123 111.408 12.123 111.82 12.1717 112.227C12.2045 112.658 12.259 113.105 12.3081 113.569C12.5098 115.423 12.7771 117.528 13.077 119.857C13.3769 122.185 13.7314 124.765 14.1022 127.491C14.2949 128.858 14.4949 130.271 14.7021 131.729C14.8112 132.454 14.9257 133.19 15.0402 133.937L15.2202 135.066C15.2529 135.251 15.2856 135.442 15.3292 135.611C15.3519 135.787 15.4259 135.952 15.5419 136.086C16.0571 136.662 16.6414 137.173 17.2815 137.607C17.9196 138.076 18.5903 138.518 19.2775 138.938C19.9573 139.389 20.6899 139.755 21.4588 140.029C22.2386 140.301 23.0348 140.574 23.8365 140.825C27.054 141.85 30.3805 142.842 33.887 143.677C36.5858 144.398 39.3534 144.831 42.1434 144.969L42.0071 145.095C42.4543 141.206 42.8796 137.46 43.2777 133.997L43.3868 134.139L28.2537 131.565H28.221C27.7902 131.161 27.3594 130.78 26.9176 130.431C26.5103 130.082 26.0571 129.79 25.5707 129.564L25.5161 129.536V129.487C24.9108 125.294 24.4254 121.929 24.0873 119.6C23.9292 118.455 23.8038 117.561 23.7165 116.944C23.6783 116.65 23.6511 116.399 23.6293 116.252C23.6048 116.166 23.5866 116.079 23.5747 115.99Z"
            fill="#263238" />
        <path
            d="M22.6803 112.658C22.4116 112.229 22.1782 111.778 21.9823 111.311C21.4776 110.211 20.8442 109.175 20.0954 108.225C19.3324 107.293 18.3347 106.581 17.2052 106.163C16.726 106.024 16.2376 105.918 15.7437 105.847C15.8755 105.804 16.0148 105.79 16.1527 105.803C16.5314 105.806 16.9079 105.863 17.2706 105.972C18.4647 106.35 19.5211 107.071 20.3081 108.045C21.0806 109.007 21.7072 110.079 22.1677 111.224C22.3879 111.683 22.5597 112.164 22.6803 112.658Z"
            fill="#263238" />
        <path
            d="M20.2588 131.505C20.8918 130.754 21.7053 130.175 22.6229 129.824C23.5404 129.473 24.5321 129.361 25.5049 129.498C24.5594 129.594 23.6269 129.791 22.7237 130.087C21.8555 130.474 21.0295 130.949 20.2588 131.505Z"
            fill="#263238" />
        <path
            d="M21.9771 133.261C22.2364 132.362 22.7159 131.543 23.3719 130.876C24.028 130.21 24.84 129.717 25.7344 129.444C24.9559 129.917 24.2254 130.465 23.5531 131.08C22.9622 131.757 22.4347 132.487 21.9771 133.261Z"
            fill="#263238" />
        <path
            d="M39.3839 114.3C39.1646 114.207 38.9546 114.094 38.7568 113.962L37.0553 112.942L31.2148 109.332L28.4881 105.978C25.9905 102.881 23.7491 100.077 22.1949 98.1088L22.1567 98.0597V98.0107L23.2474 95.4421L23.5528 94.755C23.5821 94.6707 23.6244 94.5916 23.6782 94.5205C23.6638 94.6088 23.6381 94.695 23.6019 94.7768C23.5364 94.9677 23.4492 95.1967 23.3456 95.4803C23.0947 96.1347 22.7566 97.0072 22.3367 98.0816V97.9834C23.9291 99.9193 26.1977 102.701 28.7008 105.804L31.4275 109.163L31.3947 109.136L37.1862 112.827L38.8222 113.918C39.019 114.031 39.2068 114.158 39.3839 114.3Z"
            fill="#263238" />
        <path
            d="M40.7038 116.405C40.7028 116.16 40.7228 115.915 40.7638 115.674C40.8292 115.161 40.911 114.496 41.0147 113.689C41.2382 112.009 41.56 109.67 41.9526 107.036V107.123C41.7836 106.807 41.5982 106.469 41.4073 106.125C40.0221 103.551 38.7788 101.217 37.8953 99.5101L36.8646 97.4924C36.7281 97.2495 36.6114 96.996 36.5156 96.7344C36.6845 96.9545 36.8324 97.1901 36.9573 97.4379L38.0753 99.4174C39.0024 101.092 40.2566 103.415 41.6527 105.961C41.8381 106.305 42.0181 106.643 42.198 106.959V107.003V107.052C41.7999 109.681 41.4346 112.015 41.1619 113.689C41.0256 114.491 40.911 115.15 40.8238 115.663C40.812 115.914 40.7717 116.163 40.7038 116.405Z"
            fill="#263238" />
        <path
            d="M24.12 106.692L24.5835 106.409L24.1145 106.692C23.3403 105.473 22.6603 104.197 22.0804 102.875L21.9822 102.64C21.4369 101.304 20.8043 99.7936 21.0715 98.3266V98.2994C21.2068 97.6557 21.5591 97.0782 22.0695 96.6634L22.2167 96.5325H22.653V97.3777L22.7512 97.4923L22.653 97.585V97.6231C22.4043 97.8652 22.2351 98.1771 22.1676 98.5175V98.5448C21.9713 99.69 22.5276 101.037 23.0184 102.226L23.1165 102.46C23.6755 103.724 24.3319 104.942 25.0797 106.103L24.12 106.692Z"
            fill="#263238" />
        <path
            d="M44.0631 139.93C44.1035 140.064 44.1291 140.201 44.1394 140.339C44.1776 140.634 44.2321 141.027 44.2975 141.517C44.4339 142.543 44.6138 144.026 44.8429 145.88C45.2628 149.55 45.7809 154.605 46.2553 160.244C46.7297 165.883 47.0678 170.955 47.2751 174.641C47.3732 176.484 47.4496 177.979 47.4878 179.004C47.4878 179.5 47.515 179.893 47.5259 180.193C47.5391 180.33 47.5391 180.469 47.5259 180.607C47.496 180.473 47.4795 180.336 47.4768 180.198C47.4768 179.898 47.4223 179.505 47.3841 179.009C47.3078 177.951 47.2042 176.468 47.0788 174.647C46.8225 170.966 46.4516 165.878 45.9881 160.261C45.5246 154.644 45.0119 149.561 44.6193 145.88C44.4393 144.064 44.2975 142.608 44.1885 141.517C44.1448 141.027 44.1121 140.634 44.0849 140.334C44.0695 140.2 44.0622 140.065 44.0631 139.93Z"
            fill="#263238" />
        <path
            d="M37.0662 152.724C37.0662 152.724 36.9463 152.866 36.7009 153.079C36.4555 153.291 36.0846 153.597 35.6102 153.957C34.4116 154.912 33.1469 155.781 31.8256 156.558C31.0904 156.98 30.329 157.356 29.5461 157.681C28.9058 157.939 28.2479 158.15 27.5774 158.314C27.1243 158.428 26.663 158.506 26.1977 158.548C26.028 158.577 25.8548 158.577 25.6851 158.548C25.6851 158.499 26.4049 158.417 27.5228 158.101C28.1789 157.917 28.8219 157.689 29.4479 157.419C30.2129 157.086 30.9592 156.711 31.6838 156.296C33.2216 155.407 34.5359 154.458 35.5011 153.782C35.9979 153.394 36.5209 153.04 37.0662 152.724Z"
            fill="#263238" />
        <path
            d="M37.9226 154.851C37.8461 155.01 37.7469 155.157 37.6281 155.287C37.3397 155.672 37.0245 156.037 36.6847 156.378C34.4462 158.675 31.5466 160.218 28.3901 160.789C27.9185 160.881 27.4411 160.939 26.9614 160.964C26.7803 160.987 26.5971 160.987 26.416 160.964C26.416 160.909 27.1577 160.855 28.3356 160.593C29.8683 160.25 31.3471 159.7 32.731 158.957C34.1198 158.223 35.4037 157.306 36.5484 156.23C37.3773 155.407 37.8626 154.818 37.9226 154.851Z"
            fill="#263238" />
        <path
            d="M26.247 161.16C26.0575 160.685 25.9577 160.178 25.9526 159.666C25.855 159.164 25.855 158.647 25.9526 158.145C26.2423 159.122 26.3459 160.145 26.2579 161.16H26.247Z"
            fill="#263238" />
        <path
            d="M24.9378 88.8869C24.737 88.8806 24.5421 88.8172 24.376 88.7042C24.2099 88.5912 24.0794 88.4333 23.9998 88.2488C23.8246 87.863 23.7176 87.4497 23.6835 87.0273C23.4272 85.1731 23.1763 83.3135 22.92 81.454C22.6576 79.8844 22.5281 78.2954 22.5328 76.7041C22.6604 75.1618 23.1398 73.6693 23.9344 72.3414C24.7742 70.7054 28.1771 67.8751 33.8213 69.4729"
            fill="#263238" />
        <path
            d="M24.6487 82.201C24.5724 82.201 21.633 81.3721 21.7803 84.3823C21.9275 87.3926 24.8996 86.6018 24.8996 86.5146C24.8996 86.4273 24.6487 82.201 24.6487 82.201Z"
            fill="#FFBE9D" />
        <path
            d="M23.9289 85.4022C23.9289 85.4022 23.8798 85.4404 23.7926 85.484C23.6719 85.5421 23.5341 85.5538 23.4054 85.5168C23.2067 85.4027 23.0416 85.2383 22.9268 85.0401C22.8119 84.8419 22.7512 84.617 22.751 84.3879C22.73 84.1338 22.7673 83.8783 22.8601 83.6408C22.8826 83.5457 22.9282 83.4577 22.9929 83.3844C23.0576 83.3112 23.1393 83.255 23.2309 83.2209C23.29 83.2018 23.3538 83.2039 23.4116 83.2267C23.4693 83.2496 23.5173 83.2919 23.5472 83.3463C23.5908 83.4281 23.5744 83.4881 23.5908 83.4936C23.6072 83.499 23.6508 83.439 23.5908 83.319C23.5832 83.2821 23.5682 83.2471 23.5466 83.2162C23.525 83.1852 23.4974 83.159 23.4654 83.1391C23.3813 83.0804 23.2775 83.0569 23.1763 83.0736C23.0509 83.1016 22.9348 83.1615 22.8393 83.2475C22.7438 83.3335 22.672 83.4426 22.631 83.5644C22.5203 83.8298 22.4736 84.1175 22.4947 84.4043C22.4935 84.6711 22.571 84.9324 22.7174 85.1555C22.8639 85.3785 23.0728 85.5535 23.3181 85.6585C23.4 85.6764 23.4848 85.6763 23.5666 85.6584C23.6485 85.6406 23.7256 85.6053 23.7926 85.5549C23.9289 85.4731 23.9398 85.4077 23.9289 85.4022Z"
            fill="#EB996E" />
        <path
            d="M39.9892 87.7525C39.9892 85.642 39.5966 81.3011 39.2094 77.3911C39.0069 75.3555 38.0457 73.4708 36.5169 72.1117C34.9881 70.7526 33.0037 70.0189 30.9584 70.0563H30.5385C25.9959 70.4053 23.76 74.4517 24.2344 78.9835L24.8725 93.424L35.6974 99.3627L35.6592 92.8895C35.6592 92.8895 40.0165 92.1206 39.9892 87.7525Z"
            fill="#FFBE9D" />
        <path
            d="M35.6649 92.8787C33.6502 92.9556 31.6584 92.4296 29.9443 91.3682C29.9443 91.3682 31.3186 94.5311 35.6704 94.0621L35.6649 92.8787Z"
            fill="#EB996E" />
        <path
            d="M37.7641 80.238C37.7686 80.4001 37.7095 80.5576 37.5995 80.6769C37.4894 80.7961 37.3372 80.8675 37.1752 80.876C37.0962 80.8843 37.0163 80.8766 36.9404 80.8535C36.8644 80.8304 36.7939 80.7923 36.7329 80.7415C36.6719 80.6906 36.6217 80.6281 36.5852 80.5575C36.5488 80.487 36.5269 80.4098 36.5207 80.3307C36.5163 80.1685 36.5753 80.011 36.6854 79.8918C36.7954 79.7726 36.9477 79.7011 37.1097 79.6926C37.1886 79.6851 37.2681 79.6933 37.3437 79.7167C37.4194 79.7401 37.4897 79.7783 37.5505 79.829C37.6114 79.8797 37.6615 79.9419 37.6982 80.0121C37.7349 80.0823 37.7573 80.1591 37.7641 80.238Z"
            fill="#263238" />
        <path
            d="M38.3698 79.2998C38.2935 79.3816 37.8245 79.038 37.1428 79.0544C36.4611 79.0708 35.9867 79.4143 35.9104 79.3325C35.834 79.2507 35.954 79.1471 36.1612 78.989C36.4496 78.7834 36.7941 78.6712 37.1483 78.6672C37.4967 78.6589 37.8387 78.7621 38.1244 78.9617C38.3371 79.1144 38.408 79.2616 38.3698 79.2998Z"
            fill="#263238" />
        <path
            d="M31.2369 80.3742C31.2428 80.5368 31.1842 80.6951 31.0738 80.8146C30.9635 80.9341 30.8104 81.0052 30.6479 81.0123C30.5692 81.0205 30.4897 81.0128 30.414 80.9897C30.3384 80.9665 30.2682 80.9283 30.2076 80.8774C30.147 80.8265 30.0974 80.7639 30.0615 80.6934C30.0256 80.6229 30.0044 80.5459 29.9989 80.4669C29.993 80.3044 30.0516 80.1461 30.162 80.0266C30.2723 79.907 30.4254 79.836 30.5879 79.8289C30.6666 79.8206 30.7461 79.8283 30.8218 79.8515C30.8974 79.8747 30.9676 79.9128 31.0282 79.9637C31.0888 80.0146 31.1384 80.0772 31.1743 80.1477C31.2101 80.2183 31.2314 80.2953 31.2369 80.3742Z"
            fill="#263238" />
        <path
            d="M31.6784 79.2124C31.613 79.2997 31.1003 79.0161 30.435 79.1034C29.7697 79.1906 29.3444 79.5833 29.2407 79.5124C29.1371 79.4415 29.2407 79.327 29.4534 79.1415C29.7151 78.9037 30.0454 78.7548 30.3969 78.7162C30.7426 78.6694 31.0941 78.7344 31.4003 78.9016C31.6239 79.0543 31.7111 79.2124 31.6784 79.2124Z"
            fill="#263238" />
        <path
            d="M34.2412 84.7096C34.594 84.5906 34.9605 84.5173 35.3319 84.4914C35.5064 84.4914 35.6645 84.4369 35.6918 84.3169C35.7028 84.139 35.659 83.962 35.5664 83.8098L35.021 82.5173C34.53 81.4191 34.1288 80.2829 33.8213 79.1199C34.3943 80.1717 34.8865 81.2655 35.2937 82.3919C35.4682 82.85 35.6372 83.2808 35.8008 83.6952C35.914 83.9014 35.9507 84.1409 35.9045 84.3715C35.8807 84.432 35.8432 84.4861 35.7949 84.5296C35.7467 84.5731 35.689 84.6049 35.6264 84.6223C35.5328 84.6524 35.4355 84.6689 35.3373 84.6714C34.975 84.7302 34.6067 84.743 34.2412 84.7096Z"
            fill="#263238" />
        <path
            d="M32.273 85.2114C32.382 85.2114 32.3984 85.9313 33.031 86.433C33.6636 86.9347 34.438 86.8474 34.4489 86.9511C34.4598 87.0547 34.2744 87.0928 33.9471 87.1092C33.5211 87.1233 33.1038 86.9861 32.7692 86.722C32.4474 86.4672 32.2364 86.098 32.1803 85.6913C32.1475 85.3859 32.2239 85.2114 32.273 85.2114Z"
            fill="#263238" />
        <path
            d="M31.7164 76.3386C31.6564 76.5185 30.9802 76.4477 30.1949 76.5567C29.4096 76.6658 28.777 76.8894 28.668 76.7312C28.5589 76.5731 28.7279 76.4804 28.9843 76.295C29.3206 76.0697 29.7056 75.9276 30.1077 75.8805C30.5092 75.8245 30.9183 75.8637 31.3019 75.995C31.5964 76.1095 31.7437 76.2513 31.7164 76.3386Z"
            fill="#263238" />
        <path
            d="M38.026 77.5766C37.9115 77.7293 37.448 77.5766 36.8917 77.5766C36.3355 77.5766 35.8665 77.6966 35.752 77.5439C35.6374 77.3912 35.752 77.3094 35.981 77.1622C36.2507 76.9789 36.5713 76.8854 36.8972 76.895C37.2234 76.8944 37.5417 76.9954 37.8079 77.184C38.0097 77.3585 38.0751 77.5166 38.026 77.5766Z"
            fill="#263238" />
        <path
            d="M34.1541 69.5766C32.6108 68.9659 31.0457 69.2876 29.4042 69.5276C28.1399 69.6872 26.937 70.1657 25.9086 70.9182C25.1141 71.5428 24.4702 72.3382 24.0247 73.2453C23.5791 74.1525 23.3433 75.1482 23.3346 76.1588C23.2473 78.1437 23.4662 80.1302 23.9835 82.0485L24.1471 82.0103C23.9995 82.5036 23.9901 83.028 24.1199 83.5263C24.1945 83.7722 24.3625 83.9789 24.5878 84.1023C24.8131 84.2257 25.0778 84.2558 25.3251 84.1862C25.8704 83.9462 25.8704 83.1882 25.8704 82.5884C25.7286 80.5695 25.7286 78.5431 25.8704 76.5242C25.9577 75.0191 26.8138 73.1704 27.9918 72.456C30.1349 71.0272 32.9271 72.1942 33.8705 72.3578C35.3265 71.1145 36.6844 72.0852 37.5679 73.165C37.1971 71.5398 35.6974 70.182 34.1541 69.5766Z"
            fill="#263238" />
        <path
            d="M33.8217 72.3577C34.7815 72.3577 35.5449 71.7142 36.6083 71.8887C37.2518 71.9923 37.9008 73.0448 38.4625 74.3536C38.7847 74.1593 39.0417 73.8733 39.2006 73.5322C39.3595 73.1912 39.4131 72.8104 39.3546 72.4387C39.2961 72.067 39.128 71.7212 38.872 71.4455C38.616 71.1697 38.2835 70.9766 37.9171 70.8907C38.1718 71.0556 38.465 71.1514 38.7679 71.1688C38.9183 71.1707 39.0639 71.1155 39.1752 71.0143C39.2865 70.9131 39.3553 70.7734 39.3677 70.6235C39.3504 70.5128 39.3098 70.407 39.2487 70.313C39.1876 70.219 39.1074 70.139 39.0133 70.0782C38.0452 69.3114 36.8125 68.96 35.5856 69.1011C34.3588 69.2422 33.238 69.8642 32.4692 70.8307"
            fill="#263238" />
        <path
            d="M38.7515 70.5525C38.7515 70.5907 38.4407 70.3889 37.9226 70.2253C37.2578 70.0113 36.5425 70.0113 35.8776 70.2253C35.2143 70.4644 34.6423 70.9048 34.2416 71.4851C33.9362 71.9322 33.8435 72.2649 33.7944 72.254C33.8003 71.9423 33.897 71.6391 34.0726 71.3814C34.4437 70.7158 35.0465 70.2097 35.7664 69.9593C36.4863 69.709 37.273 69.7318 37.9772 70.0236C38.528 70.258 38.7734 70.5307 38.7515 70.5525Z"
            fill="#455A64" />
        <path
            d="M38.5497 73.8411C38.596 73.5046 38.596 73.1633 38.5497 72.8268C38.4713 72.4738 38.3064 72.1459 38.0698 71.8724C37.7769 71.5515 37.3986 71.3207 36.9791 71.2071C36.5838 71.1141 36.1738 71.102 35.7737 71.1713C35.3735 71.2406 34.9915 71.3901 34.6506 71.6107C34.1052 71.9488 33.8435 72.2542 33.8107 72.2215C33.778 72.1887 34.0016 71.8452 34.5415 71.4471C34.8603 71.2137 35.2187 71.0401 35.5994 70.9345C36.0748 70.809 36.5746 70.809 37.05 70.9345C37.5321 71.0569 37.9645 71.3255 38.288 71.7034C38.5441 72.016 38.7083 72.3936 38.7624 72.7941C38.8029 72.9737 38.8049 73.1599 38.7683 73.3404C38.7316 73.5209 38.6571 73.6915 38.5497 73.8411Z"
            fill="#455A64" />
        <path
            d="M23.0134 81.0286C23.0134 81.0286 22.948 80.8922 22.8989 80.6305C22.829 80.2602 22.7961 79.8839 22.8007 79.5071C22.7968 78.2523 23.1081 77.0165 23.706 75.9133C24.3058 74.8107 25.1696 73.8739 26.22 73.1866C26.5332 72.9745 26.8655 72.792 27.2125 72.6413C27.3354 72.5732 27.4708 72.5305 27.6106 72.5159C27.6106 72.5595 27.0652 72.7885 26.329 73.3393C25.3414 74.0453 24.5279 74.9673 23.9505 76.0352C23.3731 77.1031 23.047 78.2887 22.997 79.5016C22.9534 80.4451 23.0625 81.0231 23.0134 81.0286Z"
            fill="#455A64" />
        <path
            d="M23.6786 81.5793C23.4886 80.4834 23.5729 79.3576 23.924 78.3023C24.2752 77.247 24.8822 76.295 25.6909 75.5315C25.0824 76.4229 24.5792 77.3819 24.1912 78.3891C23.8971 79.429 23.725 80.4996 23.6786 81.5793Z"
            fill="#455A64" />
        <path
            d="M73.0368 106.545C72.9113 106.212 72.2788 106.141 72.2788 106.141L72.4042 105.951C72.4943 105.818 72.5478 105.664 72.5593 105.504C72.5708 105.344 72.5398 105.184 72.4696 105.04L72.3987 104.904C72.2161 104.652 71.9613 104.462 71.668 104.358C71.668 104.358 72.1315 103.726 72.017 103.415C71.8884 103.151 71.6847 102.931 71.4315 102.782C71.1782 102.634 70.8867 102.564 70.5937 102.58C69.5836 102.805 68.5904 103.1 67.6216 103.464C67.5323 103.497 67.4368 103.511 67.3417 103.504C67.2466 103.497 67.1542 103.47 67.0708 103.423C66.9873 103.377 66.9149 103.314 66.8584 103.237C66.8019 103.16 66.7627 103.072 66.7436 102.979C66.5679 102.026 66.2459 101.106 65.7893 100.252C65.2439 99.3357 64.6059 99.303 64.2187 99.3902C64.175 99.3996 64.134 99.4185 64.0984 99.4455C64.0628 99.4725 64.0336 99.507 64.0128 99.5465C63.992 99.586 63.9802 99.6296 63.978 99.6742C63.9759 99.7188 63.9836 99.7633 64.0005 99.8047C64.272 100.429 64.5033 101.07 64.6931 101.724C64.7967 102.215 64.4423 105.765 64.4423 105.765L62.6372 108.192L66.7272 114.098L68.5268 111.426L72.3824 109.73C72.3824 109.73 73.1131 108.808 73.0368 108.492C72.9703 108.285 72.8358 108.106 72.655 107.985L73.1349 107.314C73.1513 107.054 73.118 106.793 73.0368 106.545Z"
            fill="#FFBE9D" />
        <path
            d="M72.0117 104.456L71.9353 104.505L71.6954 104.642L70.8174 105.132L69.5086 105.841C69.2577 105.972 69.0069 106.125 68.7178 106.245C68.571 106.32 68.4084 106.359 68.2434 106.359C68.0784 106.359 67.9158 106.32 67.769 106.245C67.6244 106.149 67.5197 106.003 67.4745 105.836C67.4362 105.676 67.4362 105.51 67.4745 105.35C67.5507 105.055 67.7259 104.796 67.9707 104.614C68.1822 104.448 68.4065 104.298 68.6415 104.167L69.2359 103.813L70.103 103.3L70.3429 103.169L70.4247 103.125C70.4247 103.125 70.4247 103.125 70.3484 103.185L70.1194 103.333L69.2686 103.878L68.6797 104.243C68.4517 104.375 68.233 104.523 68.0253 104.685C67.7987 104.861 67.6359 105.106 67.5617 105.383C67.52 105.527 67.5226 105.68 67.5693 105.822C67.6161 105.964 67.7046 106.089 67.8235 106.179C67.953 106.258 68.1026 106.298 68.2543 106.294C68.4043 106.287 68.5519 106.253 68.6906 106.196C68.9687 106.081 69.2359 105.929 69.4704 105.803L70.7901 105.105L71.6845 104.647L71.9299 104.522L72.0117 104.456Z"
            fill="#EB996E" />
        <path
            d="M72.5353 106.229C72.4787 106.273 72.4163 106.31 72.3499 106.338C72.2299 106.403 72.0554 106.496 71.8318 106.599C71.3901 106.818 70.7739 107.096 70.0758 107.374C69.9077 107.448 69.7346 107.51 69.5578 107.559C69.3794 107.609 69.1908 107.609 69.0124 107.559C68.8657 107.518 68.7335 107.437 68.6312 107.324C68.5289 107.211 68.4607 107.071 68.4344 106.921C68.4088 106.729 68.4576 106.534 68.5707 106.376C68.5985 106.33 68.6335 106.29 68.6743 106.256L68.7234 106.223C68.7234 106.223 68.6689 106.278 68.598 106.392C68.4987 106.555 68.4619 106.749 68.4944 106.938C68.5281 107.069 68.5966 107.189 68.6925 107.285C68.7884 107.381 68.9083 107.449 69.0397 107.483C69.199 107.523 69.3658 107.523 69.5251 107.483C69.6887 107.439 69.8577 107.363 70.0322 107.297C70.7248 107.019 71.3465 106.752 71.7936 106.55L72.339 106.31C72.4011 106.276 72.4669 106.248 72.5353 106.229Z"
            fill="#EB996E" />
        <path
            d="M72.7367 107.908C72.6809 107.941 72.6202 107.965 72.5568 107.979L72.0441 108.148L70.3427 108.661C70.1736 108.704 70.0155 108.759 69.8464 108.786C69.6849 108.822 69.5164 108.811 69.3611 108.753C69.289 108.726 69.2235 108.684 69.169 108.629C69.1145 108.575 69.0722 108.509 69.0448 108.437C69.004 108.311 69.004 108.176 69.0448 108.05C69.1117 107.875 69.2369 107.729 69.3993 107.636C69.4538 107.598 69.5147 107.57 69.5792 107.554C69.5283 107.593 69.4756 107.629 69.4211 107.663C69.2775 107.764 69.1689 107.906 69.1102 108.072C69.0732 108.183 69.0732 108.304 69.1102 108.415C69.1344 108.476 69.1719 108.531 69.2201 108.575C69.2682 108.62 69.3257 108.653 69.3884 108.672C69.5326 108.713 69.6858 108.713 69.8301 108.672C69.9828 108.672 70.1464 108.59 70.31 108.546C70.9753 108.35 71.5806 108.175 72.0169 108.061L72.5622 107.919L72.7367 107.908Z"
            fill="#EB996E" />
        <path
            d="M72.7584 109.446C72.5654 109.479 72.3705 109.499 72.1749 109.506L70.7733 109.583H70.3698C70.2431 109.599 70.1148 109.599 69.9881 109.583C69.8685 109.562 69.7592 109.503 69.6772 109.413C69.6401 109.373 69.6133 109.324 69.5991 109.271C69.5849 109.218 69.5836 109.162 69.5954 109.108C69.613 109.035 69.6466 108.967 69.6937 108.908C69.7409 108.85 69.8004 108.803 69.8681 108.77C69.9137 108.742 69.9671 108.728 70.0208 108.732C69.9737 108.752 69.9282 108.776 69.8844 108.803C69.8266 108.837 69.7765 108.883 69.7371 108.937C69.6977 108.991 69.6699 109.053 69.6554 109.119C69.6495 109.163 69.6533 109.208 69.6665 109.25C69.6797 109.292 69.702 109.331 69.7317 109.364C69.8047 109.439 69.9008 109.487 70.0044 109.501C70.1258 109.514 70.2484 109.514 70.3698 109.501H70.7679C71.3132 109.501 71.8149 109.457 72.1749 109.452C72.3689 109.434 72.564 109.432 72.7584 109.446Z"
            fill="#EB996E" />
        <path
            d="M69.0614 108.115C68.7432 107.998 68.4145 107.912 68.0797 107.859C67.741 107.84 67.4012 107.854 67.0654 107.903C67.3916 107.78 67.742 107.735 68.0887 107.772C68.4353 107.809 68.7684 107.926 69.0614 108.115Z"
            fill="#EB996E" />
        <path
            d="M43.3268 134.635L44.1776 134.417C44.1776 134.417 44.472 132.994 44.8483 132.694C45.2246 132.394 48.9711 130.687 49.7945 130.24C50.618 129.793 53.8355 128.326 54.239 129.1C54.6971 129.983 53.3828 130.736 52.6739 131.047C51.965 131.358 49.9472 132.17 50.3453 132.656C50.7434 133.141 55.2915 132.923 55.2915 132.923L55.8369 132.159C55.8369 132.159 56.8348 133.103 56.7203 133.926C56.6634 134.401 56.5113 134.859 56.2731 135.273H55.935C56.0304 135.417 56.0845 135.584 56.0912 135.756C56.0979 135.928 56.0571 136.099 55.9732 136.249C55.7051 136.645 55.406 137.019 55.0788 137.367C54.8483 137.759 54.5402 138.099 54.1736 138.367C53.8069 138.635 53.3894 138.826 52.9466 138.927C52.7557 138.976 45.2737 139.63 45.2737 139.63L42.7651 139.881L43.3268 134.635Z"
            fill="#FFBE9D" />
    </g>
    <defs>
        <clipPath id="clip0_5116_23969">
            <rect width="253" height="266" fill="white" />
        </clipPath>
    </defs>
</svg>
