<svg width="161" height="161" viewBox="0 0 161 161" fill="none" xmlns="http://www.w3.org/2000/svg">
    <path
        d="M86.6927 19.0626V57.5439C86.6927 60.9498 83.9062 63.7364 80.5002 63.7364C77.0943 63.7364 74.3077 60.9498 74.3077 57.5439V19.0626C74.3077 15.6567 77.0943 12.8701 80.5002 12.8701C83.9062 12.8701 86.6927 15.6567 86.6927 19.0626ZM115.364 51.2639C117.782 53.682 121.703 53.6823 124.121 51.2642L139.929 35.4561C142.347 33.0379 142.347 29.117 139.929 26.6989C137.511 24.2807 133.59 24.2807 131.172 26.6989L115.364 42.507C112.946 44.9251 112.946 48.8461 115.364 51.2639ZM45.6384 51.2642C48.0565 48.8461 48.0568 44.9254 45.6387 42.5073L29.8305 26.6992C27.4124 24.2811 23.4915 24.2811 21.0734 26.6992C18.6552 29.1173 18.6552 33.0382 21.0734 35.4564L36.8815 51.2645C39.2996 53.6823 43.2202 53.6823 45.6384 51.2642ZM126.571 151.444C128.979 149.036 128.979 145.095 126.571 142.687L99.3605 115.476C96.9524 113.068 93.0115 113.068 90.6034 115.476C88.1952 117.884 88.1952 121.825 90.6034 124.234L117.814 151.444C120.222 153.852 124.163 153.852 126.571 151.444ZM43.1868 151.444L70.3971 124.234C72.8052 121.825 72.8052 117.884 70.3971 115.476C67.989 113.068 64.048 113.068 61.6399 115.476L34.4296 142.687C32.0215 145.095 32.0215 149.036 34.4296 151.444C36.8377 153.852 40.7787 153.852 43.1868 151.444Z"
        fill="#6B8DA1" />
    <path
        d="M111.225 14.9033C122.512 5.22392 139.525 5.72079 150.215 16.4105C160.915 27.1111 161.402 44.148 151.692 55.4352C151.263 55.7373 150.756 55.9098 150.232 55.9322C149.708 55.9547 149.189 55.8261 148.736 55.5617L111.071 17.8967C110.802 17.4369 110.674 16.9087 110.701 16.377C110.729 15.8454 110.911 15.3332 111.225 14.9033ZM12.2714 55.5567L49.9365 17.8917C50.2009 17.4387 50.3295 16.9191 50.3071 16.395C50.2846 15.8709 50.1121 15.3643 49.8099 14.9355C38.5224 5.22516 21.4858 5.71204 10.7852 16.4127C0.0958233 27.1024 -0.401051 44.1152 9.27832 55.4027C9.70813 55.7168 10.2203 55.8987 10.7519 55.9261C11.2836 55.9534 11.8117 55.8251 12.2714 55.5567Z"
        fill="#FFB636" />
    <path
        d="M149.722 34.5422C148.344 34.5422 147.102 33.5872 146.792 32.1856C146.124 29.1644 144.633 26.3797 142.477 24.1319C140.327 21.8894 137.615 20.2825 134.634 19.4847C133.032 19.0559 132.08 17.4087 132.509 15.8062C132.938 14.2037 134.585 13.2522 136.187 13.6809C140.229 14.7625 143.904 16.9387 146.814 19.9737C149.732 23.0172 151.753 26.7919 152.658 30.8897C153.016 32.5097 151.993 34.1128 150.373 34.4709C150.159 34.5182 149.941 34.5421 149.722 34.5422ZM13.8591 31.994C14.657 29.0131 16.2638 26.3009 18.5063 24.1509C20.7541 21.9956 23.5391 20.5037 26.5601 19.8362C28.1801 19.4784 29.2032 17.875 28.8454 16.255C28.4876 14.635 26.8842 13.6119 25.2642 13.9697C21.1667 14.875 17.392 16.8959 14.3482 19.814C11.3129 22.7244 9.13696 26.3987 8.0554 30.4406C7.93615 30.8858 7.92096 31.3525 8.01099 31.8046C8.10102 32.2566 8.29387 32.6819 8.5746 33.0475C8.85534 33.413 9.21642 33.7091 9.62992 33.9127C10.0434 34.1164 10.4982 34.2222 10.9592 34.2219C12.2857 34.2222 13.4998 33.3365 13.8591 31.994Z"
        fill="#FFD469" />
    <path
        d="M80.5002 20.748C43.9342 20.748 14.293 50.3893 14.293 86.9552C14.293 123.521 43.9342 153.165 80.5002 153.165C117.066 153.165 146.707 123.521 146.707 86.9552C146.707 50.3893 117.066 20.748 80.5002 20.748Z"
        fill="#18C0B3" />
    <path
        d="M26.6768 86.9565C26.6768 116.636 50.8227 140.781 80.5014 140.781C110.18 140.781 134.323 116.635 134.323 86.9565C134.323 57.2778 110.18 33.1318 80.5014 33.1318C50.8227 33.1318 26.6768 57.2778 26.6768 86.9565Z"
        fill="#F9F9F8" />
    <path
        d="M80.4996 91.0788H118.991C120.9 91.0788 122.451 89.5288 122.451 87.6166C122.451 85.7072 120.9 84.1572 118.991 84.1572H80.4996C78.5874 84.1572 77.0371 85.7075 77.0371 87.6166C77.0371 89.5285 78.5874 91.0788 80.4996 91.0788Z"
        fill="#6B8DA1" />
    <path
        d="M80.4996 91.078C82.4118 91.078 83.9621 89.528 83.9621 87.6158V49.9508C83.9621 48.0386 82.4118 46.4883 80.4996 46.4883C78.5874 46.4883 77.0371 48.0386 77.0371 49.9508V87.6155C77.0371 89.5277 78.5874 91.078 80.4996 91.078Z"
        fill="#6B8DA1" />
</svg>
