<svg width="111" height="111" viewBox="0 0 111 111" fill="none" xmlns="http://www.w3.org/2000/svg">
    <circle cx="55" cy="54" r="54" fill="#FF960A" fill-opacity="0.8" />
    <path fill-rule="evenodd" clip-rule="evenodd"
        d="M19.2239 84.5451C41.0329 62.7408 62.7895 40.9888 84.5388 19.244C68.1815 5.21965 40.6845 4.03683 22.3746 22.2343C4.1959 40.3014 4.97943 67.8847 19.2239 84.5451ZM110.25 5.41549C109.998 5.74598 109.758 6.08735 109.517 6.42871C109.001 7.16071 108.485 7.89265 107.861 8.51706C74.7328 41.6756 41.5856 74.8156 8.42012 107.937C7.81266 108.544 7.0977 109.043 6.38273 109.542L6.38267 109.542C6.04951 109.774 5.71635 110.007 5.39407 110.25H3.24108C3.22558 110.234 3.21096 110.214 3.19636 110.195C3.16545 110.154 3.13458 110.113 3.09546 110.103C0.0100909 109.27 -1.20684 105.148 1.58535 102.509C3.8079 100.409 5.95823 98.2327 8.10861 96.0562L8.10868 96.0562L8.10919 96.0556C9.13625 95.0161 10.1633 93.9765 11.1983 92.9453C11.6482 92.497 12.1128 92.0635 12.574 91.6333L12.5746 91.6327C12.7846 91.4368 12.9939 91.2416 13.2007 91.0459C-6.06293 68.4187 -2.72968 37.2167 13.4471 19.0221C22.1636 9.21804 32.8872 2.90814 45.8506 0.809516C62.7015 -1.9187 77.7679 2.35728 91.0461 13.2311C91.1477 13.1145 91.2422 13.0022 91.3331 12.8943C91.5187 12.6738 91.6895 12.4709 91.8762 12.2838C92.4733 11.6856 93.0702 11.0873 93.6672 10.489L93.6681 10.4881C96.669 7.48038 99.67 4.47261 102.685 1.47879C105.164 -0.982405 108.681 -0.281856 110.031 2.91461C110.067 2.99961 110.122 3.07678 110.176 3.15399L110.176 3.15406C110.201 3.19008 110.226 3.22611 110.25 3.26295V5.41549ZM110.25 59.0167C110.16 59.6283 110.074 60.2406 109.988 60.8529L109.988 60.8531C109.801 62.1844 109.615 63.5158 109.383 64.839C108.054 72.416 105.18 79.3782 100.906 85.761C99.5529 87.7828 96.9445 88.2513 94.9272 86.9382C92.9684 85.6633 92.3836 83.0472 93.7252 80.9714C96.1666 77.1937 98.1781 73.2177 99.4875 68.9113C102.93 57.5919 102.269 46.5063 97.3391 35.7464C95.9038 32.614 97.5149 30.1459 99.4843 29.3659C101.609 28.5243 103.977 29.446 105 31.5961C107.067 35.9429 108.562 40.4835 109.374 45.2329C109.609 46.6095 109.798 47.994 109.987 49.3784C110.073 50.0083 110.16 50.6381 110.25 51.2671V59.0167ZM49.3928 109.987C50.0137 110.074 50.6347 110.16 51.255 110.25H59.0062C59.0931 110.228 59.1797 110.204 59.2663 110.18C59.452 110.128 59.6379 110.076 59.8271 110.046C60.7117 109.904 61.5997 109.778 62.4876 109.651C64.3618 109.384 66.2357 109.117 68.0779 108.706C73.5648 107.483 78.6923 105.304 83.5149 102.416C85.2412 101.382 85.9829 99.8192 85.6625 97.8653C85.3708 96.0852 84.2458 94.919 82.4947 94.4432C81.174 94.0841 79.9793 94.4482 78.8075 95.1265C68.7782 100.932 58.057 102.86 46.6309 100.823C42.8047 100.14 39.1638 98.9066 35.6125 97.3498C33.3054 96.3385 30.822 97.3274 29.854 99.5379C28.8972 101.723 29.8188 104.193 32.0564 105.225C36.2959 107.181 40.7078 108.617 45.3214 109.384C46.6745 109.608 48.0337 109.798 49.3928 109.987Z"
        fill="#435363" />
</svg>
