<svg width="218" height="218" viewBox="0 0 218 218" fill="none" xmlns="http://www.w3.org/2000/svg">
    <path
        d="M109.089 145.828C113.906 145.828 117.172 142.651 117.265 137.652L118.079 37.115C118.079 31.938 113.906 28.3962 109 28.3962C104.094 28.3962 99.917 31.938 99.917 37.115C100.281 70.6299 100.553 104.23 100.917 137.656C101.006 142.651 104.273 145.828 109.089 145.828ZM21.6304 102.684C23.3548 104.408 25.9006 104.319 27.532 102.595C44.2449 84.793 65.2241 73.6214 88.6563 69.6262L88.292 43.1987C55.959 48.2827 26.7183 64.8135 9.36988 85.4285C8.09888 86.8816 8.18801 88.8772 9.64113 90.4234L21.6304 102.684ZM190.646 102.684C192.192 104.23 194.645 104.23 196.459 102.413L208.355 90.4234C209.905 88.8811 209.905 86.8816 208.626 85.4246C191.282 64.8096 162.037 48.2827 129.708 43.2879L129.437 69.7154C152.776 73.8926 173.573 85.2464 190.646 102.684ZM57.9585 139.109C59.7759 141.015 62.1358 140.833 63.864 138.838C70.4011 131.661 79.302 125.849 89.1988 122.396L88.8384 94.8757C70.1299 99.0569 54.1455 108.954 44.1558 120.761C42.7918 122.307 42.9739 124.12 44.427 125.666L57.9585 139.109ZM154.318 139.109C156.046 140.922 158.224 140.833 160.131 138.927L173.573 125.666C175.026 124.213 175.208 122.307 173.844 120.761C163.855 108.954 147.87 99.0569 129.255 94.8757L128.983 122.578C138.88 126.12 147.777 132.025 154.318 139.109ZM109 189.6C116.719 189.6 122.803 183.338 122.803 175.708C122.819 173.891 122.474 172.088 121.786 170.406C121.098 168.724 120.082 167.195 118.797 165.91C117.512 164.625 115.984 163.608 114.302 162.92C112.62 162.232 110.817 161.886 109 161.902C101.37 161.902 95.1043 167.985 95.1043 175.708C95.1206 179.388 96.59 182.913 99.1925 185.515C101.795 188.116 105.32 189.585 109 189.6Z"
        fill="#A0A0A0" />
</svg>
