<svg width="300" height="300" viewBox="0 0 300 300" fill="none" xmlns="http://www.w3.org/2000/svg">
<path d="M241.943 205.921H241.181V277.075H241.943V205.921Z" fill="#231F20"/>
<path d="M257.911 86.7513H257.148V266.428H257.911V86.7513Z" fill="#231F20"/>
<path d="M249.935 144.721H249.172V277.075H249.935V144.721Z" fill="#231F20"/>
<path d="M273.895 119.56H273.132V256.172H273.895V119.56Z" fill="#231F20"/>
<path d="M265.902 84.0541H265.139V268.522H265.902V84.0541Z" fill="#231F20"/>
<path d="M275.433 281.468C285.433 271.233 285.433 254.639 275.433 244.404C265.433 234.169 249.219 234.169 239.219 244.404C229.219 254.639 229.219 271.233 239.219 281.468C249.219 291.703 265.433 291.703 275.433 281.468Z" fill="#CCCCCC"/>
<path d="M241.005 234.453H273.668C275.402 234.453 276.824 236.387 276.824 238.765V245.525C276.824 247.903 275.402 249.837 273.668 249.837H241.005C239.272 249.837 237.85 247.903 237.85 245.525V238.765C237.85 236.387 239.272 234.453 241.005 234.453Z" fill="#CCCCCC"/>
<path d="M279.027 243.875H231.212V244.656H279.027V243.875Z" fill="#425AC2"/>
<path d="M249.761 82.1551C248.995 85.521 248.005 88.8292 246.796 92.0563L248.045 89.0575L247.733 89.7851C246.168 92.7417 245.729 96.1872 246.502 99.4556C246.927 101.045 247.654 102.532 248.642 103.833C249.63 105.134 250.858 106.223 252.258 107.037C253.657 107.851 255.2 108.375 256.797 108.578C258.395 108.781 260.016 108.66 261.568 108.221C263.11 107.824 264.557 107.108 265.818 106.116C267.08 105.124 268.129 103.878 268.901 102.454C270.757 98.0545 272.264 93.5092 273.409 88.8623C273.837 87.2732 273.955 85.6132 273.756 83.9774C273.557 82.3415 273.046 80.7617 272.25 79.3282C271.455 77.8947 270.392 76.6356 269.121 75.6227C267.85 74.6098 266.397 73.863 264.844 73.425C261.708 72.5402 258.357 72.9667 255.529 74.6106C252.7 76.2545 250.626 78.9811 249.761 82.1906V82.1551Z" fill="#FFC1C1"/>
<path d="M211.083 200.118C213.612 207.141 217.949 213.334 223.635 218.04C228.715 222.511 237.21 220.009 240.695 214.828C244.769 208.742 242.602 201.822 237.539 197.368C240.227 199.728 237.418 197.066 236.898 196.445C236.378 195.824 234.263 192.542 236.048 195.416C234.834 193.434 233.862 191.306 233.153 189.081C231.021 182.587 222.196 180.582 216.752 183.279C210.182 186.526 208.951 193.571 211.083 200.047V200.118Z" fill="#FFC1C1"/>
<path d="M238.216 151.925C238.02 156.387 237.439 160.822 236.482 165.18C235.437 170.727 235.325 176.416 236.153 182.001C237.158 188.762 244.422 193.038 250.681 191.672C253.838 190.94 256.593 188.977 258.36 186.201C260.127 183.425 260.768 180.054 260.147 176.802C259.922 175.223 259.887 175.028 260.008 176.075C260.008 175.188 260.008 174.3 260.008 173.378C260.164 171.137 260.46 168.908 260.892 166.706C261.833 162.345 262.413 157.911 262.626 153.451C262.78 150.14 261.664 146.898 259.517 144.416C257.371 141.933 254.362 140.407 251.132 140.161C244.734 139.77 238.216 145.076 238.146 151.925H238.216Z" fill="#FFC1C1"/>
<path d="M271.033 126.835C271.848 128.609 272.663 130.224 273.443 131.945C273.773 132.69 274.102 133.453 274.414 134.199C272.941 130.756 274.414 134.199 274.692 134.979C275.632 138.091 277.631 140.754 280.326 142.485C281.741 143.326 283.305 143.871 284.927 144.087C286.549 144.304 288.197 144.187 289.775 143.745C295.721 142.077 300.784 134.695 298.339 128.308C296.501 123.499 294.473 118.779 292.202 114.112C289.203 107.991 280.916 106.305 275.42 109.605C269.386 113.154 268.017 120.66 271.033 126.782V126.835Z" fill="#FFC1C1"/>
<path d="M277.155 161.702C276.288 163.087 275.421 164.435 274.381 165.73L276.305 163.193C275.612 164.092 274.901 164.979 274.173 165.855C271.937 168.25 270.656 171.415 270.584 174.727C270.584 178.055 271.875 181.248 274.173 183.604C276.471 185.959 279.589 187.285 282.841 187.289C284.455 187.31 286.057 186.993 287.547 186.358C289.037 185.723 290.386 184.785 291.51 183.599C293.986 180.687 296.262 177.604 298.323 174.372C299.965 171.499 300.424 168.076 299.6 164.856C298.775 161.637 296.735 158.884 293.928 157.204C291.121 155.524 287.777 155.054 284.631 155.898C281.486 156.741 278.796 158.829 277.155 161.702Z" fill="#FFC1C1"/>
<path d="M267.48 221.802C270.354 221.86 273.226 221.598 276.045 221.021L272.785 221.465C274.094 221.279 275.417 221.207 276.738 221.252C283.43 221.607 289.013 215.29 289.013 208.707C288.963 205.392 287.654 202.228 285.362 199.886C283.07 197.543 279.977 196.208 276.738 196.162C273.875 196.172 271.019 196.457 268.208 197.014L271.468 196.552C270.147 196.748 268.811 196.802 267.48 196.712C260.805 196.197 255.223 202.816 255.223 209.257C255.223 216.497 260.823 221.305 267.48 221.802Z" fill="#FFC1C1"/>
<path d="M222.49 112.818C222.494 113.096 222.416 113.368 222.268 113.601C222.12 113.834 221.907 114.016 221.657 114.125C221.407 114.234 221.131 114.264 220.864 114.212C220.598 114.16 220.352 114.028 220.159 113.833C219.965 113.638 219.833 113.388 219.779 113.115C219.725 112.843 219.751 112.56 219.854 112.303C219.957 112.046 220.133 111.826 220.358 111.671C220.584 111.516 220.849 111.434 221.121 111.434C221.481 111.434 221.827 111.579 222.083 111.838C222.34 112.097 222.486 112.449 222.49 112.818Z" fill="white"/>
<path d="M258.726 96.7948C258.726 97.072 258.645 97.343 258.495 97.5735C258.344 97.8041 258.13 97.9837 257.88 98.0898C257.63 98.1959 257.354 98.2237 257.089 98.1696C256.823 98.1155 256.579 97.982 256.387 97.786C256.196 97.5899 256.066 97.3401 256.013 97.0682C255.96 96.7963 255.987 96.5145 256.091 96.2583C256.194 96.0022 256.37 95.7832 256.595 95.6292C256.82 95.4752 257.085 95.393 257.356 95.393C257.537 95.3906 257.716 95.4252 257.883 95.4948C258.05 95.5644 258.202 95.6676 258.33 95.7982C258.457 95.9289 258.558 96.0844 258.626 96.2555C258.694 96.4267 258.728 96.61 258.726 96.7948Z" fill="white"/>
<path d="M276.304 121.885C276.297 122.162 276.21 122.431 276.054 122.657C275.898 122.883 275.68 123.057 275.427 123.157C275.174 123.257 274.898 123.277 274.634 123.216C274.37 123.155 274.129 123.015 273.942 122.814C273.756 122.614 273.632 122.361 273.585 122.087C273.539 121.814 273.573 121.533 273.683 121.28C273.793 121.026 273.974 120.812 274.203 120.664C274.432 120.516 274.699 120.44 274.969 120.447C275.149 120.452 275.326 120.493 275.491 120.567C275.655 120.642 275.804 120.749 275.928 120.883C276.052 121.016 276.149 121.174 276.213 121.345C276.278 121.517 276.309 121.701 276.304 121.885Z" fill="white"/>
<path d="M258.499 159.484C258.502 159.763 258.424 160.037 258.275 160.27C258.126 160.503 257.912 160.685 257.661 160.794C257.41 160.902 257.133 160.931 256.866 160.878C256.599 160.824 256.353 160.69 256.161 160.493C255.968 160.296 255.837 160.045 255.785 159.771C255.733 159.498 255.761 159.214 255.867 158.958C255.973 158.701 256.151 158.482 256.379 158.329C256.607 158.177 256.874 158.097 257.146 158.1C257.505 158.1 257.849 158.246 258.103 158.506C258.356 158.765 258.499 159.117 258.499 159.484Z" fill="white"/>
<path d="M290.191 171.657C290.195 171.935 290.117 172.209 289.967 172.442C289.818 172.675 289.605 172.858 289.354 172.966C289.103 173.074 288.826 173.104 288.559 173.05C288.291 172.996 288.046 172.863 287.853 172.666C287.66 172.468 287.53 172.217 287.477 171.943C287.425 171.67 287.454 171.387 287.559 171.13C287.665 170.873 287.843 170.654 288.071 170.501C288.299 170.349 288.566 170.269 288.839 170.273C289.197 170.273 289.541 170.418 289.795 170.678C290.049 170.938 290.191 171.29 290.191 171.657Z" fill="white"/>
<path d="M281.783 209.398C281.787 209.677 281.709 209.951 281.56 210.184C281.411 210.417 281.197 210.599 280.946 210.708C280.695 210.816 280.418 210.845 280.151 210.792C279.884 210.738 279.638 210.604 279.445 210.407C279.253 210.21 279.122 209.959 279.07 209.685C279.017 209.412 279.046 209.128 279.152 208.872C279.258 208.615 279.436 208.396 279.664 208.243C279.892 208.091 280.159 208.011 280.431 208.014C280.79 208.014 281.134 208.16 281.387 208.42C281.641 208.679 281.783 209.031 281.783 209.398Z" fill="white"/>
<path d="M226.097 202.07C226.144 202.34 226.112 202.617 226.005 202.867C225.898 203.118 225.721 203.33 225.497 203.478C225.272 203.626 225.009 203.702 224.742 203.697C224.475 203.693 224.216 203.607 223.996 203.451C223.776 203.296 223.607 203.077 223.508 202.823C223.41 202.569 223.388 202.291 223.443 202.023C223.499 201.756 223.632 201.512 223.823 201.321C224.015 201.131 224.257 201.002 224.519 200.953C224.873 200.89 225.236 200.972 225.531 201.182C225.826 201.391 226.03 201.71 226.097 202.07Z" fill="white"/>
<path d="M50.8897 126.339H46.9369V214.616H50.8897V126.339Z" fill="#CCCCCC"/>
<path d="M33.0836 134.376H29.1309V212.273H33.0836V134.376Z" fill="#CCCCCC"/>
<path d="M69.6827 140.001H65.7299V217.898H69.6827V140.001Z" fill="#CCCCCC"/>
<path d="M80.38 209.416H19.7006C22.4082 214.481 26.2824 218.793 30.987 221.979V289.407H69.1283V221.979C73.8202 218.789 77.6821 214.477 80.38 209.416Z" fill="#C4C4C4"/>
<path d="M98.4958 222.21H24.8136V222.99H98.4958V222.21Z" fill="#FFC1C1"/>
<path d="M73.617 93.3341C66.6822 78.1452 44.7163 75.9981 35.0249 95.1086C26.7898 111.309 7.28579 105.613 1.73795 120.767C-8.16146 148.092 26.8072 158.579 41.613 144.384C51.8245 134.589 64.8446 140.409 76.287 149.707C94.7509 164.896 123.426 132.495 105.292 117.306C91.1968 105.507 82.1468 112.054 73.617 93.3341Z" fill="#FFC1C1"/>
<path d="M23.3746 190.874C20.15 193.642 24.2069 201.042 32.3032 199.516C40.3996 197.99 44.5605 194.086 40.0875 189.863C35.6146 185.64 29.4946 185.622 23.3746 190.874Z" fill="#FFC1C1"/>
<path d="M46.1206 172.544C51.6511 162.181 60.1115 170.876 65.3819 173.52C75.9575 178.843 77.6912 171.869 83.2564 174.708C88.8215 177.547 86.5331 185.053 74.5879 187.129C64.0643 189.099 40.4167 183.137 46.1206 172.544Z" fill="#FFC1C1"/>
<path d="M251.599 10.1855H65.6595C56.5058 10.1855 49.0853 17.7803 49.0853 27.1489V161.099C49.0853 170.468 56.5058 178.063 65.6595 178.063H251.599C260.752 178.063 268.173 170.468 268.173 161.099V27.1489C268.173 17.7803 260.752 10.1855 251.599 10.1855Z" fill="#A4B8EA"/>
<path d="M204.963 36.5886H66.1108V41.2198H204.963V36.5886Z" fill="white"/>
<path d="M204.963 73.425H66.1108V78.0562H204.963V73.425Z" fill="white"/>
<path d="M204.963 110.244H66.1108V114.875H204.963V110.244Z" fill="white"/>
<path d="M204.963 147.063H66.1108V151.694H204.963V147.063Z" fill="white"/>
<path d="M234.419 27.61H220.185C218.136 27.61 216.475 29.31 216.475 31.4072V45.9751C216.475 48.0723 218.136 49.7724 220.185 49.7724H234.419C236.468 49.7724 238.129 48.0723 238.129 45.9751V31.4072C238.129 29.31 236.468 27.61 234.419 27.61Z" fill="white"/>
<path d="M234.419 64.163H220.185C218.136 64.163 216.475 65.8631 216.475 67.9603V82.5282C216.475 84.6253 218.136 86.3254 220.185 86.3254H234.419C236.468 86.3254 238.129 84.6253 238.129 82.5282V67.9603C238.129 65.8631 236.468 64.163 234.419 64.163Z" fill="white"/>
<path d="M234.419 100.733H220.185C218.136 100.733 216.475 102.433 216.475 104.531V119.099C216.475 121.196 218.136 122.896 220.185 122.896H234.419C236.468 122.896 238.129 121.196 238.129 119.099V104.531C238.129 102.433 236.468 100.733 234.419 100.733Z" fill="white"/>
<path d="M234.419 137.304H220.185C218.136 137.304 216.475 139.004 216.475 141.101V155.669C216.475 157.766 218.136 159.466 220.185 159.466H234.419C236.468 159.466 238.129 157.766 238.129 155.669V141.101C238.129 139.004 236.468 137.304 234.419 137.304Z" fill="white"/>
<path d="M225.63 106.686L215.602 116.949L219.316 120.751L229.344 110.487L225.63 106.686Z" fill="#FE958E"/>
<path d="M217.913 126.09C220.236 125.416 224.206 121.565 223.582 119.702C222.958 117.839 221.502 112.605 218.086 114.379L211.984 118.673L214.966 126.889L217.913 126.09Z" fill="#FFB3B6"/>
<path d="M112.868 174.177H161.862L167.202 232.36L160.545 281.298H140.971L148.964 237.417C148.964 237.417 142.376 208.121 141.439 197.634H134.955L131.488 238.197L114.775 280.978H94.6643L112.14 234.684C112.14 234.684 112.833 188.017 112.955 181.097C112.806 178.793 112.777 176.483 112.868 174.177Z" fill="#FFC1C1"/>
<path d="M112.869 174.176H161.864L167.983 107.582C168.521 102.153 163.389 97.4861 156.871 97.4861H117.862C111.326 97.4861 106.212 102.153 106.749 107.582L112.869 174.176Z" fill="#425AC2"/>
<path d="M137.609 104.478C128.94 104.478 128.94 98.4271 128.94 96.9898V87.2306C128.94 84.9948 132.182 85.19 134.142 85.19H140.365C142.29 85.19 145.567 86.9644 145.567 89.2179V97.0608C145.548 98.0919 145.324 99.1084 144.909 100.048C144.493 100.987 143.894 101.83 143.149 102.524C142.404 103.219 141.529 103.75 140.576 104.086C139.623 104.422 138.614 104.555 137.609 104.478Z" fill="#E98896"/>
<path d="M150.923 85.1717C148.426 93.8131 141.37 92.5 132.927 89.9449C128.975 88.6305 125.68 85.7893 123.743 82.026C121.807 78.2626 121.382 73.8744 122.559 69.7953C123.736 65.7162 126.422 62.2683 130.046 60.1857C133.669 58.103 137.944 57.5499 141.96 58.6443C150.403 61.1994 153.419 76.5303 150.923 85.1717Z" fill="#FFB3B6"/>
<path d="M168.209 105.436L181.264 132.052L211.673 118.052C211.673 117.182 218.868 124.599 217.758 126.604C216.024 129.852 194.943 142.574 183.795 151.588C177.554 156.627 162.262 135.885 161.396 134.394C159.991 132.016 158.102 117.271 157.928 109.055C157.885 108.137 158.191 107.237 158.783 106.545C159.375 105.854 160.206 105.424 161.101 105.347L163.996 100.024C165.522 99.793 167.654 103.892 168.209 105.436Z" fill="#425AC2"/>
<path d="M110.787 99.6686C110.787 99.6686 88.1281 124.404 80.1531 132.194C75.7321 136.488 80.1531 139.717 82.667 142.84C89.6017 151.712 112.261 167.682 112.261 167.682L111.013 154.143L97.3687 137.818C97.3687 137.818 116.561 122.647 117.202 121.547C118.936 118.566 117.48 105.453 117.48 105.453L110.787 99.6686Z" fill="#425AC2"/>
<path d="M155.743 281.173H146.225V288.626H165.521C166.804 288.626 167.255 285.698 166.111 285.077L155.743 281.173Z" fill="#FE958E"/>
<path d="M110.511 281.173H101.01V288.626H120.289C121.572 288.626 122.022 285.698 120.896 285.077L110.511 281.173Z" fill="#FE958E"/>
<path d="M164.758 116.668H163.996V153.025H164.758V116.668Z" fill="#FC6262"/>
<path d="M109.167 118.328L108.405 118.378L110.634 154.237L111.395 154.187L109.167 118.328Z" fill="#FC6262"/>
<path d="M225.611 106.678L229.338 110.493L230.847 106.518L229.841 105.383L225.611 106.678Z" fill="#FEE2E3"/>
<path d="M229.893 105.365L230.898 106.519C230.898 106.519 232.32 105.135 231.765 104.584C231.21 104.034 229.893 105.365 229.893 105.365Z" fill="#0E24A5"/>
<mask id="mask0_1_475" style="mask-type:alpha" maskUnits="userSpaceOnUse" x="94" y="174" width="74" height="108">
<path d="M112.868 174.177H161.862L167.202 232.36L160.545 281.298H140.971L148.964 237.417C148.964 237.417 142.376 208.121 141.439 197.634H134.955L131.488 238.197L114.775 280.978H94.6643L112.14 234.684C112.14 234.684 112.833 188.017 112.955 181.097C112.806 178.793 112.777 176.483 112.868 174.177Z" fill="#FFC1C1"/>
</mask>
<g mask="url(#mask0_1_475)">
<path d="M174.103 177.654H113.423V179.429H174.103V177.654Z" fill="#03053F"/>
<path d="M174.033 184.362H85.6149V186.349H174.033V184.362Z" fill="#03053F"/>
<path d="M174.033 191.335H85.6149V193.323H174.033V191.335Z" fill="#03053F"/>
<path d="M174.033 198.309H85.6149V200.296H174.033V198.309Z" fill="#03053F"/>
<path d="M174.033 205.282H85.6149V207.269H174.033V205.282Z" fill="#03053F"/>
<path d="M174.033 212.256H85.6149V214.243H174.033V212.256Z" fill="#03053F"/>
<path d="M174.033 219.229H85.6149V221.216H174.033V219.229Z" fill="#03053F"/>
<path d="M174.033 226.202H85.6149V228.19H174.033V226.202Z" fill="#03053F"/>
<path d="M174.033 233.176H85.6149V235.163H174.033V233.176Z" fill="#03053F"/>
<path d="M174.033 240.149H85.6149V242.137H174.033V240.149Z" fill="#03053F"/>
<path d="M174.033 247.123H85.6149V249.11H174.033V247.123Z" fill="#03053F"/>
<path d="M174.033 254.096H85.6149V256.084H174.033V254.096Z" fill="#03053F"/>
<path d="M174.033 261.07H85.6149V263.057H174.033V261.07Z" fill="#03053F"/>
<path d="M174.033 268.043H85.6149V270.03H174.033V268.043Z" fill="#03053F"/>
<path d="M174.033 275.017H85.6149V277.004H174.033V275.017Z" fill="#03053F"/>
</g>
<path d="M137.678 78.8371C140.348 77.666 135.945 73.3719 139.412 70.9232C144.353 67.3744 148.548 65.6 149.554 59.1234C150.681 52.0258 142.966 47.4655 141.7 47.4655C140.435 47.4655 144.353 49.5416 139.967 52.6468C136.343 55.2552 120.463 59.5138 119.578 70.2845C118.694 81.0551 121.85 84.4798 125.906 86.6268C129.963 88.7738 124.641 82.2085 127.935 78.0564C131.229 73.9043 135.91 79.6356 137.678 78.8371Z" fill="#FE958E"/>
<path d="M220.555 34.6878L218.778 36.5071L227.151 45.0767L228.928 43.2574L220.555 34.6878Z" fill="#FE958E"/>
<path d="M233.894 34.7667L225.521 43.3362L227.299 45.1555L235.672 36.586L233.894 34.7667Z" fill="#FE958E"/>
<path d="M220.566 71.0555L218.788 72.8748L227.161 81.4444L228.939 79.6251L220.566 71.0555Z" fill="#FE958E"/>
<path d="M233.874 71.1222L225.501 79.6917L227.279 81.511L235.651 72.9415L233.874 71.1222Z" fill="#FE958E"/>
<path d="M81.8189 20.7429C81.7963 21.6922 81.4118 22.5947 80.7477 23.2578C80.0836 23.9209 79.1925 24.292 78.2647 24.2917C77.3451 24.2917 76.4632 23.9178 75.813 23.2523C75.1627 22.5867 74.7973 21.6841 74.7973 20.7429V3.63754C74.7858 3.16409 74.867 2.69307 75.0361 2.25221C75.2051 1.81136 75.4586 1.40959 75.7818 1.07059C76.1049 0.731601 76.4911 0.462236 76.9175 0.278369C77.3439 0.0945015 77.802 -0.00014785 78.2647 1.73353e-07C79.2073 1.73353e-07 80.1114 0.383244 80.7779 1.06542C81.4444 1.74759 81.8189 2.67281 81.8189 3.63754V20.7429Z" fill="#425AC2"/>
<path d="M247.022 20.7429C247 21.677 246.627 22.5666 245.982 23.2273C245.336 23.8881 244.467 24.2692 243.554 24.2917C242.627 24.292 241.736 23.9209 241.071 23.2578C240.407 22.5947 240.023 21.6922 240 20.7429V3.63754C240 2.67281 240.375 1.74759 241.041 1.06542C241.708 0.383244 242.612 0 243.554 0C244.482 0.02316 245.364 0.416604 246.012 1.09628C246.66 1.77596 247.022 2.68798 247.022 3.63754V20.7429Z" fill="#425AC2"/>
</svg>
