<svg width="300" height="300" viewBox="0 0 300 300" fill="none" xmlns="http://www.w3.org/2000/svg">
<path d="M144.749 192.903C191.025 192.903 228.539 164.08 228.539 128.526C228.539 92.9721 191.025 64.1498 144.749 64.1498C98.4729 64.1498 60.9587 92.9721 60.9587 128.526C60.9587 164.08 98.4729 192.903 144.749 192.903Z" fill="#FFC1C1"/>
<path d="M258.673 211.088H36.0427V207.222H258.673C258.792 207.222 258.91 207.24 259.021 207.275C259.131 207.31 259.231 207.362 259.316 207.427C259.4 207.492 259.467 207.569 259.513 207.653C259.559 207.738 259.582 207.829 259.582 207.921V210.389C259.582 210.574 259.487 210.752 259.316 210.883C259.145 211.014 258.914 211.088 258.673 211.088Z" fill="#425AC2"/>
<path d="M37.8627 207.935H36.0247V299.557H37.8627V207.935Z" fill="#425AC2"/>
<path d="M258.673 207.935H258.655C258.152 207.935 257.745 208.248 257.745 208.634V298.858C257.745 299.244 258.152 299.557 258.655 299.557H258.673C259.176 299.557 259.583 299.244 259.583 298.858V208.634C259.583 208.248 259.176 207.935 258.673 207.935Z" fill="#425AC2"/>
<path d="M129.525 57.9578C128.934 58.4108 128.133 58.6651 127.297 58.6651C126.462 58.6651 125.661 58.4108 125.069 57.9578C124.48 57.5033 124.149 56.8877 124.149 56.246C124.149 55.6043 124.48 54.9888 125.069 54.5343L130.379 50.4689C130.668 50.2415 131.013 50.0609 131.394 49.9376C131.775 49.8143 132.185 49.7507 132.598 49.7507C133.012 49.7507 133.421 49.8143 133.802 49.9376C134.183 50.0609 134.528 50.2415 134.817 50.4689C135.113 50.6908 135.348 50.9559 135.508 51.2486C135.669 51.5414 135.752 51.8558 135.752 52.1735C135.752 52.4912 135.669 52.8056 135.508 53.0983C135.348 53.3911 135.113 53.6562 134.817 53.8781L129.525 57.9578Z" fill="#8EA8DD"/>
<path d="M167.086 57.9579C167.677 58.4108 168.479 58.6652 169.314 58.6652C170.149 58.6652 170.95 58.4108 171.542 57.9579C172.131 57.5033 172.462 56.8878 172.462 56.2461C172.462 55.6044 172.131 54.9889 171.542 54.5344L166.232 50.4689C165.941 50.2412 165.595 50.0603 165.212 49.9368C164.83 49.8133 164.419 49.7496 164.004 49.7496C163.589 49.7496 163.178 49.8133 162.795 49.9368C162.413 50.0603 162.066 50.2412 161.776 50.4689C161.187 50.921 160.857 51.5342 160.857 52.1736C160.857 52.8129 161.187 53.4261 161.776 53.8782L167.086 57.9579Z" fill="#8EA8DD"/>
<path d="M133.145 12.0822C132.232 11.0408 131.74 9.81465 131.734 8.55881C131.734 3.85146 138.919 0 147.738 0C156.557 0 163.743 3.82294 163.743 8.55881C163.735 9.71622 163.317 10.8502 162.536 11.8397L160.178 10.7698C160.714 10.1053 161.003 9.34062 161.013 8.55881C161.013 5.06396 154.942 2.12545 147.738 2.12545C140.535 2.12545 134.463 5.06396 134.463 8.55881C134.476 9.41042 134.818 10.2399 135.447 10.941L133.145 12.0822Z" fill="#A4B8EA"/>
<path d="M163.602 10.4146L158.168 16.9221L169.061 22.2905L174.494 15.783L163.602 10.4146Z" fill="#FFC1C1"/>
<path d="M158.971 11.9111C159.217 11.5141 159.502 11.1326 159.825 10.77C161.347 9.18669 163.615 8.12494 166.144 7.81269C168.674 7.50044 171.261 7.96261 173.351 9.09994C175.442 10.2373 176.868 11.9591 177.325 13.8956C177.781 15.8321 177.231 17.8289 175.792 19.4571C175.462 19.8156 175.089 20.1499 174.678 20.4557L158.971 11.9111Z" fill="#FE958E"/>
<path d="M131.987 10.7908L121.095 16.1592L126.528 22.6667L137.42 17.2983L131.987 10.7908Z" fill="#FFC1C1"/>
<path d="M169.078 52.0652C180.693 43.1409 180.693 28.6718 169.078 19.7476C157.462 10.8233 138.63 10.8233 127.014 19.7475C115.399 28.6718 115.399 43.1409 127.014 52.0652C138.63 60.9894 157.462 60.9894 169.078 52.0652Z" fill="#FE958E"/>
<path d="M153.77 54.3819C167.058 51.9572 175.273 41.7149 172.117 31.5051C168.961 21.2954 155.63 14.9845 142.341 17.4092C129.052 19.834 120.838 30.0763 123.994 40.286C127.15 50.4958 140.481 56.8067 153.77 54.3819Z" fill="#FEE2E3"/>
<path d="M148.983 19.3575C148.986 19.4991 148.935 19.6384 148.835 19.7575C148.736 19.8767 148.592 19.9703 148.423 20.0265C148.253 20.0827 148.066 20.0988 147.885 20.073C147.704 20.0471 147.536 19.9803 147.405 19.8812C147.273 19.782 147.183 19.6549 147.145 19.5162C147.108 19.3775 147.125 19.2334 147.195 19.1022C147.265 18.971 147.384 18.8588 147.537 18.7798C147.69 18.7007 147.87 18.6585 148.054 18.6585C148.175 18.6566 148.296 18.6733 148.408 18.7076C148.521 18.7418 148.623 18.793 148.71 18.8581C148.796 18.9232 148.865 19.0009 148.912 19.0867C148.959 19.1724 148.983 19.2645 148.983 19.3575Z" fill="#425AC2"/>
<path d="M138.084 21.2257C138.147 21.3059 138.188 21.3949 138.205 21.4876C138.223 21.5802 138.215 21.6746 138.184 21.765C138.153 21.8555 138.099 21.9402 138.024 22.0142C137.949 22.0882 137.856 22.1499 137.75 22.1957C137.54 22.2848 137.293 22.3079 137.061 22.26C136.829 22.2121 136.63 22.0971 136.506 21.9389C136.39 21.7774 136.36 21.5875 136.422 21.4093C136.485 21.2311 136.634 21.0783 136.84 20.9832C137.047 20.8891 137.294 20.8618 137.527 20.9072C137.76 20.9527 137.961 21.0672 138.084 21.2257Z" fill="#425AC2"/>
<path d="M129.878 27.0172C129.983 27.0616 130.076 27.1219 130.151 27.1946C130.225 27.2673 130.279 27.3508 130.311 27.4402C130.342 27.5295 130.349 27.6227 130.332 27.7143C130.315 27.8058 130.275 27.8938 130.212 27.9729C130.088 28.131 129.889 28.2461 129.657 28.294C129.426 28.3419 129.178 28.3188 128.968 28.2297C128.864 28.1838 128.774 28.1226 128.701 28.0498C128.628 27.9769 128.574 27.8937 128.543 27.805C128.512 27.7162 128.504 27.6237 128.52 27.5325C128.535 27.4414 128.574 27.3535 128.634 27.2739C128.694 27.1943 128.773 27.1245 128.868 27.0685C128.963 27.0125 129.071 26.9715 129.187 26.9476C129.302 26.9238 129.423 26.9176 129.541 26.9296C129.66 26.9415 129.774 26.9713 129.878 27.0172Z" fill="#425AC2"/>
<path d="M126.536 35.1911C126.716 35.1911 126.892 35.2321 127.042 35.3089C127.191 35.3857 127.308 35.4948 127.377 35.6226C127.446 35.7503 127.464 35.8908 127.429 36.0264C127.394 36.162 127.307 36.2865 127.18 36.3843C127.052 36.482 126.89 36.5486 126.714 36.5756C126.537 36.6026 126.355 36.5887 126.188 36.5358C126.022 36.4829 125.88 36.3933 125.78 36.2784C125.68 36.1634 125.627 36.0283 125.627 35.89C125.627 35.7047 125.723 35.5269 125.893 35.3958C126.064 35.2647 126.295 35.1911 126.536 35.1911Z" fill="#425AC2"/>
<path d="M128.969 43.5499C129.179 43.4607 129.426 43.4377 129.658 43.4855C129.89 43.5334 130.089 43.6485 130.213 43.8067C130.302 43.9265 130.344 44.064 130.332 44.2018C130.32 44.3397 130.255 44.4717 130.145 44.5812C130.035 44.6908 129.886 44.7728 129.716 44.8171C129.545 44.8614 129.362 44.8659 129.188 44.8301C129.014 44.7942 128.858 44.7196 128.74 44.6157C128.621 44.5118 128.545 44.3832 128.522 44.2462C128.498 44.1092 128.528 43.97 128.608 43.846C128.687 43.7221 128.813 43.619 128.969 43.5499Z" fill="#425AC2"/>
<path d="M136.506 49.8551C136.63 49.697 136.829 49.5819 137.061 49.534C137.293 49.4861 137.54 49.5092 137.75 49.5983C137.962 49.691 138.117 49.8445 138.181 50.0251C138.246 50.2057 138.214 50.3985 138.094 50.5612C137.973 50.7239 137.773 50.8431 137.538 50.8926C137.303 50.9421 137.052 50.9178 136.84 50.8251C136.633 50.7273 136.483 50.572 136.421 50.3914C136.358 50.2108 136.389 50.0188 136.506 49.8551Z" fill="#425AC2"/>
<path d="M147.144 52.423C147.141 52.2808 147.192 52.141 147.293 52.0215C147.393 51.9021 147.538 51.8085 147.709 51.7527C147.879 51.697 148.067 51.6816 148.249 51.7087C148.431 51.7358 148.598 51.804 148.729 51.9046C148.86 52.0052 148.948 52.1336 148.984 52.2732C149.019 52.4129 148.999 52.5575 148.926 52.6884C148.854 52.8192 148.732 52.9305 148.577 53.0078C148.421 53.085 148.239 53.1248 148.054 53.122C147.813 53.122 147.581 53.0484 147.411 52.9173C147.24 52.7862 147.144 52.6084 147.144 52.423Z" fill="#425AC2"/>
<path d="M158.042 50.5683C157.979 50.4882 157.938 50.3991 157.921 50.3064C157.904 50.2138 157.911 50.1195 157.942 50.029C157.973 49.9386 158.028 49.8538 158.103 49.7798C158.177 49.7059 158.27 49.6441 158.376 49.5983C158.587 49.5092 158.834 49.4861 159.066 49.534C159.298 49.5819 159.497 49.697 159.62 49.8551C159.737 50.0188 159.768 50.2108 159.706 50.3914C159.644 50.572 159.493 50.7273 159.286 50.8251C159.076 50.9143 158.829 50.9373 158.597 50.8894C158.365 50.8416 158.166 50.7265 158.042 50.5683Z" fill="#425AC2"/>
<path d="M166.25 44.7629C166.145 44.7185 166.052 44.6581 165.977 44.5854C165.903 44.5127 165.849 44.4292 165.817 44.3399C165.786 44.2506 165.779 44.1573 165.796 44.0658C165.813 43.9742 165.854 43.8862 165.916 43.8072C165.976 43.7276 166.055 43.6577 166.15 43.6018C166.245 43.5458 166.353 43.5047 166.469 43.4808C166.584 43.457 166.705 43.4509 166.823 43.4628C166.942 43.4747 167.056 43.5045 167.16 43.5504C167.264 43.5963 167.354 43.6574 167.427 43.7303C167.5 43.8032 167.554 43.8863 167.585 43.9751C167.616 44.0638 167.624 44.1564 167.608 44.2475C167.593 44.3387 167.554 44.4265 167.494 44.5061C167.436 44.5873 167.358 44.6585 167.263 44.7157C167.169 44.7729 167.06 44.8147 166.944 44.8387C166.827 44.8627 166.706 44.8684 166.587 44.8553C166.468 44.8423 166.353 44.8109 166.25 44.7629Z" fill="#425AC2"/>
<path d="M169.592 36.589C170.095 36.589 170.502 36.2761 170.502 35.89C170.502 35.504 170.095 35.1911 169.592 35.1911C169.09 35.1911 168.683 35.504 168.683 35.89C168.683 36.2761 169.09 36.589 169.592 36.589Z" fill="#425AC2"/>
<path d="M167.159 28.2297C166.949 28.3188 166.702 28.3419 166.47 28.294C166.238 28.2461 166.039 28.131 165.915 27.9729C165.795 27.8121 165.762 27.6211 165.825 27.4419C165.888 27.2626 166.04 27.1098 166.25 27.0172C166.459 26.9245 166.708 26.8995 166.941 26.9476C167.174 26.9958 167.373 27.1131 167.494 27.2739C167.553 27.3535 167.592 27.4414 167.608 27.5325C167.624 27.6237 167.616 27.7163 167.585 27.805C167.553 27.8938 167.5 27.977 167.427 28.0499C167.354 28.1228 167.263 28.1838 167.159 28.2297Z" fill="#425AC2"/>
<path d="M159.62 21.9252C159.497 22.0833 159.298 22.1984 159.066 22.2463C158.834 22.2942 158.587 22.2711 158.376 22.1819C158.27 22.1361 158.177 22.0744 158.103 22.0005C158.028 21.9265 157.973 21.8417 157.942 21.7513C157.911 21.6608 157.904 21.5665 157.921 21.4738C157.938 21.3812 157.979 21.2921 158.042 21.2119C158.166 21.0534 158.366 20.9389 158.599 20.8934C158.832 20.848 159.079 20.8753 159.286 20.9695C159.492 21.0646 159.642 21.2173 159.704 21.3955C159.767 21.5737 159.736 21.7636 159.62 21.9252Z" fill="#425AC2"/>
<path d="M138.128 30.5281L137.241 31.8134L147.294 35.9118L148.182 34.6265L138.128 30.5281Z" fill="#425AC2"/>
<path d="M163.037 28.7133L148.046 35.0634L148.727 36.0128L163.718 29.6626L163.037 28.7133Z" fill="#425AC2"/>
<path d="M152.4 35.8901C152.422 36.5519 152.187 37.2037 151.726 37.7628C151.264 38.3218 150.597 38.7628 149.809 39.0298C149.02 39.2968 148.146 39.3777 147.298 39.2621C146.45 39.1466 145.665 38.8399 145.044 38.381C144.424 37.922 143.994 37.3316 143.811 36.6848C143.628 36.038 143.699 35.364 144.016 34.7484C144.333 34.1328 144.881 33.6034 145.59 33.2276C146.299 32.8518 147.138 32.6465 147.999 32.6378C149.144 32.6225 150.249 32.9562 151.074 33.5657C151.898 34.1753 152.375 35.0111 152.4 35.8901Z" fill="#FE958E"/>
<path d="M136.654 12.225C136.414 11.8232 136.121 11.4409 135.782 11.0838C134.282 9.45893 132.004 8.35822 129.448 8.02383C126.893 7.68944 124.269 8.14875 122.154 9.30074C120.039 10.4527 118.606 12.203 118.171 14.1666C117.736 16.1302 118.334 18.1461 119.833 19.771C120.163 20.1257 120.529 20.4596 120.929 20.7695L136.654 12.225Z" fill="#FE958E"/>
<path d="M4.31408 97.9846C3.93277 98.1053 3.52407 98.1667 3.11167 98.1653C2.69927 98.1638 2.29133 98.0996 1.91147 97.9762C1.5316 97.8528 1.18738 97.6728 0.898664 97.4465C0.609951 97.2203 0.382499 96.9523 0.229479 96.658C-0.0826494 96.0659 -0.0761414 95.4028 0.24761 94.8144C0.571361 94.226 1.18587 93.7603 1.95614 93.5198L8.89999 91.3373C9.67372 91.1008 10.5374 91.1074 11.3049 91.3555C12.0724 91.6037 12.6823 92.0735 13.0032 92.6639C13.316 93.258 13.31 93.9232 12.9864 94.5139C12.6629 95.1046 12.0481 95.5729 11.2765 95.8164L4.31408 97.9846Z" fill="#8EA8DD"/>
<path d="M38.9399 109.197C39.0948 109.491 39.3242 109.76 39.6146 109.986C39.9051 110.213 40.2509 110.393 40.6323 110.516C41.0136 110.639 41.423 110.703 41.8367 110.705C42.2505 110.706 42.6605 110.644 43.0431 110.523C43.8147 110.28 44.4295 109.812 44.753 109.221C45.0766 108.63 45.0826 107.965 44.7698 107.371L41.9291 102.036C41.616 101.444 41.0099 100.972 40.2441 100.723C39.4782 100.474 38.6152 100.469 37.8445 100.709C37.4608 100.828 37.1116 101.004 36.817 101.228C36.5223 101.451 36.288 101.716 36.1275 102.009C35.967 102.302 35.8835 102.617 35.8819 102.935C35.8802 103.253 35.9604 103.568 36.1178 103.862L38.9399 109.197Z" fill="#8EA8DD"/>
<path d="M30.8621 56.802C30.5404 55.5658 30.7086 54.2838 31.3448 53.1217C33.7213 48.8423 42.2618 47.4159 50.3939 50.0406C58.526 52.6653 63.2233 58.3426 60.8468 62.6791C60.2536 63.7472 59.2903 64.6699 58.0618 65.3466L56.428 63.6491C57.2457 63.1949 57.8874 62.5786 58.2846 61.866C60.1413 58.6564 55.9267 54.1203 49.2985 51.9806C42.6703 49.8409 35.5779 50.7395 33.8327 53.9491C33.4091 54.734 33.2992 55.5981 33.517 56.4311L30.8621 56.802Z" fill="#A4B8EA"/>
<path d="M59.7451 64.3983L51.449 68.7741L58.7731 76.9709L67.0693 72.5951L59.7451 64.3983Z" fill="#425AC2"/>
<path d="M54.7222 64.3478C55.1478 64.0502 55.6077 63.7828 56.0961 63.549C57.2483 62.9884 58.5403 62.6191 59.8892 62.4648C61.2381 62.3104 62.614 62.3745 63.9288 62.6527C65.2436 62.931 66.4682 63.4173 67.5239 64.0805C68.5797 64.7438 69.4434 65.5693 70.0595 66.504C70.6756 67.4388 71.0306 68.4621 71.1017 69.5085C71.1727 70.5549 70.9583 71.6011 70.4722 72.58C69.986 73.559 69.2389 74.4491 68.2787 75.1931C67.3186 75.9372 66.1665 76.5188 64.8966 76.9007L54.7222 64.3478Z" fill="#FFC1C1"/>
<path d="M30.4648 55.2312L17.7144 56.9304L19.4341 64.5481L32.1845 62.8489L30.4648 55.2312Z" fill="#425AC2"/>
<path d="M59.9755 92.0633C57.6852 96.2159 53.845 99.7541 48.9395 102.231C44.034 104.708 38.2833 106.013 32.4133 105.981C26.5433 105.95 20.8172 104.582 15.9578 102.052C11.0985 99.5217 7.32379 95.9421 5.11024 91.765C2.89668 87.5878 2.34351 83.0005 3.52058 78.582C4.69765 74.1635 7.55219 70.1121 11.7238 66.939C15.8954 63.766 21.1971 61.6136 26.9596 60.7537C32.722 59.8938 38.6869 60.3649 44.1012 62.1074C47.7088 63.2685 50.9825 64.9656 53.7343 67.1011C56.4861 69.2367 58.6619 71.7688 60.1368 74.5521C61.6117 77.3354 62.3567 80.315 62.3291 83.32C62.3014 86.3251 61.5015 89.2963 59.9755 92.0633Z" fill="#FFC1C1"/>
<path d="M41.8264 100.816C54.4866 96.8786 60.5947 85.8012 55.4694 76.0743C50.3441 66.3475 35.9261 61.6545 23.266 65.5923C10.6059 69.5301 4.49767 80.6075 9.62298 90.3344C14.7483 100.061 29.1663 104.754 41.8264 100.816Z" fill="#FEE2E3"/>
<path d="M41.7615 68.214C41.7151 68.2992 41.6474 68.3766 41.5622 68.4417C41.4769 68.5068 41.3758 68.5584 41.2646 68.5935C41.1534 68.6286 41.0343 68.6465 40.914 68.6463C40.7938 68.646 40.6749 68.6275 40.5639 68.5919C40.453 68.5564 40.3523 68.5043 40.2675 68.4388C40.1827 68.3733 40.1156 68.2956 40.0699 68.2102C40.0242 68.1248 40.0009 68.0333 40.0012 67.9409C40.0016 67.8486 40.0256 67.7571 40.0719 67.6719C40.1698 67.501 40.3511 67.3665 40.5768 67.2971C40.8024 67.2278 41.0544 67.2291 41.2787 67.301C41.4998 67.3733 41.6747 67.5099 41.7651 67.681C41.8556 67.852 41.8542 68.0437 41.7615 68.214Z" fill="#425AC2"/>
<path d="M30.788 66.6877C30.8036 66.7796 30.7952 66.873 30.7634 66.9624C30.7316 67.0518 30.6769 67.1354 30.6026 67.2084C30.5283 67.2814 30.4359 67.3424 30.3306 67.3877C30.2254 67.433 30.1095 67.4618 29.9897 67.4723C29.7509 67.4967 29.5094 67.4473 29.3179 67.3349C29.1265 67.2226 29.0008 67.0566 28.9685 66.8732C28.953 66.7813 28.9614 66.6879 28.9932 66.5985C29.025 66.5092 29.0797 66.4256 29.154 66.3525C29.2283 66.2795 29.3207 66.2186 29.426 66.1733C29.5312 66.128 29.6471 66.0992 29.7669 66.0887C30.0057 66.0643 30.2472 66.1137 30.4387 66.226C30.6301 66.3383 30.7557 66.5044 30.788 66.6877Z" fill="#425AC2"/>
<path d="M20.2809 69.5841C20.357 69.6562 20.4132 69.7395 20.4461 69.8288C20.479 69.9182 20.4879 70.0117 20.4722 70.1038C20.4566 70.1959 20.4168 70.2845 20.3551 70.3644C20.2935 70.4442 20.2114 70.5136 20.1138 70.5684C20.0177 70.6242 19.9082 70.6648 19.7916 70.6879C19.675 70.7109 19.5536 70.7159 19.4344 70.7027C19.3153 70.6894 19.2007 70.6581 19.0974 70.6105C18.9941 70.563 18.9041 70.5002 18.8327 70.4257C18.7605 70.3531 18.708 70.2701 18.6783 70.1817C18.6485 70.0932 18.6421 70.001 18.6594 69.9106C18.6767 69.8202 18.7174 69.7334 18.779 69.6553C18.8407 69.5772 18.922 69.5093 19.0184 69.4557C19.1107 69.3976 19.2176 69.3547 19.3324 69.3296C19.4472 69.3045 19.5675 69.2977 19.6858 69.3097C19.8042 69.3217 19.918 69.3523 20.0204 69.3995C20.1227 69.4467 20.2114 69.5095 20.2809 69.5841Z" fill="#425AC2"/>
<path d="M13.0767 76.1177C13.2992 76.1929 13.4743 76.3321 13.5646 76.5055C13.6548 76.6789 13.653 76.8725 13.5595 77.0449C13.4653 77.2147 13.2875 77.3491 13.0649 77.4185C12.8423 77.488 12.5929 77.487 12.3712 77.4158C12.2601 77.3815 12.1592 77.3304 12.0743 77.2655C11.9895 77.2006 11.9226 77.1232 11.8775 77.038C11.8325 76.9528 11.8102 76.8615 11.8121 76.7696C11.814 76.6776 11.84 76.5869 11.8885 76.5028C11.9334 76.4174 11.9998 76.3397 12.0838 76.2741C12.1679 76.2085 12.268 76.1563 12.3784 76.1205C12.4889 76.0847 12.6074 76.0661 12.7272 76.0656C12.847 76.0651 12.9658 76.0828 13.0767 76.1177Z" fill="#425AC2"/>
<path d="M11.0912 84.5465C11.2109 84.5345 11.3324 84.541 11.4487 84.5654C11.5651 84.5899 11.6739 84.6318 11.7689 84.6889C11.864 84.746 11.9433 84.817 12.0022 84.8979C12.0612 84.9787 12.0986 85.0678 12.1124 85.1599C12.1329 85.2968 12.1002 85.4352 12.0185 85.5579C11.9369 85.6806 11.8098 85.782 11.6533 85.8494C11.4969 85.9167 11.318 85.947 11.1392 85.9365C10.9603 85.926 10.7895 85.8751 10.6482 85.7903C10.507 85.7054 10.4015 85.5903 10.345 85.4595C10.2886 85.3287 10.2838 85.188 10.3311 85.0551C10.3784 84.9222 10.4759 84.803 10.6111 84.7125C10.7464 84.622 10.9134 84.5643 11.0912 84.5465Z" fill="#425AC2"/>
<path d="M14.8589 92.6216C14.9531 92.5592 15.0629 92.5123 15.1816 92.4838C15.3003 92.4554 15.4254 92.4459 15.549 92.456C15.6727 92.4661 15.7923 92.4956 15.9006 92.5426C16.0088 92.5896 16.1034 92.6532 16.1784 92.7294C16.2534 92.8056 16.3073 92.8928 16.3367 92.9856C16.3662 93.0784 16.3705 93.1749 16.3495 93.2691C16.3285 93.3632 16.2826 93.4531 16.2146 93.5331C16.1467 93.6131 16.0581 93.6816 15.9543 93.7342C15.7609 93.8448 15.519 93.8933 15.2799 93.8693C15.0408 93.8454 14.8232 93.7509 14.6732 93.6058C14.6006 93.5321 14.5477 93.448 14.5177 93.3584C14.4877 93.2688 14.4811 93.1755 14.4984 93.0839C14.5157 92.9924 14.5564 92.9044 14.6183 92.825C14.6802 92.7456 14.7619 92.6765 14.8589 92.6216Z" fill="#425AC2"/>
<path d="M23.3623 98.1555C23.4069 98.0702 23.4734 97.9926 23.5579 97.9275C23.6424 97.8623 23.743 97.8109 23.8539 97.7762C23.9648 97.7416 24.0837 97.7246 24.2034 97.726C24.3231 97.7275 24.4411 97.7474 24.5506 97.7847C24.7168 97.8381 24.8586 97.9283 24.958 98.0437C25.0574 98.1591 25.11 98.2947 25.1091 98.4331C25.1081 98.5715 25.0537 98.7066 24.9527 98.8213C24.8517 98.9359 24.7086 99.0249 24.5417 99.077C24.3748 99.1291 24.1915 99.1419 24.0151 99.1139C23.8386 99.0859 23.677 99.0182 23.5506 98.9195C23.4243 98.8208 23.339 98.6955 23.3054 98.5595C23.2719 98.4235 23.2917 98.2829 23.3623 98.1555Z" fill="#425AC2"/>
<path d="M34.3358 99.6819C34.3153 99.545 34.348 99.4065 34.4297 99.2838C34.5113 99.1612 34.6384 99.0598 34.7948 98.9924C34.9513 98.925 35.1302 98.8947 35.309 98.9052C35.4878 98.9158 35.6586 98.9666 35.7999 99.0515C35.9412 99.1364 36.0467 99.2514 36.1031 99.3822C36.1596 99.513 36.1644 99.6537 36.1171 99.7866C36.0697 99.9195 35.9723 100.039 35.8371 100.129C35.7018 100.22 35.5348 100.277 35.3569 100.295C35.2373 100.307 35.1158 100.301 34.9995 100.276C34.8831 100.252 34.7743 100.21 34.6792 100.153C34.5842 100.096 34.5049 100.025 34.446 99.9438C34.387 99.863 34.3495 99.774 34.3358 99.6819Z" fill="#425AC2"/>
<path d="M44.8264 96.8295C44.7199 96.7186 44.6585 96.5859 44.65 96.4481C44.6414 96.3104 44.686 96.1739 44.7782 96.0556C44.8705 95.9373 45.0061 95.8426 45.1682 95.7834C45.3303 95.7242 45.5116 95.7032 45.6892 95.723C45.8668 95.7428 46.0328 95.8025 46.1664 95.8945C46.2999 95.9866 46.395 96.107 46.4397 96.2405C46.4845 96.3741 46.4768 96.5148 46.4177 96.645C46.3586 96.7751 46.2506 96.889 46.1075 96.9722C45.9118 97.0812 45.6685 97.1273 45.4293 97.1007C45.1901 97.0741 44.9738 96.9768 44.8264 96.8295Z" fill="#425AC2"/>
<path d="M52.0473 90.2532C51.8261 90.1806 51.6502 90.0448 51.5566 89.8745C51.4631 89.7042 51.4593 89.5127 51.546 89.3402C51.6442 89.1692 51.8244 89.0338 52.0491 88.9621C52.2738 88.8904 52.5258 88.8879 52.7528 88.9551C52.9752 89.0304 53.1504 89.1696 53.2406 89.3429C53.3309 89.5163 53.3291 89.71 53.2356 89.8823C53.191 89.9677 53.1244 90.0452 53.04 90.1104C52.9555 90.1755 52.8548 90.227 52.7439 90.2616C52.633 90.2962 52.5142 90.3133 52.3945 90.3118C52.2748 90.3104 52.1567 90.2905 52.0473 90.2532Z" fill="#425AC2"/>
<path d="M54.0344 81.8234C53.9148 81.8354 53.7933 81.8289 53.677 81.8045C53.5606 81.78 53.4518 81.738 53.3567 81.681C53.2617 81.6239 53.1824 81.5529 53.1234 81.472C53.0645 81.3912 53.027 81.3021 53.0133 81.21C52.9928 81.0731 53.0255 80.9347 53.1072 80.812C53.1888 80.6893 53.3159 80.5879 53.4723 80.5206C53.6288 80.4532 53.8077 80.4229 53.9865 80.4334C54.1653 80.4439 54.3361 80.4948 54.4774 80.5796C54.6187 80.6645 54.7242 80.7796 54.7806 80.9104C54.8371 81.0412 54.8419 81.1819 54.7946 81.3148C54.7472 81.4477 54.6498 81.5669 54.5146 81.6574C54.3793 81.7479 54.2123 81.8057 54.0344 81.8234Z" fill="#425AC2"/>
<path d="M50.265 73.7633C50.0705 73.875 49.8263 73.9227 49.586 73.8959C49.3458 73.8692 49.1292 73.7702 48.9839 73.6207C48.8387 73.4713 48.7767 73.2836 48.8115 73.099C48.8463 72.9145 48.9751 72.7481 49.1696 72.6365C49.3641 72.5249 49.6084 72.4772 49.8486 72.5039C50.0889 72.5307 50.3054 72.6297 50.4507 72.7791C50.596 72.9286 50.658 73.1162 50.6232 73.3008C50.5884 73.4854 50.4595 73.6517 50.265 73.7633Z" fill="#425AC2"/>
<path d="M26.0933 75.3545L24.626 76.2743L31.8208 83.0497L33.2881 82.1299L26.0933 75.3545Z" fill="#425AC2"/>
<path d="M49.9515 81.0726L32.928 82.4542L33.0762 83.5323L50.0997 82.1507L49.9515 81.0726Z" fill="#425AC2"/>
<path d="M36.601 84.4755C36.2856 85.095 35.7365 85.628 35.024 86.0061C34.3116 86.3841 33.4684 86.59 32.6026 86.5973C31.7368 86.6046 30.888 86.413 30.1649 86.047C29.4419 85.6811 28.8777 85.1575 28.5446 84.5434C28.2116 83.9294 28.125 83.2528 28.2959 82.6007C28.4668 81.9486 28.8875 81.3505 29.5038 80.8834C30.1202 80.4162 30.9042 80.1011 31.7553 79.9787C32.6063 79.8562 33.4856 79.9319 34.2802 80.1961C35.3132 80.5395 36.1324 81.1775 36.5653 81.9758C36.9982 82.774 37.011 83.6702 36.601 84.4755Z" fill="#FE958E"/>
<path d="M34.0001 57.9724C33.9808 57.5352 33.9062 57.1004 33.7773 56.6743C33.5018 55.7114 32.9821 54.7997 32.248 53.9911C31.5139 53.1826 30.5796 52.493 29.4987 51.9619C28.4177 51.4307 27.2111 51.0683 25.9479 50.8954C24.6846 50.7225 23.3894 50.7425 22.1362 50.9541C20.883 51.1658 19.6963 51.5651 18.6439 52.1291C17.5915 52.6932 16.694 53.4109 16.0026 54.2414C15.3113 55.072 14.8396 55.999 14.6146 56.9695C14.3895 57.9401 14.4155 58.9352 14.691 59.8981C14.8079 60.3337 14.982 60.7591 15.2109 61.1677L34.0001 57.9724Z" fill="#FFC1C1"/>
<path d="M289.532 97.9846C289.914 98.1056 290.324 98.1672 290.738 98.1659C291.152 98.1646 291.561 98.1005 291.942 97.9772C292.324 97.8539 292.67 97.6739 292.96 97.4475C293.25 97.2211 293.48 96.9528 293.635 96.658C293.947 96.0659 293.94 95.4028 293.617 94.8144C293.293 94.226 292.678 93.7604 291.908 93.5198L284.964 91.3373C284.191 91.097 283.325 91.1016 282.556 91.3502C281.787 91.5988 281.178 92.0711 280.861 92.6639C280.704 92.9579 280.623 93.2729 280.625 93.5908C280.627 93.9087 280.71 94.2232 280.871 94.5162C281.031 94.8092 281.265 95.0749 281.56 95.298C281.855 95.5212 282.204 95.6974 282.588 95.8164L289.532 97.9846Z" fill="#8EA8DD"/>
<path d="M254.923 109.197C254.606 109.79 253.997 110.263 253.228 110.511C252.459 110.76 251.593 110.764 250.82 110.524C250.436 110.405 250.087 110.229 249.793 110.006C249.498 109.782 249.264 109.517 249.103 109.224C248.943 108.931 248.859 108.616 248.857 108.298C248.856 107.98 248.936 107.665 249.093 107.372L251.916 102.036C252.232 101.444 252.842 100.971 253.611 100.723C254.38 100.474 255.245 100.47 256.019 100.71C256.402 100.829 256.752 101.005 257.046 101.228C257.341 101.451 257.575 101.717 257.736 102.01C257.896 102.303 257.98 102.618 257.981 102.936C257.983 103.253 257.903 103.568 257.745 103.862L254.923 109.197Z" fill="#8EA8DD"/>
<path d="M262.999 56.802C263.311 55.5655 263.143 54.2855 262.516 53.1217C260.139 48.8423 251.599 47.4159 243.448 50.0406C235.298 52.6653 230.637 58.3426 233.014 62.6791C233.607 63.7472 234.57 64.6699 235.799 65.3466L237.414 63.6491C236.596 63.1949 235.955 62.5786 235.558 61.866C233.794 58.6564 237.915 54.1203 244.544 51.9806C251.172 49.8409 258.246 50.7395 260.009 53.9491C260.433 54.734 260.543 55.5981 260.325 56.4311L262.999 56.802Z" fill="#A4B8EA"/>
<path d="M234.09 64.3687L226.766 72.5656L235.062 76.9413L242.386 68.7445L234.09 64.3687Z" fill="#FE958E"/>
<path d="M239.141 64.3478C238.711 64.0535 238.252 63.7864 237.767 63.549C236.615 62.9884 235.323 62.6191 233.974 62.4648C232.625 62.3104 231.249 62.3745 229.934 62.6527C228.619 62.931 227.395 63.4173 226.339 64.0805C225.283 64.7438 224.419 65.5693 223.803 66.504C223.187 67.4388 222.832 68.4621 222.761 69.5085C222.69 70.5549 222.904 71.6011 223.391 72.58C223.877 73.559 224.624 74.4491 225.584 75.1931C226.544 75.9372 227.696 76.5188 228.966 76.9007L239.141 64.3478Z" fill="#425AC2"/>
<path d="M265.073 52.443L263.363 60.0971L276.174 61.7874L277.885 54.1332L265.073 52.443Z" fill="#FE958E"/>
<path d="M272.417 104.402C287.65 99.6798 295.018 86.3639 288.872 74.6596C282.727 62.9553 265.395 57.2948 250.161 62.0166C234.927 66.7383 227.56 80.0542 233.706 91.7585C239.851 103.463 257.183 109.123 272.417 104.402Z" fill="#425AC2"/>
<path d="M238.511 90.5661C240.412 94.0286 243.606 96.9805 247.69 99.0483C251.774 101.116 256.564 102.207 261.455 102.183C266.346 102.16 271.118 101.022 275.167 98.9147C279.217 96.8074 282.362 93.8248 284.205 90.3441C286.049 86.8633 286.507 83.0408 285.523 79.3599C284.539 75.6789 282.156 72.3049 278.676 69.6643C275.196 67.0238 270.775 65.2353 265.972 64.5251C261.169 63.8148 256.2 64.2148 251.693 65.6743C248.7 66.6435 245.985 68.0562 243.703 69.8317C241.42 71.6073 239.615 73.7109 238.391 76.0223C237.167 78.3338 236.548 80.808 236.568 83.3034C236.589 85.7988 237.249 88.2667 238.511 90.5661Z" fill="#FEE2E3"/>
<path d="M252.101 68.2144C252.195 68.3844 252.372 68.5195 252.594 68.5914C252.815 68.6632 253.065 68.6661 253.289 68.5995C253.4 68.5639 253.501 68.5119 253.585 68.4464C253.67 68.3809 253.737 68.3032 253.783 68.2178C253.829 68.1323 253.852 68.0408 253.852 67.9484C253.851 67.8561 253.827 67.7647 253.781 67.6795C253.735 67.5942 253.667 67.5168 253.582 67.4517C253.496 67.3866 253.395 67.335 253.284 67.2999C253.173 67.2648 253.054 67.2469 252.934 67.2471C252.813 67.2474 252.694 67.2658 252.583 67.3014C252.362 67.3738 252.187 67.5104 252.097 67.6814C252.007 67.8525 252.008 68.0441 252.101 68.2144Z" fill="#425AC2"/>
<path d="M263.11 66.6882C263.095 66.7801 263.103 66.8734 263.135 66.9628C263.167 67.0522 263.222 67.1359 263.296 67.2089C263.37 67.2819 263.463 67.3428 263.568 67.3881C263.673 67.4334 263.789 67.4622 263.909 67.4728C264.03 67.489 264.154 67.4861 264.273 67.4645C264.393 67.4429 264.506 67.4028 264.604 67.3468C264.703 67.2909 264.786 67.2201 264.849 67.1387C264.911 67.0574 264.951 66.9672 264.967 66.8736C264.983 66.7817 264.974 66.6884 264.942 66.599C264.911 66.5096 264.856 66.426 264.782 66.353C264.707 66.28 264.615 66.219 264.51 66.1737C264.404 66.1284 264.289 66.0997 264.169 66.0891C264.047 66.0707 263.922 66.072 263.802 66.0928C263.681 66.1135 263.567 66.1533 263.468 66.2097C263.368 66.266 263.285 66.3376 263.224 66.42C263.162 66.5024 263.124 66.5937 263.11 66.6882Z" fill="#425AC2"/>
<path d="M273.564 69.5832C273.418 69.7326 273.356 69.9203 273.391 70.1049C273.426 70.2895 273.555 70.4559 273.749 70.5675C273.944 70.6791 274.188 70.7267 274.428 70.7C274.668 70.6732 274.885 70.5742 275.03 70.4248C275.176 70.2754 275.238 70.0877 275.203 69.9032C275.168 69.7186 275.039 69.5521 274.845 69.4405C274.748 69.3853 274.639 69.3451 274.522 69.3224C274.406 69.2997 274.285 69.2948 274.166 69.308C273.925 69.3348 273.709 69.4338 273.564 69.5832Z" fill="#425AC2"/>
<path d="M280.785 76.1177C280.561 76.1896 280.383 76.3269 280.291 76.4994C280.199 76.672 280.199 76.8656 280.293 77.0377C280.386 77.2099 280.565 77.3464 280.79 77.4173C281.014 77.4882 281.266 77.4876 281.49 77.4158C281.601 77.3815 281.702 77.3304 281.787 77.2655C281.872 77.2006 281.939 77.1232 281.984 77.038C282.029 76.9528 282.051 76.8615 282.05 76.7696C282.048 76.6776 282.022 76.5869 281.973 76.5028C281.928 76.4174 281.862 76.3397 281.778 76.2741C281.694 76.2085 281.594 76.1563 281.483 76.1205C281.373 76.0847 281.254 76.0661 281.134 76.0656C281.015 76.0651 280.896 76.0828 280.785 76.1177Z" fill="#425AC2"/>
<path d="M282.772 84.5465C282.652 84.5345 282.531 84.541 282.414 84.5654C282.298 84.5899 282.189 84.6318 282.094 84.6889C281.999 84.746 281.92 84.817 281.861 84.8979C281.802 84.9787 281.764 85.0678 281.751 85.1599C281.724 85.3448 281.793 85.5303 281.942 85.6769C282.091 85.8235 282.309 85.9195 282.549 85.9444C282.788 85.9645 283.027 85.9113 283.215 85.7964C283.403 85.6815 283.524 85.5142 283.552 85.331C283.583 85.1476 283.519 84.962 283.373 84.8149C283.227 84.6678 283.01 84.5713 282.772 84.5465Z" fill="#425AC2"/>
<path d="M279.003 92.6216C278.909 92.5592 278.799 92.5123 278.68 92.4838C278.561 92.4554 278.436 92.4459 278.313 92.456C278.189 92.4661 278.069 92.4956 277.961 92.5426C277.853 92.5896 277.758 92.6532 277.683 92.7294C277.608 92.8056 277.554 92.8928 277.525 92.9856C277.495 93.0784 277.491 93.1749 277.512 93.2691C277.533 93.3632 277.579 93.4531 277.647 93.5331C277.715 93.6131 277.804 93.6816 277.907 93.7342C278.101 93.8448 278.343 93.8933 278.582 93.8693C278.821 93.8454 279.038 93.7509 279.188 93.6058C279.261 93.5321 279.314 93.448 279.344 93.3584C279.374 93.2688 279.38 93.1755 279.363 93.0839C279.346 92.9924 279.305 92.9044 279.243 92.825C279.181 92.7456 279.1 92.6765 279.003 92.6216Z" fill="#425AC2"/>
<path d="M270.538 98.1559C270.44 97.9851 270.259 97.8505 270.033 97.7812C269.807 97.7118 269.555 97.7132 269.331 97.7851C269.11 97.8574 268.935 97.994 268.845 98.1651C268.754 98.3361 268.755 98.5277 268.848 98.698C268.946 98.8689 269.127 99.0034 269.353 99.0728C269.579 99.1421 269.831 99.1407 270.055 99.0689C270.276 98.9966 270.451 98.86 270.541 98.6889C270.632 98.5179 270.631 98.3262 270.538 98.1559Z" fill="#425AC2"/>
<path d="M259.528 99.6819C259.549 99.545 259.516 99.4065 259.434 99.2838C259.353 99.1612 259.226 99.0598 259.069 98.9924C258.913 98.925 258.734 98.8947 258.555 98.9052C258.376 98.9158 258.205 98.9666 258.064 99.0515C257.923 99.1364 257.817 99.2514 257.761 99.3822C257.704 99.513 257.7 99.6537 257.747 99.7866C257.794 99.9195 257.892 100.039 258.027 100.129C258.162 100.22 258.329 100.277 258.507 100.295C258.748 100.316 258.989 100.263 259.18 100.148C259.371 100.034 259.496 99.8663 259.528 99.6819Z" fill="#425AC2"/>
<path d="M249.018 96.8282C249.092 96.7552 249.146 96.6719 249.178 96.5828C249.209 96.4938 249.217 96.4008 249.202 96.3093C249.186 96.2178 249.147 96.1295 249.087 96.0497C249.027 95.9698 248.947 95.8998 248.851 95.8439C248.755 95.7886 248.645 95.7485 248.529 95.7257C248.412 95.703 248.291 95.6981 248.172 95.7114C247.932 95.7381 247.715 95.8371 247.57 95.9865C247.425 96.136 247.363 96.3236 247.398 96.5082C247.432 96.6928 247.561 96.8592 247.756 96.9708C247.85 97.0262 247.958 97.0666 248.073 97.0894C248.189 97.1123 248.309 97.1173 248.426 97.104C248.544 97.0907 248.657 97.0594 248.759 97.012C248.86 96.9647 248.949 96.9022 249.018 96.8282Z" fill="#425AC2"/>
<path d="M241.815 90.2537C241.926 90.2195 242.027 90.1683 242.112 90.1035C242.196 90.0386 242.263 89.9612 242.308 89.876C242.353 89.7908 242.376 89.6995 242.374 89.6075C242.372 89.5156 242.346 89.4248 242.297 89.3408C242.258 89.2492 242.194 89.165 242.11 89.0933C242.026 89.0216 241.924 88.9641 241.809 88.9242C241.695 88.8844 241.571 88.8632 241.446 88.862C241.32 88.8607 241.196 88.8795 241.08 88.917C240.964 88.9545 240.86 89.01 240.774 89.08C240.687 89.15 240.621 89.2329 240.578 89.3237C240.536 89.4144 240.518 89.5109 240.526 89.6071C240.534 89.7033 240.569 89.7972 240.626 89.8828C240.671 89.9682 240.738 90.0457 240.822 90.1109C240.906 90.1761 241.007 90.2275 241.118 90.2621C241.229 90.2967 241.348 90.3138 241.467 90.3124C241.587 90.3109 241.705 90.291 241.815 90.2537Z" fill="#425AC2"/>
<path d="M239.829 81.8233C239.948 81.8352 240.07 81.8287 240.186 81.8043C240.303 81.7798 240.411 81.7379 240.506 81.6808C240.601 81.6237 240.681 81.5527 240.74 81.4718C240.799 81.391 240.836 81.3019 240.85 81.2098C240.865 81.1162 240.855 81.0212 240.822 80.9304C240.789 80.8396 240.733 80.7546 240.657 80.6805C240.581 80.6063 240.487 80.5443 240.38 80.4981C240.273 80.4519 240.155 80.4223 240.033 80.411C239.911 80.3998 239.787 80.4071 239.669 80.4326C239.551 80.458 239.44 80.5011 239.344 80.5594C239.247 80.6177 239.167 80.69 239.107 80.7723C239.046 80.8545 239.008 80.945 238.993 81.0387C238.978 81.1328 238.987 81.2283 239.022 81.3194C239.056 81.4106 239.114 81.4954 239.192 81.5688C239.27 81.6422 239.367 81.7026 239.476 81.7463C239.586 81.7901 239.706 81.8163 239.829 81.8233Z" fill="#425AC2"/>
<path d="M243.597 73.7635C243.742 73.8453 243.915 73.8925 244.094 73.8991C244.273 73.9057 244.451 73.8714 244.605 73.8005C244.759 73.7297 244.882 73.6254 244.959 73.5009C245.036 73.3764 245.063 73.2371 245.038 73.1007C245.012 72.9642 244.934 72.8366 244.814 72.734C244.694 72.6314 244.538 72.5584 244.364 72.524C244.19 72.4896 244.007 72.4956 243.838 72.541C243.668 72.5864 243.52 72.6693 243.412 72.7793C243.27 72.9296 243.21 73.1165 243.244 73.3004C243.279 73.4842 243.406 73.6503 243.597 73.7635Z" fill="#425AC2"/>
<path d="M267.729 75.2826L260.534 82.0579L262.001 82.9777L269.196 76.2024L267.729 75.2826Z" fill="#425AC2"/>
<path d="M243.856 81.0306L243.708 82.1088L260.732 83.4904L260.88 82.4122L243.856 81.0306Z" fill="#425AC2"/>
<path d="M257.3 84.4755C257.616 85.095 258.165 85.628 258.877 86.0061C259.59 86.3841 260.433 86.59 261.299 86.5973C262.164 86.6046 263.013 86.413 263.736 86.047C264.459 85.6811 265.024 85.1575 265.357 84.5434C265.69 83.9294 265.776 83.2528 265.605 82.6007C265.434 81.9486 265.014 81.3505 264.397 80.8834C263.781 80.4162 262.997 80.1011 262.146 79.9787C261.295 79.8562 260.416 79.9319 259.621 80.1961C258.588 80.5395 257.769 81.1775 257.336 81.9758C256.903 82.774 256.89 83.6702 257.3 84.4755Z" fill="#FE958E"/>
<path d="M259.862 57.9724C259.881 57.5352 259.955 57.1004 260.084 56.6743C260.641 54.7297 262.18 53.0346 264.363 51.9619C266.546 50.8892 269.195 50.5267 271.726 50.9542C274.257 51.3817 276.463 52.5642 277.859 54.2415C279.255 55.9188 279.727 57.9535 279.171 59.8981C279.045 60.332 278.871 60.7568 278.651 61.1677L259.862 57.9724Z" fill="#425AC2"/>
<path d="M174.994 198.521H117.122L118.663 293.51H129.71C129.71 293.51 138.084 245.723 141.222 219.333H148.889L151.192 293.51H162.332C162.332 293.51 175.328 219.005 175.012 204.641C175.152 202.602 175.146 200.559 174.994 198.521Z" fill="#A4B8EA"/>
<path d="M174.995 198.522H117.124L109.883 139.452C109.251 134.645 115.304 130.508 123.009 130.508H169.091C176.796 130.508 182.867 134.645 182.217 139.452L174.995 198.522Z" fill="#0E24A5"/>
<path d="M143.301 141.378C143.471 141.714 143.765 142.005 144.146 142.215C144.528 142.425 144.981 142.545 145.45 142.56C145.919 142.575 146.383 142.485 146.786 142.3C147.189 142.116 147.514 141.845 147.72 141.521C150.301 137.47 155.963 131.407 155.963 130.109V121.393C155.963 119.411 152.12 119.582 149.855 119.582H142.428C140.163 119.582 136.32 121.179 136.32 123.162V130.109C136.394 131.393 141.259 137.327 143.301 141.378Z" fill="#E98896"/>
<path d="M137.955 124.987C145.605 130.407 152.326 128.653 157.598 121.763C163.855 113.575 165.99 104.645 158.341 99.2819C156.657 97.9936 154.645 96.9859 152.431 96.3219C150.217 95.6579 147.849 95.3518 145.474 95.4227C143.099 95.4937 140.768 95.9402 138.628 96.7343C136.488 97.5284 134.584 98.653 133.035 100.038C125.998 105.915 130.306 119.652 137.955 124.987Z" fill="#FFA6AD"/>
<path d="M133.98 145.957L92.5772 159.052C90.681 159.649 88.5954 159.795 86.5898 159.472C84.5843 159.149 82.7507 158.372 81.3259 157.24L44.1931 127.855L51.3969 121.579L87.49 142.648C87.49 142.648 109.176 132.662 117.865 130.908C121.745 130.137 131.381 138.154 131.381 138.154L133.98 145.957Z" fill="#0E24A5"/>
<path d="M118.496 293.381H129.747V300H106.948C105.444 300 104.924 297.404 106.242 296.848L118.496 293.381Z" fill="#112256"/>
<path d="M162.48 293.381H151.247V300H173.991C175.495 300 176.015 297.404 174.696 296.848L162.48 293.381Z" fill="#112256"/>
<mask id="mask0_1_219" style="mask-type:alpha" maskUnits="userSpaceOnUse" x="117" y="198" width="59" height="96">
<path d="M174.994 198.522H117.123L118.664 293.511H129.711C129.711 293.511 138.084 245.724 141.222 219.334H148.89L151.192 293.511H162.332C162.332 293.511 175.328 219.006 175.013 204.642C175.153 202.603 175.147 200.56 174.994 198.522Z" fill="#A4B8EA"/>
</mask>
<g mask="url(#mask0_1_219)">
<path d="M123.843 188.338H121.467V303.682H123.843V188.338Z" fill="#03053F"/>
<path d="M130.378 188.338H128.002V303.682H130.378V188.338Z" fill="#03053F"/>
<path d="M136.914 188.338H134.538V303.682H136.914V188.338Z" fill="#03053F"/>
<path d="M143.467 188.338H141.091V303.682H143.467V188.338Z" fill="#03053F"/>
<path d="M150.003 188.338H147.627V303.682H150.003V188.338Z" fill="#03053F"/>
<path d="M156.539 188.338H154.163V303.682H156.539V188.338Z" fill="#03053F"/>
<path d="M163.093 188.338H160.716V303.682H163.093V188.338Z" fill="#03053F"/>
<path d="M169.628 188.338H167.251V303.682H169.628V188.338Z" fill="#03053F"/>
</g>
<path d="M175.032 198.521H117.104V201.674H175.032V198.521Z" fill="#FFC1C1"/>
<path d="M51.4535 121.577C51.4535 121.577 53.4401 114.445 51.1936 114.445C48.9471 114.445 48.2044 118.653 47.2389 118.881C45.0852 119.395 42.1889 117.041 38.9583 114.944C35.7278 112.847 30.3992 113.161 30.622 115.329C31.0305 119.523 44.2497 127.896 44.2497 127.896L51.4535 121.577Z" fill="#E98896"/>
<path d="M157.578 145.957L198.981 159.052C200.878 159.649 202.963 159.795 204.969 159.472C206.974 159.149 208.808 158.372 210.233 157.24L247.365 127.855L240.162 121.579L204.069 142.648C204.069 142.648 182.383 132.662 173.712 130.908C169.814 130.137 160.196 138.154 160.196 138.154L157.578 145.957Z" fill="#0E24A5"/>
<path d="M240.106 121.577C240.106 121.577 238.138 114.445 240.366 114.445C242.594 114.445 243.355 118.653 244.339 118.881C246.474 119.395 249.37 117.041 252.601 114.944C255.832 112.847 261.16 113.161 260.956 115.329C260.529 119.523 247.31 127.896 247.31 127.896L240.106 121.577Z" fill="#E98896"/>
<path d="M71.2454 197.381C71.2454 198.509 71.6809 199.612 72.4969 200.551C73.313 201.489 74.4729 202.22 75.8299 202.652C77.1869 203.084 78.6802 203.197 80.1208 202.977C81.5614 202.757 82.8847 202.213 83.9233 201.415C84.9619 200.617 85.6692 199.601 85.9558 198.494C86.2423 197.387 86.0953 196.24 85.5332 195.197C84.9711 194.154 84.0192 193.263 82.7979 192.636C81.5766 192.009 80.1408 191.675 78.6719 191.675C76.7023 191.675 74.8133 192.276 73.4205 193.346C72.0278 194.416 71.2454 195.867 71.2454 197.381ZM73.9189 197.381C73.9153 196.646 74.1952 195.928 74.7234 195.316C75.2516 194.704 76.0043 194.227 76.886 193.944C77.7677 193.661 78.7389 193.586 79.6765 193.727C80.6141 193.869 81.476 194.221 82.153 194.739C82.8299 195.257 83.2915 195.918 83.4793 196.638C83.6671 197.357 83.5726 198.104 83.2077 198.782C82.8429 199.461 82.2242 200.041 81.43 200.449C80.6357 200.857 79.7017 201.075 78.7462 201.075C77.4691 201.075 76.2441 200.686 75.3393 199.994C74.4346 199.301 73.9238 198.362 73.9189 197.381Z" fill="#FE958E"/>
<path d="M80.5098 186.553H55.6865L60.4209 207.437H75.7754L80.5098 186.553Z" fill="#FE958E"/>
<path d="M197.199 203.2H251.431L258.858 177.41H204.644L197.199 203.2Z" fill="#BBBBBB"/>
<path d="M251.47 203.029H183.925V207.422H251.47V203.029Z" fill="#BBBBBB"/>
<path d="M225.532 190.976C225.532 191.518 225.741 192.047 226.133 192.498C226.525 192.948 227.081 193.299 227.733 193.506C228.384 193.714 229.101 193.768 229.792 193.662C230.484 193.557 231.119 193.296 231.618 192.913C232.116 192.53 232.456 192.042 232.593 191.51C232.731 190.979 232.66 190.428 232.39 189.928C232.121 189.427 231.664 189 231.077 188.699C230.491 188.398 229.802 188.237 229.097 188.237C228.629 188.237 228.165 188.308 227.733 188.446C227.3 188.583 226.907 188.785 226.576 189.039C226.245 189.294 225.983 189.596 225.804 189.928C225.624 190.26 225.532 190.616 225.532 190.976Z" fill="#4E687F"/>
<path d="M137.955 124.987C145.605 130.407 152.326 128.653 157.598 121.763C163.855 113.575 165.99 104.645 158.341 99.2819C156.657 97.9936 154.645 96.9859 152.431 96.3219C150.217 95.6579 147.849 95.3518 145.474 95.4227C143.099 95.4937 140.768 95.9402 138.628 96.7343C136.488 97.5284 134.584 98.653 133.035 100.038C125.998 105.915 130.306 119.652 137.955 124.987Z" fill="#E98896"/>
<path d="M129.934 119.952C128.449 116.899 128.783 110.266 133.295 110.908C136.637 111.379 133.536 114.902 136.507 115.287C139.477 115.672 133.406 104.717 140.981 101.95C148.185 99.3109 155.834 100.894 156.354 107.656C156.8 113.747 153.866 116.029 156.354 116.029C158.842 116.029 156.354 111.835 160.81 112.22C165.266 112.606 165.285 120.993 167.754 120.993C170.223 120.993 168.756 94.3182 168.756 94.3182L133.035 89.6965L123.621 104.945L129.934 119.952Z" fill="#425AC2"/>
</svg>
