<svg width="292" height="318" viewBox="0 0 292 318" fill="none" xmlns="http://www.w3.org/2000/svg">
    <g clip-path="url(#clip0_5116_23579)">
        <path d="M232.516 283.649H226.416V283.825H232.516V283.649Z" fill="#EBEBEB" />
        <path d="M291.878 275.226H278.406V275.401H291.878V275.226Z" fill="#EBEBEB" />
        <path d="M67.1465 276.405H36.8271V276.58H67.1465V276.405Z" fill="#EBEBEB" />
        <path d="M77.8445 276.405H73.4009V276.58H77.8445V276.405Z" fill="#EBEBEB" />
        <path d="M158.055 279.367H92.292V279.543H158.055V279.367Z" fill="#EBEBEB" />
        <path
            d="M166.374 239.136H30.8317C29.7686 239.136 28.749 238.713 27.9973 237.962C27.2456 237.21 26.8232 236.19 26.8232 235.127V44.5834C26.8325 43.5264 27.2589 42.5159 28.0096 41.7717C28.7603 41.0276 29.7746 40.6101 30.8317 40.6101H166.374C167.437 40.6101 168.456 41.0324 169.208 41.7841C169.96 42.5359 170.382 43.5554 170.382 44.6185V235.127C170.382 236.19 169.96 237.21 169.208 237.962C168.456 238.713 167.437 239.136 166.374 239.136ZM30.8317 40.7505C29.8157 40.7524 28.8418 41.1568 28.1234 41.8752C27.405 42.5936 27.0006 43.5674 26.9987 44.5834V235.127C27.0006 236.143 27.405 237.117 28.1234 237.836C28.8418 238.554 29.8157 238.958 30.8317 238.96H166.374C167.39 238.958 168.364 238.554 169.082 237.836C169.8 237.117 170.205 236.143 170.207 235.127V44.5834C170.205 43.5674 169.8 42.5936 169.082 41.8752C168.364 41.1568 167.39 40.7524 166.374 40.7505H30.8317Z"
            fill="#EBEBEB" />
        <path
            d="M318.224 239.136H182.668C181.605 239.134 180.587 238.711 179.835 237.96C179.084 237.208 178.661 236.19 178.659 235.127V44.5834C178.67 43.527 179.097 42.5175 179.848 41.7737C180.598 41.03 181.611 40.6119 182.668 40.6101H318.224C319.278 40.6138 320.289 41.0329 321.037 41.7766C321.784 42.5204 322.209 43.5288 322.218 44.5834V235.127C322.218 236.188 321.798 237.205 321.049 237.957C320.3 238.708 319.284 239.132 318.224 239.136ZM182.668 40.7505C181.652 40.7524 180.678 41.1568 179.959 41.8752C179.241 42.5936 178.837 43.5674 178.835 44.5834V235.127C178.837 236.143 179.241 237.117 179.959 237.836C180.678 238.554 181.652 238.958 182.668 238.96H318.224C319.24 238.958 320.214 238.554 320.932 237.836C321.65 237.117 322.055 236.143 322.057 235.127V44.5834C322.055 43.5674 321.65 42.5936 320.932 41.8752C320.214 41.1568 319.24 40.7524 318.224 40.7505H182.668Z"
            fill="#EBEBEB" />
        <path d="M351 270.445H0V270.62H351V270.445Z" fill="#EBEBEB" />
        <path d="M106.578 75.5347L106.114 75.7312L106.5 76.6508L106.964 76.4683L106.578 75.5347Z"
            fill="#E0E0E0" />
        <path
            d="M107.848 76.349C107.869 76.2827 107.869 76.2117 107.848 76.1454L107.462 75.2118C107.439 75.1437 107.391 75.0865 107.329 75.0503C107.259 75.0503 107.329 75.4013 107.462 75.7523C107.596 76.1033 107.778 76.4122 107.848 76.349Z"
            fill="#E0E0E0" />
        <path
            d="M45.3843 119.936C45.2843 120.003 45.2062 120.099 45.1596 120.21L44.4997 121.803C44.4617 121.92 44.4617 122.045 44.4997 122.161C44.6331 122.211 44.942 121.754 45.2017 121.143C45.4615 120.533 45.5106 119.985 45.3843 119.936Z"
            fill="#E0E0E0" />
        <path
            d="M163.111 299.445C238.283 299.445 299.222 295.887 299.222 291.498C299.222 287.109 238.283 283.551 163.111 283.551C87.9389 283.551 27 287.109 27 291.498C27 295.887 87.9389 299.445 163.111 299.445Z"
            fill="#F5F5F5" />
        <path
            d="M269.343 59.9923C265.833 59.9923 264.535 61.5998 262.288 63.9375C260.456 61.5998 259.41 59.9923 255.928 59.9923C254.218 59.916 252.548 60.5216 251.285 61.676C250.021 62.8304 249.267 64.4391 249.189 66.1488C249.12 67.4034 249.32 68.6583 249.774 69.8299C250.227 71.0016 250.926 72.0632 251.821 72.9441L256.356 77.8581C254.922 79.8354 253.038 81.4428 250.86 82.5475C252.251 82.9312 253.716 82.956 255.12 82.6196C256.523 82.2833 257.818 81.5967 258.884 80.624L260.66 82.5616L271.19 72.9231C273.633 70.7118 274.819 68.2899 275.009 66.1277C275.331 62.4493 273.078 59.9923 269.343 59.9923Z"
            fill="#1CC9BC" />
        <path
            d="M269.343 59.9923C265.833 59.9923 264.535 61.5998 262.288 63.9375C260.456 61.5998 259.41 59.9923 255.928 59.9923C254.218 59.916 252.548 60.5216 251.285 61.676C250.021 62.8304 249.267 64.4391 249.189 66.1488C249.12 67.4034 249.32 68.6583 249.774 69.8299C250.227 71.0016 250.926 72.0632 251.821 72.9441L256.356 77.8581C254.922 79.8354 253.038 81.4428 250.86 82.5475C252.251 82.9312 253.716 82.956 255.12 82.6196C256.523 82.2833 257.818 81.5967 258.884 80.624L260.66 82.5616L271.19 72.9231C273.633 70.7118 274.819 68.2899 275.009 66.1277C275.331 62.4493 273.078 59.9923 269.343 59.9923Z"
            fill="#FF960A" />
        <path
            d="M261.481 75.4363L253.703 66.914C253.429 66.5855 253.296 66.1622 253.333 65.7363C253.37 65.3103 253.574 64.9161 253.9 64.6395C254.048 64.4892 254.225 64.3699 254.421 64.2885C254.616 64.2071 254.825 64.1652 255.037 64.1652C255.248 64.1652 255.458 64.2071 255.653 64.2885C255.848 64.3699 256.025 64.4892 256.174 64.6395L261.874 70.8873L275.072 58.7497C275.374 58.4496 275.783 58.2812 276.209 58.2812C276.635 58.2812 277.044 58.4496 277.346 58.7497C277.62 59.0782 277.753 59.5014 277.716 59.9274C277.679 60.3534 277.476 60.7476 277.15 61.0242L261.481 75.4363Z"
            fill="white" />
        <path
            d="M211.14 264.716H143.544C141.781 264.749 140.031 264.405 138.411 263.708C136.791 263.011 135.338 261.977 134.149 260.675C132.96 259.372 132.062 257.831 131.516 256.154C130.969 254.477 130.786 252.703 130.979 250.95L145.11 89.385C145.491 85.6608 147.221 82.2047 149.974 79.6678C152.727 77.1308 156.313 75.6882 160.056 75.6117H227.658C229.421 75.5812 231.171 75.9266 232.79 76.6248C234.409 77.323 235.861 78.358 237.049 79.661C238.237 80.964 239.134 82.5051 239.681 84.1818C240.227 85.8584 240.41 87.6322 240.217 89.385L226.114 250.95C225.732 254.678 223.997 258.138 221.238 260.674C218.48 263.21 214.887 264.648 211.14 264.716Z"
            fill="#1CC9BC" />
        <path
            d="M207.63 264.716H140.035C138.271 264.749 136.521 264.405 134.901 263.708C133.281 263.011 131.828 261.977 130.639 260.675C129.45 259.372 128.552 257.831 128.006 256.154C127.459 254.477 127.276 252.703 127.469 250.95L141.6 89.385C141.981 85.6608 143.712 82.2047 146.464 79.6678C149.217 77.1308 152.803 75.6882 156.546 75.6117H224.148C225.911 75.5812 227.661 75.9266 229.28 76.6248C230.899 77.323 232.351 78.358 233.539 79.661C234.728 80.964 235.625 82.5051 236.171 84.1818C236.717 85.8584 236.9 87.6322 236.707 89.385L222.604 250.95C222.222 254.678 220.488 258.138 217.729 260.674C214.97 263.21 211.377 264.648 207.63 264.716Z"
            fill="#263238" />
        <path
            d="M223.897 78.5196H206.347C205.774 78.5299 205.222 78.7329 204.778 79.0959C204.335 79.4589 204.027 79.9607 203.904 80.5203L203.792 81.0678C203.494 82.4382 202.743 83.6684 201.661 84.5599C200.578 85.4514 199.227 85.9523 197.825 85.9818H181.117C179.788 86.0063 178.504 85.5027 177.546 84.5815C176.588 83.6602 176.034 82.3966 176.007 81.0678V80.5203C175.992 79.9759 175.762 79.4596 175.367 79.0846C174.972 78.7096 174.445 78.5064 173.901 78.5196H156.351C153.462 78.5716 150.692 79.6804 148.566 81.6363C146.439 83.5921 145.103 86.2595 144.81 89.1338L130.629 250.699C130.48 252.05 130.621 253.417 131.042 254.709C131.463 256.001 132.155 257.188 133.071 258.192C133.987 259.196 135.106 259.993 136.355 260.53C137.603 261.067 138.951 261.331 140.31 261.306H207.906C210.794 261.256 213.563 260.149 215.69 258.194C217.817 256.239 219.153 253.573 219.446 250.699L233.578 89.1338C233.726 87.7828 233.586 86.4155 233.165 85.1231C232.744 83.8308 232.052 82.6429 231.136 81.6386C230.221 80.6344 229.101 79.8368 227.853 79.299C226.605 78.7611 225.256 78.4954 223.897 78.5196Z"
            fill="white" />
        <g opacity="0.7">
            <path
                d="M185.854 80.5607C185.818 80.9252 185.65 81.2638 185.38 81.5123C185.111 81.7607 184.76 81.9017 184.394 81.9086C184.222 81.9116 184.05 81.8778 183.892 81.8095C183.733 81.7412 183.591 81.6399 183.475 81.5124C183.359 81.3849 183.271 81.234 183.218 81.0699C183.164 80.9058 183.147 80.7322 183.166 80.5607C183.205 80.1981 183.374 79.862 183.643 79.6153C183.912 79.3686 184.261 79.228 184.626 79.2199C184.798 79.217 184.968 79.2506 185.126 79.3185C185.284 79.3864 185.426 79.487 185.542 79.6138C185.658 79.7405 185.746 79.8905 185.8 80.0537C185.854 80.2169 185.872 80.3898 185.854 80.5607Z"
                fill="black" />
            <path
                d="M195.493 79.22H190.887C190.522 79.2267 190.172 79.3667 189.903 79.6137C189.634 79.8607 189.465 80.1976 189.427 80.5609C189.408 80.7318 189.426 80.9048 189.479 81.0684C189.532 81.232 189.619 81.3824 189.734 81.5099C189.85 81.6373 189.991 81.7387 190.149 81.8075C190.306 81.8762 190.477 81.9107 190.649 81.9087H195.254C195.62 81.9019 195.971 81.7609 196.24 81.5124C196.509 81.264 196.678 80.9254 196.714 80.5609C196.732 80.3905 196.713 80.2183 196.66 80.0555C196.607 79.8928 196.519 79.7432 196.404 79.6166C196.289 79.4899 196.148 79.3891 195.991 79.3208C195.834 79.2525 195.664 79.2181 195.493 79.22Z"
                fill="black" />
        </g>
        <path d="M152.397 86.1698H153.822L153.948 84.7517H152.523L152.397 86.1698Z"
            fill="#1CC9BC" />
        <path
            d="M155.367 84.7517L155.24 86.1698H156.665L156.792 84.7517L156.911 83.3267H155.493L155.367 84.7517Z"
            fill="#1CC9BC" />
        <path
            d="M158.462 81.9087L158.336 83.3267L158.209 84.7518L158.083 86.1698H159.508L159.634 84.7518L159.754 83.3267L159.88 81.9087H158.462Z"
            fill="#1CC9BC" />
        <path
            d="M219.585 82.0281L219.494 83.0741H218.792L218.609 85.1801H219.311L219.22 86.219H225.475L225.84 82.0491L219.585 82.0281ZM222.091 85.159H219.985L220.168 83.053H222.274L222.091 85.159Z"
            fill="#1CC9BC" />
        <path opacity="0.3"
            d="M233.576 89.3849C233.716 88.0159 233.563 86.6329 233.129 85.3272C232.694 84.0215 231.988 82.8229 231.056 81.8103L133.331 258.714C134.243 259.633 135.331 260.359 136.53 260.85C137.728 261.341 139.013 261.586 140.308 261.571H207.904C210.792 261.521 213.562 260.414 215.688 258.459C217.815 256.504 219.152 253.838 219.445 250.964L233.576 89.3849Z"
            fill="white" />
        <path d="M178.203 197.239H178.208V197.233L178.203 197.239Z" fill="#263238" />
        <path d="M183.276 182.216V182.21H183.271V182.216H183.276Z" fill="#263238" />
        <path d="M195.107 197.239H195.113V197.233H195.107V197.239Z" fill="#263238" />
        <path
            d="M193.394 195.366H191.52C191.576 194.748 191.632 194.138 191.688 193.499H189.807C189.863 192.853 189.919 192.228 189.975 191.61H186.227C186.283 190.986 186.339 190.375 186.395 189.736H188.248C188.361 188.465 188.473 187.223 188.578 185.98H186.732C186.844 184.71 186.95 183.467 187.062 182.225H183.313C183.264 182.835 183.208 183.453 183.152 184.078H181.271C181.32 183.46 181.376 182.842 181.432 182.225H179.544C179.319 184.745 179.101 187.23 178.884 189.715H175.156C175.268 188.465 175.374 187.223 175.486 185.973H177.332C177.389 185.341 177.445 184.724 177.501 184.085H175.627C175.683 183.453 175.739 182.849 175.788 182.232H162.611C162.555 182.863 162.499 183.481 162.443 184.092H158.652C158.708 183.453 158.764 182.842 158.814 182.232H156.967C156.855 183.481 156.75 184.724 156.637 185.987H158.484C158.435 186.619 158.378 187.23 158.322 187.862H156.476C156.146 191.631 155.816 195.373 155.493 199.094H157.353C157.466 197.837 157.571 196.602 157.683 195.366H159.565C159.452 196.616 159.347 197.851 159.235 199.087H161.116C161.228 197.837 161.334 196.595 161.446 195.359H163.32C163.264 195.984 163.208 196.595 163.152 197.233H165.033C164.977 197.865 164.928 198.476 164.872 199.087H168.628C168.684 198.455 168.733 197.844 168.789 197.226H170.656C170.333 200.97 170.006 204.728 169.674 208.5H173.436C173.324 209.764 173.219 211.007 173.113 212.249H174.995C175.051 211.61 175.1 211 175.156 210.361H177.038C177.143 209.104 177.255 207.869 177.36 206.612H179.228C179.284 205.98 179.34 205.363 179.389 204.752H181.264C181.151 206.001 181.046 207.237 180.934 208.5H179.08C179.024 209.139 178.975 209.743 178.919 210.375H180.793C180.737 211.014 180.681 211.624 180.632 212.235H182.52C182.569 211.603 182.625 211 182.682 210.368H188.298C188.354 209.729 188.403 209.111 188.459 208.5H190.34C190.397 207.855 190.453 207.237 190.509 206.605H194.251C194.524 203.46 194.798 200.343 195.072 197.226H193.198C193.282 196.602 193.338 195.984 193.394 195.366ZM189.652 195.366H191.513C191.464 195.977 191.407 196.588 191.351 197.219H189.491C189.54 196.616 189.603 195.998 189.652 195.366ZM187.912 193.499C187.855 194.109 187.799 194.72 187.743 195.359H185.89C185.939 194.741 185.995 194.131 186.051 193.499H187.912ZM168.094 184.106H171.822C171.716 185.341 171.604 186.577 171.499 187.841H169.638C169.695 187.23 169.744 186.612 169.8 185.973H167.933C167.989 185.341 168.045 184.738 168.094 184.106ZM160.421 185.98H162.289L162.45 184.092H164.31C164.205 185.341 164.093 186.577 163.987 187.834H160.253C160.309 187.216 160.365 186.626 160.421 185.98ZM157.887 193.478C157.943 192.86 157.999 192.249 158.055 191.61H159.902C159.958 190.979 160.014 190.368 160.07 189.743H163.826C163.77 190.347 163.721 190.957 163.657 191.603H165.546C165.49 192.228 165.433 192.853 165.384 193.478H157.887ZM165.223 195.345L165.391 193.485H167.259C167.21 194.102 167.153 194.727 167.104 195.345H165.223ZM167.111 195.345H168.979C168.922 195.991 168.866 196.609 168.81 197.226H166.943L167.111 195.345ZM171.169 191.589H169.302C169.252 192.207 169.196 192.825 169.14 193.471H167.266L167.434 191.596H165.553C165.658 190.354 165.77 189.111 165.883 187.841H167.778C167.722 188.486 167.673 189.104 167.617 189.715H171.358C171.288 190.347 171.225 190.964 171.169 191.596V191.589ZM172.573 197.205H170.713C170.825 195.97 170.93 194.727 171.042 193.471H172.903C172.776 194.734 172.692 195.97 172.552 197.233L172.573 197.205ZM172.117 202.821C172.173 202.204 172.222 201.593 172.278 200.961H176.013C175.963 201.579 175.907 202.204 175.851 202.821H172.117ZM173.668 206.563C173.717 205.952 173.773 205.341 173.829 204.703H175.69C175.634 205.32 175.577 205.931 175.528 206.563H173.668ZM185.23 202.821H179.614C179.558 203.467 179.502 204.085 179.452 204.71H175.711C175.767 204.092 175.816 203.467 175.872 202.842H177.74C177.796 202.211 177.852 201.6 177.908 200.961H181.664C181.72 200.329 181.769 199.725 181.825 199.101H185.574C185.433 200.371 185.328 201.607 185.209 202.87L185.23 202.821ZM178.21 197.205C178.154 197.823 178.105 198.434 178.048 199.066H174.3C174.517 196.573 174.735 194.088 174.953 191.575H180.569C180.674 190.312 180.786 189.076 180.892 187.82H182.766C182.717 188.437 182.661 189.048 182.604 189.68H184.479C184.317 191.561 184.149 193.429 183.987 195.331H185.869C185.82 195.942 185.763 196.559 185.707 197.205H178.21ZM184.914 206.612H188.649C188.599 207.23 188.543 207.855 188.487 208.472H184.753C184.809 207.89 184.858 207.272 184.914 206.647V206.612ZM192.566 204.703H186.95C187.118 202.842 187.28 200.982 187.441 199.087H193.057C192.896 201.01 192.727 202.87 192.566 204.738V204.703Z"
            fill="#263238" />
        <path
            d="M171.429 167.195H158.308C157.925 171.585 157.543 175.958 157.164 180.315H170.284C170.664 175.935 171.045 171.561 171.429 167.195ZM168.48 178.35H159.305C159.572 175.294 159.841 172.235 160.112 169.174H169.288C169.021 172.235 168.752 175.294 168.48 178.35Z"
            fill="#263238" />
        <path
            d="M192.123 167.202C191.74 171.592 191.356 175.965 190.972 180.322H204.093C204.479 175.942 204.858 171.582 205.244 167.202H192.123ZM202.295 178.349H193.12C193.387 175.293 193.654 172.235 193.921 169.174H203.096L202.295 178.349Z"
            fill="#263238" />
        <path
            d="M154.202 214.137H167.315C167.699 209.743 168.083 205.369 168.466 201.017H155.346C154.967 205.398 154.581 209.792 154.202 214.137ZM157.143 202.983H166.318C166.051 206.029 165.785 209.088 165.518 212.158H156.343C156.61 209.09 156.876 206.043 157.143 202.983Z"
            fill="#263238" />
        <path
            d="M198.133 184.071H196.251L196.413 182.225H194.531C194.482 182.856 194.426 183.467 194.37 184.099H192.496C192.446 184.731 192.39 185.341 192.334 185.973H190.467C190.411 186.584 190.354 187.202 190.298 187.841H192.173C192.117 188.486 192.06 189.104 192.011 189.729H193.886C193.991 188.472 194.103 187.237 194.208 185.98H196.083C195.978 187.216 195.865 188.451 195.753 189.715H201.411C201.355 190.361 201.299 190.979 201.243 191.596H203.103C203.271 189.708 203.433 187.848 203.594 185.98H201.734L201.902 184.092H203.763C203.819 183.46 203.875 182.849 203.924 182.239H198.308C198.238 182.849 198.189 183.467 198.133 184.071ZM197.992 185.973H201.727C201.678 186.584 201.622 187.202 201.565 187.827H197.831C197.88 187.223 197.964 186.626 197.964 185.973H197.992Z"
            fill="#263238" />
        <path d="M190.466 185.972V185.966H190.46V185.972H190.466Z" fill="#263238" />
        <path
            d="M199.207 193.471H195.444C195.5 192.853 195.556 192.242 195.606 191.617H193.752C193.64 192.867 193.528 194.109 193.422 195.359H195.304C195.248 195.998 195.191 196.616 195.135 197.233H197.017C196.911 198.504 196.799 199.746 196.694 200.989H200.435L200.772 197.24H202.633C202.745 195.97 202.85 194.734 202.963 193.471H201.095C201.151 192.832 201.201 192.221 201.257 191.603H199.368C199.312 192.242 199.256 192.839 199.207 193.471ZM199.045 195.373H200.906C200.85 195.998 200.8 196.616 200.744 197.233H198.884C198.94 196.616 198.996 196.005 199.045 195.373Z"
            fill="#263238" />
        <path d="M201.235 191.602H201.241V191.596H201.235V191.602Z" fill="#263238" />
        <path d="M200.42 200.989H200.414V200.995L200.42 200.989Z" fill="#263238" />
        <path d="M193.4 195.359H193.394V195.365H193.4V195.359Z" fill="#263238" />
        <path d="M193.794 212.263V212.269H193.8V212.263H193.794Z" fill="#263238" />
        <path
            d="M197.873 208.515H192.257C192.201 209.153 192.145 209.764 192.095 210.396H190.242C190.186 211.028 190.13 211.638 190.074 212.263H193.815C193.872 211.645 193.921 211.035 193.977 210.403H195.858L195.69 212.263H199.459C199.403 212.909 199.347 213.527 199.291 214.131H201.144C201.362 211.624 201.579 209.139 201.797 206.647H198.034C197.964 207.272 197.964 207.883 197.873 208.515Z"
            fill="#263238" />
        <path
            d="M178.463 172.811H180.33C180.386 172.172 180.435 171.568 180.491 170.936H178.624C178.68 170.298 178.736 169.68 178.786 169.069H175.023C175.079 168.416 175.135 167.806 175.184 167.195H173.338C173.17 169.076 173.008 170.936 172.847 172.811H174.714C174.77 172.179 174.826 171.575 174.875 170.965H176.75C176.644 172.221 176.532 173.464 176.427 174.699H178.308C178.35 174.074 178.407 173.457 178.463 172.811Z"
            fill="#263238" />
        <path d="M178.786 169.062V169.068H178.792L178.786 169.062Z" fill="#263238" />
        <path d="M182.05 174.692V174.697H182.056L182.05 174.692Z" fill="#263238" />
        <path d="M174.214 178.453V178.448H174.208L174.214 178.453Z" fill="#263238" />
        <path d="M176.42 174.697H176.426V174.692H176.42V174.697H176.426H176.42Z" fill="#263238" />
        <path
            d="M181.888 176.574L182.05 174.699H178.308C178.252 175.317 178.203 175.928 178.147 176.56H176.258L176.427 174.699H172.692C172.636 175.338 172.58 175.949 172.531 176.581H174.398C174.342 177.219 174.286 177.837 174.23 178.448H176.118C176.062 179.101 176.006 179.712 175.957 180.322H177.824L177.992 178.448H179.86C179.916 177.837 179.965 177.219 180.021 176.574H181.888Z"
            fill="#263238" />
        <path d="M178.3 174.697V174.692H178.294V174.697H178.3Z" fill="#263238" />
        <path d="M179.846 178.448V178.453H179.852V178.448H179.846Z" fill="#263238" />
        <path
            d="M198.386 202.884C198.329 203.516 198.28 204.12 198.224 204.738H201.952C202.064 203.488 202.169 202.246 202.282 200.996H200.421C200.365 201.621 200.309 202.239 200.253 202.884H198.386Z"
            fill="#263238" />
        <path d="M200.42 200.989L200.414 200.995H200.42V200.989Z" fill="#263238" />
        <path
            d="M183.974 174.25L184.247 170.937H182.387C182.275 172.214 182.169 173.457 182.057 174.692H183.924C183.924 174.531 183.96 174.39 183.974 174.25Z"
            fill="#263238" />
        <path d="M182.05 174.692L182.056 174.697V174.692H182.05Z" fill="#263238" />
        <path
            d="M169.231 214.131H172.966C173.022 213.499 173.078 212.881 173.128 212.27H169.393C169.337 212.902 169.281 213.52 169.231 214.131Z"
            fill="#263238" />
        <path
            d="M184.261 214.13H187.982C188.038 213.506 188.094 212.895 188.143 212.277H184.423C184.367 212.909 184.31 213.527 184.261 214.13Z"
            fill="#263238" />
        <path d="M188.585 185.966H188.579V185.972H188.585V185.966Z" fill="#263238" />
        <path
            d="M190.783 182.225H188.915C188.803 183.481 188.698 184.724 188.585 185.966H190.46C190.565 184.717 190.677 183.474 190.783 182.225Z"
            fill="#263238" />
        <path
            d="M176.743 214.123H178.596C178.652 213.499 178.701 212.895 178.757 212.277H176.904C176.848 212.909 176.799 213.52 176.743 214.123Z"
            fill="#263238" />
        <path
            d="M180.814 167.202H178.961C178.905 167.833 178.849 168.444 178.792 169.062H180.653C180.709 168.423 180.765 167.812 180.814 167.202Z"
            fill="#263238" />
        <path d="M178.786 169.062L178.792 169.068V169.062H178.786Z" fill="#263238" />
        <path d="M184.436 169.048L184.43 169.053L184.436 169.048Z" fill="#263238" />
        <path
            d="M182.724 167.202C182.668 167.826 182.619 168.43 182.562 169.048H184.43L184.598 167.202H182.724Z"
            fill="#263238" />
        <path d="M186.142 170.937H186.136V170.943L186.142 170.937Z" fill="#263238" />
        <path d="M184.43 169.053H184.436V169.048L184.43 169.053Z" fill="#263238" />
        <path d="M184.261 170.929H184.254V170.935V170.929L184.247 170.935H184.261V170.929Z"
            fill="#263238" />
        <path
            d="M186.304 169.076H184.437C184.381 169.701 184.317 170.326 184.261 170.951H186.136C186.192 170.319 186.248 169.701 186.304 169.076Z"
            fill="#263238" />
        <path
            d="M190.045 169.076H188.199C188.143 169.708 188.087 170.326 188.031 170.943H189.877C189.933 170.291 189.989 169.68 190.045 169.076Z"
            fill="#263238" />
        <path d="M195.668 212.269H195.673V212.263L195.668 212.269Z" fill="#263238" />
        <path
            d="M193.64 214.131H195.507C195.564 213.499 195.62 212.881 195.669 212.27H193.802C193.752 212.888 193.689 213.506 193.64 214.131Z"
            fill="#263238" />
        <path d="M174.214 178.453L174.208 178.448V178.453H174.214Z" fill="#263238" />
        <path
            d="M172.187 180.308H174.047C174.103 179.676 174.16 179.066 174.209 178.448H172.348C172.292 179.094 172.243 179.704 172.187 180.308Z"
            fill="#263238" />
        <path
            d="M187.841 172.825C187.841 172.586 187.89 172.347 187.911 172.123L187.848 172.825C187.689 174.697 187.525 176.569 187.357 178.441H189.224C189.442 175.928 189.659 173.443 189.877 170.958H188.024H186.142C186.086 171.575 186.037 172.193 185.981 172.839L187.841 172.825Z"
            fill="#263238" />
        <path d="M186.142 170.937L186.136 170.943H186.142V170.937Z" fill="#263238" />
        <path d="M188.03 170.948V170.943H188.024V170.948H188.03Z" fill="#263238" />
        <path d="M181.727 178.453H181.733V178.448H181.727V178.453Z" fill="#263238" />
        <path d="M181.559 180.329V180.334H181.565V180.329H181.559Z" fill="#263238" />
        <path
            d="M179.853 178.455C179.797 179.08 179.741 179.697 179.691 180.329H181.559L181.727 178.455H179.853Z"
            fill="#263238" />
        <path d="M181.893 176.58V176.573H181.889V176.58H181.893Z" fill="#263238" />
        <path
            d="M183.601 178.448C183.657 177.83 183.714 177.212 183.763 176.581H181.895C181.839 177.205 181.783 177.83 181.734 178.448H183.601Z"
            fill="#263238" />
        <path
            d="M183.44 180.308H181.566C181.51 180.933 181.46 181.558 181.404 182.182H183.272L183.44 180.308Z"
            fill="#263238" />
        <path d="M183.44 180.334H183.446V180.329H183.44V180.334Z" fill="#263238" />
        <path d="M181.403 182.21H181.397V182.216H181.403V182.21Z" fill="#263238" />
        <path d="M183.606 178.453V178.448H183.601V178.453H183.606Z" fill="#263238" />
        <path
            d="M185.328 180.308C185.385 179.669 185.441 179.059 185.497 178.434H183.637C183.58 179.059 183.531 179.683 183.475 180.308H185.328Z"
            fill="#263238" />
        <path d="M178.203 197.239L178.208 197.233H178.203V197.239Z" fill="#263238" />
        <path
            d="M182.113 195.352C182.169 194.72 182.225 194.11 182.275 193.499H176.659C176.546 194.748 176.441 195.984 176.329 197.233H178.189C178.245 196.616 178.294 195.998 178.357 195.352H182.113Z"
            fill="#263238" />
        <path
            d="M193.752 191.603H195.634C195.69 190.957 195.746 190.34 195.802 189.722H193.914C193.844 190.375 193.788 190.993 193.752 191.603Z"
            fill="#263238" />
        <path
            d="M191.007 201.003H189.161C189.105 201.635 189.056 202.246 189 202.856H190.846C190.902 202.225 190.944 201.614 191.007 201.003Z"
            fill="#263238" />
        <path
            d="M167.343 170.958H161.727C161.558 172.83 161.394 174.702 161.235 176.574H166.851L167.343 170.958Z"
            fill="#263238" />
        <path
            d="M201.151 170.95H195.535C195.374 172.825 195.212 174.685 195.044 176.566H200.66C200.821 174.692 200.99 172.811 201.151 170.95Z"
            fill="#263238" />
        <path
            d="M158.28 210.368H163.896C164.058 208.493 164.226 206.626 164.388 204.752H158.772C158.61 206.633 158.449 208.493 158.28 210.368Z"
            fill="#263238" />
        <path
            d="M153.851 176.721H153.373C153.298 176.721 153.224 176.706 153.155 176.676C153.087 176.645 153.025 176.601 152.975 176.545C152.924 176.49 152.886 176.424 152.863 176.353C152.84 176.281 152.832 176.206 152.84 176.131L153.738 166.072C153.838 165.107 154.286 164.211 155 163.554C155.714 162.897 156.644 162.524 157.613 162.505H167.673C167.748 162.505 167.822 162.52 167.891 162.551C167.96 162.581 168.021 162.625 168.072 162.681C168.122 162.737 168.16 162.802 168.183 162.874C168.207 162.945 168.215 163.02 168.207 163.095L168.165 163.572C168.148 163.731 168.073 163.879 167.956 163.987C167.838 164.096 167.686 164.158 167.526 164.162H157.452C156.926 164.16 156.418 164.355 156.028 164.708C155.638 165.061 155.395 165.548 155.346 166.072L154.461 176.131C154.445 176.286 154.375 176.429 154.264 176.537C154.152 176.645 154.006 176.71 153.851 176.721Z"
            fill="#263238" />
        <path
            d="M191.253 218.216L191.295 217.746C191.311 217.584 191.385 217.434 191.504 217.324C191.624 217.214 191.779 217.152 191.941 217.149H201.994C202.514 217.143 203.013 216.944 203.396 216.592C203.778 216.239 204.016 215.758 204.065 215.24L204.984 205.201C205 205.042 205.074 204.893 205.191 204.784C205.309 204.676 205.463 204.614 205.623 204.611H206.101C206.176 204.61 206.251 204.625 206.321 204.655C206.39 204.684 206.453 204.729 206.504 204.784C206.555 204.84 206.594 204.906 206.617 204.978C206.641 205.05 206.649 205.126 206.641 205.201L205.757 215.254C205.659 216.219 205.21 217.116 204.496 217.773C203.782 218.43 202.852 218.803 201.882 218.82H191.794C191.717 218.823 191.64 218.809 191.568 218.778C191.497 218.748 191.433 218.703 191.382 218.645C191.33 218.587 191.292 218.519 191.27 218.445C191.248 218.371 191.242 218.293 191.253 218.216Z"
            fill="#263238" />
        <path
            d="M208.494 176.721H208.017C207.942 176.721 207.867 176.706 207.799 176.676C207.73 176.645 207.669 176.601 207.618 176.545C207.568 176.49 207.53 176.424 207.507 176.353C207.483 176.281 207.475 176.206 207.483 176.131L208.354 166.149C208.399 165.753 208.321 165.353 208.129 165.004C207.972 164.746 207.75 164.533 207.485 164.387C207.22 164.24 206.922 164.165 206.62 164.169H196.56C196.484 164.17 196.409 164.156 196.34 164.126C196.27 164.096 196.208 164.052 196.157 163.996C196.106 163.94 196.067 163.874 196.043 163.802C196.02 163.731 196.012 163.655 196.02 163.579L196.062 163.109C196.077 162.948 196.152 162.799 196.271 162.69C196.391 162.581 196.546 162.52 196.708 162.519H206.627C207.483 162.494 208.318 162.787 208.971 163.341C209.348 163.685 209.639 164.112 209.821 164.589C210.002 165.065 210.07 165.578 210.017 166.085L209.133 176.138C209.114 176.296 209.04 176.442 208.922 176.549C208.805 176.656 208.653 176.717 208.494 176.721Z"
            fill="#263238" />
        <path
            d="M152.664 218.82C152.155 218.828 151.652 218.716 151.194 218.492C150.737 218.269 150.339 217.941 150.032 217.535C149.541 216.834 149.324 215.978 149.421 215.127L150.291 205.201C150.307 205.041 150.381 204.893 150.498 204.784C150.616 204.676 150.77 204.614 150.93 204.611H151.408C151.484 204.609 151.559 204.623 151.629 204.652C151.699 204.682 151.762 204.726 151.814 204.782C151.865 204.838 151.904 204.904 151.927 204.977C151.95 205.049 151.957 205.126 151.948 205.201L151.071 215.191C151.024 215.587 151.105 215.988 151.302 216.335C151.457 216.594 151.678 216.807 151.942 216.954C152.205 217.1 152.503 217.175 152.805 217.17H162.864C162.94 217.168 163.016 217.181 163.086 217.211C163.156 217.24 163.219 217.285 163.27 217.341C163.322 217.397 163.36 217.463 163.383 217.535C163.407 217.608 163.414 217.684 163.405 217.76L163.363 218.23C163.347 218.39 163.273 218.538 163.156 218.647C163.038 218.756 162.884 218.817 162.724 218.82H152.664Z"
            fill="#263238" />
        <path
            d="M219.817 123.699H151.492C150.772 123.712 150.057 123.571 149.395 123.287C148.733 123.003 148.14 122.582 147.653 122.051C147.166 121.52 146.798 120.891 146.573 120.207C146.348 119.523 146.27 118.799 146.346 118.083L147.343 106.598C147.513 105.077 148.229 103.669 149.359 102.636C150.489 101.603 151.955 101.015 153.485 100.982H221.832C222.552 100.969 223.267 101.109 223.929 101.393C224.59 101.678 225.184 102.099 225.671 102.63C226.157 103.161 226.525 103.79 226.751 104.474C226.976 105.158 227.053 105.882 226.978 106.598L225.981 118.062C225.815 119.59 225.098 121.006 223.964 122.044C222.829 123.082 221.355 123.67 219.817 123.699Z"
            fill="#1CC9BC" />
        <path
            d="M169.884 116.724V108.985H174.736V109.917H170.962V112.343H174.062V113.253H170.962V115.791H174.736V116.724H169.884Z"
            fill="white" />
        <path d="M176.373 114.129V113.197H179.765V114.129H176.373Z" fill="white" />
        <path
            d="M184.412 116.836C183.828 116.836 183.345 116.754 182.963 116.589C182.589 116.424 182.297 116.177 182.087 115.848C181.877 115.511 181.731 115.095 181.649 114.601C181.567 114.099 181.525 113.523 181.525 112.871C181.525 112.205 181.567 111.621 181.649 111.119C181.731 110.617 181.877 110.202 182.087 109.872C182.304 109.535 182.6 109.284 182.974 109.12C183.349 108.947 183.832 108.861 184.423 108.861C184.685 108.861 184.951 108.876 185.221 108.906C185.49 108.929 185.741 108.962 185.973 109.007C186.213 109.045 186.419 109.082 186.591 109.12L186.546 110.007C186.389 109.977 186.19 109.951 185.951 109.928C185.719 109.898 185.479 109.872 185.232 109.85C184.992 109.827 184.771 109.816 184.569 109.816C184.165 109.816 183.835 109.876 183.581 109.996C183.326 110.116 183.128 110.299 182.986 110.546C182.851 110.793 182.757 111.108 182.705 111.49C182.66 111.872 182.637 112.332 182.637 112.871C182.637 113.395 182.66 113.848 182.705 114.23C182.757 114.612 182.851 114.927 182.986 115.174C183.12 115.413 183.315 115.593 183.57 115.713C183.832 115.825 184.169 115.881 184.581 115.881C184.895 115.881 185.236 115.863 185.603 115.825C185.977 115.788 186.295 115.747 186.557 115.702L186.591 116.6C186.411 116.638 186.198 116.675 185.951 116.713C185.711 116.75 185.457 116.78 185.187 116.802C184.925 116.825 184.667 116.836 184.412 116.836Z"
            fill="white" />
        <path
            d="M189.511 116.836C188.979 116.836 188.575 116.69 188.298 116.398C188.021 116.106 187.882 115.675 187.882 115.106C187.882 114.724 187.95 114.417 188.085 114.185C188.219 113.946 188.418 113.766 188.68 113.646C188.949 113.526 189.283 113.455 189.679 113.433L191.308 113.276V112.837C191.308 112.486 191.23 112.238 191.072 112.096C190.915 111.946 190.679 111.872 190.365 111.872C190.17 111.872 189.942 111.879 189.679 111.894C189.417 111.909 189.159 111.928 188.904 111.95C188.65 111.973 188.422 111.995 188.219 112.018L188.174 111.254C188.362 111.209 188.582 111.168 188.837 111.13C189.099 111.093 189.372 111.059 189.657 111.029C189.942 110.999 190.204 110.984 190.443 110.984C190.885 110.984 191.248 111.048 191.533 111.175C191.817 111.302 192.027 111.501 192.162 111.77C192.297 112.04 192.364 112.388 192.364 112.815V115.578C192.379 115.728 192.439 115.84 192.544 115.915C192.656 115.982 192.794 116.027 192.959 116.05L192.926 116.825C192.761 116.825 192.604 116.817 192.454 116.802C192.312 116.795 192.18 116.772 192.061 116.735C191.941 116.705 191.832 116.664 191.735 116.611C191.645 116.552 191.559 116.484 191.477 116.409C191.342 116.469 191.166 116.533 190.949 116.6C190.732 116.668 190.499 116.724 190.252 116.769C190.005 116.814 189.758 116.836 189.511 116.836ZM189.724 116.005C189.912 116.005 190.103 115.986 190.297 115.949C190.499 115.911 190.69 115.87 190.87 115.825C191.05 115.773 191.196 115.728 191.308 115.69V114.006L189.814 114.152C189.5 114.174 189.275 114.264 189.14 114.421C189.006 114.571 188.938 114.788 188.938 115.073C188.938 115.365 189.002 115.593 189.129 115.758C189.264 115.923 189.462 116.005 189.724 116.005Z"
            fill="white" />
        <path
            d="M194.372 116.724V111.097H195.417V111.827C195.552 111.729 195.724 111.624 195.934 111.512C196.143 111.4 196.372 111.295 196.619 111.198C196.873 111.093 197.124 111.018 197.371 110.973V112.018C197.132 112.062 196.885 112.126 196.63 112.208C196.383 112.291 196.151 112.381 195.934 112.478C195.724 112.568 195.552 112.65 195.417 112.725V116.724H194.372Z"
            fill="white" />
        <path
            d="M200.546 116.836C200.314 116.836 200.093 116.81 199.883 116.757C199.673 116.705 199.483 116.619 199.31 116.499C199.146 116.372 199 116.2 198.872 115.982C198.752 115.765 198.659 115.492 198.591 115.163C198.532 114.826 198.502 114.421 198.502 113.949C198.502 113.291 198.58 112.744 198.737 112.31C198.895 111.868 199.146 111.538 199.49 111.321C199.834 111.097 200.295 110.984 200.872 110.984C201.074 110.984 201.306 111.003 201.568 111.04C201.83 111.07 202.032 111.097 202.174 111.119V108.704H203.23V116.724H202.197L202.186 116.364C202.073 116.432 201.924 116.503 201.736 116.578C201.557 116.653 201.362 116.713 201.152 116.757C200.943 116.81 200.741 116.836 200.546 116.836ZM200.737 115.926C200.916 115.926 201.096 115.908 201.276 115.87C201.456 115.825 201.624 115.773 201.781 115.713C201.946 115.653 202.077 115.601 202.174 115.556V111.995C202.092 111.98 201.976 111.965 201.826 111.95C201.684 111.935 201.534 111.92 201.377 111.905C201.227 111.89 201.089 111.883 200.961 111.883C200.609 111.883 200.332 111.961 200.13 112.119C199.928 112.276 199.782 112.508 199.692 112.815C199.61 113.122 199.569 113.5 199.569 113.949C199.569 114.369 199.599 114.706 199.659 114.96C199.718 115.215 199.801 115.413 199.906 115.556C200.018 115.698 200.145 115.795 200.287 115.848C200.43 115.9 200.58 115.926 200.737 115.926Z"
            fill="white" />
        <path
            d="M122.336 151.449C123.475 150.785 124.777 150.085 124.777 150.085L125.895 149.406C125.916 149.491 125.926 149.579 125.926 149.666C125.915 149.843 125.95 150.019 126.028 150.177C126.133 150.297 126.271 150.382 126.425 150.423C126.579 150.463 126.741 150.455 126.891 150.402C127.212 150.319 127.507 150.155 127.746 149.925C127.985 149.695 128.16 149.407 128.254 149.089C128.335 148.783 128.338 148.461 128.262 148.153C128.186 147.846 128.034 147.562 127.82 147.328C127.813 147.152 127.775 146.979 127.708 146.817C127.238 145.678 125.482 145.336 125.482 145.336L125.839 145.04C125.839 145.04 127.218 144.637 128.821 146.398C129.055 146.677 129.385 146.859 129.745 146.909C129.854 146.927 129.965 146.921 130.071 146.891C130.177 146.861 130.275 146.808 130.358 146.735C130.777 146.332 130.603 145.934 129.613 144.821C128.622 143.707 127.299 142.957 126.299 143.044C125.834 143.073 125.371 143.135 124.915 143.227C124.915 143.227 127.979 140.399 128.193 140.21C128.734 139.668 128.949 138.974 128.622 138.581C128.413 138.325 127.958 138.162 127.305 138.77C126.738 139.28 120.258 143.978 120.258 143.978L117.516 146.21L115.535 148.354L118.318 152.031L119.564 151.954C120.518 152.12 121.501 151.941 122.336 151.449Z"
            fill="#FFBF9D" />
        <path
            d="M125.425 145.244C125.652 145.067 125.918 144.946 126.201 144.892C126.508 144.852 126.819 144.911 127.09 145.061C127.423 145.248 127.725 145.488 127.983 145.77C128.253 146.061 128.55 146.325 128.872 146.557C129.147 146.745 129.465 146.861 129.796 146.894C129.911 146.902 130.025 146.883 130.132 146.84C130.238 146.796 130.333 146.729 130.409 146.643C130.467 146.585 130.506 146.51 130.521 146.429C130.521 146.429 130.47 146.495 130.363 146.598C130.288 146.666 130.198 146.717 130.102 146.748C130.005 146.779 129.902 146.788 129.801 146.776C129.497 146.729 129.208 146.61 128.959 146.429C128.65 146.196 128.363 145.937 128.101 145.653C127.83 145.357 127.511 145.11 127.156 144.923C126.856 144.769 126.513 144.719 126.181 144.78C125.961 144.82 125.755 144.917 125.583 145.061C125.466 145.183 125.42 145.244 125.425 145.244Z"
            fill="#FF9A6C" />
        <path
            d="M128.397 139.929C128.177 140.098 127.971 140.284 127.779 140.485L126.329 141.869L124.859 143.227C124.645 143.404 124.445 143.597 124.261 143.804C124.507 143.664 124.733 143.492 124.935 143.294C125.334 142.972 125.87 142.502 126.467 141.966C127.065 141.43 127.539 140.945 127.892 140.547C128.081 140.359 128.251 140.152 128.397 139.929Z"
            fill="#FF9A6C" />
        <path
            d="M125.384 146.592C125.458 146.637 125.537 146.673 125.619 146.7C125.724 146.737 125.82 146.796 125.901 146.874C125.981 146.951 126.043 147.045 126.084 147.149C126.102 147.218 126.102 147.291 126.083 147.36C126.064 147.429 126.027 147.492 125.977 147.542C125.85 147.672 125.708 147.786 125.553 147.879C125.36 147.995 125.215 148.176 125.144 148.39C125.12 148.512 125.125 148.638 125.158 148.758C125.192 148.878 125.254 148.988 125.338 149.079C125.424 149.168 125.526 149.238 125.639 149.286C125.752 149.335 125.874 149.36 125.997 149.36C126.222 149.364 126.443 149.304 126.635 149.186C126.926 148.977 127.185 148.728 127.406 148.446C127.56 148.258 127.681 148.046 127.764 147.818C127.815 147.655 127.805 147.558 127.794 147.558C127.784 147.558 127.794 147.649 127.703 147.798C127.6 148.005 127.47 148.198 127.314 148.369C127.092 148.633 126.834 148.865 126.549 149.059C126.382 149.164 126.186 149.212 125.989 149.196C125.793 149.179 125.607 149.099 125.461 148.967C125.394 148.895 125.345 148.809 125.317 148.715C125.29 148.621 125.285 148.522 125.303 148.426C125.362 148.245 125.483 148.092 125.645 147.992C125.808 147.887 125.956 147.76 126.084 147.614C126.147 147.547 126.191 147.464 126.21 147.374C126.23 147.284 126.225 147.19 126.196 147.103C126.147 146.987 126.072 146.884 125.976 146.803C125.88 146.721 125.767 146.663 125.645 146.633C125.562 146.602 125.473 146.588 125.384 146.592Z"
            fill="#FF9A6C" />
        <path
            d="M122.014 149.049C122.014 149.049 121.948 148.911 121.739 148.763C121.449 148.566 121.103 148.471 120.753 148.492L120.82 148.625C120.944 148.482 121.06 148.332 121.167 148.176C121.561 147.646 121.798 147.016 121.851 146.358C121.641 146.961 121.366 147.54 121.029 148.084C120.922 148.242 120.809 148.39 120.702 148.523L120.58 148.666H120.769C121.088 148.644 121.406 148.713 121.688 148.865C121.897 148.962 121.999 149.064 122.014 149.049Z"
            fill="#FF9A6C" />
        <path
            d="M127.279 144.254C127.223 144.359 127.194 144.475 127.194 144.593C127.194 144.712 127.223 144.828 127.279 144.933C127.412 145.306 127.703 145.49 127.728 145.444C127.754 145.398 127.549 145.199 127.437 144.872C127.325 144.545 127.33 144.259 127.279 144.254Z"
            fill="#FF9A6C" />
        <path
            d="M120.35 144.32C120.515 144.333 120.678 144.367 120.835 144.422C121.136 144.504 121.575 144.627 122.111 144.785L124.006 145.362L124.547 145.53C124.715 145.597 124.966 145.607 125.129 145.873C125.161 145.941 125.172 146.018 125.16 146.092C125.148 146.167 125.114 146.236 125.063 146.291C124.977 146.382 124.87 146.45 124.751 146.49C124.54 146.563 124.32 146.611 124.098 146.633C123.285 146.647 122.473 146.603 121.667 146.501C121.324 146.479 120.98 146.51 120.646 146.593C120.339 146.674 120.059 146.807 119.788 146.904C119.577 147.002 119.347 147.052 119.114 147.052C118.881 147.052 118.651 147.002 118.44 146.904C118.149 146.736 118.103 146.531 118.113 146.531C118.22 146.646 118.346 146.741 118.486 146.812C118.687 146.885 118.9 146.914 119.113 146.899C119.326 146.884 119.533 146.825 119.722 146.725C119.977 146.628 120.232 146.48 120.585 146.383C120.936 146.289 121.299 146.249 121.662 146.266C122.457 146.35 123.257 146.389 124.057 146.383C124.256 146.36 124.453 146.317 124.644 146.256C124.823 146.194 124.94 146.067 124.884 145.985C124.828 145.903 124.644 145.816 124.46 145.76L123.914 145.587L122.045 144.959C121.509 144.78 121.08 144.627 120.789 144.514C120.635 144.469 120.487 144.404 120.35 144.32Z"
            fill="#FF9A6C" />
        <path
            d="M79.0963 128.715L79.035 107.422C78.8512 102.127 81.7771 97.6029 87.0774 97.5671H87.588C89.967 97.6894 92.2127 98.703 93.878 100.406C95.5434 102.109 96.5063 104.377 96.575 106.758C96.7129 111.354 96.8048 116.425 96.6516 118.876C96.3299 123.951 91.2084 124.492 91.2084 124.492C91.2084 124.492 91.1471 127.556 91.1369 129.088L92.296 132.586L88.1242 131.529L79.0963 128.715Z"
            fill="#FFBF9D" />
        <path
            d="M91.1882 124.493C88.8432 124.368 86.5834 123.572 84.6777 122.2C84.6777 122.2 86.0717 126.101 91.1627 125.902L91.1882 124.493Z"
            fill="#FF9A6C" />
        <path
            d="M95.0278 110.982C95.0199 111.17 94.9386 111.349 94.8012 111.478C94.6639 111.608 94.4814 111.679 94.2925 111.676C94.1999 111.68 94.1075 111.664 94.0209 111.631C93.9343 111.598 93.8552 111.548 93.7885 111.483C93.7217 111.419 93.6687 111.342 93.6324 111.257C93.5962 111.171 93.5776 111.079 93.5776 110.987C93.5856 110.798 93.6669 110.62 93.8042 110.49C93.9415 110.36 94.1241 110.289 94.3129 110.292C94.4054 110.29 94.4975 110.305 94.5838 110.339C94.6701 110.372 94.7488 110.422 94.8154 110.487C94.882 110.551 94.9351 110.628 94.9716 110.713C95.0081 110.798 95.0272 110.889 95.0278 110.982Z"
            fill="#263238" />
        <path
            d="M95.3598 108.954C95.2679 109.046 94.7368 108.612 93.9556 108.576C93.1743 108.541 92.5871 108.898 92.5054 108.796C92.4237 108.694 92.5667 108.587 92.8271 108.418C93.1754 108.202 93.582 108.098 93.9913 108.122C94.3982 108.14 94.7885 108.289 95.1045 108.546C95.3343 108.74 95.4109 108.913 95.3598 108.954Z"
            fill="#263238" />
        <path
            d="M87.7514 110.961C87.7435 111.15 87.6624 111.329 87.5252 111.459C87.388 111.59 87.2055 111.662 87.0161 111.661C86.9234 111.663 86.8312 111.646 86.7449 111.612C86.6586 111.578 86.5799 111.528 86.5134 111.463C86.4468 111.398 86.3938 111.321 86.3574 111.236C86.321 111.151 86.3019 111.059 86.3013 110.966C86.3092 110.777 86.3905 110.599 86.5279 110.47C86.6652 110.34 86.8477 110.269 87.0366 110.272C87.1292 110.268 87.2216 110.284 87.3082 110.317C87.3948 110.35 87.4739 110.4 87.5406 110.464C87.6073 110.529 87.6604 110.606 87.6966 110.691C87.7329 110.777 87.7515 110.868 87.7514 110.961Z"
            fill="#263238" />
        <path
            d="M87.7057 108.75C87.6087 108.837 87.0776 108.403 86.3015 108.367C85.5253 108.331 84.9279 108.689 84.8462 108.592C84.7645 108.495 84.9075 108.377 85.1679 108.209C85.5178 107.992 85.9263 107.888 86.3372 107.913C86.7419 107.934 87.1296 108.082 87.4453 108.336C87.6751 108.53 87.7517 108.709 87.7057 108.75Z"
            fill="#263238" />
        <path
            d="M90.1974 114.888C90.6156 114.777 91.0465 114.722 91.4791 114.724C91.6782 114.724 91.8672 114.683 91.908 114.546C91.9372 114.341 91.9015 114.132 91.8059 113.948L91.2953 112.416C90.5855 110.216 90.0851 108.408 90.1719 108.382C90.2587 108.357 90.9072 110.118 91.617 112.319C91.7855 112.861 91.9489 113.376 92.1276 113.851C92.2405 114.099 92.264 114.379 92.194 114.643C92.1599 114.711 92.1111 114.77 92.051 114.817C91.9909 114.864 91.9211 114.897 91.8467 114.913C91.7365 114.94 91.623 114.95 91.5097 114.944C91.0717 114.984 90.6304 114.965 90.1974 114.888Z"
            fill="#263238" />
        <path
            d="M88.0783 106.319C87.9659 106.513 87.2153 106.268 86.2962 106.197C85.3771 106.125 84.6009 106.238 84.5192 106.028C84.4784 105.926 84.6469 105.753 84.9788 105.61C85.4192 105.44 85.8923 105.372 86.3628 105.411C86.8332 105.45 87.2887 105.595 87.6953 105.834C87.9966 106.034 88.1344 106.228 88.0783 106.319Z"
            fill="#263238" />
        <path
            d="M95.5129 106.662C95.3444 106.835 94.7163 106.626 93.9504 106.59C93.1844 106.554 92.5359 106.662 92.4185 106.468C92.3572 106.376 92.4644 106.202 92.7555 106.044C93.1543 105.852 93.5959 105.768 94.0372 105.799C94.4763 105.819 94.9017 105.959 95.2678 106.202C95.5078 106.396 95.5895 106.58 95.5129 106.662Z"
            fill="#263238" />
        <path
            d="M79.2802 111.206C79.1985 111.165 75.8437 109.996 75.7773 113.473C75.7109 116.951 79.2189 116.297 79.224 116.2C79.2291 116.103 79.2802 111.206 79.2802 111.206Z"
            fill="#FFBF9D" />
        <path
            d="M78.167 114.862C78.167 114.862 78.1058 114.903 78.0036 114.949C77.8576 115.006 77.6953 115.006 77.5492 114.949C77.3288 114.799 77.1512 114.595 77.0339 114.356C76.9166 114.117 76.8636 113.851 76.8803 113.586C76.8795 113.288 76.944 112.993 77.0692 112.723C77.1034 112.614 77.1636 112.515 77.2446 112.435C77.3255 112.355 77.4249 112.296 77.5339 112.263C77.6036 112.247 77.6767 112.256 77.7408 112.287C77.805 112.319 77.8563 112.372 77.8862 112.437C77.9322 112.539 77.8862 112.605 77.927 112.61C77.9679 112.615 78.0036 112.554 77.9781 112.411C77.9608 112.325 77.9139 112.247 77.8454 112.192C77.7518 112.117 77.6325 112.082 77.5134 112.095C77.3719 112.119 77.2387 112.178 77.1262 112.267C77.0137 112.357 76.9256 112.473 76.8701 112.605C76.7153 112.903 76.6364 113.235 76.6403 113.57C76.6403 114.275 76.9977 114.939 77.493 115.102C77.586 115.131 77.6843 115.138 77.7805 115.124C77.8768 115.11 77.9688 115.075 78.0496 115.02C78.1619 114.944 78.1824 114.867 78.167 114.862Z"
            fill="#FF9A6C" />
        <path
            d="M87.7413 115.347C87.8588 115.347 87.8588 116.139 88.5379 116.711C89.217 117.283 90.0698 117.196 90.0698 117.308C90.0698 117.42 89.8808 117.461 89.5234 117.471C89.0546 117.475 88.5995 117.314 88.2366 117.017C87.8916 116.729 87.6704 116.32 87.6188 115.873C87.5983 115.541 87.6852 115.342 87.7413 115.347Z"
            fill="#263238" />
        <path
            d="M103.616 102.26C103.564 102.047 103.43 101.864 103.244 101.749C102.84 101.557 102.392 101.474 101.947 101.509C100.839 101.468 99.7559 101.173 98.7807 100.646C99.1282 100.484 99.4486 100.268 99.7305 100.008C100.028 99.7443 100.249 99.4042 100.367 99.0245C100.486 98.6447 100.499 98.2398 100.404 97.8533C100.387 97.7812 100.355 97.7137 100.309 97.6555C100.263 97.5973 100.205 97.5498 100.139 97.5163C99.9143 97.4397 99.71 97.6592 99.5466 97.8277C99.3421 98.097 99.0683 98.3057 98.7544 98.4315C98.4406 98.5574 98.0985 98.5958 97.7645 98.5426C97.301 98.5045 96.8522 98.3613 96.4522 98.1239L96.4063 98.0728C96.2327 97.8839 96.0591 97.7001 95.8957 97.5265C94.614 96.1988 93.511 95.2797 92.3621 94.7895C90.3548 94.0157 88.1741 93.8055 86.0559 94.1819C84.2738 94.6057 82.6551 96.0099 82.3692 97.8175C81.3939 96.9597 79.908 96.9341 78.6876 97.3937H78.6569C77.2987 97.8431 76.5072 99.2524 76.1038 100.616C76.1038 100.692 76.0629 100.764 76.0374 100.84C75.5643 101.556 74.9248 102.147 74.1736 102.561C74.0409 102.638 73.8928 102.725 73.8724 102.873C73.8519 103.021 73.9745 103.148 74.097 103.24C74.418 103.474 74.7854 103.636 75.1745 103.715C75.0393 104.041 74.8752 104.353 74.6843 104.65C74.526 104.905 74.3421 105.211 74.4698 105.482C74.5284 105.582 74.6161 105.661 74.721 105.709C74.826 105.758 74.9432 105.773 75.057 105.753C75.284 105.706 75.4993 105.614 75.6902 105.482L75.2153 106.549C75.7023 106.642 76.2043 106.62 76.6808 106.483C76.9412 107.775 77.1097 110.154 77.4212 111.033C78.3454 111.068 78.5701 110.971 79.0297 111.135C79.6271 111.349 79.3769 112.411 80.1684 112.125C80.5718 111.977 81.1896 110.476 81.3581 110.083C82.2942 107.393 82.6424 104.534 82.3794 101.698C82.9536 101.112 83.6347 100.64 84.3861 100.309L84.3249 100.36C85.7546 99.8958 87.3886 99.4413 88.7112 100.141C89.7324 100.677 90.34 101.78 91.1009 102.658C91.7438 103.464 92.5507 104.124 93.468 104.594C94.3853 105.064 95.3921 105.334 96.4216 105.385C96.585 106.917 96.5952 109.439 96.6412 110.869L97.9228 108.03C98.0223 107.865 98.1126 107.694 98.1935 107.519V107.468C98.3196 107.192 98.4611 106.922 98.6173 106.662C98.7802 106.806 98.9901 106.886 99.2076 106.886C99.4251 106.886 99.6354 106.808 99.7989 106.664C99.9624 106.521 100.068 106.322 100.096 106.107C100.124 105.891 100.072 105.672 99.95 105.492C99.8319 105.324 99.6891 105.174 99.5262 105.048C99.6983 105.222 99.9125 105.348 100.148 105.414C100.383 105.48 100.632 105.484 100.869 105.426C101.109 105.375 101.325 105.247 101.484 105.06C101.643 104.873 101.736 104.639 101.747 104.394C101.733 104.23 101.674 104.072 101.578 103.937C101.482 103.803 101.352 103.696 101.201 103.628C101.831 103.69 102.465 103.563 103.024 103.266C103.371 103.041 103.729 102.714 103.616 102.26Z"
            fill="#263238" />
        <path
            d="M83.9624 98.4355C83.7809 98.5756 83.6102 98.7293 83.4518 98.8951C83.04 99.3719 82.7585 99.9471 82.6348 100.565C82.5394 100.989 82.4864 101.422 82.4765 101.857C82.4765 102.327 82.4765 102.827 82.5174 103.358C82.5532 103.914 82.5532 104.472 82.5174 105.028C82.4928 105.323 82.4484 105.617 82.3846 105.906C82.3321 106.216 82.2021 106.507 82.0067 106.754C81.9152 106.85 81.8005 106.921 81.6735 106.961C81.5466 107 81.4116 107.006 81.2816 106.978C81.0332 106.926 80.809 106.793 80.6434 106.6C80.3781 106.214 80.218 105.765 80.1787 105.298H80.2859C80.1253 105.68 79.9103 106.036 79.6476 106.355C79.3857 106.651 79.0199 106.834 78.6264 106.866C78.45 106.879 78.2734 106.844 78.1158 106.764C77.9633 106.694 77.8352 106.58 77.7481 106.437C77.6723 106.298 77.6369 106.141 77.646 105.983C77.6598 105.836 77.7207 105.698 77.8196 105.589L77.8707 105.64C77.5682 105.98 77.1976 106.251 76.783 106.437C76.6729 106.488 76.5584 106.529 76.4409 106.56C76.4011 106.574 76.3601 106.584 76.3184 106.59C76.3553 106.57 76.3948 106.554 76.4358 106.544C76.5124 106.514 76.6247 106.473 76.7677 106.401C77.1757 106.205 77.5403 105.929 77.84 105.589L77.8911 105.64C77.8065 105.746 77.7563 105.875 77.7472 106.01C77.7381 106.145 77.7705 106.28 77.84 106.396C77.9126 106.53 78.0226 106.64 78.1566 106.713C78.3037 106.786 78.4682 106.816 78.6315 106.8C78.9959 106.757 79.3293 106.574 79.5608 106.289C79.8145 105.98 80.0226 105.636 80.1787 105.268L80.2553 105.104L80.2859 105.283C80.3196 105.731 80.473 106.161 80.7302 106.529C80.8766 106.701 81.076 106.819 81.297 106.866C81.4075 106.891 81.5227 106.887 81.6311 106.854C81.7395 106.821 81.8373 106.76 81.9148 106.677C82.0945 106.446 82.2138 106.174 82.262 105.886C82.3258 105.601 82.3702 105.313 82.3948 105.023C82.4279 104.472 82.4279 103.919 82.3948 103.368C82.3948 102.858 82.3489 102.347 82.3642 101.836C82.3767 101.396 82.4349 100.958 82.5378 100.529C82.6707 99.9007 82.9685 99.3191 83.4007 98.844C83.5633 98.6768 83.7533 98.5386 83.9624 98.4355Z"
            fill="#455A64" />
        <path
            d="M99.6029 103.715C99.6029 103.715 99.6029 103.715 99.557 103.751L99.4293 103.843C99.3599 103.893 99.2865 103.938 99.2097 103.976C99.1095 104.034 99.0054 104.085 98.8982 104.129C98.2108 104.427 97.4589 104.547 96.7128 104.476C95.5974 104.383 94.5332 103.968 93.649 103.281C92.5977 102.431 91.7293 101.377 91.0959 100.182C90.7384 99.5589 90.4474 98.9206 90.1257 98.3334C89.8354 97.7574 89.4639 97.2261 89.0227 96.7556C88.6226 96.3366 88.1267 96.0212 87.5777 95.8365C87.3279 95.7606 87.0675 95.7261 86.8066 95.7343C86.5641 95.741 86.3236 95.7805 86.0917 95.8518C85.3875 96.0794 84.7938 96.562 84.4271 97.2049C84.304 97.4444 84.2114 97.6982 84.1514 97.9607C84.1514 97.9607 84.1514 97.9607 84.1514 97.9096C84.1514 97.8585 84.1514 97.8126 84.1514 97.7513C84.1995 97.5541 84.268 97.3625 84.3556 97.1794C84.5109 96.897 84.709 96.6403 84.9428 96.4186C85.2562 96.1275 85.629 95.9079 86.0356 95.7752C86.2731 95.6963 86.5207 95.6516 86.7709 95.6424C87.0419 95.6313 87.3129 95.6658 87.5726 95.7445C88.1415 95.9261 88.6559 96.2474 89.0687 96.679C89.5231 97.1531 89.9051 97.6916 90.2023 98.2773C90.524 98.8696 90.815 99.5079 91.1674 100.126C91.8059 101.307 92.6739 102.348 93.7205 103.189C94.5809 103.867 95.6176 104.283 96.7077 104.389C97.4418 104.464 98.1831 104.359 98.8676 104.083C99.119 103.974 99.3644 103.851 99.6029 103.715Z"
            fill="#455A64" />
        <path
            d="M100.109 101.489C100.109 101.489 100.047 101.54 99.9249 101.611C99.7505 101.715 99.5677 101.804 99.3785 101.877C99.0985 101.988 98.8099 102.077 98.5156 102.142C98.1557 102.215 97.7899 102.254 97.4228 102.26C97.0529 102.263 96.6836 102.231 96.3199 102.163C96.0245 102.107 95.7341 102.027 95.4518 101.923C95.2608 101.854 95.0762 101.769 94.9004 101.668C94.8321 101.638 94.7684 101.598 94.7114 101.55C94.7114 101.55 95.0025 101.683 95.4825 101.841C95.7624 101.935 96.0492 102.007 96.3403 102.056C96.6961 102.117 97.0567 102.146 97.4177 102.142C97.7794 102.136 98.1399 102.098 98.4952 102.03C98.7847 101.975 99.0698 101.898 99.3479 101.8C99.8228 101.627 100.099 101.468 100.109 101.489Z"
            fill="#455A64" />
        <path
            d="M90.9277 259.206L90.4171 268.836C90.4171 268.836 100.027 272.61 100.119 274.397L81.4097 274.045L81.6139 259.007L90.9277 259.206Z"
            fill="#263238" />
        <path
            d="M84.6313 267.917C84.4494 267.968 84.2927 268.084 84.1917 268.243C84.0908 268.403 84.0527 268.594 84.0849 268.78C84.1288 268.963 84.2414 269.121 84.3992 269.223C84.5571 269.325 84.7481 269.362 84.9325 269.327C85.1247 269.273 85.2901 269.149 85.3967 268.98C85.5033 268.812 85.5435 268.609 85.5095 268.413C85.4433 268.226 85.3072 268.073 85.1299 267.985C84.9526 267.897 84.7481 267.882 84.5598 267.943"
            fill="#E0E0E0" />
        <path
            d="M81.3789 274.045L81.4555 272.513L99.3683 273.417C99.3683 273.417 100.195 273.795 100.088 274.377L81.3789 274.045Z"
            fill="#455A64" />
        <path
            d="M90.7076 268.75C90.7076 268.841 90.2429 268.872 89.7885 269.158C89.334 269.444 89.0838 269.837 88.9817 269.786C88.8796 269.735 89.043 269.224 89.6047 268.887C90.1664 268.55 90.728 268.663 90.7076 268.75Z"
            fill="white" />
        <path
            d="M92.6536 269.597C92.6536 269.684 92.2757 269.832 91.954 270.215C91.6323 270.598 91.5404 271.002 91.4434 270.996C91.3464 270.991 91.3055 270.486 91.7089 270.006C92.1123 269.526 92.6536 269.511 92.6536 269.597Z"
            fill="white" />
        <path
            d="M93.7257 271.966C93.6389 271.966 93.5215 271.527 93.7666 271.032C94.0117 270.537 94.4406 270.343 94.4764 270.419C94.5121 270.496 94.2466 270.761 94.0525 271.17C93.8585 271.578 93.8126 271.961 93.7257 271.966Z"
            fill="white" />
        <path
            d="M90.5802 266.539C90.5445 266.62 90.1258 266.488 89.6101 266.513C89.0943 266.539 88.6858 266.697 88.6399 266.615C88.5939 266.534 88.9871 266.217 89.5947 266.197C90.2024 266.176 90.6313 266.467 90.5802 266.539Z"
            fill="white" />
        <path
            d="M68.2761 258.256L67.2549 269.883L69.1033 279.309C69.1355 279.47 69.1342 279.636 69.0995 279.796C69.0647 279.957 68.9974 280.108 68.9016 280.241C68.8058 280.375 68.6836 280.487 68.5426 280.571C68.4016 280.654 68.2448 280.708 68.0821 280.729C67.8941 280.751 67.7035 280.729 67.5259 280.663C67.3483 280.597 67.1889 280.491 67.0608 280.351C65.3911 278.533 59.2891 271.813 59.4014 270.966C59.5393 269.985 59.6567 258.634 59.6567 258.634L68.2761 258.256Z"
            fill="#263238" />
        <path
            d="M68.0871 280.729L59.4626 270.179L59.4269 270.69C59.4002 271.116 59.5251 271.537 59.7792 271.88C60.4634 272.799 62.4089 275.286 67.025 280.366C67.157 280.512 67.3231 280.623 67.5084 280.689C67.6938 280.755 67.8926 280.774 68.0871 280.744V280.729Z"
            fill="#455A64" />
        <g opacity="0.6">
            <path
                d="M62.0923 266.574C62.2288 266.69 62.3182 266.851 62.3436 267.028C62.369 267.205 62.3286 267.385 62.2301 267.534C62.1193 267.674 61.9596 267.766 61.7834 267.793C61.6072 267.819 61.4274 267.778 61.2804 267.677C61.1335 267.555 61.0378 267.383 61.0122 267.193C60.9867 267.004 61.0332 266.812 61.1425 266.656C61.2063 266.585 61.2836 266.528 61.3698 266.488C61.456 266.447 61.5494 266.425 61.6445 266.421C61.7397 266.417 61.8346 266.432 61.9238 266.466C62.0129 266.499 62.0945 266.55 62.1638 266.615"
                fill="white" />
        </g>
        <path
            d="M65.7539 275.454C66.0555 275.106 66.4213 274.82 66.8313 274.611C67.2691 274.469 67.7302 274.412 68.1896 274.443C68.1896 274.412 68.0568 274.315 67.7913 274.259C67.435 274.194 67.0677 274.235 66.7343 274.377C66.3991 274.514 66.1103 274.744 65.902 275.04C65.7539 275.285 65.7233 275.454 65.7539 275.454Z"
            fill="white" />
        <path
            d="M66.4788 277.078C66.5349 277.134 66.9332 276.782 67.546 276.644C67.9254 276.597 68.3074 276.573 68.6898 276.572C68.5187 276.449 68.3204 276.368 68.1116 276.337C67.9027 276.306 67.6895 276.325 67.4898 276.394C66.7902 276.552 66.4226 277.047 66.4788 277.078Z"
            fill="white" />
        <path
            d="M64.334 273.371C64.8461 273.07 65.3804 272.809 65.9322 272.59C66.5079 272.448 67.0934 272.351 67.6837 272.298C67.0885 272.094 66.4398 272.11 65.8556 272.344C65.2431 272.496 64.704 272.86 64.334 273.371Z"
            fill="white" />
        <path
            d="M64.3496 269.837C64.3751 269.909 65.0338 269.679 65.8815 269.704C66.7291 269.73 67.3725 269.97 67.4134 269.898C66.9735 269.569 66.4296 269.41 65.8815 269.449C65.341 269.392 64.7979 269.53 64.3496 269.837Z"
            fill="white" />
        <path
            d="M64.5587 266.391C65.0771 266.257 65.6116 266.197 66.1467 266.212C66.6787 266.31 67.1943 266.482 67.6786 266.722C67.6786 266.697 67.5816 266.544 67.3263 266.37C66.9813 266.155 66.5912 266.022 66.1864 265.982C65.7816 265.942 65.3731 265.996 64.9927 266.14C64.6915 266.232 64.5434 266.365 64.5587 266.391Z"
            fill="white" />
        <path
            d="M66.1674 265.558C66.2143 265.417 66.2283 265.267 66.2082 265.119C66.1972 264.711 66.1034 264.31 65.9325 263.939C65.8325 263.658 65.6422 263.417 65.3912 263.255C65.3028 263.214 65.2044 263.198 65.1076 263.211C65.0107 263.224 64.9195 263.264 64.8448 263.327C64.715 263.466 64.6389 263.647 64.6304 263.837C64.6296 264.231 64.7665 264.612 65.0173 264.915C65.2682 265.218 65.6173 265.424 66.004 265.497C66.3876 265.562 66.7821 265.512 67.1369 265.351C67.4916 265.191 67.7906 264.929 67.9954 264.598C68.0456 264.514 68.0774 264.421 68.0889 264.324C68.1003 264.228 68.0911 264.129 68.0618 264.036C68.023 263.945 67.956 263.868 67.8705 263.818C67.7851 263.767 67.6857 263.745 67.5869 263.756C67.2972 263.8 67.0242 263.92 66.7954 264.103C66.4626 264.334 66.1738 264.623 65.9427 264.956C65.8488 265.072 65.7777 265.206 65.7333 265.349C66.0658 264.931 66.4561 264.563 66.8924 264.256C67.0994 264.105 67.3391 264.005 67.592 263.965C67.6461 263.959 67.7005 263.971 67.7473 263.999C67.7941 264.026 67.831 264.068 67.8524 264.118C67.8677 264.181 67.8697 264.246 67.8583 264.309C67.8468 264.372 67.8222 264.433 67.786 264.486C67.6003 264.764 67.3384 264.984 67.0315 265.118C66.7246 265.252 66.3856 265.295 66.055 265.241C65.7282 265.18 65.4322 265.009 65.2158 264.756C64.9995 264.504 64.8758 264.185 64.8653 263.853C64.8659 263.718 64.9148 263.587 65.0031 263.485C65.0427 263.447 65.0931 263.423 65.1472 263.416C65.2012 263.409 65.2562 263.418 65.3044 263.444C65.5154 263.581 65.678 263.781 65.7691 264.016C65.9912 264.503 66.126 265.025 66.1674 265.558Z"
            fill="white" />
        <path
            d="M100.216 178.313C101.118 182.309 101.423 186.416 101.12 190.501C100.905 193.09 92.1632 264.731 92.1632 264.731H80.3626L83.6817 197.39L82.7166 197.599C82.7166 197.599 76.2725 226.327 75.7466 230.979C75.2768 235.161 69.8437 265.522 69.8437 265.522L59.0542 265.65L62.4958 225.484L66.5144 186.942L68.0208 175.708L100.216 178.313Z"
            fill="#263238" />
        <path
            d="M81.833 190.527C81.9912 190.641 82.1627 190.735 82.3436 190.808C82.8052 191.043 83.2964 191.215 83.804 191.318C84.1637 191.382 84.5319 191.382 84.8917 191.318C85.3166 191.252 85.7127 191.062 86.0304 190.772C86.3603 190.436 86.5977 190.021 86.7197 189.567C86.8576 189.112 86.9342 188.632 87.0312 188.147C87.409 186.207 87.6644 184.43 87.8124 183.143C87.889 182.5 87.935 181.979 87.9656 181.611C87.9857 181.423 87.9857 181.233 87.9656 181.044C87.905 181.225 87.8673 181.412 87.8533 181.601C87.792 182.01 87.7154 182.515 87.6235 183.133C87.4295 184.415 87.1486 186.197 86.7708 188.117C86.5818 189.077 86.4542 190.052 85.8516 190.624C85.5703 190.855 85.2411 191.021 84.8879 191.109C84.5346 191.197 84.1661 191.206 83.8091 191.134C83.3113 191.046 82.8249 190.902 82.359 190.705C82.1905 190.627 82.0142 190.567 81.833 190.527Z"
            fill="#455A64" />
        <path
            d="M85.372 181.397C85.372 181.397 85.2954 181.336 85.1268 181.325C84.8896 181.317 84.6567 181.391 84.4681 181.535C84.3184 181.638 84.1944 181.773 84.1059 181.932C84.0173 182.091 83.9665 182.267 83.9575 182.449C83.9734 182.672 84.0532 182.886 84.1873 183.066C84.3214 183.245 84.5042 183.382 84.7139 183.461C84.9237 183.539 85.1516 183.556 85.3705 183.509C85.5895 183.461 85.7902 183.352 85.949 183.194C86.061 183.052 86.1395 182.886 86.1784 182.709C86.2173 182.533 86.2157 182.349 86.1736 182.173C86.1247 181.941 85.9987 181.732 85.8162 181.581C85.6834 181.479 85.5915 181.463 85.5864 181.474C85.7997 181.668 85.9447 181.926 86 182.209C86.0248 182.355 86.0175 182.504 85.9787 182.647C85.9399 182.79 85.8705 182.923 85.7753 183.036C85.6453 183.153 85.4854 183.233 85.3133 183.265C85.1412 183.298 84.9634 183.283 84.7994 183.221C84.6354 183.159 84.4916 183.054 84.3836 182.916C84.2757 182.778 84.2078 182.613 84.1873 182.439C84.1905 182.29 84.226 182.145 84.2913 182.011C84.3565 181.878 84.45 181.761 84.5652 181.668C84.7967 181.491 85.0805 181.395 85.372 181.397Z"
            fill="#455A64" />
        <path
            d="M97.2031 128.445C97.4993 128.567 101.115 128.909 102.335 133.352C103.555 137.794 107.834 151.423 107.834 151.423L116.301 146.388L120.539 155.385L110.326 162.33C110.326 162.33 103.948 166.558 101.227 161.038L97.2031 128.445Z"
            fill="#263238" />
        <path
            d="M78.5192 150.627C78.4682 149.411 76.5942 140.695 76.5942 140.547C76.5942 140.399 78.4477 127.597 78.4477 127.597L78.8614 123.589L87.8535 128.981C87.8535 128.981 91.2542 126.05 91.1623 125.917L91.9181 128.205L92.6329 128.46L93.7001 138.673L97.9843 178.323C97.9843 178.323 96.5137 180.11 90.9019 180.932C83.9063 181.953 73.8062 178.323 73.8062 178.323C73.8062 178.323 78.5703 151.842 78.5192 150.627Z"
            fill="#E0E0E0" />
        <g opacity="0.3">
            <path
                d="M99.3528 192.176C99.3528 192.176 98.0303 193.197 97.2235 187.167C96.4167 181.136 94.0321 155.937 94.0321 155.937L92.3062 129.839L97.4533 145.04L99.3528 192.176Z"
                fill="black" />
        </g>
        <g opacity="0.3">
            <path
                d="M79.316 172.594C79.316 172.594 76.9518 195.669 76.0583 195.219C75.1647 194.77 66.5146 191.369 66.5146 191.369L67.3827 183.909L79.316 172.594Z"
                fill="black" />
        </g>
        <path
            d="M90.0849 132.336L88.9666 133.985H87.2918L86.3931 132.336L87.3786 130.252L88.7113 130.324L90.0849 132.336Z"
            fill="#1CC9BC" />
        <path
            d="M79.1372 128.981C79.2573 129.095 79.3891 129.196 79.5304 129.282L80.6589 130.028C81.6137 130.656 82.9414 131.503 84.4171 132.428L85.8009 133.291L85.8979 133.352L85.9541 133.26C86.5275 132.295 87.0129 131.279 87.4042 130.227C87.5574 129.839 87.6749 129.532 87.7515 129.318C87.8023 129.211 87.8368 129.098 87.8536 128.981C87.6305 129.362 87.4376 129.76 87.2766 130.171C86.8351 131.194 86.3233 132.185 85.7447 133.137L85.8979 133.102L84.5192 132.234C83.0435 131.304 81.7005 130.482 80.7253 129.89L79.561 129.206C79.4289 129.115 79.2867 129.039 79.1372 128.981Z"
            fill="#455A64" />
        <path
            d="M92.0099 130.656C91.8157 130.832 91.6442 131.03 91.4993 131.248C91.2134 131.631 90.8202 132.178 90.3708 132.816H90.5546C90.3708 132.561 90.1819 132.305 89.9879 131.994C89.4211 131.146 88.9104 130.37 88.5224 129.829C88.3301 129.519 88.0984 129.236 87.833 128.986C87.9919 129.312 88.1763 129.624 88.3845 129.921C88.7419 130.482 89.2219 131.274 89.7938 132.122C89.9878 132.413 90.187 132.693 90.3759 132.949L90.4678 133.076L90.5546 132.944C90.9938 132.3 91.3614 131.739 91.6167 131.33C91.7769 131.124 91.9091 130.897 92.0099 130.656Z"
            fill="#455A64" />
        <path
            d="M88.9666 133.985L92.975 171.68L89.1351 177.102L84.8867 172.594L87.2918 133.985H88.9666Z"
            fill="#1CC9BC" />
        <path
            d="M78.6009 123.957C78.2894 124.197 74.475 126.979 74.475 126.979L66.5756 130.253C66.5756 130.253 68.3679 145.668 68.4088 146.051C68.8734 150.075 70.2113 162.723 70.2113 162.723L63.0625 189.378L75.4707 193.346C75.4707 193.346 78.3149 178.982 79.6425 171.215C80.9702 163.448 80.5821 161.248 80.4238 153.726C80.2655 146.205 78.6264 127.643 78.6264 127.643L78.6009 123.957Z"
            fill="#263238" />
        <path
            d="M79.658 161.36C79.6615 161.238 79.6513 161.117 79.6274 160.997C79.5967 160.757 79.5661 160.405 79.4895 159.976C79.3516 159.077 79.1219 157.775 78.8053 156.172C78.1823 152.97 77.2325 148.558 76.1296 143.702C75.2462 139.811 74.4037 136.217 73.7143 133.342L73.6837 133.434L75.3381 132.024L75.4045 131.963L75.3432 131.902L73.6633 130.298V130.37C74.0003 129.522 74.2658 128.838 74.4547 128.363L74.6539 127.853C74.6811 127.792 74.7016 127.729 74.7151 127.664C74.679 127.718 74.6482 127.776 74.6232 127.837C74.562 127.97 74.4905 128.144 74.3935 128.348C74.1892 128.828 73.8828 129.492 73.5509 130.329V130.37L73.5816 130.401L75.236 132.004V131.886L73.5662 133.275L73.5254 133.311V133.367C74.1892 136.263 75.0113 139.852 75.8998 143.738C77.0028 148.594 77.9729 152.996 78.6419 156.187C78.9789 157.785 79.2291 159.082 79.3976 159.976C79.4844 160.425 79.5304 160.778 79.5763 160.997C79.5966 161.12 79.6239 161.241 79.658 161.36Z"
            fill="#455A64" />
        <path
            d="M61.4746 187.591C61.5592 187.641 61.6481 187.684 61.7401 187.718L62.5163 188.061L65.4217 189.291L75.4402 193.448L75.5679 193.499V193.366L76.5228 188.224C77.544 182.699 78.4376 177.695 79.0759 174.054C79.3925 172.252 79.6529 170.786 79.8367 169.755C79.9184 169.244 79.9797 168.866 80.0308 168.58C80.0308 168.458 80.0614 168.355 80.0716 168.274C80.0818 168.192 80.0716 168.172 80.0716 168.172C80.0716 168.172 80.0716 168.202 80.041 168.269C80.0103 168.335 80.0001 168.452 79.9746 168.575C79.9133 168.856 79.8367 169.244 79.7346 169.734L78.9074 174.023C78.2282 177.664 77.2887 182.663 76.2572 188.183C75.9304 189.97 75.6087 191.706 75.3126 193.325L75.4658 193.238L65.4932 189.158L62.5571 187.989L61.7708 187.683C61.6749 187.644 61.5758 187.613 61.4746 187.591Z"
            fill="#455A64" />
        <path
            d="M65.3451 136.293C65.2787 136.293 65.5034 139.245 65.8557 142.87C66.2081 146.496 66.5144 149.427 66.5655 149.421C66.6166 149.416 66.4072 146.475 66.0549 142.845C65.7025 139.214 65.4064 136.288 65.3451 136.293Z"
            fill="#455A64" />
        <path
            d="M100.834 191.446C100.626 191.565 100.391 191.63 100.151 191.635C99.9113 191.639 99.6742 191.583 99.4619 191.472C99.2495 191.36 99.0687 191.197 98.9363 190.997C98.8039 190.797 98.7242 190.567 98.7044 190.328L95.9215 161.773L91.4995 126.923L93.1999 127.761L97.9845 128.578C97.9845 128.578 100.538 134.868 101.217 140.833C101.896 146.797 101.804 162.406 101.804 162.406L106.047 188.448L100.834 191.446Z"
            fill="#263238" />
        <path
            d="M96.6671 162.483C96.6739 162.354 96.6739 162.224 96.6671 162.095C96.6671 161.845 96.6365 161.472 96.6365 160.992C96.6365 160.037 96.6365 158.648 96.6365 156.938C96.6365 153.511 96.7386 148.768 96.856 143.549C96.9428 139.975 97.0245 136.646 97.0909 133.822V133.755L97.0348 133.73L95.1199 132.709L95.1505 132.836L96.4526 130.937L96.4884 130.881L96.4424 130.84L93.8893 128.45L93.2051 127.817C93.1305 127.739 93.0484 127.669 92.96 127.607C93.0267 127.693 93.1001 127.773 93.1795 127.847L93.8331 128.506L96.3097 130.947V130.85L94.9871 132.734L94.931 132.816L95.0178 132.867L96.9275 133.888L96.8714 133.796C96.7794 136.615 96.6824 139.954 96.6007 143.529C96.4884 148.758 96.4271 153.491 96.4526 156.922C96.4526 158.633 96.4986 160.022 96.5446 160.982C96.5446 161.462 96.6007 161.83 96.616 162.085C96.6192 162.219 96.6363 162.353 96.6671 162.483Z"
            fill="#455A64" />
        <path
            d="M97.5654 178.741C97.5544 178.814 97.5544 178.888 97.5654 178.961C97.5654 179.13 97.6012 179.329 97.6267 179.574C97.6931 180.146 97.7799 180.907 97.8871 181.831C98.122 183.735 98.459 186.365 98.842 189.271L99.2352 192.191V192.355L99.3782 192.273L104.163 189.577L105.536 188.775C105.707 188.686 105.869 188.582 106.021 188.464C105.845 188.533 105.675 188.614 105.511 188.709L104.101 189.454L99.2811 192.079L99.4445 192.161C99.3271 191.247 99.1943 190.261 99.0616 189.24C98.6786 186.334 98.316 183.71 98.0403 181.81C97.9024 180.891 97.7901 180.13 97.7033 179.564C97.6625 179.318 97.6318 179.119 97.6012 178.956C97.6008 178.883 97.5887 178.811 97.5654 178.741Z"
            fill="#455A64" />
        <path
            d="M101.804 162.427C101.732 162.427 101.559 156.131 101.426 148.364C101.293 140.598 101.237 134.292 101.313 134.292C101.39 134.292 101.553 140.588 101.691 148.359C101.829 156.131 101.875 162.427 101.804 162.427Z"
            fill="#455A64" />
        <path
            d="M66.5757 130.252C66.5757 130.252 63.0779 131.784 61.7605 137.222C60.7392 141.537 55.827 163.683 55.9445 166.732C56.0619 169.78 57.4763 187.667 57.8593 187.667C58.2423 187.667 67.1884 187.157 67.1884 187.157L66.5144 166.073L69.2105 154.589L70.196 146.929L66.5757 130.252Z"
            fill="#263238" />
        <path
            d="M57.8594 187.626C58.085 187.582 58.3138 187.556 58.5436 187.55L60.4687 187.407L67.1834 186.983L67.066 187.111C67.0098 185.38 66.9485 183.485 66.8872 181.494L66.6115 170.914C66.6115 169.586 66.5707 168.503 66.5604 167.712C66.5604 167.355 66.5604 167.064 66.5604 166.839C66.5485 166.737 66.5485 166.634 66.5604 166.532C66.5843 166.631 66.5963 166.732 66.5962 166.834L66.6472 167.707C66.683 168.498 66.7289 169.586 66.7851 170.909C66.877 173.645 66.9996 177.368 67.1375 181.484C67.1936 183.47 67.2498 185.364 67.2957 187.1V187.223H67.1732L60.4534 187.55L58.5487 187.626C58.3194 187.647 58.0887 187.647 57.8594 187.626Z"
            fill="#455A64" />
        <path
            d="M67.638 139.428C67.7095 139.428 68.3477 144.627 69.0575 151.061C69.7673 157.494 70.283 162.718 70.2115 162.723C70.14 162.728 69.5018 157.525 68.792 151.091C68.0822 144.657 67.5665 139.439 67.638 139.428Z"
            fill="#455A64" />
        <path
            d="M77.0691 192.799H50.3838C49.6195 192.799 49 193.419 49 194.183V212.438C49 213.202 49.6195 213.822 50.3838 213.822H77.0691C77.8334 213.822 78.4529 213.202 78.4529 212.438V194.183C78.4529 193.419 77.8334 192.799 77.0691 192.799Z"
            fill="#455A64" />
        <path
            d="M67.0252 192.814C66.9395 192.79 66.8492 192.786 66.7618 192.804C66.6743 192.821 66.5923 192.859 66.5225 192.915C66.4526 192.97 66.3969 193.041 66.3601 193.122C66.3232 193.203 66.3062 193.292 66.3104 193.381C66.3104 193.968 66.7853 197.936 66.7853 197.936C66.7853 197.936 68.0261 202.343 67.6891 202.838C67.6178 202.936 67.5253 203.017 67.4185 203.075C67.3116 203.132 67.1932 203.165 67.072 203.17C66.9508 203.176 66.8299 203.154 66.7184 203.106C66.6068 203.058 66.5075 202.986 66.4278 202.894C66.2593 202.664 64.8653 198.978 64.8653 198.978L64.5079 196.976C64.5079 196.976 65.2278 203.323 64.8244 203.818C64.7646 203.909 64.6841 203.984 64.5897 204.038C64.4952 204.092 64.3894 204.122 64.2809 204.127C64.1723 204.132 64.0642 204.111 63.9652 204.067C63.8662 204.022 63.7792 203.954 63.7113 203.869C63.4355 203.619 63.1445 200.806 63.1445 200.806L62.4909 197.058L62.5828 203.139C62.5828 203.139 62.5062 203.818 61.9752 203.839C61.245 203.869 61.0918 203.083 61.0918 203.083L60.3871 196.818C60.3871 196.818 60.6322 200.903 60.3616 201.117C59.9939 201.403 59.6569 201.311 59.5395 201C59.2893 200.361 58.9318 196.685 58.9318 196.685L58.5693 189.669L58.314 187.734L65.0338 187.392V187.866C65.0338 187.866 67.6227 189.817 68.1895 190.588C68.6316 191.276 68.9754 192.021 69.2107 192.804L67.0252 192.814Z"
            fill="#FFBF9D" />
        <path d="M76.8652 206.892H80.0464V197.522H76.8652V206.892Z" fill="#455A64" />
        <path d="M79.1831 201.566L81.7516 200.785L81.7669 203.9L79.275 203.323L79.1831 201.566Z"
            fill="#455A64" />
        <path
            d="M78.5451 206.892C77.9886 206.815 77.4268 206.782 76.8651 206.795L76.9622 206.892C76.9928 205.733 77.0081 204.028 77.0081 202.133C77.0081 200.326 77.0081 198.686 76.9673 197.537L76.8651 197.635C77.4777 197.647 78.0904 197.614 78.6983 197.537C78.091 197.454 77.478 197.42 76.8651 197.435H76.7681V197.537C76.7681 198.697 76.7222 200.336 76.7222 202.133C76.7222 204.028 76.7222 205.708 76.7732 206.892V206.989H76.8651C77.4268 207.002 77.9886 206.97 78.5451 206.892Z"
            fill="#263238" />
    </g>
    <defs>
        <clipPath id="clip0_5116_23579">
            <rect width="292" height="318" fill="white" />
        </clipPath>
    </defs>
</svg>
