<svg width="266" height="266" viewBox="0 0 266 266" fill="none" xmlns="http://www.w3.org/2000/svg">
    <path d="M266 203.437H0V203.57H266V203.437Z" fill="#EBEBEB"/>
    <path d="M126.084 179.709H23.3605C22.5558 179.708 21.7845 179.387 21.216 178.818C20.6474 178.248 20.3281 177.476 20.3281 176.672V32.2709C20.3351 31.4708 20.6575 30.7057 21.2253 30.1419C21.7931 29.5781 22.5604 29.2611 23.3605 29.2598H126.084C126.89 29.2598 127.663 29.5798 128.232 30.1495C128.802 30.7192 129.122 31.4918 129.122 32.2975V176.672C129.122 177.477 128.802 178.25 128.232 178.82C127.663 179.389 126.89 179.709 126.084 179.709ZM23.3605 29.3662C22.5911 29.3676 21.8536 29.6742 21.31 30.2188C20.7664 30.7634 20.4611 31.5014 20.4611 32.2709V176.672C20.4611 177.441 20.7664 178.179 21.31 178.724C21.8536 179.268 22.5911 179.575 23.3605 179.576H126.084C126.854 179.575 127.592 179.268 128.137 178.724C128.681 178.18 128.988 177.442 128.989 176.672V32.2709C128.988 31.5009 128.681 30.7629 128.137 30.2185C127.592 29.6741 126.854 29.3676 126.084 29.3662H23.3605Z" fill="#EBEBEB"/>
    <path d="M241.16 179.709H138.431C137.626 179.708 136.854 179.387 136.285 178.818C135.715 178.249 135.395 177.477 135.394 176.672V32.2709C135.402 31.4703 135.726 30.7053 136.294 30.1416C136.863 29.578 137.631 29.2611 138.431 29.2598H241.16C241.96 29.2625 242.726 29.5802 243.292 30.1438C243.859 30.7074 244.181 31.4717 244.188 32.2709V176.672C244.188 177.475 243.869 178.247 243.302 178.816C242.734 179.385 241.964 179.707 241.16 179.709ZM138.431 29.3662C137.661 29.3676 136.923 29.6741 136.379 30.2185C135.834 30.7629 135.528 31.5009 135.527 32.2709V176.672C135.528 177.442 135.834 178.18 136.379 178.724C136.923 179.268 137.661 179.575 138.431 179.576H241.16C241.93 179.575 242.668 179.268 243.213 178.724C243.757 178.18 244.064 177.442 244.065 176.672V32.2709C244.064 31.5009 243.757 30.7629 243.213 30.2185C242.668 29.6741 241.93 29.3676 241.16 29.3662H138.431Z" fill="#EBEBEB"/>
    <path d="M239.347 208.501H222.552V208.634H239.347V208.501Z" fill="#EBEBEB"/>
    <path d="M178.401 207.06H160.627V207.193H178.401V207.06Z" fill="#EBEBEB"/>
    <path d="M244.199 213.443H210.986V213.576H244.199V213.443Z" fill="#EBEBEB"/>
    <path d="M38.1395 212.55H27.9092V212.683H38.1395V212.55Z" fill="#EBEBEB"/>
    <path d="M58.9932 212.55H42.8789V212.683H58.9932V212.55Z" fill="#EBEBEB"/>
    <path d="M129.882 210.305H100.856V210.438H129.882V210.305Z" fill="#EBEBEB"/>
    <path d="M144.843 62.8447L114.529 93.1634V194.132H220.924V62.8447H144.843Z" fill="white"/>
    <path d="M220.924 194.419H114.524C114.447 194.419 114.374 194.389 114.32 194.335C114.267 194.281 114.236 194.208 114.236 194.132V93.1635C114.236 93.1258 114.244 93.0886 114.258 93.0538C114.273 93.0191 114.294 92.9877 114.321 92.9614L144.645 62.6374C144.7 62.5848 144.772 62.5544 144.848 62.5522H220.924C220.961 62.5522 220.999 62.5597 221.034 62.5741C221.068 62.5885 221.1 62.6097 221.127 62.6364C221.153 62.6631 221.175 62.6947 221.189 62.7296C221.203 62.7644 221.211 62.8018 221.211 62.8395V194.132C221.211 194.17 221.203 194.207 221.189 194.242C221.175 194.277 221.153 194.308 221.127 194.335C221.1 194.362 221.068 194.383 221.034 194.397C220.999 194.412 220.961 194.419 220.924 194.419ZM114.816 193.85H220.636V63.1321H144.965L114.816 93.2806V193.85Z" fill="#E0E0E0"/>
    <path d="M114.529 93.1634L146.338 97.2651L144.843 62.8447L114.529 93.1634Z" fill="#E6E6E6"/>
    <path d="M114.529 93.1634H144.843V62.8447L114.529 93.1634Z" fill="white"/>
    <path d="M144.843 93.4455H114.519C114.462 93.4458 114.406 93.4292 114.359 93.398C114.312 93.3667 114.275 93.3222 114.253 93.2699C114.23 93.2181 114.225 93.1608 114.236 93.1057C114.248 93.0505 114.276 93.0002 114.316 92.9614L144.64 62.6374C144.681 62.598 144.732 62.571 144.788 62.5597C144.844 62.5484 144.901 62.5532 144.954 62.5735C145.006 62.5962 145.05 62.6333 145.081 62.6805C145.113 62.7277 145.129 62.783 145.13 62.8395V93.1635C145.128 93.2388 145.098 93.3105 145.044 93.3632C144.99 93.416 144.918 93.4455 144.843 93.4455ZM115.221 92.8763H144.561V63.5365L115.221 92.8763Z" fill="#E0E0E0"/>
    <path d="M173.879 136.825L191.967 118.737C192.371 118.333 192.692 117.853 192.911 117.325C193.13 116.797 193.242 116.231 193.242 115.659C193.242 115.087 193.13 114.522 192.911 113.993C192.692 113.465 192.371 112.986 191.967 112.581C191.563 112.177 191.083 111.857 190.555 111.638C190.027 111.419 189.461 111.307 188.89 111.307C188.318 111.307 187.752 111.419 187.224 111.638C186.696 111.857 186.216 112.177 185.812 112.581L167.724 130.669L149.636 112.581C148.82 111.765 147.713 111.307 146.558 111.307C145.404 111.307 144.297 111.765 143.481 112.581C142.665 113.398 142.206 114.505 142.206 115.659C142.206 116.813 142.665 117.92 143.481 118.737L161.569 136.825L143.481 154.913C142.665 155.729 142.206 156.836 142.206 157.99C142.206 159.145 142.665 160.252 143.481 161.068C144.297 161.884 145.404 162.343 146.558 162.343C147.713 162.343 148.82 161.884 149.636 161.068L167.724 142.98L185.812 161.068C186.628 161.884 187.735 162.343 188.89 162.343C190.044 162.343 191.151 161.884 191.967 161.068C192.784 160.252 193.242 159.145 193.242 157.99C193.242 156.836 192.784 155.729 191.967 154.913L173.879 136.825Z" fill="#F0F0F0"/>
    <path d="M118.636 121.828C117.615 122.847 116.232 123.42 114.79 123.42C113.347 123.42 111.964 122.847 110.943 121.828L93.4883 104.368L101.181 96.6748L118.636 114.156C119.649 115.176 120.217 116.555 120.217 117.992C120.217 119.429 119.649 120.808 118.636 121.828Z" fill="#F0F0F0"/>
    <path d="M93.4854 104.401L101.178 96.7085L101.889 97.4195C102.627 98.1567 103.041 99.1567 103.041 100.199C103.041 101.242 102.627 102.242 101.889 102.979L99.7563 105.112C99.019 105.85 98.019 106.264 96.9763 106.264C95.9336 106.264 94.9336 105.85 94.1963 105.112L93.4854 104.401Z" fill="#E0E0E0"/>
    <path d="M45.0653 48.2574C39.7866 53.5414 36.193 60.2718 34.7386 67.5978C33.2843 74.9238 34.0345 82.5165 36.8945 89.4162C39.7545 96.3159 44.5959 102.213 50.8066 106.362C57.0174 110.51 64.3187 112.725 71.7876 112.725C79.2566 112.725 86.5579 110.51 92.7687 106.362C98.9794 102.213 103.821 96.3159 106.681 89.4162C109.541 82.5165 110.291 74.9238 108.837 67.5978C107.382 60.2718 103.789 53.5414 98.51 48.2574C95.0021 44.7458 90.8364 41.9602 86.2512 40.0595C81.666 38.1589 76.7512 37.1807 71.7876 37.1807C66.8241 37.1807 61.9093 38.1589 57.3241 40.0595C52.7389 41.9602 48.5732 44.7458 45.0653 48.2574ZM96.3288 99.5209C91.4756 104.374 85.2922 107.679 78.5606 109.018C71.829 110.357 64.8516 109.67 58.5106 107.043C52.1696 104.417 46.7499 99.9687 42.9368 94.2619C39.1236 88.5551 37.0884 81.8458 37.0884 74.9824C37.0884 68.1189 39.1236 61.4096 42.9368 55.7028C46.7499 49.9961 52.1696 45.5482 58.5106 42.9216C64.8516 40.2951 71.829 39.6078 78.5606 40.9468C85.2922 42.2857 91.4756 45.5907 96.3288 50.4439C99.5513 53.6663 102.107 57.4919 103.851 61.7022C105.595 65.9125 106.493 70.4251 106.493 74.9824C106.493 79.5396 105.595 84.0522 103.851 88.2625C102.107 92.4729 99.5513 96.2985 96.3288 99.5209Z" fill="#E0E0E0"/>
    <path d="M91.6421 96.1054C91.3921 96.1048 91.1479 96.0302 90.9402 95.8911C90.7326 95.7519 90.5708 95.5544 90.4752 95.3234C90.3796 95.0924 90.3546 94.8383 90.4032 94.5931C90.4518 94.3479 90.5719 94.1226 90.7483 93.9455C95.7685 88.9113 98.5876 82.0919 98.5876 74.9824C98.5876 67.8728 95.7685 61.0534 90.7483 56.0192C90.6193 55.9046 90.5151 55.7648 90.4421 55.6085C90.3691 55.4521 90.3289 55.2825 90.3238 55.1101C90.3187 54.9376 90.3489 54.7659 90.4126 54.6055C90.4763 54.4452 90.5721 54.2995 90.6941 54.1775C90.8161 54.0555 90.9618 53.9597 91.1221 53.896C91.2825 53.8323 91.4542 53.8021 91.6267 53.8072C91.7991 53.8123 91.9688 53.8525 92.1251 53.9255C92.2814 53.9985 92.4212 54.1027 92.5358 54.2317C98.03 59.7389 101.115 67.2005 101.115 74.9797C101.115 82.7589 98.03 90.2205 92.5358 95.7277C92.419 95.8463 92.2799 95.9408 92.1266 96.0056C91.9732 96.0704 91.8086 96.1043 91.6421 96.1054Z" fill="#E0E0E0"/>
    <path d="M44.4646 82.7419C44.18 82.7422 43.9036 82.6461 43.6804 82.4693C43.4573 82.2926 43.3006 82.0455 43.2357 81.7683C42.3155 77.8714 42.1994 73.8278 42.8946 69.8845C43.5898 65.9413 45.0816 62.1811 47.2789 58.8338C47.4637 58.5516 47.7531 58.3544 48.0833 58.2856C48.4136 58.2167 48.7576 58.2819 49.0398 58.4667C49.322 58.6516 49.5192 58.9409 49.5881 59.2712C49.6569 59.6014 49.5917 59.9454 49.4069 60.2276C47.3951 63.2854 46.0273 66.7209 45.3871 70.3247C44.7468 73.9284 44.8475 77.6249 45.6829 81.1884C45.7224 81.3499 45.7294 81.5175 45.7036 81.6817C45.6778 81.8459 45.6197 82.0033 45.5326 82.1448C45.4455 82.2863 45.3312 82.4092 45.1963 82.5062C45.0613 82.6032 44.9085 82.6725 44.7466 82.71C44.6539 82.7301 44.5594 82.7408 44.4646 82.7419Z" fill="#E0E0E0"/>
    <path d="M51.9342 96.1054C51.5987 96.1046 51.2772 95.9706 51.0404 95.733C48.7615 93.4628 46.874 90.8311 45.4544 87.9445C45.3811 87.7957 45.3377 87.6339 45.3269 87.4684C45.3161 87.3028 45.338 87.1367 45.3913 86.9796C45.4447 86.8226 45.5285 86.6775 45.6379 86.5528C45.7473 86.4281 45.8802 86.3261 46.029 86.2528C46.1778 86.1794 46.3396 86.1361 46.5051 86.1253C46.6707 86.1144 46.8368 86.1363 46.9939 86.1897C47.151 86.243 47.296 86.3268 47.4207 86.4362C47.5454 86.5456 47.6474 86.6785 47.7207 86.8273C49.0223 89.4635 50.7476 91.8681 52.8279 93.9455C53.0644 94.1828 53.1972 94.5042 53.1972 94.8392C53.1972 95.1743 53.0644 95.4957 52.8279 95.733C52.5901 95.9692 52.2693 96.1029 51.9342 96.1054Z" fill="#E0E0E0"/>
    <path d="M112.269 170.455L117.242 175.429L105.694 186.977C105.103 187.568 104.302 187.9 103.467 187.9C102.631 187.9 101.83 187.568 101.24 186.977L100.717 186.454C100.126 185.864 99.7944 185.063 99.7944 184.227C99.7944 183.392 100.126 182.591 100.717 182L112.266 170.452L112.269 170.455Z" fill="#F0F0F0"/>
    <path d="M112.277 170.466L117.243 175.432L117.006 175.669C116.47 176.204 115.743 176.505 114.986 176.505C114.228 176.505 113.501 176.204 112.965 175.669L112.033 174.736C111.497 174.2 111.196 173.473 111.196 172.716C111.196 171.958 111.497 171.231 112.033 170.695L112.27 170.458L112.277 170.466Z" fill="#E0E0E0"/>
    <path d="M151.274 143.48L139.623 155.125C138.33 156.511 137.626 158.345 137.659 160.241C137.693 162.136 138.461 163.944 139.802 165.284C141.143 166.623 142.952 167.39 144.847 167.421C146.742 167.452 148.576 166.746 149.96 165.452L154.674 160.743C155.666 154.767 154.458 148.634 151.274 143.48Z" fill="#F0F0F0"/>
    <path d="M155.664 154.716C155.33 149.893 153.574 145.278 150.617 141.454C147.66 137.629 143.635 134.768 139.051 133.231C134.468 131.694 129.532 131.551 124.867 132.82C120.202 134.089 116.019 136.712 112.845 140.359C109.672 144.006 107.651 148.512 107.039 153.307C106.426 158.103 107.25 162.972 109.405 167.299C111.56 171.626 114.95 175.217 119.147 177.617C123.343 180.018 128.157 181.12 132.979 180.784C139.444 180.334 145.465 177.335 149.719 172.447C153.973 167.558 156.111 161.181 155.664 154.716ZM108.896 157.972C108.587 153.544 109.599 149.125 111.803 145.272C114.007 141.42 117.303 138.307 121.276 136.328C125.249 134.349 129.719 133.593 134.122 134.155C138.524 134.716 142.661 136.571 146.01 139.484C149.358 142.397 151.768 146.238 152.933 150.521C154.099 154.803 153.968 159.335 152.558 163.544C151.148 167.752 148.521 171.448 145.011 174.163C141.5 176.879 137.263 178.492 132.836 178.8C126.899 179.212 121.042 177.249 116.552 173.343C112.063 169.437 109.309 163.908 108.896 157.972Z" fill="#E0E0E0"/>
    <path d="M118.838 170.724C116.955 169.092 115.413 167.104 114.3 164.875C113.187 162.645 112.525 160.218 112.353 157.732C112.34 157.623 112.351 157.511 112.382 157.405C112.414 157.3 112.467 157.201 112.538 157.116C112.609 157.032 112.696 156.962 112.795 156.912C112.893 156.862 113.001 156.832 113.111 156.824C113.221 156.817 113.332 156.831 113.436 156.868C113.541 156.904 113.637 156.961 113.718 157.036C113.8 157.11 113.866 157.2 113.912 157.301C113.958 157.401 113.983 157.51 113.986 157.621C114.312 162.202 116.44 166.468 119.904 169.484C123.367 172.5 127.885 174.021 132.468 173.714C132.684 173.699 132.896 173.77 133.06 173.913C133.223 174.055 133.323 174.256 133.337 174.472C133.352 174.688 133.281 174.901 133.139 175.064C132.996 175.227 132.795 175.327 132.579 175.342C130.098 175.514 127.606 175.195 125.248 174.402C122.89 173.61 120.712 172.36 118.838 170.724Z" fill="#E0E0E0"/>
    <path d="M148.236 152.152C148.115 152.047 148.028 151.908 147.986 151.753C147.346 149.476 146.248 147.353 144.76 145.515C143.271 143.676 141.424 142.16 139.331 141.06C139.148 140.954 139.012 140.782 138.953 140.58C138.894 140.377 138.915 140.159 139.012 139.971C139.11 139.784 139.276 139.642 139.476 139.574C139.676 139.506 139.895 139.518 140.086 139.607C142.378 140.812 144.4 142.471 146.029 144.484C147.658 146.496 148.86 148.819 149.561 151.311C149.59 151.415 149.598 151.523 149.585 151.629C149.573 151.736 149.539 151.839 149.486 151.933C149.433 152.026 149.362 152.108 149.277 152.174C149.192 152.24 149.095 152.289 148.992 152.317C148.862 152.353 148.725 152.356 148.594 152.328C148.462 152.299 148.339 152.239 148.236 152.152Z" fill="#E0E0E0"/>
    <path d="M129.484 138.921C129.321 138.776 129.222 138.574 129.207 138.357C129.192 138.141 129.263 137.929 129.405 137.765C129.546 137.602 129.747 137.501 129.962 137.484C132.037 137.34 134.122 137.536 136.134 138.064C136.238 138.092 136.337 138.14 136.423 138.205C136.509 138.271 136.582 138.353 136.636 138.447C136.691 138.54 136.727 138.644 136.741 138.751C136.756 138.858 136.749 138.968 136.721 139.072C136.694 139.177 136.646 139.276 136.58 139.362C136.515 139.448 136.433 139.521 136.339 139.575C136.246 139.63 136.142 139.665 136.035 139.68C135.927 139.695 135.818 139.688 135.713 139.66C133.877 139.175 131.974 138.995 130.079 139.128C129.861 139.139 129.648 139.065 129.484 138.921Z" fill="#E0E0E0"/>
    <path d="M133 227.462C189.968 227.462 236.15 224.766 236.15 221.44C236.15 218.114 189.968 215.417 133 215.417C76.0322 215.417 29.8506 218.114 29.8506 221.44C29.8506 224.766 76.0322 227.462 133 227.462Z" fill="#F5F5F5"/>
    <path d="M73.32 77.6079C69.0321 81.9225 76.3205 88.6203 71.5059 91.6953C75.4373 93.669 89.2161 96.1747 92.7859 88.4129C90.1844 86.3913 91.9932 81.4224 89.5939 76.6503C86.0029 69.5747 69.0321 72.7082 73.32 77.6079Z" fill="#263238"/>
    <path d="M73.7089 77.496C72.3736 77.2726 67.8569 79.5176 71.2191 85.5452C73.927 90.4183 71.6713 90.7641 71.6713 90.7641C71.6713 90.7641 74.3313 90.8386 72.7353 87.2156C71.0436 83.348 70.2509 79.3367 73.7089 77.496Z" fill="#263238"/>
    <path d="M105.336 115.768C105.172 115.467 104.896 115.243 104.567 115.143C104.239 115.044 103.885 115.077 103.581 115.236L103.267 115.401C103.166 115.454 102.974 115.582 102.82 115.672C102.666 115.763 102.485 115.864 102.315 115.949C101.979 116.118 101.632 116.264 101.277 116.385C100.62 116.624 99.928 116.755 99.2289 116.774C98.5867 116.781 97.9479 116.679 97.3403 116.47C96.9543 116.327 96.5822 116.149 96.2284 115.938C95.7709 114.928 95.3347 113.906 94.9623 112.853C94.5101 111.624 94.1111 110.368 93.76 109.097C93.4088 107.825 93.1003 106.538 92.8449 105.245C92.7119 104.601 92.5949 103.952 92.4885 103.309L92.3448 102.346C92.297 102.037 92.2544 101.686 92.2278 101.441V101.335C92.1573 100.63 91.8093 99.981 91.2606 99.532C90.7119 99.0831 90.0073 98.8705 89.3018 98.941C88.5963 99.0116 87.9478 99.3595 87.4988 99.9082C87.0499 100.457 86.8373 101.162 86.9078 101.867C86.945 102.319 86.977 102.665 87.0248 103.043C87.0727 103.42 87.1259 103.782 87.1791 104.149C87.2962 104.883 87.4292 105.607 87.5781 106.33C87.8739 107.768 88.2468 109.189 88.6953 110.586C88.9028 111.289 89.1582 111.98 89.3976 112.677C89.637 113.374 89.9296 114.055 90.2328 114.731C90.8134 116.096 91.4724 117.426 92.2065 118.715L92.2704 118.832C92.4613 119.179 92.7475 119.463 93.095 119.652C94.1005 120.2 95.187 120.584 96.3136 120.79C97.4705 120.995 98.6563 120.969 99.8035 120.716C101.423 120.34 102.91 119.533 104.107 118.38C104.304 118.199 104.49 118.013 104.639 117.816C104.788 117.62 104.969 117.433 105.171 117.157C105.327 116.965 105.426 116.732 105.455 116.486C105.484 116.241 105.443 115.992 105.336 115.768Z" fill="#FF8B7B"/>
    <path d="M108.874 110.789H108.72C108.211 110.778 107.706 110.885 107.244 111.101C106.783 111.316 106.378 111.636 106.06 112.034L103.49 115.258V117.46C105.554 118.279 108.172 116.072 108.172 116.072L109.497 115.736C109.942 115.625 110.331 115.353 110.588 114.971C110.844 114.59 110.95 114.127 110.885 113.672L110.694 112.38C110.631 111.94 110.413 111.538 110.079 111.246C109.745 110.954 109.318 110.792 108.874 110.789Z" fill="#FF8B7B"/>
    <path d="M92.1584 98.3559C93.8767 100.122 93.9831 105.394 93.9831 105.394L87.1097 110.927C87.1097 110.927 84.2848 103.107 85.8489 100.346C87.1735 98.0048 89.9665 96.1055 92.1584 98.3559Z" fill="#FF960A"/>
    <g opacity="0.2">
        <path d="M90.7814 98.0073C92.4998 99.7735 92.6062 105.046 92.6062 105.046L85.7328 110.578C85.7328 110.578 82.9078 102.758 84.4719 99.9969C85.7966 97.6561 88.5896 95.7569 90.7814 98.0073Z" fill="white"/>
    </g>
    <path d="M80.7842 216.88L84.5827 217.295L85.104 206.974L81.3055 206.554L80.7842 216.88Z" fill="#FF8B7B"/>
    <path d="M85.2048 214.816H80.7413C80.6513 214.813 80.5637 214.845 80.4972 214.906C80.4306 214.967 80.3903 215.051 80.3848 215.141L80.0869 219.359C80.0868 219.58 80.173 219.792 80.3271 219.95C80.4812 220.108 80.6909 220.2 80.9115 220.205C82.7948 220.205 82.8161 220.205 85.1675 220.205H91.5036C93.4508 220.205 93.4561 218.232 92.6155 218.051C88.833 217.253 87.3594 216.146 86.024 215.093C85.7894 214.912 85.501 214.814 85.2048 214.816Z" fill="#263238"/>
    <path opacity="0.2" d="M85.1038 206.98L84.8325 212.3H81.0127L81.3053 206.56L85.1038 206.98Z" fill="black"/>
    <path d="M87.1519 124.632C87.1519 124.632 90.4396 152.152 90.4396 164.388C87.8488 181.412 85.6516 211.289 85.6516 211.289L80.3955 211.151C80.3955 211.151 78.0068 178.614 80.2199 164.564C77.3843 151.976 73.8838 122.929 73.8838 122.929L87.1519 124.632Z" fill="#263238"/>
    <path opacity="0.2" d="M77.0177 132.292C76.3912 132.568 75.7834 132.884 75.1982 133.239C75.9218 138.671 76.874 145.507 77.8848 151.816C79.6085 146.624 78.6775 135.207 77.0177 132.292Z" fill="black"/>
    <path d="M39.6494 207.299L42.7829 209.485L48.188 200.675L45.0545 198.489L39.6494 207.299Z" fill="#FF8B7B"/>
    <path d="M43.576 208.331L40.916 204.751C40.8653 204.677 40.7879 204.627 40.7004 204.61C40.6128 204.593 40.5222 204.611 40.4478 204.66L36.8834 206.948C36.7056 207.079 36.5864 207.274 36.5516 207.492C36.5167 207.71 36.569 207.933 36.6972 208.113C37.8091 209.629 37.8304 209.64 39.2295 211.523C40.0967 212.677 41.8257 215.002 43.0174 216.603C44.2091 218.205 45.7678 216.992 45.4061 216.204C43.8101 212.699 43.8101 210.885 43.842 209.161C43.8474 208.862 43.7539 208.571 43.576 208.331Z" fill="#263238"/>
    <path opacity="0.2" d="M48.1832 200.675L45.4009 205.219L42.0439 203.388L45.0551 198.489L48.1832 200.675Z" fill="black"/>
    <path d="M58.8713 210.991C56.1528 210.991 50.4923 210.991 50.3966 206.99C50.3221 203.852 54.2057 202.548 57.5573 202.389C57.9286 202.371 58.2998 202.426 58.6498 202.552C58.9997 202.677 59.3214 202.871 59.5966 203.121C59.8718 203.371 60.095 203.672 60.2535 204.009C60.4121 204.345 60.5028 204.709 60.5205 205.08V205.293C64.319 205.112 66.7768 204.282 67.6759 202.867C69.7028 199.675 65.8192 191.435 62.0686 183.471C57.653 174.102 52.6522 163.489 52.5565 153.322C52.553 152.951 52.6227 152.582 52.7617 152.237C52.9007 151.892 53.1062 151.578 53.3666 151.313C53.6269 151.048 53.937 150.836 54.279 150.691C54.6211 150.545 54.9884 150.469 55.3601 150.465C56.1057 150.467 56.8208 150.762 57.3505 151.286C57.8803 151.811 58.182 152.523 58.1904 153.269C58.2755 162.196 62.9784 172.213 67.1599 181.055C71.9479 191.259 76.1241 200.074 72.4267 205.9C70.2827 209.326 65.8405 210.991 58.8713 210.991Z" fill="#18C0B3"/>
    <path d="M82.9442 124.089C82.9442 124.089 73.8683 155.54 69.4367 166.947C60.8502 181.874 46.6033 204.718 46.6033 204.718L42.0547 202.059C42.0547 202.059 52.6947 175.671 59.8501 163.382C61.7706 150.614 69.0324 122.28 69.0324 122.28L82.9442 124.089Z" fill="#263238"/>
    <path d="M44.3956 210.901C44.5761 211.2 44.8542 211.427 45.183 211.544C45.2792 211.568 45.38 211.563 45.474 211.532C45.5679 211.501 45.6514 211.445 45.715 211.369C45.7592 211.328 45.793 211.278 45.8133 211.221C45.8337 211.164 45.8401 211.104 45.832 211.044C45.7682 210.406 44.119 209.576 43.7891 209.416C43.7699 209.409 43.7485 209.408 43.7289 209.415C43.7093 209.422 43.6929 209.436 43.6827 209.454C43.6699 209.473 43.6631 209.497 43.6631 209.52C43.6631 209.544 43.6699 209.567 43.6827 209.587C43.8781 210.046 44.1168 210.486 44.3956 210.901ZM45.5288 210.901C45.5756 210.959 45.6067 211.029 45.6192 211.103C45.6218 211.124 45.6192 211.145 45.6118 211.164C45.6044 211.184 45.5923 211.201 45.5767 211.215C45.5337 211.263 45.4786 211.3 45.4169 211.321C45.3552 211.341 45.2892 211.345 45.2255 211.332C44.8744 211.262 44.4116 210.693 43.9647 209.794C44.5441 210.064 45.0731 210.431 45.5288 210.879V210.901Z" fill="#18C0B3"/>
    <path d="M43.6554 209.608L43.6874 209.634C44.2194 209.927 45.6026 210.166 45.9058 209.725C45.9567 209.644 45.9815 209.55 45.9767 209.455C45.9719 209.359 45.9379 209.268 45.8792 209.193C45.3472 208.251 43.7512 209.358 43.682 209.406C43.6662 209.418 43.6536 209.435 43.6452 209.453C43.6369 209.472 43.6331 209.492 43.6342 209.512C43.632 209.545 43.6394 209.579 43.6554 209.608ZM45.677 209.299C45.6925 209.318 45.7068 209.337 45.7196 209.358C45.7781 209.459 45.7888 209.533 45.7568 209.576C45.5813 209.831 44.5598 209.741 43.964 209.507C44.363 209.267 45.294 208.783 45.677 209.299Z" fill="#18C0B3"/>
    <path d="M87.7803 215.694C88.129 215.726 88.4781 215.638 88.7698 215.444C88.8438 215.379 88.8984 215.295 88.9275 215.201C88.9566 215.107 88.9591 215.007 88.9348 214.912C88.9271 214.852 88.9059 214.794 88.8728 214.744C88.8396 214.693 88.7953 214.65 88.7432 214.619C88.2112 214.295 86.5461 215.119 86.2216 215.29C86.2033 215.3 86.189 215.316 86.1813 215.335C86.1735 215.355 86.1727 215.376 86.179 215.396C86.1871 215.418 86.2006 215.438 86.2182 215.454C86.2358 215.47 86.2571 215.481 86.2801 215.486C86.7718 215.607 87.2745 215.676 87.7803 215.694ZM88.44 214.774C88.5158 214.769 88.5913 214.785 88.6581 214.821C88.6847 214.821 88.7113 214.859 88.722 214.923C88.7359 214.986 88.7323 215.052 88.7117 215.114C88.6911 215.176 88.6542 215.231 88.6049 215.274C88.3442 215.513 87.6101 215.545 86.6206 215.369C87.1797 215.07 87.7861 214.868 88.4134 214.774H88.44Z" fill="#18C0B3"/>
    <path d="M86.2795 215.513H86.3167C86.8487 215.268 87.8861 214.295 87.7159 213.79C87.6804 213.706 87.6211 213.635 87.5455 213.585C87.4698 213.534 87.3811 213.508 87.2903 213.508C86.2263 213.385 86.1518 215.311 86.1465 215.391C86.1466 215.412 86.1521 215.433 86.1623 215.451C86.1725 215.47 86.1872 215.486 86.205 215.497C86.2276 215.51 86.2536 215.516 86.2795 215.513ZM87.2371 213.704H87.3116C87.4233 213.704 87.4925 213.752 87.5084 213.805C87.6095 214.098 86.9285 214.869 86.3806 215.205C86.4284 214.742 86.5987 213.704 87.2477 213.704H87.2371Z" fill="#18C0B3"/>
    <path d="M69.0322 122.307L87.1522 124.626C91.2379 110.869 92.5839 104.224 92.9456 101.027C93.0414 100.223 92.8535 99.4112 92.4145 98.7313C91.9755 98.0514 91.3128 97.5461 90.541 97.3027C89.477 96.9622 88.1044 96.5579 86.7425 96.2387C86.2797 96.1163 85.8062 96.0046 85.3433 95.8982C82.6307 95.3478 79.8821 94.9922 77.1186 94.8342C76.709 94.7969 76.3047 94.7757 75.895 94.7544C75.0917 94.7118 74.299 94.7012 73.5755 94.7012C73.0325 94.7005 72.4952 94.813 71.9981 95.0314C71.5009 95.2498 71.0547 95.5694 70.6878 95.9698C70.321 96.3702 70.0415 96.8426 69.8673 97.3569C69.6931 97.8713 69.6279 98.4163 69.676 98.9572C69.8196 100.553 69.9313 102.037 70.0164 103.399C70.2186 106.591 70.2824 109.145 70.2346 111.379C70.1258 115.048 69.7237 118.702 69.0322 122.307Z" fill="#FF960A"/>
    <g opacity="0.3">
        <path d="M69 122.605L87.1199 124.925C91.2057 111.167 92.5516 104.523 92.9134 101.325C93.0091 100.522 92.8213 99.71 92.3822 99.0301C91.9432 98.3502 91.2806 97.8449 90.5088 97.6015C89.4448 97.261 88.0722 96.8567 86.7103 96.5375C86.2474 96.4151 85.774 96.3034 85.3111 96.197C82.5984 95.6466 79.8498 95.2911 77.0864 95.133C76.6768 95.0958 76.2724 95.0745 75.8628 95.0532C75.0595 95.0106 74.2668 95 73.5433 95C73.0002 94.9994 72.463 95.1118 71.9658 95.3302C71.4687 95.5487 71.0224 95.8683 70.6556 96.2686C70.2887 96.669 70.0093 97.1414 69.8351 97.6558C69.6609 98.1701 69.5957 98.7151 69.6437 99.256C69.7874 100.852 69.8991 102.336 69.9842 103.698C70.1864 106.89 70.2502 109.444 70.2023 111.678C70.0936 115.347 69.6915 119.001 69 122.605Z" fill="white"/>
    </g>
    <path opacity="0.3" d="M70.224 111.358C72.618 108.262 73.4851 104.719 72.7084 102.766L70.0059 103.373C70.224 106.554 70.2825 109.118 70.224 111.358Z" fill="#18C0B3"/>
    <path d="M86.7425 96.2067C86.2744 96.0843 85.8062 95.9726 85.3434 95.8662C82.6285 95.3184 79.8783 94.9628 77.1133 94.8022C76.7037 94.7703 76.2994 94.749 75.8951 94.7277L75.1875 94.6958L75.7195 95.6268C75.794 95.7545 77.6028 98.7124 82.1035 101.894L83.0664 102.564L83.9921 101.857C84.8835 101.217 85.612 100.377 86.1184 99.4035C86.6249 98.4303 86.8952 97.3516 86.9075 96.2546L86.7425 96.2067Z" fill="white"/>
    <path d="M79.1136 89.3332C78.9434 91.5729 78.4167 93.8552 77.1133 94.8128C77.1133 94.8128 78.7731 97.5738 83.0717 100.59C85.7636 98.5314 85.3433 95.8661 85.3433 95.8661C82.4812 94.8021 82.6833 92.8178 83.891 89.6524L81.6566 88.45C81.4638 88.2376 81.2128 88.0865 80.9348 88.0156C80.6569 87.9447 80.3642 87.9571 80.0932 88.0512C79.8222 88.1453 79.5849 88.317 79.4107 88.5449C79.2365 88.7729 79.1332 89.047 79.1136 89.3332Z" fill="#FF8B7B"/>
    <path opacity="0.2" d="M81.657 88.4499C81.476 88.2499 81.2431 88.1039 80.9843 88.0279C80.7254 87.952 80.4506 87.9491 80.1902 88.0195C79.9298 88.09 79.6939 88.2311 79.5087 88.4272C79.3235 88.6234 79.1961 88.8669 79.1406 89.1309C79.9894 90.8422 81.3582 92.2408 83.0508 93.1262C83.1114 91.9265 83.3947 90.7484 83.8861 89.6523L81.657 88.4499Z" fill="black"/>
    <path d="M75.6345 82.311C76.7463 86.6361 77.1241 88.4875 79.7681 90.291C83.7421 93.0255 88.8121 90.7166 89.0089 86.152C89.1951 82.0397 87.3491 75.6557 82.7313 74.7406C81.7119 74.5322 80.6562 74.5884 79.6646 74.9039C78.6731 75.2193 77.7789 75.7834 77.0673 76.5425C76.3557 77.3016 75.8504 78.2303 75.5996 79.2401C75.3487 80.2499 75.3608 81.3071 75.6345 82.311Z" fill="#FF8B7B"/>
    <path d="M86.6415 75.6342C84.0365 77.9498 80.9463 79.653 77.5975 80.619C77.5975 80.619 80.9012 87.6467 74.7193 85.8752C72.9265 79.8902 74.7193 76.7833 76.3153 75.3203C81.231 73.7243 84.689 73.1923 86.6415 75.6342Z" fill="#263238"/>
    <path d="M75.4269 86.5723C75.7894 87.356 76.4474 87.9642 77.257 88.2641C78.321 88.6471 78.9541 87.7321 78.7253 86.6681C78.5178 85.7158 77.7092 84.3645 76.5973 84.4337C76.3568 84.4542 76.1252 84.534 75.923 84.6657C75.7207 84.7975 75.5543 84.9773 75.4384 85.189C75.3225 85.4008 75.2608 85.6379 75.2588 85.8793C75.2568 86.1206 75.3146 86.3587 75.4269 86.5723Z" fill="#FF8B7B"/>
    <path d="M68.8988 121.211L67.8721 122.727C67.7923 122.844 67.9253 122.993 68.1328 123.019L87.1358 125.456C87.3007 125.456 87.4444 125.413 87.471 125.312L87.8434 123.716C87.8434 123.605 87.737 123.493 87.5614 123.466L69.2074 121.115C69.1521 121.102 69.0944 121.104 69.0401 121.121C68.9859 121.138 68.9371 121.169 68.8988 121.211Z" fill="#18C0B3"/>
    <path d="M71.0967 123.578L70.6073 123.514C70.5115 123.514 70.4424 123.44 70.4583 123.381L70.9584 121.301C70.9775 121.266 71.0078 121.239 71.0446 121.223C71.0813 121.208 71.1222 121.205 71.1606 121.216L71.6553 121.28C71.7511 121.28 71.8203 121.349 71.8043 121.413L71.3042 123.488C71.2883 123.552 71.1978 123.589 71.0967 123.578Z" fill="#263238"/>
    <path d="M85.7315 125.451L85.2421 125.392C85.1463 125.392 85.0772 125.318 85.0931 125.254L85.5932 123.179C85.5932 123.12 85.6996 123.078 85.7954 123.089L86.2901 123.152C86.3859 123.152 86.455 123.227 86.4391 123.285L85.939 125.366C85.923 125.424 85.8326 125.467 85.7315 125.451Z" fill="#263238"/>
    <path d="M78.4165 124.514L77.9271 124.45C77.826 124.45 77.7568 124.381 77.7728 124.317L78.2729 122.243C78.2729 122.179 78.3793 122.142 78.4804 122.152L78.9698 122.216C79.0656 122.216 79.1347 122.291 79.1241 122.349L78.6187 124.429C78.608 124.488 78.5123 124.525 78.4165 124.514Z" fill="#263238"/>
    <path d="M83.0449 82.1248C83.1088 82.4812 83.3535 82.7366 83.5769 82.6887C83.8004 82.6408 83.944 82.3216 83.8748 81.9652C83.8057 81.6088 83.561 81.3534 83.3428 81.4013C83.1247 81.4492 82.9917 81.7684 83.0449 82.1248Z" fill="#263238"/>
    <path d="M87.067 81.3532C87.1362 81.7096 87.3809 81.9597 87.599 81.9171C87.8171 81.8745 87.9661 81.5447 87.8969 81.1883C87.8278 80.8318 87.5831 80.5818 87.3649 80.6243C87.1468 80.6669 87.0032 80.9967 87.067 81.3532Z" fill="#263238"/>
    <path d="M87.248 80.6669L88.0567 80.252C88.0567 80.252 87.78 81.0074 87.248 80.6669Z" fill="#263238"/>
    <path d="M86.0029 82.1514C86.4783 82.9008 87.0528 83.5826 87.7106 84.1783C87.5548 84.3439 87.3643 84.4731 87.1528 84.5568C86.9414 84.6405 86.714 84.6765 86.4871 84.6624L86.0029 82.1514Z" fill="#FF5652"/>
    <path d="M83.4917 86.0987C83.4756 86.1172 83.4665 86.1408 83.4659 86.1654C83.4652 86.1899 83.4731 86.2139 83.4881 86.2333C83.5031 86.2527 83.5244 86.2664 83.5483 86.2719C83.5723 86.2774 83.5974 86.2745 83.6194 86.2636C84.0213 86.0585 84.4662 85.9516 84.9174 85.9516C85.3687 85.9516 85.8135 86.0585 86.2155 86.2636C86.2396 86.2773 86.2681 86.2811 86.2949 86.2741C86.3217 86.2672 86.3448 86.25 86.3592 86.2263C86.3737 86.2021 86.3785 86.1732 86.3725 86.1456C86.3666 86.1179 86.3504 86.0936 86.3272 86.0774C85.8934 85.8552 85.4129 85.7393 84.9254 85.7393C84.438 85.7393 83.9575 85.8552 83.5236 86.0774C83.5236 86.0774 83.5236 86.088 83.4917 86.0987Z" fill="#263238"/>
    <path d="M81.6566 81.0288C81.6894 81.0086 81.7154 80.9789 81.7311 80.9437C81.842 80.7012 82.0087 80.4885 82.2177 80.3229C82.4267 80.1574 82.672 80.0438 82.9334 79.9914C82.9614 79.9881 82.9885 79.9793 83.0131 79.9654C83.0377 79.9516 83.0593 79.933 83.0766 79.9107C83.094 79.8884 83.1067 79.8629 83.1141 79.8357C83.1215 79.8084 83.1233 79.78 83.1196 79.752C83.117 79.7242 83.1088 79.6972 83.0955 79.6726C83.0822 79.6481 83.0641 79.6265 83.0422 79.6091C83.0203 79.5917 82.9952 79.5789 82.9683 79.5715C82.9414 79.564 82.9132 79.5621 82.8855 79.5658C82.553 79.6279 82.24 79.7684 81.9727 79.9757C81.7053 80.1829 81.4912 80.4509 81.3481 80.7575C81.3274 80.7994 81.3211 80.847 81.3302 80.8929C81.3394 80.9388 81.3633 80.9804 81.3985 81.0113C81.4336 81.0422 81.4779 81.0606 81.5246 81.0638C81.5712 81.067 81.6176 81.0547 81.6566 81.0288Z" fill="#263238"/>
    <path d="M88.2641 78.3316L88.2907 78.305C88.3069 78.282 88.3184 78.256 88.3245 78.2285C88.3306 78.201 88.3312 78.1726 88.3263 78.1449C88.3213 78.1172 88.3109 78.0907 88.2957 78.0671C88.2804 78.0434 88.2607 78.023 88.2375 78.0071C87.9625 77.8094 87.6443 77.6802 87.3093 77.6302C86.9744 77.5803 86.6323 77.611 86.3116 77.7198C86.2604 77.7421 86.2197 77.7833 86.1979 77.8347C86.1761 77.8862 86.1749 77.9441 86.1946 77.9964C86.2158 78.0485 86.2569 78.0901 86.3087 78.1121C86.3606 78.134 86.419 78.1345 86.4712 78.1135C86.726 78.03 86.997 78.0086 87.2617 78.0512C87.5264 78.0938 87.777 78.199 87.9927 78.3582C88.0336 78.3872 88.0835 78.4006 88.1334 78.3957C88.1833 78.3908 88.2297 78.368 88.2641 78.3316Z" fill="#263238"/>
    <path d="M83.2422 81.4385L84.0508 81.0288C84.0508 81.0288 83.7369 81.7789 83.2422 81.4385Z" fill="#263238"/>
    <path d="M55.3865 156.126C54.6405 156.126 53.9246 155.831 53.3946 155.306C52.8646 154.781 52.5633 154.068 52.5563 153.322C52.4818 145.768 54.9982 139.389 59.8341 134.878C65.7871 129.324 75.0705 126.743 85.9872 127.605C93.6427 128.212 98.553 126.35 104.235 124.184C105.171 123.833 106.113 123.472 107.081 123.12C107.786 122.864 108.565 122.898 109.245 123.215C109.926 123.532 110.452 124.107 110.709 124.812C110.966 125.518 110.932 126.296 110.615 126.977C110.298 127.657 109.723 128.184 109.017 128.44C108.076 128.781 107.161 129.132 106.251 129.478C100.458 131.68 94.4726 133.952 85.5403 133.25C76.2303 132.51 68.4737 134.558 63.6964 139.017C59.9724 142.464 58.1583 147.257 58.2168 153.269C58.2203 153.641 58.1505 154.009 58.0115 154.354C57.8725 154.699 57.667 155.013 57.4067 155.278C57.1463 155.543 56.8363 155.755 56.4942 155.9C56.1522 156.046 55.7848 156.122 55.4131 156.126H55.3865Z" fill="#18C0B3"/>
    <path d="M120.841 132.437L109.456 136.607C108.507 136.955 107.457 136.912 106.54 136.486C105.622 136.06 104.911 135.287 104.563 134.338L99.8614 121.505C99.5134 120.555 99.557 119.505 99.9826 118.588C100.408 117.67 101.181 116.959 102.131 116.611L113.515 112.44L120.835 132.422L120.841 132.437Z" fill="#18C0B3"/>
    <path opacity="0.7" d="M120.841 132.437L109.456 136.607C108.507 136.955 107.457 136.912 106.54 136.486C105.622 136.06 104.911 135.287 104.563 134.338L99.8614 121.505C99.5134 120.555 99.557 119.505 99.9826 118.588C100.408 117.67 101.181 116.959 102.131 116.611L113.515 112.44L120.835 132.422L120.841 132.437Z" fill="white"/>
    <path opacity="0.2" d="M108.443 114.295L113.523 112.438L120.843 132.431L115.763 134.293C115.425 133.965 115.166 133.565 115.007 133.122L108.623 115.678C108.456 115.237 108.395 114.764 108.443 114.295Z" fill="#18C0B3"/>
    <path d="M124.932 117.418L124.433 117.601L125.651 120.927L126.151 120.744L124.932 117.418Z" fill="#18C0B3"/>
    <path d="M123.664 115.529L121.871 110.624C121.563 109.792 121.008 109.075 120.281 108.568C119.553 108.061 118.688 107.789 117.801 107.788C117.297 107.787 116.796 107.875 116.322 108.049L113.088 109.235L112.901 108.735L116.141 107.549C116.673 107.354 117.235 107.255 117.801 107.256C118.797 107.259 119.769 107.566 120.586 108.136C121.403 108.707 122.026 109.514 122.371 110.448L124.164 115.353L123.664 115.529Z" fill="#18C0B3"/>
    <path d="M120.929 133.87L125.68 132.151C127.232 131.59 128.035 129.876 127.474 128.324L121.025 110.496C120.464 108.944 118.75 108.141 117.198 108.703L112.448 110.421C110.895 110.982 110.092 112.696 110.654 114.248L117.102 132.076C117.663 133.628 119.377 134.431 120.929 133.87Z" fill="#A0A0A0"/>
    <path d="M118.21 115.907C118.319 116.203 118.337 116.526 118.262 116.832C118.187 117.139 118.023 117.417 117.79 117.631C117.558 117.844 117.267 117.984 116.955 118.032C116.643 118.08 116.323 118.035 116.037 117.901C115.751 117.768 115.51 117.553 115.347 117.283C115.183 117.012 115.103 116.7 115.117 116.384C115.131 116.069 115.238 115.765 115.425 115.51C115.612 115.255 115.87 115.062 116.167 114.954C116.564 114.81 117.003 114.83 117.386 115.008C117.768 115.187 118.065 115.51 118.21 115.907Z" fill="#263238"/>
    <path d="M122.184 126.754C122.292 127.051 122.31 127.372 122.235 127.679C122.161 127.986 121.996 128.263 121.764 128.476C121.532 128.69 121.241 128.829 120.929 128.878C120.617 128.926 120.298 128.881 120.012 128.748C119.726 128.615 119.486 128.4 119.322 128.13C119.157 127.861 119.077 127.549 119.09 127.233C119.104 126.918 119.21 126.614 119.396 126.359C119.582 126.104 119.84 125.91 120.136 125.802C120.333 125.73 120.542 125.697 120.752 125.706C120.962 125.715 121.167 125.765 121.358 125.853C121.548 125.942 121.719 126.067 121.861 126.221C122.003 126.376 122.113 126.557 122.184 126.754Z" fill="#263238"/>
    <path d="M75.5435 125.472L75.5009 125.424C74.671 124.594 73.7932 123.69 73.0005 122.764C72.2079 121.838 71.4311 120.913 70.7236 119.955C70.0299 119.021 69.3989 118.042 68.835 117.024C68.4314 116.296 68.088 115.536 67.8082 114.752C68.1274 113.688 68.4679 112.624 68.8722 111.603C69.3351 110.374 69.8564 109.166 70.4257 107.975C70.9949 106.783 71.6014 105.612 72.2557 104.469C72.5749 103.894 72.9101 103.325 73.2559 102.766L73.7879 101.947C73.9528 101.681 74.1497 101.415 74.288 101.186L74.3465 101.101C74.7247 100.525 74.8643 99.8239 74.7359 99.1465C74.6075 98.4691 74.2211 97.8681 73.6582 97.4701C73.0953 97.072 72.3998 96.9081 71.7184 97.0128C71.0369 97.1175 70.4228 97.4827 70.0054 98.0314C69.7394 98.3932 69.5372 98.6805 69.3244 98.9943C69.1116 99.3082 68.9201 99.6221 68.7179 99.936C68.3296 100.564 67.9519 101.197 67.5901 101.841C66.8704 103.125 66.2187 104.446 65.6377 105.799C65.3397 106.469 65.1057 107.155 64.8024 107.842C64.4992 108.528 64.297 109.225 64.0842 109.938C63.6326 111.35 63.2614 112.787 62.9723 114.241V114.364C62.8898 114.752 62.9174 115.156 63.0521 115.529C63.5676 116.893 64.2522 118.187 65.0897 119.381C65.8784 120.514 66.7573 121.581 67.7178 122.573C68.6534 123.528 69.6466 124.425 70.6917 125.259C71.7363 126.092 72.8326 126.858 73.9741 127.552C74.2513 127.714 74.578 127.77 74.8932 127.708C75.2083 127.647 75.4901 127.472 75.6859 127.218C75.8817 126.963 75.9779 126.646 75.9566 126.326C75.9353 126.005 75.7979 125.704 75.5701 125.477L75.5435 125.472Z" fill="#FF8B7B"/>
    <path d="M81.7259 128.116L81.6568 127.978C81.4359 127.517 81.1109 127.113 80.7075 126.799C80.304 126.485 79.8331 126.27 79.3319 126.169L75.294 125.35L73.3203 126.334C73.5331 128.547 76.6932 129.872 76.6932 129.872L77.5923 130.898C77.8954 131.243 78.315 131.463 78.7705 131.517C79.2261 131.571 79.6855 131.455 80.0608 131.191L81.1248 130.43C81.4824 130.178 81.739 129.807 81.849 129.383C81.9591 128.96 81.9154 128.511 81.7259 128.116Z" fill="#FF8B7B"/>
    <path d="M71.9209 95.0417C69.6812 96.0685 67.2979 99.6222 67.2979 99.6222L72.0859 108.586C72.0859 108.586 77.5282 102.314 77.0707 99.1754C76.6983 96.51 74.7725 93.733 71.9209 95.0417Z" fill="#FF960A"/>
    <g opacity="0.3">
        <path d="M71.6231 95.3342C69.3834 96.361 67 99.9147 67 99.9147L71.788 108.879C71.788 108.879 77.2304 102.607 76.7728 99.4678C76.4004 96.8025 74.4746 94.0255 71.6231 95.3342Z" fill="white"/>
    </g>
    <path d="M225.19 212.497C220.503 212.497 215.896 211.534 213.662 208.619C203.086 194.787 203.181 166.963 203.272 140.039C203.325 125.542 204.469 111.843 202.857 101.203C201.91 94.9303 198.601 90.6264 195.26 88.4027C190.302 85.1255 183.492 86.8865 180.582 87.6366C180.22 87.7379 179.841 87.7658 179.467 87.7188C179.094 87.6718 178.733 87.5508 178.407 87.3629C178.081 87.175 177.796 86.9239 177.568 86.6244C177.34 86.3248 177.174 85.9828 177.08 85.6184C176.986 85.254 176.966 84.8745 177.02 84.5021C177.074 84.1296 177.202 83.7718 177.397 83.4495C177.591 83.1272 177.848 82.8468 178.152 82.6249C178.456 82.403 178.801 82.2439 179.167 82.157C182.8 81.2153 191.323 79.0182 198.377 83.6785C203.139 86.8226 207.257 92.4352 208.454 100.357C210.129 111.422 208.986 125.323 208.932 140.039C208.842 166.016 208.751 192.877 218.157 205.161C218.918 206.15 221.881 207.039 226.802 206.783C227.238 206.783 227.664 206.735 228.084 206.698C227.894 206.313 227.796 205.888 227.797 205.459C227.797 204.708 228.095 203.988 228.626 203.457C229.157 202.927 229.877 202.628 230.627 202.628C236.814 202.628 240.07 203.16 240.698 205.991C240.879 206.805 240.975 208.847 237.985 210.247C235.75 211.295 230.42 212.497 225.19 212.497Z" fill="#18C0B3"/>
    <path d="M163.256 214.939L157.483 212.667L160.526 202.66L166.304 204.926L163.256 214.939Z" fill="#FFC3BD"/>
    <path d="M157.345 212.056L163.856 214.609C163.939 214.643 164.008 214.703 164.052 214.78C164.096 214.857 164.114 214.947 164.101 215.035L163.463 219.089C163.446 219.187 163.408 219.28 163.35 219.361C163.293 219.442 163.218 219.509 163.132 219.558C163.045 219.606 162.948 219.635 162.849 219.641C162.75 219.647 162.651 219.631 162.558 219.594C160.925 218.918 158.366 217.801 156.297 216.987C155.025 216.487 152.605 215.689 150.844 214.998C149.083 214.306 149.54 212.476 150.312 212.604C153.818 213.167 155.158 212.566 156.557 212.045C156.812 211.948 157.093 211.951 157.345 212.056Z" fill="#263238"/>
    <path opacity="0.2" d="M166.304 204.932L160.526 202.66L158.957 207.821L164.735 210.092L166.304 204.932Z" fill="black"/>
    <path d="M173.491 127.771C173.491 127.771 168.267 153.595 166.272 166.331C164.027 180.604 158.095 206.678 158.095 206.678L165.771 209.694C165.771 209.694 176.736 182.998 178.263 170.071C182.865 159.564 192.015 128.644 192.015 128.644L173.491 127.771Z" fill="#FF960A"/>
    <path d="M157.754 206.421L166.181 209.736L167.622 207.182L158.201 203.277L157.754 206.421Z" fill="#263238"/>
    <path d="M155.69 212.167C155.396 212.076 155.141 211.888 154.966 211.635C154.918 211.541 154.893 211.437 154.893 211.332C154.893 211.226 154.918 211.122 154.966 211.029C154.988 210.971 155.025 210.92 155.074 210.883C155.123 210.845 155.182 210.822 155.243 210.816C155.802 210.757 156.839 212.119 156.94 212.279C156.952 212.296 156.958 212.317 156.958 212.337C156.958 212.358 156.952 212.378 156.94 212.396C156.929 212.413 156.913 212.427 156.894 212.436C156.875 212.444 156.854 212.447 156.834 212.444C156.444 212.393 156.06 212.301 155.69 212.167ZM155.408 211.055C155.365 211.034 155.317 211.025 155.27 211.029C155.238 211.029 155.2 211.029 155.163 211.119C155.128 211.182 155.109 211.254 155.109 211.327C155.109 211.399 155.128 211.471 155.163 211.534C155.318 211.816 155.85 212.066 156.621 212.194C156.297 211.737 155.884 211.35 155.408 211.055Z" fill="#18C0B3"/>
    <path d="M156.824 212.438C156.807 212.433 156.792 212.421 156.781 212.407C156.441 212.002 155.962 210.752 156.249 210.321C156.294 210.254 156.359 210.205 156.436 210.18C156.512 210.156 156.595 210.159 156.669 210.188C156.748 210.208 156.822 210.245 156.887 210.295C156.951 210.345 157.004 210.409 157.042 210.481C157.372 211.071 156.999 212.316 156.983 212.369C156.977 212.388 156.966 212.405 156.951 212.418C156.936 212.431 156.918 212.44 156.898 212.444C156.886 212.45 156.873 212.452 156.86 212.451C156.847 212.45 156.835 212.446 156.824 212.438ZM156.643 210.406H156.6C156.462 210.374 156.43 210.406 156.414 210.454C156.254 210.709 156.515 211.614 156.818 212.109C156.97 211.616 156.97 211.09 156.818 210.598C156.785 210.515 156.722 210.447 156.643 210.406Z" fill="#18C0B3"/>
    <path opacity="0.2" d="M184.785 143.108C181.891 146.694 180.747 155.833 180.758 163.452C182.71 158.073 184.95 151.242 186.918 145.039L184.785 143.108Z" fill="black"/>
    <path d="M197.995 215.902H191.791L190.967 205.475H197.17L197.995 215.902Z" fill="#FFC3BD"/>
    <path d="M191.441 215.38H198.437C198.526 215.38 198.613 215.41 198.683 215.466C198.753 215.523 198.801 215.601 198.82 215.689L199.708 219.69C199.729 219.787 199.727 219.888 199.704 219.985C199.68 220.082 199.635 220.173 199.572 220.25C199.508 220.327 199.428 220.389 199.338 220.431C199.247 220.473 199.148 220.494 199.049 220.493C197.282 220.461 194.5 220.355 192.276 220.355C190.904 220.355 188.361 220.498 186.472 220.498C184.583 220.498 184.344 218.631 185.105 218.461C188.579 217.7 189.611 216.657 190.717 215.657C190.917 215.48 191.174 215.381 191.441 215.38Z" fill="#263238"/>
    <path opacity="0.2" d="M197.17 205.475H190.962L191.393 210.853H197.601L197.17 205.475Z" fill="black"/>
    <path d="M181.002 128.096C181.002 128.096 184.439 156.872 185.162 167.23C186.168 181.647 190.057 210.109 190.057 210.109H198.303C198.303 210.109 199.186 181.041 197.696 168.108C199.75 156.824 199.101 128.963 199.101 128.963L181.002 128.096Z" fill="#FF960A"/>
    <path d="M189.76 209.986H198.814L199.224 207.087L189.025 206.895L189.76 209.986Z" fill="#263238"/>
    <path d="M189.925 216.088C189.618 216.111 189.313 216.03 189.058 215.859C188.978 215.79 188.917 215.702 188.878 215.604C188.839 215.506 188.824 215.4 188.834 215.295C188.834 215.232 188.852 215.171 188.884 215.117C188.917 215.064 188.964 215.02 189.02 214.992C189.52 214.737 190.973 215.63 191.148 215.731C191.167 215.742 191.182 215.758 191.191 215.777C191.201 215.795 191.204 215.817 191.202 215.838C191.197 215.859 191.186 215.879 191.171 215.895C191.156 215.911 191.137 215.922 191.116 215.928C190.726 216.026 190.327 216.08 189.925 216.088ZM189.254 215.157C189.207 215.154 189.159 215.163 189.116 215.184C189.089 215.184 189.058 215.226 189.052 215.306C189.041 215.377 189.049 215.451 189.074 215.519C189.099 215.587 189.141 215.647 189.196 215.694C189.441 215.902 190.031 215.928 190.792 215.774C190.329 215.472 189.812 215.263 189.27 215.157H189.254Z" fill="#18C0B3"/>
    <path d="M191.094 215.928H191.041C190.578 215.673 189.674 214.689 189.77 214.183C189.786 214.105 189.828 214.034 189.89 213.984C189.953 213.933 190.03 213.906 190.11 213.907C190.191 213.895 190.273 213.901 190.351 213.924C190.429 213.947 190.501 213.986 190.562 214.04C191.094 214.47 191.196 215.769 191.201 215.822C191.202 215.841 191.198 215.861 191.19 215.878C191.181 215.896 191.169 215.911 191.153 215.923C191.134 215.929 191.114 215.931 191.094 215.928ZM190.185 214.103H190.137C189.998 214.103 189.988 214.188 189.983 214.215C189.924 214.508 190.515 215.279 190.961 215.609C190.929 215.095 190.744 214.602 190.429 214.194C190.36 214.137 190.274 214.105 190.185 214.103Z" fill="#18C0B3"/>
    <path d="M183.881 88.1152L178.912 88.0513C177.241 88.0513 175.582 87.9981 173.938 87.9715C173.438 87.9715 172.948 87.9396 172.453 87.9183C172.485 87.9183 172.507 87.8598 172.533 87.8332C172.884 87.4608 173.236 87.0778 173.597 86.7107C173.778 86.5192 173.955 86.333 174.129 86.1521C174.294 85.9712 174.507 85.769 174.619 85.6201L175.071 85.0455C175.427 84.5908 175.632 84.0355 175.655 83.4582C175.678 82.8809 175.518 82.311 175.199 81.8294C174.88 81.3478 174.417 80.9789 173.877 80.775C173.336 80.5712 172.745 80.5427 172.187 80.6937L171.203 80.9597C170.9 81.0502 170.597 81.1513 170.294 81.2524C169.698 81.4598 169.113 81.6886 168.533 81.9386C167.364 82.4546 166.235 83.0556 165.154 83.7368C164.035 84.4521 162.976 85.2582 161.989 86.1467C160.944 87.097 159.997 88.1504 159.164 89.2909C158.954 89.5755 158.775 89.8823 158.632 90.2059C158.138 91.3383 158.114 92.6205 158.565 93.7707C159.016 94.9209 159.905 95.845 161.037 96.3399L161.521 96.5527C162.614 97.023 163.746 97.3968 164.904 97.6699C165.915 97.9306 166.873 98.1008 167.814 98.2604C168.756 98.42 169.676 98.5477 170.591 98.6594C171.507 98.7711 172.411 98.8562 173.315 98.9307C175.119 99.0903 176.906 99.1701 178.689 99.2233C180.471 99.2765 182.216 99.2765 184.067 99.1914C185.511 99.1298 186.873 98.5069 187.864 97.4555C188.855 96.4041 189.397 95.0073 189.373 93.5625C189.35 92.1178 188.763 90.7393 187.738 89.7208C186.713 88.7024 185.331 88.1243 183.886 88.1098L183.881 88.1152Z" fill="#FFC3BD"/>
    <path d="M186.775 97.8242C182.482 102.719 172.15 100.888 172.15 100.888L172.72 88.695C176.261 87.9157 179.872 87.4968 183.498 87.4448C189.563 87.4342 190.212 93.898 186.775 97.8242Z" fill="#263238"/>
    <path d="M175.316 94.0735C175.061 96.0419 174.784 98.6912 174.619 102.256C172.379 113.587 171.544 121.615 173.523 127.472C175.087 129.404 195.468 129.031 199.134 128.659C201.262 123.392 201.485 108.273 201.735 95.5631C201.766 93.8117 201.169 92.1071 200.052 90.7583C198.934 89.4094 197.37 88.5057 195.644 88.2108C191.057 87.3979 186.379 87.2402 181.748 87.7427C180.123 87.9276 178.606 88.6515 177.44 89.799C176.274 90.9465 175.527 92.4513 175.316 94.0735Z" fill="#263238"/>
    <path opacity="0.2" d="M195.09 101.809C195.159 105.682 197.968 111.869 201.128 115.008C201.32 111.736 201.442 108.188 201.538 104.607L195.09 101.809Z" fill="black"/>
    <path d="M212.848 109.337L212.667 108.911C211.923 107.136 211.054 105.417 210.066 103.767C209.119 102.171 208.097 100.665 207.039 99.2126C205.98 97.7602 204.857 96.3717 203.708 95.0204C203.123 94.3501 202.543 93.6798 201.931 93.0308L201.011 92.0625L200.032 91.073C199.007 90.0605 197.627 89.4871 196.186 89.4743C194.746 89.4615 193.356 90.0103 192.313 91.0044C191.27 91.9985 190.655 93.3597 190.598 94.7996C190.541 96.2395 191.048 97.6449 192.01 98.7178L192.169 98.8934L195.292 102.367C196.356 103.548 197.372 104.751 198.383 105.948C198.872 106.549 199.378 107.15 199.835 107.762C200.293 108.374 200.777 108.964 201.234 109.571C201.894 110.491 202.532 111.406 203.102 112.305C203.015 112.759 202.905 113.208 202.772 113.651C202.39 114.94 201.94 116.208 201.426 117.45C200.894 118.764 200.33 120.11 199.745 121.434C199.16 122.759 198.532 124.142 197.973 125.472L197.92 125.589C197.675 126.177 197.638 126.831 197.815 127.443C197.991 128.055 198.372 128.588 198.893 128.955C199.414 129.321 200.044 129.499 200.68 129.459C201.315 129.418 201.918 129.163 202.389 128.733C203.562 127.645 204.676 126.495 205.724 125.286C206.788 124.091 207.787 122.832 208.72 121.509C209.193 120.844 209.645 120.152 210.092 119.434C210.556 118.704 210.981 117.949 211.364 117.173C211.794 116.327 212.168 115.452 212.481 114.555C212.889 113.407 213.119 112.203 213.162 110.986C213.176 110.42 213.069 109.858 212.848 109.337Z" fill="#FFC3BD"/>
    <path d="M196.005 88.2802C203.182 89.5091 207.858 99.2234 207.858 99.2234L199.208 108.528C199.208 108.528 194.223 103.453 191.228 98.75C187.999 93.6321 190.866 87.4077 196.005 88.2802Z" fill="#263238"/>
    <path d="M182.897 72.9639C181.695 70.9476 181.301 68.1759 183.503 65.351C183.074 65.4048 182.639 65.3329 182.25 65.144C181.861 64.9552 181.535 64.6575 181.312 64.287C183.723 62.3139 186.756 61.2585 189.871 61.3078C196.309 61.3078 196.787 63.7922 196.569 65.4893C200.974 65.7713 204.188 77.2253 193.021 79.2522C186.632 72.5224 182.897 72.9639 182.897 72.9639Z" fill="#263238"/>
    <path d="M196.165 65.697C196.165 65.697 197.958 63.8669 195.729 61.6538C196.228 61.7908 196.684 62.055 197.051 62.4204C197.419 62.7859 197.685 63.2402 197.825 63.7392C198.138 65.0267 197.271 66.0588 196.165 65.697Z" fill="#263238"/>
    <path d="M193.696 77.853C193.526 81.3802 193.206 85.3915 193.797 88.2058C192.882 89.6475 190.541 91.3073 186.349 91.6797C184.859 90.8338 182.891 88.7644 183.577 87.7004C185.359 86.5566 186.115 83.0932 185.604 80.5024L193.696 77.853Z" fill="#FFC3BD"/>
    <path opacity="0.2" d="M191.653 78.5181L185.594 80.5024C185.8 81.6058 185.809 82.7369 185.62 83.8434C187.429 83.7849 189.935 82.4229 190.877 81.1461C191.183 80.7872 191.411 80.3676 191.545 79.9148C191.679 79.462 191.716 78.9861 191.653 78.5181Z" fill="black"/>
    <path d="M195.463 72.2669C194.34 76.5921 193.904 79.1829 191.254 80.997C187.27 83.7262 182.258 80.6672 182.061 76.0973C181.891 71.9796 183.753 65.5956 188.382 64.6859C189.401 64.4815 190.455 64.5411 191.445 64.859C192.434 65.1768 193.326 65.7424 194.036 66.502C194.745 67.2617 195.249 68.19 195.499 69.199C195.748 70.208 195.736 71.2641 195.463 72.2669Z" fill="#FFC3BD"/>
    <path d="M194.568 66.0747C192.669 67.426 190.312 73.1503 195.1 75.4486C199.399 71.6714 198.287 66.0747 194.568 66.0747Z" fill="#263238"/>
    <path d="M195.664 66.7606C196.478 62.9941 186.971 61.0469 183.96 65.4466C182.939 68.0959 195.09 70.4367 195.664 66.7606Z" fill="#263238"/>
    <path d="M188.573 76.8581C187.585 76.4115 186.526 76.1431 185.445 76.0654C185.43 76.0654 185.415 76.0685 185.401 76.0744C185.387 76.0804 185.374 76.0891 185.364 76.1C185.353 76.111 185.345 76.1239 185.34 76.1381C185.335 76.1523 185.332 76.1674 185.333 76.1825C185.339 76.2169 185.357 76.2482 185.383 76.2714C185.409 76.2946 185.442 76.3083 185.477 76.3102C186.513 76.3851 187.529 76.6407 188.477 77.0656C188.507 77.0787 188.541 77.0799 188.571 77.069C188.602 77.0582 188.627 77.036 188.642 77.0071C188.648 76.9928 188.651 76.9775 188.651 76.9621C188.65 76.9466 188.647 76.9314 188.64 76.9174C188.634 76.9035 188.624 76.891 188.613 76.8807C188.601 76.8705 188.588 76.8628 188.573 76.8581Z" fill="#263238"/>
    <path d="M196.5 76.9963C195.729 77.8147 194.665 78.2947 193.542 78.3317C192.052 78.3636 191.674 76.9431 192.392 75.7302C193.042 74.6662 194.595 73.3043 195.946 73.8469C197.298 74.3895 197.436 75.9802 196.5 76.9963Z" fill="#FFC3BD"/>
    <path d="M188.583 72.1925C188.514 72.549 188.269 72.8043 188.051 72.7564C187.833 72.7085 187.69 72.384 187.759 72.0276C187.828 71.6712 188.073 71.4211 188.291 71.4956C188.509 71.5701 188.652 71.8201 188.583 72.1925Z" fill="#263238"/>
    <path d="M184.556 71.4104C184.487 71.7668 184.242 72.0169 184.024 71.9743C183.806 71.9318 183.657 71.6019 183.726 71.2455C183.795 70.889 184.04 70.6337 184.258 70.6816C184.476 70.7294 184.604 71.054 184.556 71.4104Z" fill="#263238"/>
    <path d="M185.801 71.8203C185.163 72.8272 184.39 73.7419 183.503 74.5388C184.035 75.2464 185.211 75.1081 185.211 75.1081L185.801 71.8203Z" fill="#ED847E"/>
    <path d="M188.003 70.123C188.041 70.1147 188.081 70.1162 188.118 70.1273C188.155 70.1385 188.189 70.159 188.216 70.1868C188.387 70.3933 188.604 70.5563 188.85 70.6627C189.096 70.769 189.364 70.8156 189.631 70.7986C189.688 70.7909 189.745 70.8055 189.79 70.8393C189.836 70.8731 189.867 70.9234 189.876 70.9795C189.881 71.0072 189.879 71.0355 189.873 71.0627C189.866 71.0899 189.854 71.1155 189.837 71.1379C189.82 71.1602 189.799 71.179 189.774 71.1929C189.75 71.2068 189.723 71.2157 189.695 71.2189C189.357 71.2461 189.018 71.1922 188.705 71.0617C188.392 70.9312 188.115 70.728 187.897 70.4688C187.877 70.4494 187.861 70.4263 187.85 70.4007C187.84 70.3751 187.834 70.3476 187.834 70.3198C187.834 70.292 187.84 70.2645 187.85 70.2389C187.861 70.2133 187.877 70.1902 187.897 70.1708C187.929 70.1474 187.965 70.131 188.003 70.123Z" fill="#263238"/>
    <path d="M183.311 68.9419C183.267 68.9327 183.227 68.9082 183.199 68.8727C183.182 68.8505 183.168 68.825 183.161 68.7976C183.153 68.7702 183.15 68.7415 183.154 68.7132C183.157 68.6849 183.167 68.6576 183.181 68.6329C183.195 68.6082 183.214 68.5867 183.237 68.5695C183.498 68.3553 183.807 68.2065 184.137 68.1352C184.467 68.064 184.81 68.0724 185.136 68.1598C185.19 68.1781 185.234 68.2167 185.26 68.2673C185.286 68.318 185.291 68.3768 185.274 68.4311C185.253 68.4825 185.214 68.5243 185.164 68.5488C185.114 68.5733 185.057 68.5787 185.003 68.5641C184.743 68.4978 184.471 68.4941 184.209 68.5533C183.948 68.6125 183.704 68.7329 183.497 68.9046C183.473 68.927 183.442 68.9422 183.409 68.9488C183.377 68.9553 183.343 68.9529 183.311 68.9419Z" fill="#263238"/>
    <path d="M200.485 125.318L195.915 125.286L198.277 130.532C198.277 130.532 202.177 129.696 201.964 127.579L200.485 125.318Z" fill="#FFC3BD"/>
    <path d="M193.59 128.888L194.34 130.367C194.542 130.761 194.883 131.065 195.297 131.22C195.711 131.376 196.169 131.371 196.58 131.207L198.277 130.532L195.915 125.286L194.1 126.669C193.768 126.92 193.535 127.28 193.442 127.686C193.348 128.091 193.401 128.517 193.59 128.888Z" fill="#FFC3BD"/>
    <path d="M165.697 121.456C165.145 121.45 164.606 121.283 164.148 120.976C163.689 120.669 163.33 120.234 163.115 119.726C162.9 119.217 162.838 118.657 162.936 118.114C163.035 117.571 163.29 117.068 163.67 116.668C165.702 114.572 167.538 112.944 169.155 111.523C173.06 108.081 174.406 106.735 174.278 104.155C174.087 102.563 173.749 100.992 173.267 99.4628C172.102 95.1802 170.783 90.3337 173.044 86.4448C174.257 84.354 176.316 82.923 179.167 82.1888C179.888 82.0177 180.647 82.1362 181.282 82.5187C181.917 82.9013 182.376 83.5174 182.561 84.2349C182.746 84.9523 182.643 85.7137 182.273 86.3557C181.903 86.9977 181.296 87.469 180.582 87.6684C178.577 88.2004 178.093 89.0144 177.922 89.291C176.858 91.1264 177.885 94.9249 178.715 97.9732C179.316 99.8955 179.719 101.874 179.917 103.878C180.183 109.331 176.965 112.172 172.884 115.769C171.347 117.131 169.597 118.673 167.713 120.61C167.451 120.878 167.137 121.091 166.791 121.237C166.444 121.382 166.072 121.456 165.697 121.456Z" fill="#18C0B3"/>
    <path d="M171.905 80.8109L176.331 79.6777L175.299 85.3382C175.299 85.3382 171.315 85.4606 171.017 83.3592L171.905 80.8109Z" fill="#FFC3BD"/>
    <path d="M179.439 82.6782L179.098 84.1572C178.994 84.6089 178.724 85.0052 178.342 85.2681C177.96 85.531 177.493 85.6414 177.034 85.5776L175.3 85.3382L176.332 79.6777L178.364 80.5555C178.763 80.7275 179.09 81.0342 179.286 81.4221C179.483 81.81 179.537 82.2546 179.439 82.6782Z" fill="#FFC3BD"/>
    <path d="M164.114 112.147L163.994 112.027C163.456 111.489 162.583 111.489 162.045 112.027L146.358 127.72C145.82 128.259 145.82 129.131 146.358 129.669L146.478 129.789C147.017 130.327 147.889 130.327 148.427 129.789L164.115 114.096C164.653 113.558 164.653 112.685 164.114 112.147Z" fill="#263238"/>
    <path d="M172.291 120.313L172.171 120.193C171.633 119.654 170.76 119.654 170.222 120.193L154.531 135.883C153.993 136.421 153.993 137.294 154.531 137.832L154.652 137.952C155.19 138.49 156.062 138.49 156.6 137.952L172.291 122.262C172.829 121.723 172.829 120.851 172.291 120.313Z" fill="#263238"/>
    <path d="M151.308 117.989L162.364 106.933C162.718 106.579 163.138 106.298 163.601 106.106C164.064 105.914 164.56 105.816 165.061 105.816C165.562 105.816 166.058 105.914 166.521 106.106C166.983 106.298 167.404 106.579 167.758 106.933L177.422 116.597C177.776 116.951 178.057 117.372 178.249 117.834C178.441 118.297 178.539 118.793 178.539 119.294C178.539 119.795 178.441 120.291 178.249 120.754C178.057 121.217 177.776 121.637 177.422 121.991L166.366 133.047L151.308 117.989Z" fill="#18C0B3"/>
    <path opacity="0.7" d="M151.308 117.989L162.364 106.933C162.718 106.579 163.138 106.298 163.601 106.106C164.064 105.914 164.56 105.816 165.061 105.816C165.562 105.816 166.058 105.914 166.521 106.106C166.983 106.298 167.404 106.579 167.758 106.933L177.422 116.597C177.776 116.951 178.057 117.372 178.249 117.834C178.441 118.297 178.539 118.793 178.539 119.294C178.539 119.795 178.441 120.291 178.249 120.754C178.057 121.217 177.776 121.637 177.422 121.991L166.366 133.047L151.308 117.989Z" fill="white"/>
    <path opacity="0.2" d="M155.12 114.146L151.29 117.971L166.351 133.032L170.176 129.202C170.024 128.756 169.771 128.352 169.437 128.021L156.301 114.912C155.973 114.568 155.568 114.306 155.12 114.146Z" fill="#18C0B3"/>
    <path d="M150.645 116.042L150.37 116.317C149.202 117.485 149.202 119.378 150.37 120.545L163.781 133.956C164.948 135.124 166.842 135.124 168.009 133.956L168.284 133.682C169.451 132.514 169.451 130.621 168.284 129.453L154.873 116.042C153.705 114.875 151.812 114.875 150.645 116.042Z" fill="#A0A0A0"/>
</svg>
