<svg width="260" height="259" viewBox="0 0 260 259" fill="none" xmlns="http://www.w3.org/2000/svg">
    <path
        d="M129.114 243.636C191.395 243.636 241.883 213.677 241.883 176.721C241.883 139.765 191.395 109.806 129.114 109.806C66.8338 109.806 16.3456 139.765 16.3456 176.721C16.3456 213.677 66.8338 243.636 129.114 243.636Z"
        fill="#F5F5F5" />
    <path
        d="M153.419 159.71L85.7421 198.803C85.3353 199.01 84.8854 199.118 84.4289 199.118C83.9725 199.118 83.5226 199.01 83.1158 198.803L75.092 194.38C74.3668 193.96 74.3668 193.282 75.092 192.867L142.789 153.768C143.196 153.562 143.646 153.454 144.103 153.454C144.559 153.454 145.009 153.562 145.416 153.768L153.445 158.192C154.144 158.638 154.144 159.29 153.419 159.71Z"
        fill="#E0E0E0" />
    <path
        d="M173.144 221.865C187.886 221.865 199.837 215.371 199.837 207.361C199.837 199.351 187.886 192.857 173.144 192.857C158.402 192.857 146.452 199.351 146.452 207.361C146.452 215.371 158.402 221.865 173.144 221.865Z"
        fill="#E0E0E0" />
    <path
        d="M209.192 169.78C215.451 169.78 220.526 167.022 220.526 163.621C220.526 160.219 215.451 157.462 209.192 157.462C202.932 157.462 197.858 160.219 197.858 163.621C197.858 167.022 202.932 169.78 209.192 169.78Z"
        fill="#E0E0E0" />
    <path
        d="M46.7108 176.721C56.6665 176.721 64.7372 172.336 64.7372 166.926C64.7372 161.516 56.6665 157.13 46.7108 157.13C36.7551 157.13 28.6844 161.516 28.6844 166.926C28.6844 172.336 36.7551 176.721 46.7108 176.721Z"
        fill="#E0E0E0" />
    <path
        d="M194.175 33.7116L197.666 35.7422V32.9553C197.666 31.3444 198.982 30.7901 200.593 31.7173L200.712 31.7898C201.453 32.2336 202.091 32.8305 202.582 33.5407C202.67 30.8315 204.955 29.9147 207.762 31.5205L207.975 31.6448C210.818 33.2869 213.155 36.9595 213.155 39.7981V44.6466L216.376 46.5114C217.744 47.2988 218.863 49.06 218.863 50.4275C218.863 51.795 217.744 52.2612 216.376 51.4635L212.087 48.9874L203.68 44.1338L194.175 38.6741C192.808 37.8867 191.689 36.1255 191.689 34.758C191.689 33.3905 192.808 32.9243 194.175 33.7116Z"
        fill="#E0E0E0" />
    <path
        d="M218.873 28.516L221.282 29.9042V27.9721C221.282 26.8636 222.194 26.4803 223.302 27.1226L223.385 27.1692C223.896 27.4773 224.336 27.8905 224.675 28.3813C224.737 26.5113 226.312 25.8794 228.234 26.9879L228.379 27.0708C230.342 28.2052 231.948 30.733 231.948 32.6963V36.0374L234.17 37.322C234.646 37.6083 235.048 38.0019 235.345 38.4714C235.642 38.9409 235.825 39.4732 235.879 40.026C235.879 40.9687 235.113 41.2899 234.17 40.746L231.207 39.0418L225.405 35.7421L218.873 31.9711C218.397 31.6859 217.995 31.2932 217.698 30.8246C217.401 30.356 217.218 29.8243 217.164 29.2723C217.164 28.2984 217.93 27.9721 218.873 28.516Z"
        fill="#E0E0E0" />
    <path
        d="M211.616 73.8253C208.508 72.0278 205.659 71.9605 203.623 73.3073L199.661 75.6279C197.216 76.7779 195.698 79.7046 195.77 83.9677V85.703C195.89 92.8566 206.089 112.639 207.353 115.079L207.125 115.322L207.4 115.167L207.482 115.322C207.482 115.322 207.726 115.115 208.14 114.737L211.616 112.732C211.616 112.732 222.836 103.486 222.836 95.8869V94.1516C222.836 86.5059 217.811 77.4047 211.616 73.8253ZM206.954 82.8955C208.604 83.9355 209.986 85.349 210.988 87.0218C211.991 88.6947 212.585 90.5799 212.725 92.5251C212.731 92.9309 212.702 93.3366 212.637 93.7372C212.277 93.6109 211.93 93.4513 211.601 93.2607C209.971 92.1942 208.616 90.7584 207.646 89.0699C206.676 87.3814 206.117 85.4878 206.017 83.543H205.985C205.987 83.1959 206.017 82.8494 206.073 82.507C206.373 82.6122 206.665 82.7368 206.949 82.8799L206.954 82.8955Z"
        fill="#CC8B86" />
    <path opacity="0.2"
        d="M195.786 85.677C195.916 93.3072 207.498 115.296 207.498 115.296C207.498 115.296 218.578 105.889 218.433 98.2644V96.5291C218.303 88.899 213.129 79.8962 206.871 76.4204C200.614 72.9446 195.641 76.3064 195.77 83.9417L195.786 85.677ZM201.406 86.2313C201.349 82.6778 203.841 81.1601 206.964 82.8954C208.614 83.9354 209.996 85.3489 210.999 87.0218C212.001 88.6946 212.596 90.5798 212.735 92.525C212.797 96.0785 210.306 97.5962 207.177 95.8609C205.524 94.8227 204.139 93.4099 203.134 91.737C202.129 90.064 201.532 88.1779 201.391 86.2313H201.406Z"
        fill="black" />
    <path
        d="M142.862 30.1579L88.9381 61.5487C88.1494 62.0084 87.4951 62.667 87.0406 63.4587C86.5861 64.2504 86.3473 65.1476 86.3481 66.0605V192.649C86.3475 192.987 86.4361 193.319 86.605 193.612C86.7739 193.904 87.0171 194.147 87.31 194.315C87.6029 194.483 87.935 194.571 88.2728 194.57C88.6106 194.568 88.942 194.478 89.2334 194.307L142.52 163.289C143.329 162.818 144.001 162.143 144.467 161.331C144.933 160.52 145.178 159.6 145.177 158.663V31.4892C145.173 31.2199 145.099 30.9563 144.963 30.7242C144.826 30.4921 144.632 30.2995 144.398 30.1653C144.165 30.0311 143.9 29.9598 143.631 29.9585C143.362 29.9572 143.097 30.0259 142.862 30.1579Z"
        fill="#455A64" />
    <path
        d="M145.172 31.4842V31.6551C145.172 31.5567 145.172 31.4583 145.172 31.3599C145.177 31.4012 145.177 31.4429 145.172 31.4842Z"
        fill="#37474F" />
    <path
        d="M141.251 48.1739L90.5854 77.6481C89.9992 77.9895 89.5129 78.4787 89.1747 79.0667C88.8366 79.6548 88.6586 80.3212 88.6584 80.9995V175.348C88.6583 175.513 88.7019 175.676 88.7849 175.819C88.8679 175.962 88.9872 176.081 89.1308 176.163C89.2744 176.245 89.4372 176.287 89.6026 176.286C89.768 176.285 89.9301 176.24 90.0726 176.156L141.178 146.438C141.633 146.176 142.01 145.799 142.272 145.344C142.534 144.889 142.671 144.373 142.67 143.848V49.0079C142.674 48.8401 142.633 48.6745 142.551 48.5279C142.469 48.3814 142.35 48.2594 142.205 48.1744C142.061 48.0894 141.896 48.0445 141.728 48.0444C141.56 48.0443 141.396 48.089 141.251 48.1739Z"
        fill="white" />
    <path
        d="M89.223 194.307C89.1427 194.357 89.0577 194.398 88.9692 194.431C89.078 194.39 89.1402 194.359 89.223 194.307Z"
        fill="#37474F" />
    <path
        d="M145.141 31.1577C145.086 30.9224 144.977 30.7031 144.823 30.5173C144.669 30.3314 144.473 30.1841 144.252 30.0871C144.031 29.99 143.79 29.9459 143.549 29.9582C143.307 29.9705 143.072 30.0389 142.862 30.1579L88.9433 61.5487C88.1574 62.0103 87.5053 62.6686 87.0511 63.4588C86.597 64.249 86.3565 65.1439 86.3533 66.0553V192.649C86.3547 192.962 86.4322 193.27 86.579 193.546C86.7258 193.822 86.9377 194.058 87.1962 194.234C87.4547 194.41 87.7522 194.52 88.0629 194.556C88.3736 194.591 88.6882 194.55 88.9796 194.436C85.9907 195.908 82.1161 193.468 82.1161 193.468C81.1035 192.938 80.2579 192.137 79.6735 191.155C79.0891 190.172 78.7888 189.047 78.8061 187.904V61.3156C78.8078 60.4032 79.0476 59.5071 79.5019 58.7158C79.9561 57.9245 80.609 57.2655 81.3961 56.8039L135.315 25.4182C135.315 25.4182 137.516 24.0248 141.355 26.4542C141.355 26.4542 144.779 28.2828 145.141 31.1577Z"
        fill="#263238" />
    <path
        d="M145.141 31.1577C145.086 30.9224 144.977 30.7031 144.823 30.5173C144.669 30.3314 144.473 30.1841 144.252 30.0871C144.031 29.99 143.79 29.9459 143.549 29.9582C143.307 29.9705 143.072 30.0389 142.862 30.1579L88.9433 61.5487C88.2155 61.9689 87.6019 62.5612 87.1562 63.2737L79.4743 58.7464C79.9276 57.9406 80.5874 57.2701 81.3857 56.8039L135.315 25.4182C135.315 25.4182 137.516 24.0248 141.355 26.4542C141.355 26.4542 144.779 28.2828 145.141 31.1577Z"
        fill="#37474F" />
    <path
        d="M108.658 61.4402C108.595 62.0936 108.378 62.7229 108.026 63.2772C107.675 63.8316 107.197 64.2953 106.633 64.6311C105.514 65.2786 104.608 64.8952 104.608 63.7764C104.672 63.1224 104.889 62.4927 105.241 61.9377C105.592 61.3827 106.069 60.9178 106.633 60.5803C107.752 59.938 108.658 60.3213 108.658 61.4402Z"
        fill="#37474F" />
    <path
        d="M119.303 168.645C119.303 170.66 117.672 173.23 115.677 174.395C113.683 175.561 112.051 174.867 112.051 172.841C112.051 170.816 113.683 168.257 115.677 167.097C117.672 165.936 119.303 166.636 119.303 168.645Z"
        fill="#37474F" />
    <path
        d="M80.6605 83.0302C80.715 83.5963 80.9019 84.1416 81.206 84.6221C81.5101 85.1026 81.923 85.5049 82.4113 85.7963C83.38 86.3558 84.1674 86.0242 84.1674 85.0556C84.1123 84.4891 83.9247 83.9434 83.6196 83.4629C83.3145 82.9823 82.9006 82.5804 82.4113 82.2895C81.4427 81.73 80.6605 82.0615 80.6605 83.0302Z"
        fill="#455A64" />
    <path
        d="M80.6605 94.851C80.715 95.4171 80.9019 95.9624 81.206 96.4429C81.5101 96.9234 81.923 97.3257 82.4113 97.6171C83.38 98.1766 84.1674 97.8451 84.1674 96.8764C84.1123 96.3099 83.9247 95.7642 83.6196 95.2837C83.3145 94.8031 82.9006 94.4011 82.4113 94.1103C81.4427 93.5508 80.6605 93.8824 80.6605 94.851Z"
        fill="#455A64" />
    <path
        d="M116.594 51.0437C116.565 51.3468 116.465 51.6389 116.302 51.8962C116.139 52.1536 115.918 52.369 115.657 52.5252C115.139 52.8256 114.719 52.6495 114.719 52.1315C114.749 51.8286 114.849 51.5368 115.012 51.2796C115.175 51.0224 115.396 50.8068 115.657 50.65C116.175 50.3496 116.594 50.5257 116.594 51.0437Z"
        fill="#37474F" />
    <path
        d="M112.595 60.663L125.224 53.3126C125.558 53.1174 125.835 52.8383 126.028 52.503C126.22 52.1677 126.322 51.7879 126.322 51.4012C126.323 51.2294 126.278 51.0605 126.192 50.9116C126.107 50.7626 125.983 50.6391 125.834 50.5533C125.686 50.4676 125.517 50.4227 125.345 50.4233C125.173 50.424 125.005 50.47 124.856 50.5568L112.222 57.9072C111.888 58.1024 111.611 58.3815 111.419 58.7168C111.226 59.0521 111.125 59.432 111.124 59.8187C111.124 59.9906 111.17 60.1594 111.256 60.3081C111.343 60.4568 111.467 60.5802 111.616 60.6658C111.765 60.7513 111.934 60.7962 112.106 60.7957C112.278 60.7952 112.447 60.7494 112.595 60.663Z"
        fill="#37474F" />
    <path
        d="M103.37 70.2148V93.6025C103.371 94.6557 103.023 95.6795 102.38 96.5137L88.6636 114.431V80.9996C88.6617 80.3215 88.8383 79.6548 89.1756 79.0665C89.5129 78.4782 89.9992 77.989 90.5854 77.6481L103.37 70.2148Z"
        fill="#E0E0E0" />
    <path
        d="M108.177 93.4369L123.266 84.6827C123.75 84.3997 124.151 83.995 124.43 83.5088C124.709 83.0227 124.856 82.4719 124.856 81.9114V57.7363L106.757 68.2621V92.6081C106.759 92.7736 106.804 92.9357 106.887 93.0788C106.971 93.2218 107.089 93.3409 107.232 93.4243C107.375 93.5078 107.537 93.5528 107.703 93.555C107.868 93.5572 108.032 93.5165 108.177 93.4369Z"
        fill="#E0E0E0" />
    <path
        d="M124.82 89.3445V103.294C124.819 103.586 124.742 103.872 124.597 104.124C124.452 104.377 124.243 104.587 123.991 104.734L114.408 110.334C114.189 110.463 114.007 110.647 113.881 110.868C113.755 111.088 113.688 111.338 113.688 111.593V120.668C113.687 120.975 113.605 121.277 113.452 121.543C113.298 121.809 113.078 122.031 112.813 122.186L107.524 125.257C107.444 125.308 107.352 125.335 107.257 125.336C107.163 125.338 107.07 125.314 106.989 125.266C106.907 125.219 106.84 125.15 106.795 125.067C106.749 124.984 106.727 124.891 106.731 124.796V99.9738C106.731 99.5876 106.832 99.208 107.025 98.8733C107.217 98.5386 107.495 98.2607 107.83 98.0676L123.784 88.754C123.888 88.6914 124.007 88.6577 124.128 88.6563C124.25 88.6549 124.369 88.6858 124.475 88.746C124.58 88.8061 124.668 88.8932 124.729 88.9984C124.789 89.1036 124.821 89.2231 124.82 89.3445Z"
        fill="#E0E0E0" />
    <path
        d="M116.299 111.603L124.261 106.967C124.319 106.933 124.385 106.916 124.452 106.916C124.519 106.916 124.585 106.933 124.644 106.967C124.702 107 124.75 107.049 124.784 107.107C124.818 107.165 124.835 107.231 124.836 107.298V114.385C124.835 114.625 124.772 114.861 124.652 115.069C124.532 115.277 124.36 115.45 124.152 115.571L116.382 120.093C116.319 120.128 116.248 120.146 116.176 120.146C116.105 120.145 116.034 120.126 115.972 120.09C115.91 120.054 115.858 120.002 115.822 119.94C115.786 119.878 115.766 119.807 115.765 119.736V112.551C115.764 112.36 115.813 112.172 115.907 112.006C116 111.84 116.135 111.701 116.299 111.603Z"
        fill="#E0E0E0" />
    <path
        d="M116.299 125.231L124.261 120.595C124.318 120.562 124.384 120.544 124.451 120.544C124.518 120.544 124.583 120.561 124.641 120.594C124.7 120.627 124.748 120.674 124.782 120.732C124.816 120.789 124.835 120.855 124.836 120.922V128.008C124.836 128.248 124.774 128.485 124.654 128.693C124.533 128.901 124.36 129.074 124.152 129.194L116.382 133.716C116.319 133.753 116.248 133.772 116.176 133.773C116.103 133.773 116.032 133.754 115.969 133.717C115.907 133.681 115.855 133.629 115.819 133.566C115.783 133.503 115.765 133.431 115.765 133.359V126.179C115.764 125.989 115.812 125.801 115.906 125.634C115.999 125.468 116.135 125.329 116.299 125.231Z"
        fill="#E0E0E0" />
    <path
        d="M116.299 136.089L124.261 131.427C124.319 131.393 124.385 131.376 124.452 131.375C124.519 131.375 124.585 131.393 124.644 131.427C124.702 131.46 124.75 131.509 124.784 131.567C124.818 131.625 124.835 131.691 124.836 131.758V143.154C124.835 143.395 124.772 143.631 124.652 143.839C124.532 144.047 124.36 144.22 124.152 144.341L116.382 148.863C116.319 148.899 116.248 148.919 116.176 148.919C116.103 148.919 116.032 148.9 115.969 148.864C115.907 148.828 115.855 148.775 115.819 148.712C115.783 148.649 115.765 148.578 115.765 148.505V137.037C115.764 136.846 115.813 136.658 115.907 136.492C116 136.326 116.135 136.187 116.299 136.089Z"
        fill="#E0E0E0" />
    <path
        d="M126.799 148.521V154.804L107.98 165.76V159.347C107.98 158.984 108.076 158.627 108.258 158.312C108.44 157.998 108.701 157.736 109.016 157.555L126.011 148.07C126.091 148.022 126.181 147.996 126.274 147.995C126.366 147.993 126.458 148.017 126.538 148.063C126.619 148.109 126.685 148.176 126.731 148.256C126.777 148.337 126.8 148.428 126.799 148.521Z"
        fill="#E0E0E0" />
    <path
        d="M103.37 102.502V132.178C103.369 132.609 103.255 133.031 103.039 133.404C102.824 133.777 102.514 134.086 102.142 134.302L88.674 142.139V120.477L102.66 102.248C102.715 102.191 102.786 102.152 102.863 102.134C102.941 102.116 103.022 102.121 103.096 102.147C103.171 102.174 103.237 102.222 103.285 102.285C103.333 102.347 103.363 102.423 103.37 102.502Z"
        fill="#E0E0E0" />
    <path
        d="M142.675 49.008V62.994L129.606 70.448C129.493 70.5135 129.364 70.548 129.233 70.5479C129.102 70.5478 128.973 70.5132 128.86 70.4476C128.746 70.3819 128.652 70.2876 128.587 70.174C128.521 70.0604 128.487 69.9315 128.487 69.8005V55.6073L141.251 48.174C141.396 48.0895 141.561 48.0452 141.729 48.0454C141.897 48.0456 142.062 48.0905 142.207 48.1753C142.351 48.2601 142.471 48.3819 142.554 48.5282C142.636 48.6745 142.678 48.8401 142.675 49.008Z"
        fill="#E0E0E0" />
    <path
        d="M142.675 71.6963V104.786L129.311 112.556C129.228 112.604 129.134 112.63 129.038 112.63C128.942 112.63 128.847 112.605 128.764 112.557C128.68 112.509 128.611 112.441 128.563 112.358C128.514 112.275 128.488 112.181 128.487 112.085V86.739C128.488 86.2995 128.577 85.8646 128.75 85.4604C128.922 85.0563 129.175 84.6912 129.492 84.3873L142.675 71.6963Z"
        fill="#E0E0E0" />
    <path
        d="M142.67 64.9468L129.202 73.271C128.982 73.4065 128.8 73.5963 128.674 73.8221C128.548 74.0479 128.482 74.3022 128.482 74.5609V79.8859C128.481 79.9751 128.507 80.0627 128.556 80.1374C128.604 80.2121 128.674 80.2706 128.756 80.3056C128.839 80.3406 128.929 80.3503 129.017 80.3337C129.105 80.3171 129.185 80.2748 129.249 80.2122L142.67 67.4539V64.9468Z"
        fill="#E0E0E0" />
    <path
        d="M113.688 127.868V149.184C113.688 149.561 113.589 149.931 113.401 150.257C113.213 150.584 112.942 150.855 112.616 151.044L96.2109 160.58C96.132 160.626 96.0424 160.65 95.9513 160.65C95.8602 160.649 95.7708 160.625 95.692 160.58C95.6132 160.534 95.5478 160.468 95.5025 160.389C95.4572 160.31 95.4335 160.221 95.4339 160.13V143.662C95.4338 143.421 95.4968 143.183 95.6168 142.973C95.7367 142.763 95.9093 142.588 96.1176 142.466L106.042 136.68C106.252 136.558 106.427 136.384 106.548 136.174C106.669 135.964 106.732 135.726 106.731 135.483V131.505C106.731 131.254 106.796 131.008 106.921 130.791C107.045 130.574 107.225 130.393 107.441 130.267L112.621 127.257C112.729 127.193 112.851 127.158 112.976 127.157C113.102 127.155 113.225 127.188 113.334 127.25C113.443 127.312 113.533 127.402 113.595 127.511C113.657 127.62 113.689 127.743 113.688 127.868Z"
        fill="#E0E0E0" />
    <path
        d="M104.395 161.549V167.832L90.0674 176.161C89.9244 176.243 89.7624 176.286 89.5977 176.286C89.4329 176.285 89.2713 176.241 89.1289 176.158C88.9866 176.075 88.8687 175.956 88.787 175.813C88.7053 175.67 88.6627 175.508 88.6636 175.343V146.812L90.4714 145.776C90.5496 145.733 90.6376 145.711 90.7268 145.712C90.8159 145.713 90.9033 145.737 90.9804 145.782C91.0575 145.827 91.1217 145.891 91.1669 145.968C91.212 146.045 91.2365 146.132 91.2381 146.221V166.18C91.2381 166.315 91.2735 166.448 91.3408 166.565C91.408 166.683 91.5048 166.781 91.6215 166.849C91.7382 166.918 91.8708 166.955 92.0062 166.956C92.1415 166.958 92.2749 166.924 92.3932 166.858L103.168 160.849C103.292 160.779 103.432 160.743 103.574 160.743C103.716 160.744 103.856 160.781 103.979 160.851C104.103 160.922 104.206 161.023 104.279 161.145C104.352 161.267 104.392 161.406 104.395 161.549Z"
        fill="#E0E0E0" />
    <path
        d="M142.675 109.873V142.637L130.627 149.702C130.494 149.781 130.343 149.823 130.189 149.825C130.035 149.826 129.884 149.787 129.75 149.71C129.616 149.634 129.505 149.523 129.428 149.39C129.351 149.257 129.31 149.105 129.311 148.951V118.954C129.312 118.56 129.416 118.173 129.613 117.832C129.809 117.49 130.09 117.206 130.43 117.006L142.675 109.873Z"
        fill="#E0E0E0" />
    <path
        d="M93.5898 163.621H93.0718V142.585C93.0732 142.305 93.1457 142.03 93.2826 141.787C93.4194 141.543 93.6161 141.338 93.854 141.191L104.618 134.716C104.774 134.62 104.904 134.487 104.995 134.327C105.085 134.168 105.134 133.988 105.136 133.804V98.1764C105.137 97.8139 105.234 97.4581 105.415 97.1445C105.597 96.8309 105.858 96.5705 106.172 96.3893L125.473 84.8068C125.813 84.6015 126.094 84.3121 126.29 83.9664C126.486 83.6208 126.59 83.2306 126.592 82.8332V72.2505H127.11V82.8332C127.108 83.3197 126.98 83.7974 126.74 84.2202C126.499 84.6431 126.154 84.9968 125.737 85.2471L106.441 96.8296C106.208 96.968 106.015 97.1652 105.881 97.4015C105.748 97.6378 105.678 97.905 105.68 98.1764V133.804C105.678 134.077 105.607 134.345 105.473 134.583C105.339 134.82 105.146 135.019 104.913 135.162L94.1751 141.637C94.0147 141.737 93.8829 141.877 93.7922 142.043C93.7015 142.209 93.6549 142.395 93.6571 142.585L93.5898 163.621Z"
        fill="#7F3F98" />
    <path opacity="0.4"
        d="M93.5898 163.621H93.0718V142.585C93.0732 142.305 93.1457 142.03 93.2826 141.787C93.4194 141.543 93.6161 141.338 93.854 141.191L104.618 134.716C104.774 134.62 104.904 134.487 104.995 134.327C105.085 134.168 105.134 133.988 105.136 133.804V98.1764C105.137 97.8139 105.234 97.4581 105.415 97.1445C105.597 96.8309 105.858 96.5705 106.172 96.3893L125.473 84.8068C125.813 84.6015 126.094 84.3121 126.29 83.9664C126.486 83.6208 126.59 83.2306 126.592 82.8332V72.2505H127.11V82.8332C127.108 83.3197 126.98 83.7974 126.74 84.2202C126.499 84.6431 126.154 84.9968 125.737 85.2471L106.441 96.8296C106.208 96.968 106.015 97.1652 105.881 97.4015C105.748 97.6378 105.678 97.905 105.68 98.1764V133.804C105.678 134.077 105.607 134.345 105.473 134.583C105.339 134.82 105.146 135.019 104.913 135.162L94.1751 141.637C94.0147 141.737 93.8829 141.877 93.7922 142.043C93.7015 142.209 93.6549 142.395 93.6571 142.585L93.5898 163.621Z"
        fill="black" />
    <path
        d="M94.7294 162.652C94.6851 163.104 94.5355 163.54 94.2926 163.924C94.0498 164.308 93.7204 164.63 93.3308 164.864C92.5538 165.31 91.927 165.045 91.927 164.268C91.9715 163.816 92.1217 163.381 92.3656 162.997C92.6094 162.614 92.9401 162.294 93.3308 162.062C94.1026 161.616 94.7294 161.88 94.7294 162.652Z"
        fill="#7F3F98" />
    <path
        d="M128.151 71.4427C128.106 71.8947 127.956 72.33 127.713 72.714C127.47 73.098 127.141 73.42 126.752 73.6546C125.975 74.1 125.348 73.8359 125.348 73.0589C125.393 72.6067 125.543 72.1714 125.787 71.788C126.031 71.4047 126.361 71.0841 126.752 70.8522C127.524 70.4067 128.151 70.6709 128.151 71.4427Z"
        fill="#7F3F98" />
    <path
        d="M131.228 63.3305C131.811 62.4567 132.193 61.4641 132.347 60.4245C132.642 57.9019 130.694 56.7985 128.006 57.9692C125.317 59.1399 122.888 62.1132 122.593 64.6462C122.521 65.0265 122.529 65.4178 122.619 65.7944C122.708 66.171 122.876 66.5246 123.111 66.8322L123.142 66.8581C123.223 66.9486 123.313 67.0302 123.411 67.1016L126.229 69.6449C126.415 69.8107 126.835 69.6449 127.078 69.2772L130.793 63.9262C130.943 63.7294 131.083 63.5325 131.212 63.3305H131.228ZM127.742 60.2225C129.099 59.632 130.078 60.1863 129.933 61.4605C129.788 62.7348 128.565 64.2422 127.208 64.8275C125.851 65.4129 124.872 64.8638 125.017 63.5895C125.162 62.3152 126.374 60.8182 127.742 60.2329V60.2225Z"
        fill="#7F3F98" />
    <path
        d="M114.703 129.169L109.523 132.152C109.383 132.232 109.266 132.348 109.185 132.489C109.104 132.629 109.062 132.788 109.062 132.95V138.689C109.062 138.727 109.072 138.763 109.09 138.795C109.108 138.828 109.135 138.855 109.167 138.873C109.199 138.892 109.235 138.902 109.272 138.903C109.309 138.903 109.346 138.894 109.378 138.876L111.14 137.84L111.751 138.876C111.758 138.89 111.77 138.902 111.783 138.91C111.797 138.918 111.813 138.923 111.829 138.923C111.845 138.923 111.86 138.918 111.874 138.91C111.888 138.902 111.899 138.89 111.906 138.876L112.466 137.104L114.538 135.923C114.707 135.824 114.848 135.683 114.946 135.513C115.044 135.343 115.096 135.151 115.097 134.955V129.386C115.1 129.339 115.09 129.292 115.067 129.251C115.044 129.209 115.011 129.175 114.969 129.153C114.928 129.13 114.881 129.119 114.834 129.122C114.787 129.125 114.742 129.141 114.703 129.169Z"
        fill="#7F3F98" />
    <path
        d="M110.689 135.198V135.804L110.368 135.985V135.384L109.694 134.659L110.036 134.462L110.554 135.006L111.072 133.877L111.383 133.696L110.689 135.198Z"
        fill="white" />
    <path
        d="M111.621 135.198C111.575 135.203 111.529 135.197 111.486 135.181C111.442 135.165 111.404 135.139 111.373 135.105C111.307 135.021 111.275 134.915 111.285 134.809C111.285 134.671 111.315 134.535 111.373 134.41C111.433 134.269 111.517 134.14 111.621 134.027C111.725 133.913 111.846 133.815 111.979 133.737C112.088 133.667 112.212 133.625 112.341 133.613C112.387 133.611 112.433 133.618 112.475 133.634C112.518 133.65 112.557 133.674 112.59 133.706C112.654 133.791 112.685 133.895 112.678 134.001C112.675 134.139 112.646 134.274 112.59 134.4C112.463 134.685 112.249 134.922 111.979 135.079C111.873 135.15 111.749 135.191 111.621 135.198ZM112.258 134.54C112.34 134.43 112.385 134.298 112.388 134.162C112.388 134.037 112.352 133.96 112.279 133.929C112.232 133.913 112.182 133.909 112.134 133.918C112.085 133.926 112.039 133.945 111.999 133.975C111.885 134.042 111.788 134.136 111.72 134.25C111.651 134.357 111.613 134.48 111.611 134.607C111.611 134.732 111.647 134.809 111.72 134.846C111.767 134.86 111.817 134.863 111.866 134.853C111.915 134.844 111.96 134.824 111.999 134.794C112.107 134.727 112.196 134.635 112.258 134.524V134.54Z"
        fill="white" />
    <path
        d="M114.242 132.432V133.742L113.952 133.908V133.742C113.899 133.83 113.837 133.912 113.766 133.986C113.696 134.058 113.616 134.119 113.528 134.167C113.47 134.213 113.403 134.245 113.331 134.261C113.259 134.277 113.185 134.277 113.113 134.26C113.015 134.224 112.963 134.105 112.963 133.918V133.167L113.269 132.991V133.696C113.269 133.815 113.295 133.887 113.351 133.913C113.408 133.939 113.481 133.913 113.579 133.872C113.686 133.811 113.775 133.723 113.838 133.618C113.902 133.513 113.936 133.393 113.937 133.271V132.608L114.242 132.432Z"
        fill="white" />
    <path
        d="M186.286 199.73C186.445 200.008 186.529 200.322 186.529 200.642C186.599 201.608 186.599 202.577 186.529 203.543C186.441 203.988 185.493 204.636 184.286 204.501C183.079 204.366 182.271 203.465 181.696 202.548C181.121 201.631 178.516 198.539 178.044 197.788C177.573 197.037 176.838 195.042 177.754 194.224C178.526 193.535 181.417 195.11 182.188 195.98C182.96 196.85 186.286 199.73 186.286 199.73Z"
        fill="#263238" />
    <path
        d="M173.983 208.868C174.258 209.309 174.45 209.798 174.548 210.308C174.734 211.142 175.035 213.142 174.88 213.742C174.802 214.032 173.766 214.778 172.745 214.83C172.139 214.861 171.409 214.887 170.818 214.908C170.382 214.918 169.953 215.028 169.565 215.229C168.505 215.776 167.418 216.267 166.307 216.7C164.369 217.441 161.826 217.736 160.609 217.472C159.391 217.208 157.946 216.436 157.366 215.68C157.248 215.488 157.19 215.266 157.2 215.042C157.211 214.817 157.288 214.601 157.423 214.421C158.92 213.173 161.406 212.556 162.945 211.919C165.031 211.013 167.036 209.93 168.938 208.682C169.316 208.391 173.983 208.868 173.983 208.868Z"
        fill="#263238" />
    <path
        d="M173.983 206.024V208.868C173.67 209.239 173.277 209.537 172.835 209.74C172.393 209.942 171.911 210.044 171.424 210.038C170.923 210.091 170.416 209.99 169.973 209.75C169.529 209.51 169.168 209.141 168.938 208.692C169.013 207.804 169.035 206.914 169.005 206.024H173.983Z"
        fill="#FFA8A7" />
    <path
        d="M186.286 198.016V199.73C186.286 199.73 186.032 200.632 184.312 200.689C183.554 200.731 182.806 200.5 182.204 200.036L181.847 197.513L186.286 198.016Z"
        fill="#FFA8A7" />
    <path
        d="M163.442 145.46C163.442 145.46 164.048 172.603 164.835 177.576C165.379 180.979 168.979 206.76 168.979 206.76C169.765 207.172 170.641 207.384 171.528 207.376C172.415 207.369 173.287 207.143 174.066 206.718C174.066 206.718 174.066 205.812 174.191 204.335C174.315 202.859 175.439 190.267 175.325 185.532C175.283 182.785 174.743 180.068 173.73 177.513L175.325 154.11L176.066 154.203C176.066 154.203 176.029 156.7 176.34 161.134C176.34 161.134 176.931 170.07 177.138 171.826C177.532 175.099 179.728 187.019 180.37 190.178C180.95 193.012 181.893 198.244 181.893 198.244C183.276 199.622 186.291 198.534 186.291 198.534C186.291 198.534 186.441 194.98 186.597 192.81C186.752 190.64 187.415 180.896 187.151 178.337C186.783 174.773 185.328 171.344 185.457 170.438C186.213 165.19 186.286 142.854 186.286 142.854L163.442 145.46Z"
        fill="#7F3F98" />
    <path opacity="0.4"
        d="M163.442 145.46C163.442 145.46 164.048 172.603 164.835 177.576C165.379 180.979 168.979 206.76 168.979 206.76C169.765 207.172 170.641 207.384 171.528 207.376C172.415 207.369 173.287 207.143 174.066 206.718C174.066 206.718 174.066 205.812 174.191 204.335C174.315 202.859 175.439 190.267 175.325 185.532C175.283 182.785 174.743 180.068 173.73 177.513L175.325 154.11L176.066 154.203C176.066 154.203 176.029 156.7 176.34 161.134C176.34 161.134 176.931 170.07 177.138 171.826C177.532 175.099 179.728 187.019 180.37 190.178C180.95 193.012 181.893 198.244 181.893 198.244C183.276 199.622 186.291 198.534 186.291 198.534C186.291 198.534 186.441 194.98 186.597 192.81C186.752 190.64 187.415 180.896 187.151 178.337C186.783 174.773 185.328 171.344 185.457 170.438C186.213 165.19 186.286 142.854 186.286 142.854L163.442 145.46Z"
        fill="black" />
    <path opacity="0.4"
        d="M175.325 154.084L176.066 154.182C176.066 154.182 176.024 156.834 176.356 161.548C176.356 161.548 176.501 163.796 176.677 166.314L177.889 154.312C180.143 152.991 182.107 151.229 183.665 149.132C178.744 152.903 175.325 154.068 175.325 154.068V154.084Z"
        fill="black" />
    <path
        d="M187.617 113.245C186.906 112.27 185.905 111.545 184.758 111.173L185.669 138.798C185.669 138.798 192.403 135.793 192.611 134.011C192.813 132.416 188.866 114.996 187.617 113.245Z"
        fill="#37474F" />
    <path
        d="M165.069 98.2643C165.038 97.1195 165.038 95.6743 165.069 95.1252C165.203 93.0791 165.815 92.2658 165.815 92.2658C168.316 88.9972 177.485 89.7328 178.138 91.5717C178.79 93.4106 180.065 103.449 177.236 105.242C177.527 106.796 178.34 110.639 178.34 110.639C176.055 112.711 171.269 112.053 171.269 112.053C171.409 111.354 170.751 108.552 170.42 107.127C168.462 107.36 166.757 107.334 166.203 106.92C166.16 106.889 166.122 106.853 166.089 106.811C165.664 106.205 165.364 103.9 165.198 101.113C164.68 101.181 163.877 101.248 163.774 101.046C163.67 100.844 164.587 99.1138 165.069 98.2643Z"
        fill="#FFA8A7" />
    <path
        d="M170.311 98.4509C170.311 98.4509 170.052 96.6535 171.865 96.4825C173.678 96.3116 174.786 98.6167 173.901 100.3C173.015 101.984 171.865 102.092 171.865 102.092C171.748 103.205 171.748 104.326 171.865 105.439C171.912 105.747 172.071 106.028 172.312 106.227C172.552 106.426 172.858 106.529 173.17 106.516C174.465 106.48 176.796 106.288 178.516 105.449C181.028 104.221 182.743 101.678 183.696 98.0624C184.649 94.4468 184.799 91.0487 182.142 90.9244C182.142 90.9244 182.116 89.9143 183.608 89.5154C183.608 89.5154 181.945 88.754 181.23 90.1422C181.148 89.3513 180.836 88.6019 180.331 87.9875C179.826 87.3731 179.152 86.9209 178.392 86.6872C175.739 85.8946 172.45 87.0757 169.586 87.7232C166.721 88.3707 162.955 88.0288 162.629 88.438C162.302 88.8472 160.899 96.8607 168.845 96.4877C168.819 96.4722 169.187 98.4199 170.311 98.4509Z"
        fill="#263238" />
    <path
        d="M166.203 106.92C166.757 107.335 168.462 107.36 170.42 107.127C170.838 106.864 171.192 106.51 171.456 106.091C171.311 106.143 168.187 107.495 166.203 106.92Z"
        fill="#F28F8F" />
    <path
        d="M163.38 126.542V145.558C163.38 145.558 170.166 148.231 176.599 147.283C183.033 146.335 186.441 142.756 186.441 142.756C186.441 142.756 186.726 117.674 186.265 114.628C185.804 111.582 183.748 110.137 182.173 109.79C180.598 109.443 178.241 110.096 178.241 110.096C176.145 111.238 173.772 111.776 171.388 111.65C169.58 112.251 167.602 113.204 165.949 113.825C161.241 115.664 163.38 126.542 163.38 126.542Z"
        fill="#7F3F98" />
    <path opacity="0.4"
        d="M163.38 126.542V145.558C163.38 145.558 170.166 148.231 176.599 147.283C183.033 146.335 186.441 142.756 186.441 142.756C186.441 142.756 186.726 117.674 186.265 114.628C185.804 111.582 183.748 110.137 182.173 109.79C180.598 109.443 178.241 110.096 178.241 110.096C176.145 111.238 173.772 111.776 171.388 111.65C169.58 112.251 167.602 113.204 165.949 113.825C161.241 115.664 163.38 126.542 163.38 126.542Z"
        fill="white" />
    <path
        d="M150.875 125.263L146.54 112.235L153.439 108.396L153.989 108.526L157.77 121.424L150.875 125.263Z"
        fill="#37474F" />
    <path d="M151.424 125.392L147.089 112.364L153.989 108.526L158.324 121.554L151.424 125.392Z"
        fill="#455A64" />
    <path d="M151.575 124.061L148.001 113.307L153.942 109.966L157.516 120.72L151.575 124.061Z"
        fill="white" />
    <path
        d="M147.757 115.452C147.757 115.452 148.089 115.193 148.244 116.12C148.399 117.047 149.28 120.321 150.834 121.372C150.834 121.372 151.181 121.518 151.191 121.207C151.201 120.484 151.318 119.766 151.538 119.078C151.849 118.27 152.668 117.721 153.051 117.86C153.434 118 153.015 119.477 153.051 120.041C153.087 120.606 153.849 121.911 153.885 122.517C153.921 123.123 153.823 123.553 153.885 123.838C154.444 124.587 155.048 125.301 155.693 125.977L152.321 130.246C152.321 130.246 150.129 127.335 149.565 126.76C149 126.185 148.011 125.055 147.731 124.03C147.336 122.587 147.049 121.117 146.871 119.632C146.871 118.746 146.861 115.731 147.757 115.452Z"
        fill="#FFA8A7" />
    <path
        d="M167.296 113.271L169.503 112.965C169.503 112.965 171.248 113.064 170.834 118.296C170.42 123.527 165.214 137.679 163.913 139.399C162.168 141.709 160.168 140.305 159.769 139.772C159.371 139.238 155.025 134.348 152.383 130.246C152.383 130.246 152.999 126.376 155.973 125.936L159.422 129.5C159.422 129.5 160.489 125.506 161.608 121.212C162.634 117.358 163.67 114.089 167.296 113.271Z"
        fill="#37474F" />
</svg>
