<svg width="17" height="16" viewBox="0 0 17 16" fill="none" xmlns="http://www.w3.org/2000/svg">
    <path fill-rule="evenodd" clip-rule="evenodd"
        d="M4.10951 11.7102C3.57824 11.1789 3.27978 10.4583 3.27978 9.70688C3.27978 8.9555 3.57824 8.23489 4.10951 7.70355L8.46951 3.34355C8.5946 3.21854 8.66491 3.04896 8.66498 2.87212C8.66504 2.69527 8.59485 2.52564 8.46984 2.40055C8.34484 2.27545 8.17526 2.20514 7.99841 2.20508C7.82156 2.20502 7.65194 2.27521 7.52684 2.40021L3.16684 6.76021C2.38534 7.54154 1.94622 8.60132 1.9461 9.70641C1.94597 10.8115 2.38485 11.8714 3.16618 12.6529C3.9475 13.4344 5.00728 13.8735 6.11237 13.8736C7.21746 13.8738 8.27734 13.4349 9.05884 12.6535L14.3615 7.35021C14.9242 6.78742 15.2403 6.02415 15.2402 5.22831C15.2402 4.43247 14.924 3.66925 14.3612 3.10655C13.7984 2.54385 13.0351 2.22776 12.2393 2.22782C11.4434 2.22788 10.6802 2.54409 10.1175 3.10688L4.81551 8.40888C4.47979 8.75465 4.2936 9.21863 4.29718 9.70056C4.30077 10.1825 4.49383 10.6437 4.83466 10.9844C5.17549 11.3251 5.6367 11.5181 6.11863 11.5215C6.60056 11.525 7.06449 11.3387 7.41018 11.0029L12.2408 6.17155C12.3659 6.04654 12.4362 5.87696 12.4363 5.70012C12.4364 5.52327 12.3662 5.35364 12.2412 5.22855C12.1162 5.10345 11.9466 5.03314 11.7697 5.03308C11.5929 5.03302 11.4233 5.10321 11.2982 5.22821L6.46684 10.0595C6.37296 10.1535 6.24558 10.2064 6.11274 10.2064C5.97991 10.2065 5.85248 10.1538 5.75851 10.0599C5.66453 9.96599 5.6117 9.83862 5.61164 9.70578C5.61158 9.57294 5.66429 9.44552 5.75817 9.35155L11.0602 4.04955C11.215 3.89467 11.3987 3.77181 11.601 3.68796C11.8033 3.60411 12.0201 3.56092 12.239 3.56086C12.458 3.56079 12.6748 3.60386 12.8771 3.68759C13.0795 3.77133 13.2633 3.8941 13.4182 4.04888C13.731 4.36148 13.9067 4.78553 13.9069 5.22774C13.907 5.66995 13.7314 6.0941 13.4188 6.40688L8.11618 11.7095C7.58483 12.2408 6.86422 12.5393 6.11284 12.5393C5.36146 12.5393 4.64085 12.2408 4.10951 11.7095V11.7102Z"
        fill="white" />
</svg>
