<svg width="14" height="16" viewBox="0 0 14 16" fill="none" xmlns="http://www.w3.org/2000/svg">
    <path
        d="M4.7 13.7665L3.93333 12.9998L5 11.9332L5.76667 12.6998C5.92222 12.8554 6 13.0332 6 13.2332C6 13.4332 5.92222 13.6109 5.76667 13.7665C5.61111 13.9221 5.43333 13.9998 5.23333 13.9998C5.03333 13.9998 4.85555 13.9221 4.7 13.7665ZM3 12.0665L2.23333 11.2998C2.07778 11.1443 2 10.9665 2 10.7665C2 10.5665 2.07778 10.3887 2.23333 10.2332C2.38889 10.0776 2.56667 9.99984 2.76667 9.99984C2.96667 9.99984 3.14444 10.0776 3.3 10.2332L4.06667 10.9998L3 12.0665ZM3.75 14.7165C4.16111 15.1276 4.65555 15.3332 5.23333 15.3332C5.81111 15.3332 6.30555 15.1276 6.71667 14.7165C7.12778 14.3054 7.33333 13.8109 7.33333 13.2332C7.33333 12.6554 7.12778 12.1609 6.71667 11.7498L4.25 9.28317C3.83889 8.87206 3.34444 8.6665 2.76667 8.6665C2.18889 8.6665 1.69444 8.87206 1.28333 9.28317C0.872221 9.69428 0.666666 10.1887 0.666666 10.7665C0.666666 11.3443 0.872221 11.8387 1.28333 12.2498L3.75 14.7165ZM12.6667 13.9998C13.0333 13.9998 13.3473 13.8692 13.6087 13.6078C13.87 13.3465 14.0004 13.0327 14 12.6665V3.33317C14 2.9665 13.8693 2.6525 13.608 2.39117C13.3467 2.12984 13.0329 1.99939 12.6667 1.99984H9.86667C9.72222 1.59984 9.48044 1.27762 9.14133 1.03317C8.80222 0.788726 8.42178 0.666504 8 0.666504C7.57778 0.666504 7.19711 0.788726 6.858 1.03317C6.51889 1.27762 6.27733 1.59984 6.13333 1.99984H3.33333C2.96667 1.99984 2.65267 2.1305 2.39133 2.39184C2.13 2.65317 1.99955 2.96695 2 3.33317V7.4165C2.22222 7.36095 2.44444 7.33317 2.66667 7.33317C2.88889 7.33317 3.11111 7.34984 3.33333 7.38317V3.33317H12.6667V12.6665H8.61667C8.65 12.8887 8.66667 13.1109 8.66667 13.3332C8.66667 13.5554 8.63889 13.7776 8.58333 13.9998H12.6667ZM8 2.83317C7.85555 2.83317 7.73622 2.78584 7.642 2.69117C7.54778 2.5965 7.50044 2.47717 7.5 2.33317C7.5 2.18873 7.54733 2.06939 7.642 1.97517C7.73667 1.88095 7.856 1.83362 8 1.83317C8.14444 1.83317 8.26378 1.8805 8.358 1.97517C8.45222 2.06984 8.49955 2.18917 8.5 2.33317C8.5 2.47762 8.45267 2.59695 8.358 2.69117C8.26333 2.78539 8.144 2.83273 8 2.83317ZM11.3333 5.99984V4.6665H4.66667V5.99984H11.3333ZM11.3333 8.6665V7.33317H4.66667V7.89984C4.75556 7.95539 4.84178 8.01939 4.92533 8.09184C5.00889 8.16428 5.09489 8.24473 5.18333 8.33317L5.51667 8.6665H11.3333ZM11.3333 11.3332V9.99984H6.85L7.66667 10.8165C7.75555 10.9054 7.836 10.9916 7.908 11.0752C7.98 11.1587 8.044 11.2447 8.1 11.3332H11.3333Z"
        fill="#121212" />
</svg>
