<svg width="14" height="12" viewBox="0 0 14 12" fill="none" xmlns="http://www.w3.org/2000/svg">
    <path fill-rule="evenodd" clip-rule="evenodd"
        d="M7.32202 0.292787C7.50949 0.480314 7.61481 0.734622 7.61481 0.999786C7.61481 1.26495 7.50949 1.51926 7.32202 1.70679L3.02902 5.99979L7.32202 10.2928C7.50418 10.4814 7.60497 10.734 7.60269 10.9962C7.60042 11.2584 7.49525 11.5092 7.30984 11.6946C7.12443 11.88 6.87362 11.9852 6.61142 11.9875C6.34923 11.9897 6.09662 11.8889 5.90802 11.7068L0.908021 6.70679C0.72055 6.51926 0.615234 6.26495 0.615234 5.99979C0.615234 5.73462 0.72055 5.48031 0.908021 5.29279L5.90802 0.292787C6.09555 0.105316 6.34986 0 6.61502 0C6.88019 0 7.13449 0.105316 7.32202 0.292787ZM13.322 0.292787C13.5095 0.480314 13.6148 0.734622 13.6148 0.999786C13.6148 1.26495 13.5095 1.51926 13.322 1.70679L9.02902 5.99979L13.322 10.2928C13.5042 10.4814 13.605 10.734 13.6027 10.9962C13.6004 11.2584 13.4952 11.5092 13.3098 11.6946C13.1244 11.88 12.8736 11.9852 12.6114 11.9875C12.3492 11.9897 12.0966 11.8889 11.908 11.7068L6.90802 6.70679C6.72055 6.51926 6.61523 6.26495 6.61523 5.99979C6.61523 5.73462 6.72055 5.48031 6.90802 5.29279L11.908 0.292787C12.0955 0.105316 12.3499 0 12.615 0C12.8802 0 13.1345 0.105316 13.322 0.292787Z"
        fill="#A0A0A0" />
</svg>
