<svg width="23" height="20" viewBox="0 0 23 20" fill="none" xmlns="http://www.w3.org/2000/svg">
    <path
        d="M10.4996 14.9996H12.4996V11.9996H15.4996V9.99961H12.4996V6.99961H10.4996V9.99961H7.49961V11.9996H10.4996V14.9996ZM11.4996 19.9996C10.2496 19.9996 9.07894 19.7623 7.98761 19.2876C6.89628 18.8129 5.94628 18.1713 5.13761 17.3626C4.32894 16.5539 3.68728 15.6039 3.21261 14.5126C2.73794 13.4213 2.50028 12.2503 2.49961 10.9996C2.49961 9.74961 2.73728 8.57894 3.21261 7.48761C3.68794 6.39628 4.32928 5.44628 5.13661 4.63761C5.94528 3.82894 6.89528 3.18728 7.98661 2.71261C9.07794 2.23794 10.2489 2.00028 11.4996 1.99961C12.7496 1.99961 13.9206 2.23728 15.0126 2.71261C16.1046 3.18794 17.0546 3.82961 17.8626 4.63761C18.6706 5.44561 19.3123 6.39561 19.7876 7.48761C20.2629 8.57961 20.5003 9.75028 20.4996 10.9996C20.4996 12.2496 20.2623 13.4206 19.7876 14.5126C19.3129 15.6046 18.6713 16.5546 17.8626 17.3626C17.0539 18.1706 16.1039 18.8123 15.0126 19.2876C13.9213 19.7629 12.7503 20.0003 11.4996 19.9996ZM5.09961 0.349609L6.49961 1.74961L2.24961 5.99961L0.849609 4.59961L5.09961 0.349609ZM17.8996 0.349609L22.1496 4.59961L20.7496 5.99961L16.4996 1.74961L17.8996 0.349609ZM11.4996 17.9996C13.4496 17.9996 15.1039 17.3206 16.4626 15.9626C17.8213 14.6046 18.5003 12.9503 18.4996 10.9996C18.4996 9.04961 17.8206 7.39561 16.4626 6.03761C15.1046 4.67961 13.4503 4.00028 11.4996 3.99961C9.54961 3.99961 7.89561 4.67894 6.53761 6.03761C5.17961 7.39628 4.50028 9.05028 4.49961 10.9996C4.49961 12.9496 5.17894 14.6039 6.53761 15.9626C7.89628 17.3213 9.55028 18.0003 11.4996 17.9996Z"
        fill="#535353" />
</svg>
