<svg width="35" height="34" viewBox="0 0 35 34" fill="none" xmlns="http://www.w3.org/2000/svg">
<path d="M16.0833 19.4792H17.5V13.8125M23.1667 13.4583V11.3333M13.25 23.375C15.375 25.5 19.625 25.5 21.75 23.375M11.8333 13.4583V11.3333M13.8167 29.75C10.6433 29.75 9.05667 29.75 7.844 29.1323C6.7778 28.5891 5.91094 27.7222 5.36767 26.656C4.75 25.4433 4.75 23.8567 4.75 20.6833M30.25 20.6833C30.25 23.8567 30.25 25.4433 29.6323 26.656C29.0891 27.7222 28.2222 28.5891 27.156 29.1323C25.9433 29.75 24.3567 29.75 21.1833 29.75M21.1833 4.25C24.3567 4.25 25.9433 4.25 27.156 4.86767C28.2222 5.41094 29.0891 6.2778 29.6323 7.344C30.25 8.55667 30.25 10.1433 30.25 13.3167M13.8167 4.25C10.6433 4.25 9.05667 4.25 7.844 4.86767C6.7778 5.41094 5.91094 6.2778 5.36767 7.344C4.75 8.55667 4.75 10.1433 4.75 13.3167" stroke="white" stroke-width="1.5" stroke-linecap="round" stroke-linejoin="round"/>
</svg>
