<svg width="35" height="34" viewBox="0 0 35 34" fill="none" xmlns="http://www.w3.org/2000/svg">
<path d="M17.4812 6.47528C19.9707 6.47528 22.3191 7.01267 24.5262 8.08745C26.7344 9.16128 28.5732 10.7045 30.0427 12.7171C30.1712 12.8748 30.2104 13.0231 30.1603 13.1619C30.1103 13.2989 30.0239 13.4084 29.9011 13.4906C29.7783 13.5728 29.6451 13.6087 29.5016 13.5983C29.358 13.5879 29.2334 13.5048 29.1276 13.3489C27.7921 11.4704 26.0945 10.0368 24.0347 9.04795C21.9748 8.05911 19.7899 7.5647 17.4797 7.5647C15.1895 7.5647 13.0319 8.06856 11.007 9.07628C8.98211 10.084 7.29958 11.5082 5.95941 13.3489C5.83569 13.5256 5.6978 13.6167 5.54575 13.6224C5.39275 13.6271 5.25439 13.5799 5.13066 13.4807C5.02866 13.3985 4.96728 13.2961 4.9465 13.1733C4.92572 13.0505 4.9583 12.9221 5.04425 12.7879C6.52608 10.8178 8.35358 9.2732 10.5267 8.15403C12.699 7.03486 15.0171 6.47528 17.4812 6.47528ZM17.4812 9.80445C20.6318 9.80445 23.3386 10.8542 25.6015 12.9537C27.8644 15.0532 28.9958 17.6533 28.9958 20.7539C28.9958 21.8957 28.593 22.8491 27.7874 23.6141C26.9809 24.3791 25.9982 24.7616 24.8393 24.7616C23.6899 24.7616 22.6978 24.3791 21.8629 23.6141C21.028 22.8491 20.6106 21.8957 20.6106 20.7539C20.6106 19.9388 20.3084 19.247 19.7039 18.6784C19.0985 18.1118 18.3756 17.8284 17.535 17.8284C16.6803 17.8284 15.945 18.1099 15.3292 18.6728C14.7135 19.2347 14.4056 19.9284 14.4056 20.7539C14.4056 23.0989 15.1021 25.0568 16.4952 26.6274C17.8892 28.1989 19.6605 29.2916 21.8091 29.9055C21.9772 29.9594 22.0943 30.0491 22.1604 30.1747C22.2265 30.3003 22.236 30.4344 22.1887 30.577C22.1415 30.7026 22.065 30.8155 21.9592 30.9156C21.8535 31.0157 21.7038 31.0422 21.5102 30.9949C19.1273 30.3811 17.1657 29.1722 15.6253 27.3683C14.0849 25.5644 13.3152 23.3596 13.3162 20.7539C13.3162 19.6101 13.7317 18.6548 14.5628 17.8879C15.3939 17.1211 16.3856 16.7376 17.5378 16.7376C18.6901 16.7376 19.6713 17.1211 20.4817 17.8879C21.292 18.6548 21.6981 19.6101 21.7 20.7539C21.7 21.5793 22.0107 22.2735 22.6322 22.8364C23.2536 23.3993 23.9865 23.6807 24.8308 23.6807C25.6752 23.6807 26.3991 23.3969 27.0026 22.8293C27.6061 22.2617 27.9074 21.5699 27.9064 20.7539C27.9064 17.9687 26.8817 15.6279 24.8322 13.7314C22.7847 11.8341 20.3386 10.8854 17.4939 10.8854C14.6492 10.8854 12.2102 11.8374 10.1768 13.7414C8.14344 15.6454 7.12628 17.9805 7.12533 20.7468C7.12533 21.3229 7.19191 22.0426 7.32508 22.9058C7.45825 23.769 7.71703 24.7678 8.10141 25.902C8.15336 26.0598 8.15194 26.1986 8.09716 26.3185C8.0405 26.4385 7.93661 26.5339 7.7855 26.6047C7.63439 26.6755 7.49178 26.6779 7.35766 26.6118C7.22639 26.5457 7.1343 26.438 7.08141 26.2888C6.7093 25.3132 6.44203 24.3801 6.27958 23.4894C6.11714 22.5988 6.03591 21.6874 6.03591 20.7553C6.03591 17.6537 7.16169 15.0537 9.41325 12.9551C11.6648 10.8566 14.3546 9.80681 17.4826 9.80586M17.535 3.00586C19.0225 3.00586 20.4751 3.18909 21.8927 3.55553C23.3093 3.92103 24.6802 4.44614 26.0052 5.13086C26.1989 5.23097 26.3089 5.34997 26.3353 5.48786C26.3618 5.62575 26.349 5.75939 26.2971 5.88878C26.2451 6.01817 26.1497 6.11167 26.0109 6.16928C25.873 6.22784 25.7314 6.21603 25.5859 6.13386C24.3525 5.44159 23.0553 4.92875 21.6943 4.59536C20.3343 4.26292 18.9436 4.0967 17.5222 4.0967C16.1245 4.0967 14.7555 4.27378 13.4153 4.62795C12.0752 4.98306 10.7756 5.48503 9.51666 6.13386C9.41939 6.19714 9.29897 6.20847 9.15541 6.16786C9.01186 6.12725 8.9108 6.03942 8.85225 5.90436C8.79369 5.76931 8.7748 5.63897 8.79558 5.51336C8.81541 5.38775 8.89239 5.28386 9.0265 5.2017C10.3308 4.47542 11.7031 3.92764 13.1433 3.55836C14.5836 3.18909 16.0475 3.00492 17.535 3.00586ZM17.5364 13.2696C19.6954 13.2696 21.5432 13.9893 23.0798 15.4286C24.6164 16.8679 25.3847 18.6435 25.3847 20.7553C25.3847 20.9187 25.3347 21.0504 25.2346 21.1505C25.1345 21.2506 25.0022 21.3007 24.8379 21.3007C24.7047 21.3007 24.5806 21.2506 24.4653 21.1505C24.352 21.0504 24.2953 20.9187 24.2953 20.7553C24.2953 18.9476 23.6262 17.4294 22.2879 16.2007C20.9496 14.972 19.3653 14.3581 17.535 14.359C15.7047 14.36 14.1232 14.9739 12.7906 16.2007C11.458 17.4275 10.7921 18.9448 10.7931 20.7524C10.7931 22.7037 11.1326 24.3508 11.8117 25.6938C12.4907 27.0368 13.4677 28.3977 14.7427 29.7766C14.8844 29.9211 14.9416 30.0651 14.9142 30.2087C14.8868 30.3523 14.8296 30.4675 14.7427 30.5544C14.637 30.6601 14.5128 30.7178 14.3702 30.7272C14.2276 30.7366 14.0939 30.679 13.9692 30.5544C12.631 29.1273 11.585 27.6478 10.8313 26.1159C10.0777 24.5841 9.7013 22.7967 9.70225 20.7539C9.70225 18.643 10.4682 16.8675 12.0001 15.4272C13.532 13.9869 15.3774 13.2677 17.5364 13.2696ZM17.4656 20.2113C17.628 20.2113 17.7602 20.2656 17.8622 20.3742C17.9661 20.4828 18.0181 20.6098 18.0181 20.7553C18.0181 22.5818 18.6688 24.0797 19.9702 25.2489C21.2717 26.4182 22.8003 27.0028 24.556 27.0028C24.7883 27.0028 25.0344 26.991 25.2941 26.9674C25.5538 26.9438 25.8164 26.9083 26.0817 26.8611C26.2215 26.8318 26.341 26.8521 26.4402 26.922C26.5393 26.9919 26.6125 27.1076 26.6597 27.2691C26.707 27.4136 26.6805 27.5397 26.5804 27.6474C26.4803 27.755 26.3537 27.8325 26.2007 27.8797C25.9401 27.943 25.6591 27.9944 25.3578 28.0341C25.0575 28.0719 24.7902 28.0908 24.556 28.0908C22.5084 28.0908 20.7253 27.3957 19.2067 26.0054C17.6871 24.6152 16.9272 22.8652 16.9272 20.7553C16.9272 20.6098 16.9768 20.4823 17.076 20.3728C17.1752 20.2651 17.3055 20.2113 17.467 20.2113" fill="white"/>
</svg>
