<svg width="14" height="18" viewBox="0 0 14 18" fill="none" xmlns="http://www.w3.org/2000/svg">
    <path
        d="M11.4163 10.3472H11.5163V10.2472V3.58057C11.5163 3.22252 11.3741 2.87915 11.1209 2.62597C10.8678 2.3728 10.5244 2.23057 10.1663 2.23057H9.01264C8.98877 1.90909 8.85044 1.60547 8.62094 1.37597C8.36776 1.1228 8.02438 0.980566 7.66634 0.980566H4.33301C3.97497 0.980566 3.63159 1.1228 3.37841 1.37597C3.14892 1.60547 3.01058 1.90909 2.98671 2.23057H1.83301C1.47497 2.23057 1.13159 2.3728 0.878414 2.62597C0.625239 2.87915 0.483008 3.22252 0.483008 3.58057V15.2472C0.483008 15.6053 0.625239 15.9487 0.878414 16.2018C1.13159 16.455 1.47497 16.5972 1.83301 16.5972H5.99968H6.09968V16.4972V15.6639V15.5639H5.99968H1.83301C1.74902 15.5639 1.66848 15.5305 1.60909 15.4712C1.5497 15.4118 1.51634 15.3312 1.51634 15.2472V3.58057C1.51634 3.49658 1.5497 3.41604 1.60909 3.35665C1.66848 3.29726 1.74902 3.2639 1.83301 3.2639H2.98671C3.01058 3.58537 3.14892 3.889 3.37841 4.11849C3.63159 4.37167 3.97497 4.5139 4.33301 4.5139H7.66634C8.02438 4.5139 8.36776 4.37167 8.62094 4.11849C8.85044 3.889 8.98877 3.58537 9.01264 3.2639H10.1663C10.2503 3.2639 10.3309 3.29726 10.3903 3.35665C10.4496 3.41604 10.483 3.49658 10.483 3.58057V10.2472V10.3472H10.583H11.4163ZM5.58301 5.98057H5.48301V6.08057V7.23057H4.33301H4.23301V7.33057V8.1639V8.2639H4.33301H5.48301V9.4139V9.5139H5.58301H6.41634H6.51634V9.4139V8.2639H7.66634H7.76634V8.1639V7.33057V7.23057H7.66634H6.51634V6.08057V5.98057H6.41634H5.58301ZM5.99968 11.6743H5.89968V11.7743V13.441C5.89968 13.578 5.95411 13.7094 6.051 13.8063C6.1479 13.9032 6.27931 13.9576 6.41634 13.9576H8.08301H8.18301V13.8576V13.0243V12.9243H8.08301H7.72079L8.05901 12.6063L8.05905 12.6064L8.06169 12.6037C8.29779 12.3644 8.59083 12.1891 8.91329 12.0942C9.23576 11.9992 9.57706 11.9878 9.90514 12.061C10.2332 12.1342 10.5373 12.2895 10.7889 12.5125C11.0405 12.7354 11.2312 13.0187 11.3433 13.3356L11.3767 13.4299L11.4709 13.3965L12.2564 13.1186L12.3507 13.0852L12.3173 12.9909C12.1474 12.5112 11.8589 12.0823 11.4787 11.744C11.0984 11.4057 10.6388 11.1692 10.1426 11.0563C9.64636 10.9434 9.12963 10.9578 8.64048 11.0983C8.15181 11.2386 7.70653 11.5002 7.346 11.8587L6.93301 12.2465V11.7743V11.6743H6.83301H5.99968ZM10.8609 14.0356H10.7609V14.1356V14.9689V15.0689H10.8609H11.2231L10.8849 15.3869L10.8849 15.3868L10.8822 15.3895C10.6461 15.6288 10.3531 15.8041 10.0306 15.899C9.70818 15.994 9.36688 16.0054 9.03879 15.9322C8.7107 15.8591 8.4066 15.7037 8.15503 15.4808C7.90346 15.2578 7.71268 14.9746 7.60062 14.6576L7.56728 14.5633L7.47298 14.5967L6.68757 14.8746L6.59329 14.908L6.62666 15.0023C6.79646 15.4821 7.0849 15.9111 7.46512 16.2494C7.84534 16.5878 8.30498 16.8244 8.80126 16.9373C9.29754 17.0502 9.81432 17.0357 10.3035 16.8952C10.7922 16.7548 11.2375 16.4931 11.5979 16.1346L12.0109 15.7467V16.2189V16.3189H12.1109H12.9443H13.0443V16.2189V14.5522C13.0443 14.4152 12.9898 14.2838 12.8929 14.1869C12.796 14.09 12.6646 14.0356 12.5276 14.0356H10.8609ZM4.10909 2.10665C4.16848 2.04726 4.24902 2.0139 4.33301 2.0139H7.66634C7.75033 2.0139 7.83087 2.04726 7.89026 2.10665C7.94965 2.16604 7.98301 2.24658 7.98301 2.33057V3.1639C7.98301 3.24789 7.94965 3.32843 7.89026 3.38782C7.83087 3.4472 7.75033 3.48057 7.66634 3.48057H4.33301C4.24902 3.48057 4.16848 3.4472 4.10909 3.38782C4.0497 3.32843 4.01634 3.24788 4.01634 3.1639V2.33057C4.01634 2.24658 4.0497 2.16604 4.10909 2.10665Z"
        fill="#A0A0A0" stroke="#A0A0A0" stroke-width="0.2" />
</svg>
