<svg width="16" height="16" viewBox="0 0 16 16" fill="none" xmlns="http://www.w3.org/2000/svg">
    <path
        d="M5.71917 8.56322L7.39328 10.2373L10.1835 6.33108M14.6477 8.00518C14.6477 8.88457 14.4745 9.75535 14.138 10.5678C13.8015 11.3802 13.3082 12.1185 12.6864 12.7403C12.0646 13.3621 11.3264 13.8553 10.5139 14.1919C9.70148 14.5284 8.8307 14.7016 7.95131 14.7016C7.07192 14.7016 6.20115 14.5284 5.3887 14.1919C4.57625 13.8553 3.83804 13.3621 3.21622 12.7403C2.5944 12.1185 2.10115 11.3802 1.76462 10.5678C1.42809 9.75535 1.25488 8.88457 1.25488 8.00518C1.25488 6.22918 1.9604 4.52592 3.21622 3.27009C4.47205 2.01427 6.17531 1.30875 7.95131 1.30875C9.72731 1.30875 11.4306 2.01427 12.6864 3.27009C13.9422 4.52592 14.6477 6.22918 14.6477 8.00518Z"
        stroke="#1CC9BC" stroke-width="0.956633" stroke-linecap="round" stroke-linejoin="round" />
</svg>
