<svg width="27" height="26" viewBox="0 0 27 26" fill="none" xmlns="http://www.w3.org/2000/svg">
    <path
        d="M8.33351 11.708C8.33351 11.3654 8.4696 11.0369 8.71183 10.7946C8.95407 10.5524 9.28261 10.4163 9.62518 10.4163H17.3752C17.7177 10.4163 18.0463 10.5524 18.2885 10.7946C18.5308 11.0369 18.6668 11.3654 18.6668 11.708C18.6668 12.0506 18.5308 12.3791 18.2885 12.6213C18.0463 12.8636 17.7177 12.9997 17.3752 12.9997H9.62518C9.28261 12.9997 8.95407 12.8636 8.71183 12.6213C8.4696 12.3791 8.33351 12.0506 8.33351 11.708ZM9.62518 15.583C9.28261 15.583 8.95407 15.7191 8.71183 15.9613C8.4696 16.2035 8.33351 16.5321 8.33351 16.8747C8.33351 17.2172 8.4696 17.5458 8.71183 17.788C8.95407 18.0302 9.28261 18.1663 9.62518 18.1663H14.7918C15.1344 18.1663 15.463 18.0302 15.7052 17.788C15.9474 17.5458 16.0835 17.2172 16.0835 16.8747C16.0835 16.5321 15.9474 16.2035 15.7052 15.9613C15.463 15.7191 15.1344 15.583 14.7918 15.583H9.62518ZM0.583511 12.9997C0.584158 10.1678 1.51543 7.41464 3.23399 5.16388C4.95255 2.91312 7.36317 1.28951 10.0948 0.542917C12.8265 -0.203671 15.7278 -0.0318579 18.3523 1.03192C20.9767 2.09569 23.1789 3.99246 24.6198 6.43032C26.0607 8.86819 26.6605 11.712 26.3269 14.5242C25.9933 17.3363 24.7448 19.9609 22.7736 21.994C20.8023 24.0271 18.2175 25.356 15.417 25.7762C12.6165 26.1965 9.75553 25.6848 7.27434 24.3198L2.25234 25.8492C2.02835 25.9174 1.79001 25.9234 1.56283 25.8667C1.33566 25.8099 1.12819 25.6925 0.962609 25.5269C0.797032 25.3613 0.67958 25.1538 0.622815 24.9267C0.566051 24.6995 0.57211 24.4612 0.640344 24.2372L2.16968 19.2074C1.12589 17.305 0.580249 15.1696 0.583511 12.9997ZM13.5002 2.66632C11.6659 2.66617 9.86454 3.1543 8.28127 4.08058C6.698 5.00686 5.38983 6.33791 4.49113 7.937C3.59243 9.53609 3.1356 11.3456 3.16755 13.1796C3.1995 15.0137 3.71908 16.8062 4.67293 18.373C4.76761 18.5286 4.8283 18.7025 4.85101 18.8833C4.87371 19.0641 4.85792 19.2476 4.80468 19.4218L3.81526 22.6742L7.06251 21.6848C7.2373 21.6316 7.42139 21.616 7.60263 21.6392C7.78388 21.6623 7.95814 21.7237 8.11393 21.8192C9.47581 22.6506 11.0117 23.1554 12.6014 23.294C14.191 23.4325 15.7911 23.201 17.2763 22.6177C18.7614 22.0343 20.0914 21.115 21.1618 19.9317C22.2322 18.7483 23.014 17.3332 23.446 15.7971C23.878 14.2611 23.9484 12.6458 23.6516 11.078C23.3549 9.51023 22.6991 8.03244 21.7357 6.76049C20.7723 5.48853 19.5274 4.45697 18.0985 3.74666C16.6697 3.03634 15.0958 2.66657 13.5002 2.66632Z"
        fill="#535353" />
</svg>
