<?xml version="1.0" encoding="UTF-8"?>
<svg xmlns="http://www.w3.org/2000/svg" xmlns:xlink="http://www.w3.org/1999/xlink" width="96pt"
    height="96pt" viewBox="0 0 96 96" version="1.1">
    <g id="surface1">
        <path style=" stroke:none;fill-rule:nonzero;fill:#121212;fill-opacity:1;"
            d="M 15 12 C 10.054688 12 6 16.054688 6 21 L 6 57 C 6 61.945313 10.054688 66 15 66 L 18 66 L 18 75 C 18 79.945313 22.054688 84 27 84 L 81 84 C 85.945313 84 90 79.945313 90 75 L 90 39 C 90 34.054688 85.945313 30 81 30 L 78 30 L 78 21 C 78 16.054688 73.945313 12 69 12 Z M 15 18 L 69 18 C 70.6875 18 72 19.3125 72 21 L 72 24 L 12 24 L 12 21 C 12 19.3125 13.3125 18 15 18 Z M 12 30 L 72 30 L 72 57 C 72 58.6875 70.6875 60 69 60 L 15 60 C 13.3125 60 12 58.6875 12 57 Z M 78 36 L 81 36 C 82.6875 36 84 37.3125 84 39 L 84 42 L 78 42 Z M 78 48 L 84 48 L 84 75 C 84 76.6875 82.6875 78 81 78 L 27 78 C 25.3125 78 24 76.6875 24 75 L 24 66 L 69 66 C 73.945313 66 78 61.945313 78 57 Z " />
    </g>
</svg>
