<svg width="20" height="20" viewBox="0 0 20 20" fill="none" xmlns="http://www.w3.org/2000/svg">
    <path
        d="M14.125 17.208L15.0833 16.2497L13.75 14.9163L12.7917 15.8747C12.5972 16.0691 12.5 16.2913 12.5 16.5413C12.5 16.7913 12.5972 17.0136 12.7917 17.208C12.9861 17.4025 13.2083 17.4997 13.4583 17.4997C13.7083 17.4997 13.9306 17.4025 14.125 17.208ZM16.25 15.083L17.2083 14.1247C17.4028 13.9302 17.5 13.708 17.5 13.458C17.5 13.208 17.4028 12.9858 17.2083 12.7913C17.0139 12.5969 16.7917 12.4997 16.5417 12.4997C16.2917 12.4997 16.0694 12.5969 15.875 12.7913L14.9167 13.7497L16.25 15.083ZM15.3125 18.3955C14.7986 18.9094 14.1806 19.1663 13.4583 19.1663C12.7361 19.1663 12.1181 18.9094 11.6042 18.3955C11.0903 17.8816 10.8333 17.2636 10.8333 16.5413C10.8333 15.8191 11.0903 15.2011 11.6042 14.6872L14.6875 11.6038C15.2014 11.09 15.8194 10.833 16.5417 10.833C17.2639 10.833 17.8819 11.09 18.3958 11.6038C18.9097 12.1177 19.1667 12.7358 19.1667 13.458C19.1667 14.1802 18.9097 14.7983 18.3958 15.3122L15.3125 18.3955ZM9.27083 17.4997H2.5V2.49967H7.66667C7.84722 1.99967 8.14944 1.5969 8.57333 1.29134C8.99722 0.985786 9.47278 0.833008 10 0.833008C10.5278 0.833008 11.0036 0.985786 11.4275 1.29134C11.8514 1.5969 12.1533 1.99967 12.3333 2.49967H17.5V9.27051C17.2222 9.20106 16.9444 9.16634 16.6667 9.16634C16.3889 9.16634 16.1111 9.18717 15.8333 9.22884V4.16634H4.16667V15.833H9.22917C9.1875 16.1108 9.16667 16.3886 9.16667 16.6663C9.16667 16.9441 9.20139 17.2219 9.27083 17.4997ZM10 3.54134C10.1806 3.54134 10.33 3.48217 10.4483 3.36384C10.5667 3.24551 10.6256 3.09634 10.625 2.91634C10.625 2.73579 10.5658 2.58662 10.4475 2.46884C10.3292 2.35106 10.18 2.2919 10 2.29134C9.81944 2.29134 9.67028 2.35051 9.5525 2.46884C9.43472 2.58717 9.37556 2.73634 9.375 2.91634C9.375 3.0969 9.43417 3.24634 9.5525 3.36467C9.67083 3.48301 9.82 3.5419 10 3.54134ZM5.83333 7.49967V5.83301H14.1667V7.49967H5.83333ZM5.83333 10.833V9.16634H14.1667V9.87467C14.0556 9.94412 13.9481 10.0241 13.8442 10.1147C13.7403 10.2052 13.6325 10.3058 13.5208 10.4163L13.1042 10.833H5.83333ZM5.83333 14.1663V12.4997H11.4375L10.4167 13.5205C10.3056 13.6316 10.205 13.7394 10.115 13.8438C10.025 13.9483 9.945 14.0558 9.875 14.1663H5.83333Z"
        fill="#FF960A" />
</svg>
