<svg width="20" height="15" viewBox="0 0 20 15" fill="none" xmlns="http://www.w3.org/2000/svg">
    <path
        d="M15.8327 14.2145V12.5776H14.4993L12.8535 7.19624C12.7424 6.84158 12.5374 6.5584 12.2385 6.34669C11.9396 6.13498 11.6099 6.0294 11.2493 6.02995H8.74935C8.38824 6.02995 8.05824 6.1358 7.75935 6.34751C7.46046 6.55921 7.25574 6.84213 7.14518 7.19624L5.49935 12.5776H4.16602V14.2145H15.8327ZM10.8327 4.39304V0.300781H9.16602V4.39304H10.8327ZM5.87435 6.41871L7.06185 5.25242L4.10352 2.36737L2.93685 3.51321L5.87435 6.41871ZM4.99935 10.1222V8.4853H0.832684V10.1222H4.99935ZM14.1243 6.41871L17.0618 3.51321L15.8952 2.36737L12.9368 5.25242L14.1243 6.41871ZM19.166 10.1222V8.4853H14.9993V10.1222H19.166Z"
        fill="#FF960A" />
</svg>
