<svg width="22" height="22" viewBox="0 0 22 22" fill="none" xmlns="http://www.w3.org/2000/svg">
    <path
        d="M14.3933 1.03943H14.3932C13.7741 1.03942 13.1701 1.23091 12.664 1.58764C12.158 1.94438 11.7746 2.4489 11.5666 3.03204L11.4481 3.36401H11.0956H1.18489V4.06508L3.58928 5.6851L3.80989 5.83375V6.09976V20.3728V20.8728H3.30989H1.55989C1.53779 20.8728 1.5166 20.8815 1.50097 20.8972C1.48534 20.9128 1.47656 20.934 1.47656 20.9561C1.47656 20.9782 1.48534 20.9994 1.50097 21.015C1.5166 21.0307 1.53779 21.0394 1.55989 21.0394H3.30989H3.80989V21.0482H19.1432V21.0394H19.6432H21.3932C21.4153 21.0394 21.4365 21.0307 21.4522 21.015C21.4678 20.9994 21.4766 20.9782 21.4766 20.9561C21.4766 20.934 21.4678 20.9128 21.4522 20.8972C21.4365 20.8815 21.4153 20.8728 21.3932 20.8728H19.6432H19.1432V20.3728V6.07935V5.83084L19.3413 5.68079L21.4766 4.06334V3.36343H17.6908H17.3384L17.2199 3.03154C17.0118 2.44849 16.6284 1.94408 16.1224 1.58744C15.6163 1.2308 15.0124 1.03939 14.3933 1.03943ZM16.1432 5.12276H15.4766V5.78943V6.28943H14.9766H13.8099H13.3099V5.78943V5.12276H12.6432H12.1432V4.62276V3.4561V2.9561H12.6432H13.3099V2.28943V1.78943H13.8099H14.9766H15.4766V2.28943V2.9561H16.1432H16.6432V3.4561V4.62276V5.12276H16.1432ZM5.14323 11.0394V10.5394H5.64323H10.3099H10.8099V11.0394V20.3728V20.8728H10.3099H5.64323H5.14323V20.3728V11.0394ZM12.7266 11.0394V10.5394H13.2266H17.3099H17.8099V11.0394V15.1228V15.6228H17.3099H13.2266H12.7266V15.1228V11.0394Z"
        stroke="#FF960A" />
</svg>
