<svg width="85" height="85" viewBox="0 0 85 85" fill="none" xmlns="http://www.w3.org/2000/svg">
    <circle cx="42.5" cy="42.5" r="42.5" fill="#FF960A" fill-opacity="0.1" />
    <path fill-rule="evenodd" clip-rule="evenodd"
        d="M13.1491 41.9172C13.1491 58.1519 24.9198 69.2132 38.1411 71.5012C38.5008 71.5636 38.8446 71.6961 39.153 71.8914C39.4615 72.0866 39.7284 72.3406 39.9386 72.639C40.1489 72.9374 40.2983 73.2743 40.3783 73.6304C40.4583 73.9865 40.4675 74.3549 40.4051 74.7146C40.3428 75.0742 40.2102 75.4181 40.015 75.7265C39.8198 76.0349 39.5657 76.3019 39.2673 76.5121C38.969 76.7223 38.6321 76.8717 38.276 76.9518C37.9198 77.0318 37.5514 77.0409 37.1918 76.9786C21.6665 74.2906 7.5918 61.2026 7.5918 41.9172C7.5918 33.7199 11.3198 27.2772 15.6718 22.3812C18.7918 18.8719 22.3598 16.0186 25.2291 13.8372H16.5038C15.7966 13.8372 15.1183 13.5563 14.6182 13.0562C14.1181 12.5561 13.8371 11.8778 13.8371 11.1706C13.8371 10.4633 14.1181 9.78505 14.6182 9.28496C15.1183 8.78486 15.7966 8.50391 16.5038 8.50391H32.5038C33.211 8.50391 33.8893 8.78486 34.3894 9.28496C34.8895 9.78505 35.1705 10.4633 35.1705 11.1706V27.1706C35.1705 27.8778 34.8895 28.5561 34.3894 29.0562C33.8893 29.5563 33.211 29.8372 32.5038 29.8372C31.7966 29.8372 31.1183 29.5563 30.6182 29.0562C30.1181 28.5561 29.8371 27.8778 29.8371 27.1706V17.3252L29.8318 17.3359C26.7811 19.6292 23.0585 22.4399 19.8318 26.0719C16.0185 30.3599 13.1491 35.5492 13.1491 41.9172ZM72.3918 44.0826C72.3918 28.0186 60.8718 17.0266 47.8211 14.5732C47.4574 14.5115 47.1096 14.378 46.798 14.1804C46.4864 13.9829 46.2173 13.7252 46.0063 13.4225C45.7954 13.1199 45.6468 12.7782 45.5693 12.4175C45.4918 12.0568 45.4869 11.6843 45.5549 11.3217C45.6229 10.959 45.7624 10.6136 45.9653 10.3055C46.1682 9.99733 46.4305 9.7327 46.7367 9.52701C47.043 9.32131 47.3872 9.17867 47.7492 9.1074C48.1112 9.03613 48.4837 9.03766 48.8451 9.11191C64.1731 11.9919 77.9491 25.0052 77.9491 44.0826C77.9491 52.2799 74.2211 58.7172 69.8691 63.6186C66.7491 67.1279 63.1811 69.9813 60.3118 72.1626H69.0371C69.7444 72.1626 70.4226 72.4435 70.9227 72.9436C71.4228 73.4437 71.7038 74.122 71.7038 74.8293C71.7038 75.5365 71.4228 76.2148 70.9227 76.7149C70.4226 77.215 69.7444 77.4959 69.0371 77.4959H53.0371C52.3299 77.4959 51.6516 77.215 51.1515 76.7149C50.6514 76.2148 50.3705 75.5365 50.3705 74.8293V58.8293C50.3705 58.122 50.6514 57.4437 51.1515 56.9436C51.6516 56.4435 52.3299 56.1626 53.0371 56.1626C53.7444 56.1626 54.4226 56.4435 54.9227 56.9436C55.4228 57.4437 55.7038 58.122 55.7038 58.8293V68.6692H55.7145C58.7598 66.3652 62.4878 63.5599 65.7091 59.9226C69.5225 55.6399 72.3918 50.4559 72.3918 44.0826Z"
        fill="#FF960A" />
</svg>
