<svg width="20" height="20" viewBox="0 0 20 20" fill="none" xmlns="http://www.w3.org/2000/svg">
    <path
        d="M9.5 19.4498V17.9878C7.41667 17.7931 5.69667 17.0175 4.34 15.6608C2.98334 14.3041 2.207 12.5838 2.011 10.4998H0.550003V9.4998H2.012C2.20667 7.41647 2.98234 5.69647 4.339 4.3398C5.69567 2.98314 7.416 2.2068 9.5 2.0108V0.549805H10.5V2.0118C12.5833 2.20647 14.3033 2.98214 15.66 4.3388C17.0167 5.69547 17.7927 7.4158 17.988 9.4998H19.45V10.4998H17.988C17.7933 12.5831 17.0177 14.3031 15.661 15.6598C14.3043 17.0165 12.584 17.7928 10.5 17.9888V19.4508L9.5 19.4498ZM10 16.9998C11.9333 16.9998 13.5833 16.3165 14.95 14.9498C16.3167 13.5831 17 11.9331 17 9.9998C17 8.06647 16.3167 6.41647 14.95 5.0498C13.5833 3.68314 11.9333 2.9998 10 2.9998C8.06667 2.9998 6.41667 3.68314 5.05 5.0498C3.68334 6.41647 3 8.06647 3 9.9998C3 11.9331 3.68334 13.5831 5.05 14.9498C6.41667 16.3165 8.06667 16.9998 10 16.9998ZM10 12.9998C9.17467 12.9998 8.46834 12.7061 7.881 12.1188C7.29367 11.5315 7 10.8251 7 9.9998C7 9.17447 7.29367 8.46814 7.881 7.8808C8.46834 7.29347 9.17467 6.9998 10 6.9998C10.8253 6.9998 11.5317 7.29347 12.119 7.8808C12.7063 8.46814 13 9.17447 13 9.9998C13 10.8251 12.7063 11.5315 12.119 12.1188C11.5317 12.7061 10.8253 12.9998 10 12.9998ZM10 11.9998C10.55 11.9998 11.021 11.8041 11.413 11.4128C11.805 11.0215 12.0007 10.5505 12 9.9998C12 9.4498 11.804 8.9788 11.412 8.5868C11.02 8.1948 10.5493 7.99914 10 7.9998C9.45 7.9998 8.979 8.1958 8.587 8.5878C8.195 8.9798 7.99934 9.45047 8 9.9998C8 10.5498 8.196 11.0208 8.588 11.4128C8.98 11.8048 9.45067 12.0005 10 11.9998Z"
        fill="#535353" />
</svg>
