<svg width="19" height="22" viewBox="0 0 19 22" fill="none" xmlns="http://www.w3.org/2000/svg">
    <path fill-rule="evenodd" clip-rule="evenodd"
        d="M16.565 5.435L12.065 0.935L11 0.5H2L0.5 2V20L2 21.5H10.031C9.54325 21.0696 9.12839 20.563 8.8025 20H2V2H11L15.5 6.5V11.189C16.0325 11.3255 16.535 11.534 17 11.804V6.5L16.565 5.435ZM8.189 15.5H5V17H8C8 16.4825 8.066 15.98 8.189 15.5ZM5 8H8V5H9.5V8H12.5V9.5H9.5V12.5H8V9.5H5V8Z"
        fill="#18C0B3" />
    <path
        d="M14 12.5C12.8065 12.5 11.6619 12.9741 10.818 13.818C9.97411 14.6619 9.5 15.8065 9.5 17C9.5 18.1935 9.97411 19.3381 10.818 20.182C11.6619 21.0259 12.8065 21.5 14 21.5C15.1935 21.5 16.3381 21.0259 17.182 20.182C18.0259 19.3381 18.5 18.1935 18.5 17C18.5 15.8065 18.0259 14.6619 17.182 13.818C16.3381 12.9741 15.1935 12.5 14 12.5Z"
        fill="#18C0B3" />
</svg>
