<svg width="20" height="20" viewBox="0 0 20 20" fill="none" xmlns="http://www.w3.org/2000/svg">
    <path
        d="M11.8337 4.50016H8.16699C8.16699 4.01393 8.36015 3.54762 8.70396 3.2038C9.04778 2.85998 9.5141 2.66683 10.0003 2.66683C10.4866 2.66683 10.9529 2.85998 11.2967 3.2038C11.6405 3.54762 11.8337 4.01393 11.8337 4.50016ZM13.667 4.50016C13.667 3.5277 13.2807 2.59507 12.5931 1.90744C11.9054 1.2198 10.9728 0.833496 10.0003 0.833496C9.02786 0.833496 8.09523 1.2198 7.4076 1.90744C6.71997 2.59507 6.33366 3.5277 6.33366 4.50016H1.75032C1.50721 4.50016 1.27405 4.59674 1.10214 4.76865C0.930235 4.94056 0.833658 5.17371 0.833658 5.41683C0.833658 5.65994 0.930235 5.8931 1.10214 6.06501C1.27405 6.23692 1.50721 6.3335 1.75032 6.3335H2.55882L3.37099 15.8118C3.44907 16.7271 3.86785 17.5797 4.54446 18.201C5.22108 18.8223 6.10624 19.1669 7.02483 19.1668H12.9758C13.8944 19.1669 14.7796 18.8223 15.4562 18.201C16.1328 17.5797 16.5516 16.7271 16.6297 15.8118L17.4418 6.3335H18.2503C18.4934 6.3335 18.7266 6.23692 18.8985 6.06501C19.0704 5.8931 19.167 5.65994 19.167 5.41683C19.167 5.17371 19.0704 4.94056 18.8985 4.76865C18.7266 4.59674 18.4934 4.50016 18.2503 4.50016H13.667ZM7.25033 10.0002C7.25033 9.75705 7.3469 9.52389 7.51881 9.35198C7.69072 9.18007 7.92388 9.0835 8.16699 9.0835C8.41011 9.0835 8.64326 9.18007 8.81517 9.35198C8.98708 9.52389 9.08366 9.75705 9.08366 10.0002V13.6668C9.08366 13.9099 8.98708 14.1431 8.81517 14.315C8.64326 14.4869 8.41011 14.5835 8.16699 14.5835C7.92388 14.5835 7.69072 14.4869 7.51881 14.315C7.3469 14.1431 7.25033 13.9099 7.25033 13.6668V10.0002ZM11.8337 9.0835C11.5905 9.0835 11.3574 9.18007 11.1855 9.35198C11.0136 9.52389 10.917 9.75705 10.917 10.0002V13.6668C10.917 13.9099 11.0136 14.1431 11.1855 14.315C11.3574 14.4869 11.5905 14.5835 11.8337 14.5835C12.0768 14.5835 12.3099 14.4869 12.4818 14.315C12.6537 14.1431 12.7503 13.9099 12.7503 13.6668V10.0002C12.7503 9.75705 12.6537 9.52389 12.4818 9.35198C12.3099 9.18007 12.0768 9.0835 11.8337 9.0835ZM14.8037 15.656C14.7646 16.1138 14.5551 16.5402 14.2166 16.8509C13.8781 17.1615 13.4353 17.3338 12.9758 17.3335H7.02483C6.56569 17.3333 6.12334 17.1609 5.78522 16.8503C5.44711 16.5396 5.23785 16.1135 5.19882 15.656L4.39949 6.3335H15.6012L14.8037 15.656Z"
        fill="#FF0000" />
</svg>
