<svg width="18" height="18" viewBox="0 0 18 18" fill="none" xmlns="http://www.w3.org/2000/svg">
<path d="M1.53229 5.19038H16.619M3.28562 1.38086H14.7142C15.2194 1.38086 15.7039 1.58154 16.0611 1.93875C16.4183 2.29596 16.619 2.78045 16.619 3.28562V14.7047C16.619 15.2098 16.4183 15.6943 16.0611 16.0515C15.7039 16.4088 15.2194 16.6094 14.7142 16.6094H3.28562C2.78045 16.6094 2.29596 16.4088 1.93875 16.0515C1.58154 15.6943 1.38086 15.2098 1.38086 14.7047V3.28562C1.38086 2.78045 1.58154 2.29596 1.93875 1.93875C2.29596 1.58154 2.78045 1.38086 3.28562 1.38086Z" stroke="#535353" stroke-linecap="round" stroke-linejoin="round"/>
<path fill-rule="evenodd" clip-rule="evenodd" d="M5.49124 11.5284V10.5008H6.32934C6.96553 10.5008 7.39791 10.1246 7.39791 9.5751C7.39791 9.07319 7.00267 8.69224 6.34743 8.69224C5.66839 8.69224 5.25029 9.04081 5.20362 9.64081H3.90458C3.95315 8.40367 4.90553 7.57129 6.41696 7.57129C7.90553 7.57129 8.73315 8.39415 8.72839 9.37605C8.72362 10.1894 8.21219 10.7246 7.49124 10.9008V10.9894C8.42553 11.1237 8.99315 11.7189 8.99315 12.617C8.99315 13.7932 7.88648 14.6265 6.37029 14.6265C4.8541 14.6265 3.82172 13.797 3.76172 12.5275H5.10553C5.14743 13.0951 5.63124 13.458 6.35219 13.458C7.06362 13.458 7.56172 13.0713 7.56172 12.4903C7.56172 11.8951 7.096 11.5284 6.34267 11.5284H5.49124ZM11.8722 14.4541V9.11034H11.7893L10.1427 10.2456V8.93891L11.877 7.74367H13.277V14.4541H11.8722Z" fill="#535353"/>
</svg>
