<svg width="25" height="24" viewBox="0 0 25 24" fill="none" xmlns="http://www.w3.org/2000/svg">
    <path
        d="M12.4258 15.577L15.9638 12.038L15.2568 11.319L12.9258 13.65V5H11.9258V13.65L9.59578 11.32L8.88778 12.038L12.4258 15.577ZM17.8108 19C18.2708 19 18.6548 18.846 18.9628 18.538C19.2714 18.2293 19.4258 17.845 19.4258 17.385V14.962H18.4258V17.385C18.4258 17.5383 18.3618 17.6793 18.2338 17.808C18.1051 17.936 17.9641 18 17.8108 18H7.04078C6.88745 18 6.74645 17.936 6.61778 17.808C6.48978 17.6793 6.42578 17.5383 6.42578 17.385V14.962H5.42578V17.385C5.42578 17.845 5.57978 18.229 5.88778 18.537C6.19645 18.8457 6.58078 19 7.04078 19H17.8108Z"
        fill="#535353" />
</svg>
