<svg width="16" height="16" viewBox="0 0 16 16" fill="none" xmlns="http://www.w3.org/2000/svg">
    <g clip-path="url(#clip0_2014_12954)">
        <path
            d="M2.89375 0.65625C1.89375 0.65625 0.892497 1.40625 0.892497 2.90625L2.89375 6.90625L4.89375 2.90625C4.89375 1.40625 3.89375 0.65625 2.89375 0.65625ZM11.7156 1.875C11.5 1.88406 11.2906 1.925 11.1156 1.9625L11.2344 2.5125C11.4094 2.47344 11.5906 2.44875 11.7437 2.4375L11.7156 1.875ZM2.89375 1.90625C3.44687 1.90625 3.89375 2.35406 3.89375 2.90625C3.89375 3.45937 3.44687 3.90625 2.89375 3.90625C2.34156 3.90625 1.89375 3.45937 1.89375 2.90625C1.89375 2.35406 2.34156 1.90625 2.89375 1.90625ZM12.3375 1.9125L12.2437 2.46563C12.3969 2.49781 12.55 2.53813 12.6844 2.61875L12.9562 2.125C12.7656 2.02344 12.5531 1.93219 12.3375 1.9125ZM10.5406 2.12188C10.35 2.19625 10.1594 2.26281 9.99687 2.32812L10.2187 2.84375C10.3906 2.77063 10.5719 2.70688 10.725 2.65313L10.5406 2.12188ZM13.4687 2.54063L13.0406 2.90625C13.1531 3.035 13.2406 3.19375 13.3094 3.32188L13.8125 3.06875C13.7062 2.86406 13.6125 2.70906 13.4687 2.54063ZM9.475 2.56875C9.28437 2.66594 9.12812 2.7525 8.95937 2.8375L9.23437 3.33125C9.39687 3.2375 9.575 3.14688 9.71875 3.075L9.475 2.56875ZM8.46562 3.12812C8.3 3.225 8.1375 3.32187 7.97812 3.42812L8.28437 3.89687C8.4375 3.79688 8.59687 3.70312 8.75312 3.60938L8.46562 3.12812ZM14.0062 3.6875C13.8219 3.71875 13.6344 3.74063 13.45 3.7625C13.4625 3.91875 13.4531 4.0875 13.4219 4.21875L13.9687 4.34688C14 4.12188 14.0281 3.89062 14.0062 3.6875ZM7.50312 3.74062C7.34687 3.84687 7.19375 3.95625 7.0375 4.0625L7.3625 4.52187C7.5125 4.4125 7.66562 4.30938 7.81875 4.20312L7.50312 3.74062ZM6.57812 4.4C6.42187 4.5125 6.25937 4.6375 6.125 4.74062L6.46562 5.1875C6.6375 5.0625 6.75625 4.96875 6.9125 4.85313L6.57812 4.4ZM13.2344 4.65C13.1406 4.79375 13.0312 4.9375 12.9219 5.04688L13.3312 5.4375C13.4656 5.27812 13.6094 5.11562 13.7094 4.95312L13.2344 4.65ZM5.67812 5.09062C5.525 5.20937 5.37187 5.33125 5.2375 5.44375L5.59375 5.87813C5.74062 5.75625 5.89062 5.63125 6.02812 5.53125L5.67812 5.09062ZM12.5344 5.40625C12.3906 5.52187 12.2406 5.63438 12.1031 5.72813L12.425 6.19063C12.5906 6.07812 12.7531 5.95625 12.8937 5.84375L12.5344 5.40625ZM4.80312 5.80937C4.65625 5.92812 4.51562 6.05313 4.37187 6.175L4.7375 6.60313C4.87812 6.48125 5.01875 6.35938 5.1625 6.24062L4.80312 5.80937ZM11.6437 6.02812C11.4844 6.12187 11.3187 6.21875 11.1687 6.3L11.4375 6.79688C11.6062 6.69375 11.7969 6.60313 11.9375 6.50938L11.6437 6.02812ZM3.94375 6.54688C3.80312 6.67188 3.66562 6.79688 3.525 6.925L3.90312 7.34375C4.04062 7.21875 4.18125 7.09375 4.31875 6.96875L3.94375 6.54688ZM10.6781 6.55937C10.5125 6.64062 10.3469 6.725 10.1812 6.80625L10.4219 7.3125C10.6156 7.21875 10.7594 7.14062 10.9344 7.05937L10.6781 6.55937ZM9.67812 7.04063C9.50625 7.11875 9.34062 7.19375 9.16562 7.26562L9.39375 7.78125C9.56562 7.70625 9.7375 7.62813 9.90937 7.55L9.67812 7.04063ZM3.1125 7.3125C2.95312 7.45312 2.84218 7.5625 2.69687 7.70312L3.09375 8.10938C3.24062 7.96875 3.35937 7.84688 3.49687 7.72813L3.1125 7.3125ZM8.65312 7.49375C8.48125 7.56563 8.30937 7.64062 8.1375 7.7125L8.35625 8.23438C8.53125 8.1625 8.70312 8.0875 8.875 8.0125L8.65312 7.49375ZM7.61875 7.93125C7.44687 8.00625 7.275 8.08125 7.1 8.15L7.31875 8.67188C7.49062 8.6 7.66562 8.525 7.8375 8.45312L7.61875 7.93125ZM13.3937 8.15625C12.3937 8.15625 11.3937 8.90625 11.3937 10.4062L13.3937 14.4062L15.3937 10.4062C15.3937 8.90625 14.3937 8.15625 13.3937 8.15625ZM6.58125 8.36875C6.40312 8.45 6.21562 8.525 6.0625 8.59062L6.28437 9.10938C6.46875 9.03125 6.64375 8.95625 6.8 8.8875L6.58125 8.36875ZM5.54375 8.8125C5.375 8.89062 5.17812 8.97812 5.02812 9.04688L5.25937 9.55937C5.44375 9.47812 5.60625 9.39688 5.76875 9.32812L5.54375 8.8125ZM4.5125 9.28125C4.3375 9.36563 4.15625 9.45312 4 9.53125L4.25312 10.0344C4.42187 9.94688 4.59687 9.86562 4.75 9.79062L4.5125 9.28125ZM13.3937 9.40625C13.9469 9.40625 14.3937 9.85312 14.3937 10.4062C14.3937 10.9594 13.9469 11.4062 13.3937 11.4062C12.8406 11.4062 12.3937 10.9594 12.3937 10.4062C12.3937 9.85312 12.8406 9.40625 13.3937 9.40625ZM3.49375 9.79062C3.32812 9.88125 3.1625 9.975 2.99375 10.0719L3.275 10.5594C3.43437 10.4656 3.59687 10.3781 3.75937 10.2906L3.49375 9.79062ZM2.50312 10.375C2.32781 10.475 2.15843 10.6094 2.0125 10.7063L2.35312 11.1562C2.50843 11.0437 2.67562 10.9281 2.80937 10.8469L2.50312 10.375ZM1.56875 11.0813C1.41875 11.2188 1.27093 11.3781 1.15625 11.5125L1.58437 11.8781C1.70468 11.7312 1.80937 11.6219 1.95 11.4969L1.56875 11.0813ZM8.375 11.1219L8.425 11.6812C8.5875 11.6531 8.75 11.6719 8.9125 11.6969L9.00937 11.1438C8.80312 11.1125 8.58437 11.0906 8.375 11.1219ZM7.2125 11.4344L7.425 11.9563C7.5875 11.8844 7.75625 11.8281 7.92812 11.775C7.86875 11.5969 7.825 11.4156 7.77812 11.2344C7.58125 11.2906 7.38437 11.3656 7.2125 11.4344ZM9.63437 11.4062L9.31562 11.8687C9.44687 11.9656 9.575 12.0687 9.67812 12.1969L10.1031 11.8281C9.94375 11.6656 9.82187 11.5125 9.63437 11.4062ZM6.68125 11.6875C6.50937 11.775 6.34375 11.875 6.17812 11.9719L6.4625 12.4563C6.625 12.3688 6.78437 12.2656 6.94375 12.1812L6.68125 11.6875ZM0.812809 12.0312C0.718434 12.2344 0.641872 12.4531 0.606247 12.6469L1.15937 12.7437C1.19312 12.5656 1.24156 12.4375 1.3125 12.2844C1.14093 12.2094 0.977185 12.1187 0.812809 12.0312ZM5.69062 12.275C5.53125 12.3781 5.375 12.4812 5.21875 12.5875L5.53125 13.0562C5.6875 12.9531 5.84062 12.8469 5.99687 12.7437L5.69062 12.275ZM10.4625 12.3125L9.99062 12.6187C10.0906 12.7687 10.1875 12.925 10.2781 13.0844L10.7656 12.8031C10.6562 12.6281 10.5781 12.4719 10.4625 12.3125ZM4.75312 12.9062C4.59687 13.0094 4.44062 13.1094 4.2875 13.2188L4.6 13.6875C4.75 13.5781 4.90937 13.475 5.06875 13.3687L4.75312 12.9062ZM1.16562 13.2031C0.984684 13.2406 0.802185 13.2719 0.620309 13.3062C0.653122 13.525 0.740934 13.7375 0.820309 13.9062L1.32812 13.6625C1.26031 13.5063 1.19593 13.3438 1.16562 13.2031ZM11.0437 13.2906L10.5562 13.5719C10.6531 13.7406 10.7656 13.9219 10.8562 14.0656L11.3281 13.7625C11.2219 13.5969 11.1312 13.4406 11.0437 13.2906ZM3.825 13.525C3.66875 13.6219 3.51562 13.7156 3.35312 13.8062L3.63125 14.2969C3.79687 14.2 3.9625 14.1031 4.12187 14L3.825 13.525ZM1.59687 14.0344L1.2125 14.4469C1.38625 14.6125 1.60062 14.7219 1.83437 14.7719L1.95937 14.225C1.82062 14.1969 1.69093 14.1281 1.59687 14.0344ZM2.87812 14.0437C2.72156 14.1156 2.55906 14.1719 2.39062 14.2063L2.51875 14.7563C2.71937 14.7156 2.90812 14.6406 3.09687 14.5625L2.87812 14.0437ZM11.6375 14.1938L11.2031 14.5469C11.3375 14.7125 11.5031 14.8719 11.6469 14.9844L11.9937 14.5406C11.8562 14.4344 11.7375 14.3063 11.6375 14.1938ZM12.3906 14.7406L12.25 15.2875C12.4969 15.3375 12.6812 15.3531 12.9125 15.3281L12.8437 14.7688C12.6906 14.7937 12.5406 14.7781 12.3906 14.7406Z"
            fill="#A0A0A0" />
    </g>
    <defs>
        <clipPath id="clip0_2014_12954">
            <rect width="16" height="16" fill="white" />
        </clipPath>
    </defs>
</svg>
