<svg width="24" height="24" viewBox="0 0 24 24" fill="none" xmlns="http://www.w3.org/2000/svg">
    <path
        d="M11.6445 3.09047C8.14453 1.18763 1.14453 -0.5647 1.14453 7.6568C1.14453 14.0641 2.53053 19.0388 4.65036 21.8213C5.40286 22.8095 7.2357 22.5026 8.0197 21.5121C8.10649 21.3957 8.17495 21.2666 8.2227 21.1295L9.46286 17.8628C10.2259 15.8561 13.0632 15.8561 13.8262 17.8628L15.0664 21.1295C15.1189 21.2648 15.1795 21.3978 15.2694 21.5121C16.0534 22.5038 17.8862 22.8095 18.6387 21.8213C20.7585 19.0388 22.1445 14.0653 22.1445 7.6568C22.1445 -0.563533 15.1445 1.18763 11.6445 3.09047ZM11.6445 3.09047L15.1445 5.0003"
        stroke="#FF960A" stroke-width="2" stroke-linecap="round" stroke-linejoin="round" />
</svg>
