<svg width="18" height="18" viewBox="0 0 18 18" fill="none" xmlns="http://www.w3.org/2000/svg">
<path d="M17.3334 4.182L13.5001 0.965332L12.4251 2.24033L16.2584 5.457L17.3334 4.182ZM5.56675 2.24033L4.50008 0.965332L0.666748 4.17367L1.74175 5.44867L5.56675 2.24033ZM9.41675 6.082H8.16675V11.082L12.1251 13.457L12.7501 12.432L9.41675 10.457V6.082ZM9.00008 2.74867C4.85842 2.74867 1.50008 6.107 1.50008 10.2487C1.50008 14.3903 4.85008 17.7487 9.00008 17.7487C10.9892 17.7487 12.8969 16.9585 14.3034 15.552C15.7099 14.1454 16.5001 12.2378 16.5001 10.2487C16.5001 8.25954 15.7099 6.35189 14.3034 4.94536C12.8969 3.53884 10.9892 2.74867 9.00008 2.74867ZM9.00008 16.082C5.77508 16.082 3.16675 13.4737 3.16675 10.2487C3.16675 7.02367 5.77508 4.41533 9.00008 4.41533C12.2251 4.41533 14.8334 7.02367 14.8334 10.2487C14.8334 13.4737 12.2251 16.082 9.00008 16.082Z" fill="#A0A0A0"/>
</svg>
