<svg width="18" height="17" viewBox="0 0 18 17" fill="none" xmlns="http://www.w3.org/2000/svg">
    <path
        d="M8.70492 5.99968L12.0382 9.33301L5.37158 9.33301L8.70492 5.99968ZM8.70492 0.166343C7.55214 0.166342 6.46881 0.385232 5.45492 0.823008C4.44103 1.26079 3.55908 1.8544 2.80908 2.60384C2.05908 3.35384 1.46547 4.23579 1.02825 5.24967C0.591027 6.26356 0.372138 7.3469 0.371583 8.49967C0.371583 9.65245 0.590472 10.7358 1.02825 11.7497C1.46603 12.7636 2.05964 13.6455 2.80908 14.3955C3.55908 15.1455 4.44103 15.7391 5.45492 16.1763C6.4688 16.6136 7.55214 16.8325 8.70492 16.833C9.85769 16.833 10.941 16.6141 11.9549 16.1763C12.9688 15.7386 13.8507 15.145 14.6007 14.3955C15.3507 13.6455 15.9446 12.7636 16.3824 11.7497C16.8202 10.7358 17.0388 9.65245 17.0382 8.49968C17.0382 7.3469 16.8194 6.26357 16.3816 5.24968C15.9438 4.23579 15.3502 3.35384 14.6008 2.60384C13.8508 1.85384 12.9688 1.25995 11.9549 0.822177C10.941 0.384398 9.85769 0.165788 8.70492 0.166343ZM8.70492 1.83301C10.566 1.83301 12.1424 2.47884 13.4341 3.77051C14.7257 5.06218 15.3716 6.63856 15.3716 8.49968C15.3716 10.3608 14.7257 11.9372 13.4341 13.2288C12.1424 14.5205 10.566 15.1663 8.70492 15.1663C6.8438 15.1663 5.26742 14.5205 3.97575 13.2288C2.68408 11.9372 2.03825 10.3608 2.03825 8.49967C2.03825 6.63856 2.68408 5.06218 3.97575 3.77051C5.26742 2.47884 6.84381 1.83301 8.70492 1.83301Z"
        fill="#1CC9BC" />
</svg>
