<?xml version="1.0" encoding="UTF-8"?>
<svg xmlns="http://www.w3.org/2000/svg" xmlns:xlink="http://www.w3.org/1999/xlink" width="512pt"
    height="512pt" viewBox="0 0 512 512" version="1.1">
    <g id="surface1">
        <path style=" stroke:none;fill-rule:nonzero;fill:#A0A0A0;fill-opacity:1;"
            d="M 259 64 C 141.1875 62.25 46.625 167.75 66.5 288.5 C 80 370.4375 147.25 434.875 229.5 446 C 284.9375 453.5 336.75 437.5 376 406 L 356 381 C 323.25 407.25 280.1875 420.8125 233.5 414.5 C 165.4375 405.3125 109.625 351.25 98.5 283.5 C 81.75 181.5625 159.875 94.5625 258.5 96 C 342.5625 97.25 413.4375 166.9375 416 251 C 416.0625 252.8125 416 254.5625 416 256.5 C 415.875 291.75 387.3125 320 352 320 C 334.125 320 320 305.875 320 288 L 320 160 L 288 160 L 288 172.5 C 276.5 164.6875 262.8125 160 248 160 C 208.4375 160 176 192.4375 176 232 L 176 280 C 176 319.5625 208.4375 352 248 352 C 269.5625 352 288.75 342.1875 302 327 C 313.75 341.9375 331.6875 352 352 352 C 404.5625 352 447.8125 309.125 448 256.5 C 448 254.375 448.0625 252.3125 448 250 C 444.9375 148.625 360.375 65.5 259 64 Z M 248 192 C 270.25 192 288 209.75 288 232 L 288 280 C 288 302.25 270.25 320 248 320 C 225.75 320 208 302.25 208 280 L 208 232 C 208 209.75 225.75 192 248 192 Z " />
    </g>
</svg>
