<svg width="17" height="17" viewBox="0 0 17 17" fill="none" xmlns="http://www.w3.org/2000/svg">
    <path
        d="M3.99995 4.81836H3.18177C2.74778 4.81836 2.33157 4.99076 2.02469 5.29764C1.71781 5.60451 1.54541 6.02073 1.54541 6.45472V13.8183C1.54541 14.2523 1.71781 14.6685 2.02469 14.9754C2.33157 15.2823 2.74778 15.4547 3.18177 15.4547H10.5454C10.9794 15.4547 11.3956 15.2823 11.7025 14.9754C12.0093 14.6685 12.1817 14.2523 12.1817 13.8183V13.0002"
        stroke="#A0A0A0" stroke-width="1.63636" stroke-linecap="round" stroke-linejoin="round" />
    <path
        d="M11.3635 3.18137L13.818 5.6359M14.9512 4.47818C15.2734 4.15594 15.4545 3.7189 15.4545 3.26319C15.4545 2.80747 15.2734 2.37043 14.9512 2.04819C14.629 1.72595 14.1919 1.54492 13.7362 1.54492C13.2805 1.54492 12.8434 1.72595 12.5212 2.04819L5.63623 8.90862V11.3632H8.09077L14.9512 4.47818Z"
        stroke="#A0A0A0" stroke-width="1.63636" stroke-linecap="round" stroke-linejoin="round" />
</svg>
