<svg width="26" height="39" viewBox="0 0 26 39" fill="none" xmlns="http://www.w3.org/2000/svg">
    <path
        d="M25.375 12.375C25.375 5.535 19.84 0 13 0C6.16 0 0.625 5.535 0.625 12.375C0.625 18.45 4.99 23.4675 10.75 24.525V29.25H6.25V33.75H10.75V38.25H15.25V33.75H19.75V29.25H15.25V24.525C21.01 23.4675 25.375 18.45 25.375 12.375ZM5.125 12.375C5.125 8.0325 8.6575 4.5 13 4.5C17.3425 4.5 20.875 8.0325 20.875 12.375C20.875 16.7175 17.3425 20.25 13 20.25C8.6575 20.25 5.125 16.7175 5.125 12.375Z"
        fill="white" />
</svg>
