<svg width="20" height="17" viewBox="0 0 20 17" fill="none" xmlns="http://www.w3.org/2000/svg">
    <path
        d="M5.68629 14.0335C5.71488 15.0967 5.82176 15.3648 7.15191 15.4603V16.2702H2.40836V15.4603C3.73852 15.3648 3.88461 15.0967 3.9132 14.0335L3.91234 7.41982C1.69578 7.34482 1.33031 7.81435 0.994766 9.3406H0C0.192813 8.46658 0.38375 7.6324 0.38375 6.43463H9.21484C9.21484 7.63244 9.31129 8.46658 9.5041 9.3406H8.5293C8.19375 7.81435 7.90281 7.34482 5.68625 7.41979L5.68629 14.0335ZM14.9654 13.8322C14.998 14.684 15.4036 15.2219 16.9187 15.2984V16.2702H11.029V15.2983C12.5441 15.2218 12.9133 14.684 12.9458 13.8321L12.9448 1.86791C10.0935 1.80002 9.30961 2.12436 9.06695 4.0558H7.91031C8.15801 3.06021 8.11969 1.92533 8.11969 0.561035H19.6284C19.6284 1.92537 19.7523 3.06025 20 4.05576H18.7477C18.3165 2.31732 17.4902 1.78248 14.9654 1.86787V13.8322Z"
        fill="#A0A0A0" />
</svg>
