<svg width="27" height="22" viewBox="0 0 27 22" fill="none" xmlns="http://www.w3.org/2000/svg">
    <path
        d="M1.81104 19.1679V19.1667V13.3333C1.81104 12.9592 1.93267 12.6634 2.20414 12.3919L1.50368 11.6915L2.20414 12.3919C2.47558 12.1205 2.77063 11.9995 3.14316 12L4.14437 12.0012V11V6.0125V5.45167L3.66582 5.15922C3.44449 5.02396 3.27486 4.85574 3.1449 4.64923L2.29854 5.18184L3.1449 4.64923C3.04272 4.48685 2.9777 4.282 2.9777 4V2.83334C2.9777 2.45925 3.09934 2.16342 3.37081 1.89194C3.64225 1.6205 3.9373 1.49955 4.30982 1.5H4.31104H10.1444C10.5185 1.5 10.8143 1.62164 11.0858 1.89311C11.3572 2.16455 11.4782 2.4596 11.4777 2.83212V2.83334V4C11.4777 4.28086 11.4129 4.48541 11.3105 4.64806C11.1801 4.85526 11.0096 5.02495 10.7868 5.16208L10.311 5.45495V6.01367V11V12H11.311H15.9777H16.9777V11V6.0125V5.45167L16.4992 5.15922C16.2778 5.02396 16.1082 4.85574 15.9782 4.64923C15.8761 4.48685 15.811 4.282 15.811 4V2.83334C15.811 2.45925 15.9327 2.16342 16.2041 1.89194C16.4756 1.6205 16.7706 1.49955 17.1432 1.5H17.1444H22.9777C23.3518 1.5 23.6476 1.62164 23.9191 1.89311L24.6217 1.19051L23.9191 1.89311C24.1905 2.16455 24.3115 2.4596 24.311 2.83212V2.83334V4C24.311 4.28086 24.2462 4.48541 24.1438 4.64806C24.0135 4.85525 23.8429 5.02495 23.6202 5.16208L23.1444 5.45496V6.01367V11V12H24.1444C24.5185 12 24.8143 12.1216 25.0858 12.3931C25.3572 12.6645 25.4782 12.9596 25.4777 13.3321V13.3333V19.1667C25.4777 19.5408 25.3561 19.8366 25.0846 20.1081C24.8132 20.3795 24.5181 20.5005 24.1456 20.5H24.1444H3.14437C2.77028 20.5 2.47445 20.3784 2.20298 20.1069C1.93154 19.8355 1.81058 19.5404 1.81104 19.1679ZM17.311 12H18.311H21.811H22.811V11V6.33334V5.33334H21.811H18.311H17.311V6.33334V11V12ZM4.4777 12H5.4777H8.97771H9.97771V11V6.33334V5.33334H8.97771H5.4777H4.4777V6.33334V11V12Z"
        stroke="#FF960A" stroke-width="2" />
</svg>
