<svg width="20" height="17" viewBox="0 0 20 17" fill="none" xmlns="http://www.w3.org/2000/svg">
    <path
        d="M13.3073 13.418C12.1337 14.2821 10.9588 14.9126 10.0352 15.2205C7.12822 14.2513 1.72949 10.0846 1.72949 5.5013C1.72949 2.97005 3.77478 0.917969 6.29764 0.917969C7.84251 0.917969 9.2088 1.68755 10.0352 2.86547C10.4565 2.26355 11.0162 1.77231 11.6667 1.43331C12.3173 1.09432 13.0397 0.917554 13.7728 0.917969C16.2957 0.917969 18.341 2.97005 18.341 5.5013C18.341 6.22922 18.2047 6.9463 17.9643 7.64172"
        stroke="#A0A0A0" stroke-width="1.6" stroke-linecap="round" stroke-linejoin="round" />
    <path d="M11.2812 10.0846H12.9424L14.1883 8.41797L15.4341 11.7513L16.6642 10.0846H18.3411"
        stroke="#A0A0A0" stroke-width="1.6" stroke-linecap="round" stroke-linejoin="round" />
</svg>
