<svg width="26" height="25" viewBox="0 0 26 25" fill="none" xmlns="http://www.w3.org/2000/svg">
    <path fill-rule="evenodd" clip-rule="evenodd"
        d="M14.0029 0.372253H11.6696C9.46926 0.372253 8.37026 0.372253 7.6866 1.05592C7.00293 1.73959 7.00293 2.83859 7.00293 5.03892V22.8306H1.16959C0.937531 22.8306 0.71497 22.9228 0.550875 23.0869C0.386782 23.251 0.294594 23.4735 0.294594 23.7056C0.294594 23.9377 0.386782 24.1602 0.550875 24.3243C0.71497 24.4884 0.937531 24.5806 1.16959 24.5806H24.5029C24.735 24.5806 24.9576 24.4884 25.1216 24.3243C25.2857 24.1602 25.3779 23.9377 25.3779 23.7056C25.3779 23.4735 25.2857 23.251 25.1216 23.0869C24.9576 22.9228 24.735 22.8306 24.5029 22.8306H18.6696V5.03892C18.6696 2.83859 18.6696 1.73959 17.9859 1.05592C17.3023 0.372253 16.2033 0.372253 14.0029 0.372253ZM12.8363 2.99725C12.6042 2.99725 12.3816 3.08944 12.2175 3.25354C12.0534 3.41763 11.9613 3.64019 11.9613 3.87225V5.33059H10.5029C10.2709 5.33059 10.0483 5.42277 9.88421 5.58687C9.72012 5.75096 9.62793 5.97352 9.62793 6.20559C9.62793 6.43765 9.72012 6.66021 9.88421 6.82431C10.0483 6.9884 10.2709 7.08059 10.5029 7.08059H11.9613V8.53892C11.9613 8.77099 12.0534 8.99355 12.2175 9.15764C12.3816 9.32173 12.6042 9.41392 12.8363 9.41392C13.0683 9.41392 13.2909 9.32173 13.455 9.15764C13.6191 8.99355 13.7113 8.77099 13.7113 8.53892V7.08059H15.1696C15.4017 7.08059 15.6242 6.9884 15.7883 6.82431C15.9524 6.66021 16.0446 6.43765 16.0446 6.20559C16.0446 5.97352 15.9524 5.75096 15.7883 5.58687C15.6242 5.42277 15.4017 5.33059 15.1696 5.33059H13.7113V3.87225C13.7113 3.64019 13.6191 3.41763 13.455 3.25354C13.2909 3.08944 13.0683 2.99725 12.8363 2.99725ZM16.0446 12.0389C16.0446 11.8069 15.9524 11.5843 15.7883 11.4202C15.6242 11.2561 15.4017 11.1639 15.1696 11.1639H10.5029C10.2709 11.1639 10.0483 11.2561 9.88421 11.4202C9.72012 11.5843 9.62793 11.8069 9.62793 12.0389C9.62793 12.271 9.72012 12.4935 9.88421 12.6576C10.0483 12.8217 10.2709 12.9139 10.5029 12.9139H15.1696C15.4017 12.9139 15.6242 12.8217 15.7883 12.6576C15.9524 12.4935 16.0446 12.271 16.0446 12.0389ZM16.0446 15.5389C16.0446 15.3069 15.9524 15.0843 15.7883 14.9202C15.6242 14.7561 15.4017 14.6639 15.1696 14.6639H10.5029C10.2709 14.6639 10.0483 14.7561 9.88421 14.9202C9.72012 15.0843 9.62793 15.3069 9.62793 15.5389C9.62793 15.771 9.72012 15.9935 9.88421 16.1576C10.0483 16.3217 10.2709 16.4139 10.5029 16.4139H15.1696C15.4017 16.4139 15.6242 16.3217 15.7883 16.1576C15.9524 15.9935 16.0446 15.771 16.0446 15.5389ZM12.8363 19.3306C12.6042 19.3306 12.3816 19.4228 12.2175 19.5869C12.0534 19.751 11.9613 19.9735 11.9613 20.2056V22.8306H13.7113V20.2056C13.7113 19.9735 13.6191 19.751 13.455 19.5869C13.2909 19.4228 13.0683 19.3306 12.8363 19.3306Z"
        fill="#FF960A" />
    <path opacity="0.5"
        d="M2.1461 4.90954C1.75293 5.49754 1.75293 6.31654 1.75293 7.95571V22.8307H1.16959C0.937531 22.8307 0.71497 22.9229 0.550875 23.087C0.386782 23.2511 0.294594 23.4736 0.294594 23.7057C0.294594 23.9378 0.386782 24.1603 0.550875 24.3244C0.71497 24.4885 0.937531 24.5807 1.16959 24.5807H24.5029C24.735 24.5807 24.9576 24.4885 25.1216 24.3244C25.2857 24.1603 25.3779 23.9378 25.3779 23.7057C25.3779 23.4736 25.2857 23.2511 25.1216 23.087C24.9576 22.9229 24.735 22.8307 24.5029 22.8307H23.9196V7.95571C23.9196 6.31654 23.9196 5.49754 23.5264 4.90954C23.3561 4.65466 23.1373 4.43582 22.8824 4.26554C22.3679 3.92138 19.9226 3.87821 18.6614 3.87354C18.6661 4.21304 18.6661 4.56771 18.6661 4.93521V6.49738H21.5863C21.8183 6.49738 22.0409 6.58956 22.205 6.75366C22.3691 6.91775 22.4613 7.14031 22.4613 7.37238C22.4613 7.60444 22.3691 7.827 22.205 7.99109C22.0409 8.15519 21.8183 8.24738 21.5863 8.24738H18.6661V9.99738H21.5863C21.8183 9.99738 22.0409 10.0896 22.205 10.2537C22.3691 10.4178 22.4613 10.6403 22.4613 10.8724C22.4613 11.1044 22.3691 11.327 22.205 11.4911C22.0409 11.6552 21.8183 11.7474 21.5863 11.7474H18.6661V13.4974H21.5863C21.8183 13.4974 22.0409 13.5896 22.205 13.7537C22.3691 13.9178 22.4613 14.1403 22.4613 14.3724C22.4613 14.6044 22.3691 14.827 22.205 14.9911C22.0409 15.1552 21.8183 15.2474 21.5863 15.2474H18.6661V22.8307H6.99943V15.2474H4.08626C3.8542 15.2474 3.63164 15.1552 3.46754 14.9911C3.30345 14.827 3.21126 14.6044 3.21126 14.3724C3.21126 14.1403 3.30345 13.9178 3.46754 13.7537C3.63164 13.5896 3.8542 13.4974 4.08626 13.4974H6.99943V11.7474H4.08626C3.8542 11.7474 3.63164 11.6552 3.46754 11.4911C3.30345 11.327 3.21126 11.1044 3.21126 10.8724C3.21126 10.6403 3.30345 10.4178 3.46754 10.2537C3.63164 10.0896 3.8542 9.99738 4.08626 9.99738H6.99943V8.24738H4.08626C3.8542 8.24738 3.63164 8.15519 3.46754 7.99109C3.30345 7.827 3.21126 7.60444 3.21126 7.37238C3.21126 7.14031 3.30345 6.91775 3.46754 6.75366C3.63164 6.58956 3.8542 6.49738 4.08626 6.49738H6.99943V4.93404C6.99943 4.56771 6.99943 4.21304 7.0041 3.87238C5.74293 3.87821 3.30576 3.92138 2.79009 4.26554C2.53521 4.43582 2.31638 4.65466 2.1461 4.90954Z"
        fill="#FF960A" />
</svg>
