<svg width="20" height="20" viewBox="0 0 20 20" fill="none" xmlns="http://www.w3.org/2000/svg">
    <path fill-rule="evenodd" clip-rule="evenodd"
        d="M6.70699 4.62664C6.56114 4.48068 6.38797 4.36488 6.19737 4.28585C6.00677 4.20681 5.80246 4.16609 5.59612 4.16602C5.38978 4.16594 5.18545 4.2065 4.99479 4.28539C4.80412 4.36429 4.63087 4.47996 4.48491 4.62581L4.19158 4.91914C3.90794 4.83838 3.60782 4.83525 3.32256 4.91008C3.03731 4.98491 2.77737 5.13496 2.56991 5.34456C2.25836 5.65927 2.0836 6.08422 2.0836 6.52706C2.0836 6.9699 2.25836 7.39484 2.56991 7.70956L2.91699 8.05914V12.4996H1.66699V13.3329H2.52116C2.31423 13.5356 2.17238 13.7954 2.11369 14.0791C2.055 14.3628 2.08213 14.6575 2.19163 14.9258C2.30113 15.194 2.48802 15.4235 2.72849 15.585C2.96895 15.7466 3.25209 15.8329 3.54178 15.8329C3.83148 15.8329 4.11462 15.7466 4.35508 15.585C4.59554 15.4235 4.78244 15.194 4.89194 14.9258C5.00143 14.6575 5.02857 14.3628 4.96988 14.0791C4.91119 13.7954 4.76934 13.5356 4.56241 13.3329H15.4382C15.2313 13.5356 15.0895 13.7954 15.0308 14.0791C14.9721 14.3628 14.9992 14.6575 15.1087 14.9258C15.2182 15.194 15.4051 15.4235 15.6456 15.585C15.886 15.7466 16.1692 15.8329 16.4589 15.8329C16.7486 15.8329 17.0317 15.7466 17.2722 15.585C17.5126 15.4235 17.6995 15.194 17.809 14.9258C17.9185 14.6575 17.9457 14.3628 17.887 14.0791C17.8283 13.7954 17.6864 13.5356 17.4795 13.3329H18.3337V12.4996H16.667V11.2025C17.0248 11.1129 17.3423 10.9061 17.5689 10.6151C17.7954 10.324 17.918 9.96548 17.917 9.59664C17.917 8.68414 17.1832 7.94372 16.2778 7.94372H7.54616C7.52929 7.94377 7.51259 7.94048 7.497 7.93404C7.48141 7.92761 7.46725 7.91815 7.45533 7.90622L7.30282 7.75206L7.45658 7.59914C7.60256 7.45329 7.71837 7.28011 7.7974 7.08949C7.87643 6.89887 7.91713 6.69454 7.91717 6.48819C7.9172 6.28183 7.87658 6.07749 7.79763 5.88684C7.71867 5.69619 7.60292 5.52296 7.45699 5.37706L6.70699 4.62664ZM6.71532 7.16122L6.86741 7.00956C6.93595 6.94107 6.99031 6.85974 7.02741 6.77023C7.0645 6.68072 7.08359 6.58478 7.08359 6.48789C7.08359 6.391 7.0645 6.29506 7.02741 6.20555C6.99031 6.11604 6.93595 6.03471 6.86741 5.96622L6.11741 5.21622C5.97914 5.0778 5.79156 4.99995 5.59591 4.9998C5.40027 4.99964 5.21256 5.07719 5.07408 5.21539L4.92824 5.36122L6.71532 7.16122ZM17.0837 9.59664C17.0837 9.13748 16.7162 8.77706 16.2778 8.77706H7.54616C7.41947 8.77708 7.29403 8.75206 7.17704 8.70344C7.06006 8.65481 6.95384 8.58354 6.86449 8.49372L4.32033 5.93206C4.24461 5.85524 4.15439 5.79423 4.05489 5.75259C3.95539 5.71095 3.8486 5.68951 3.74074 5.68951C3.63288 5.68951 3.5261 5.71095 3.4266 5.75259C3.3271 5.79423 3.23687 5.85524 3.16116 5.93206C3.00469 6.09065 2.91697 6.30448 2.91697 6.52727C2.91697 6.75005 3.00469 6.96388 3.16116 7.12247L6.43283 10.4162H16.2778C16.717 10.4162 17.0837 10.0558 17.0837 9.59664ZM5.94824 11.1108C6.03658 11.1996 6.15574 11.2496 6.28033 11.2496H15.8337V12.4996H3.75033V8.89789L5.94824 11.1108ZM4.16699 14.3746C4.16699 14.5403 4.10114 14.6993 3.98393 14.8165C3.86672 14.9337 3.70775 14.9996 3.54199 14.9996C3.37623 14.9996 3.21726 14.9337 3.10005 14.8165C2.98284 14.6993 2.91699 14.5403 2.91699 14.3746C2.91699 14.2088 2.98284 14.0498 3.10005 13.9326C3.21726 13.8154 3.37623 13.7496 3.54199 13.7496C3.70775 13.7496 3.86672 13.8154 3.98393 13.9326C4.10114 14.0498 4.16699 14.2088 4.16699 14.3746ZM16.4587 14.9996C16.6244 14.9996 16.7834 14.9337 16.9006 14.8165C17.0178 14.6993 17.0837 14.5403 17.0837 14.3746C17.0837 14.2088 17.0178 14.0498 16.9006 13.9326C16.7834 13.8154 16.6244 13.7496 16.4587 13.7496C16.2929 13.7496 16.1339 13.8154 16.0167 13.9326C15.8995 14.0498 15.8337 14.2088 15.8337 14.3746C15.8337 14.5403 15.8995 14.6993 16.0167 14.8165C16.1339 14.9337 16.2929 14.9996 16.4587 14.9996Z"
        fill="#FF960A" />
</svg>
