<svg width="15" height="15" viewBox="0 0 15 15" fill="none" xmlns="http://www.w3.org/2000/svg">
    <path
        d="M6.771 3.85408H8.22933V5.31242H6.771V3.85408ZM6.771 6.77075H8.22933V11.1458H6.771V6.77075ZM7.50016 0.208252C3.47516 0.208252 0.208496 3.47492 0.208496 7.49992C0.208496 11.5249 3.47516 14.7916 7.50016 14.7916C11.5252 14.7916 14.7918 11.5249 14.7918 7.49992C14.7918 3.47492 11.5252 0.208252 7.50016 0.208252ZM7.50016 13.3333C4.28454 13.3333 1.66683 10.7155 1.66683 7.49992C1.66683 4.28429 4.28454 1.66659 7.50016 1.66659C10.7158 1.66659 13.3335 4.28429 13.3335 7.49992C13.3335 10.7155 10.7158 13.3333 7.50016 13.3333Z"
        fill="#18C0B3" />
</svg>
