<svg width="23" height="20" viewBox="0 0 23 20" fill="none" xmlns="http://www.w3.org/2000/svg">
    <path
        d="M20.7143 0H2.14286C0.959375 0 0 0.959375 0 2.14286V17.8571C0 19.0406 0.959375 20 2.14286 20H20.7143C21.8978 20 22.8571 19.0406 22.8571 17.8571V2.14286C22.8571 0.959375 21.8978 0 20.7143 0ZM20.4464 17.8571H2.41071C2.33967 17.8571 2.27154 17.8289 2.22131 17.7787C2.17108 17.7285 2.14286 17.6603 2.14286 17.5893V2.41071C2.14286 2.33967 2.17108 2.27154 2.22131 2.22131C2.27154 2.17108 2.33967 2.14286 2.41071 2.14286H20.4464C20.5175 2.14286 20.5856 2.17108 20.6358 2.22131C20.6861 2.27154 20.7143 2.33967 20.7143 2.41071V17.5893C20.7143 17.6603 20.6861 17.7285 20.6358 17.7787C20.5856 17.8289 20.5175 17.8571 20.4464 17.8571ZM18.5714 13.75V14.8214C18.5714 15.1173 18.3316 15.3571 18.0357 15.3571H9.10714C8.81129 15.3571 8.57143 15.1173 8.57143 14.8214V13.75C8.57143 13.4542 8.81129 13.2143 9.10714 13.2143H18.0357C18.3316 13.2143 18.5714 13.4542 18.5714 13.75ZM18.5714 9.46429V10.5357C18.5714 10.8316 18.3316 11.0714 18.0357 11.0714H9.10714C8.81129 11.0714 8.57143 10.8316 8.57143 10.5357V9.46429C8.57143 9.16844 8.81129 8.92857 9.10714 8.92857H18.0357C18.3316 8.92857 18.5714 9.16844 18.5714 9.46429ZM18.5714 5.17857V6.25C18.5714 6.54585 18.3316 6.78571 18.0357 6.78571H9.10714C8.81129 6.78571 8.57143 6.54585 8.57143 6.25V5.17857C8.57143 4.88272 8.81129 4.64286 9.10714 4.64286H18.0357C18.3316 4.64286 18.5714 4.88272 18.5714 5.17857ZM7.32143 5.71429C7.32143 6.60188 6.60188 7.32143 5.71429 7.32143C4.8267 7.32143 4.10714 6.60188 4.10714 5.71429C4.10714 4.8267 4.8267 4.10714 5.71429 4.10714C6.60188 4.10714 7.32143 4.8267 7.32143 5.71429ZM7.32143 10C7.32143 10.8876 6.60188 11.6071 5.71429 11.6071C4.8267 11.6071 4.10714 10.8876 4.10714 10C4.10714 9.11241 4.8267 8.39286 5.71429 8.39286C6.60188 8.39286 7.32143 9.11241 7.32143 10ZM7.32143 14.2857C7.32143 15.1733 6.60188 15.8929 5.71429 15.8929C4.8267 15.8929 4.10714 15.1733 4.10714 14.2857C4.10714 13.3981 4.8267 12.6786 5.71429 12.6786C6.60188 12.6786 7.32143 13.3981 7.32143 14.2857Z"
        fill="white" />
</svg>
