<svg width="12" height="14" viewBox="0 0 12 14" fill="none" xmlns="http://www.w3.org/2000/svg">
    <path
        d="M6.37343 12.88C6.26447 12.9578 6.13396 12.9996 6.0001 12.9996C5.86624 12.9996 5.73572 12.9578 5.62676 12.88C2.40743 10.5853 -1.00924 5.86534 2.44476 2.45467C3.39267 1.52141 4.66988 0.998843 6.0001 1C7.33343 1 8.61276 1.52334 9.55543 2.454C13.0094 5.86467 9.59276 10.584 6.37343 12.88Z"
        stroke="#A0A0A0" stroke-linecap="round" stroke-linejoin="round" />
    <path
        d="M6.00008 6.99967C6.3537 6.99967 6.69284 6.8592 6.94289 6.60915C7.19294 6.3591 7.33341 6.01996 7.33341 5.66634C7.33341 5.31272 7.19294 4.97358 6.94289 4.72353C6.69284 4.47348 6.3537 4.33301 6.00008 4.33301C5.64646 4.33301 5.30732 4.47348 5.05727 4.72353C4.80722 4.97358 4.66675 5.31272 4.66675 5.66634C4.66675 6.01996 4.80722 6.3591 5.05727 6.60915C5.30732 6.8592 5.64646 6.99967 6.00008 6.99967Z"
        stroke="#A0A0A0" stroke-linecap="round" stroke-linejoin="round" />
</svg>
