<svg width="22" height="21" viewBox="0 0 22 21" fill="none" xmlns="http://www.w3.org/2000/svg">
<g clip-path="url(#clip0_9832_65609)">
<path d="M15.0472 18.8244C14.6256 18.9076 14.1731 18.9789 13.693 19.0365L15.0472 18.8244Z" stroke="white" stroke-width="3"/>
<mask id="path-2-inside-1_9832_65609" fill="white">
<path d="M10.7759 0C7.26309 0 4.38086 2.76072 4.38086 6.12811C4.38086 7.42265 4.80908 8.62856 5.53212 9.62016L9.67724 16.5049L9.69491 16.527C9.85848 16.7322 10.0182 16.8941 10.2057 17.0132C10.3932 17.1325 10.6259 17.2037 10.8544 17.1817C11.3108 17.1378 11.5903 16.8281 11.8556 16.4827L11.8698 16.4649L16.446 8.98159L16.4486 8.97683C16.5559 8.79048 16.6352 8.60081 16.7024 8.41611C17.0111 7.68976 17.1699 6.91269 17.1701 6.12811C17.1701 2.76072 14.2887 0 10.7759 0ZM10.7759 3.52932C12.2998 3.52932 13.4892 4.67001 13.4892 6.12791C13.4892 7.58622 12.2998 8.72649 10.7759 8.72649C9.25182 8.72649 8.06177 7.58601 8.06177 6.12791C8.06177 4.67021 9.25204 3.52932 10.7759 3.52932Z"/>
</mask>
<path d="M5.53212 9.62016L10.6724 6.52534L10.536 6.29881L10.3802 6.08516L5.53212 9.62016ZM9.67724 16.5049L4.537 19.5997L4.74054 19.9377L4.9866 20.2462L9.67724 16.5049ZM9.69491 16.527L14.3866 12.787L14.3856 12.7856L9.69491 16.527ZM10.2057 17.0132L13.426 11.9506L13.422 11.9481L10.2057 17.0132ZM10.8544 17.1817L11.4282 23.1542L11.4287 23.1542L10.8544 17.1817ZM11.8556 16.4827L7.16756 12.7381L7.13203 12.7826L7.09735 12.8277L11.8556 16.4827ZM11.8698 16.4649L16.5579 20.2095L16.7925 19.9158L16.9886 19.5951L11.8698 16.4649ZM16.446 8.98159L21.5648 12.1118L21.6451 11.9805L21.7185 11.8452L16.446 8.98159ZM16.4486 8.97683L11.2492 5.98241L11.2118 6.04738L11.176 6.11325L16.4486 8.97683ZM16.7024 8.41611L11.1804 6.06941L11.1185 6.21497L11.0644 6.36358L16.7024 8.41611ZM17.1701 6.12811L23.1701 6.12924V6.12811H17.1701ZM10.7759 -6C4.19384 -6 -1.61914 -0.792278 -1.61914 6.12811H10.3809C10.3809 6.15131 10.3743 6.17476 10.3701 6.18434C10.3681 6.18874 10.377 6.16727 10.412 6.13366C10.4859 6.06291 10.609 6 10.7759 6V-6ZM-1.61914 6.12811C-1.61914 8.77051 -0.740719 11.2012 0.68405 13.1552L10.3802 6.08516C10.3683 6.06881 10.3687 6.06435 10.3725 6.07568C10.3744 6.08138 10.3767 6.08968 10.3784 6.10001C10.3802 6.11053 10.3809 6.12032 10.3809 6.12811H-1.61914ZM0.391874 12.715L4.537 19.5997L14.8175 13.41L10.6724 6.52534L0.391874 12.715ZM4.9866 20.2462L5.00427 20.2684L14.3856 12.7856L14.3679 12.7635L4.9866 20.2462ZM5.00319 20.267C5.37602 20.7347 6.01639 21.4605 6.98933 22.0783L13.422 11.9481C14.02 12.3278 14.341 12.7297 14.3866 12.787L5.00319 20.267ZM6.98535 22.0758C8.07571 22.7693 9.62571 23.3274 11.4282 23.1542L10.2805 11.2092C11.6261 11.08 12.7106 11.4956 13.426 11.9506L6.98535 22.0758ZM11.4287 23.1542C14.676 22.8419 16.3477 20.4842 16.6139 20.1377L7.09735 12.8277C7.00565 12.9471 7.24848 12.5985 7.71413 12.2318C8.29269 11.7761 9.17049 11.316 10.28 11.2093L11.4287 23.1542ZM16.5437 20.2273L16.5579 20.2095L7.18178 12.7203L7.16756 12.7381L16.5437 20.2273ZM16.9886 19.5951L21.5648 12.1118L11.3272 5.85139L6.75106 13.3347L16.9886 19.5951ZM21.7185 11.8452L21.7211 11.8404L11.176 6.11325L11.1734 6.11801L21.7185 11.8452ZM21.6479 11.9712C21.993 11.3721 22.209 10.8298 22.3404 10.4686L11.0644 6.36358C11.0614 6.3718 11.1188 6.20885 11.2492 5.98241L21.6479 11.9712ZM22.2245 10.7628C22.8465 9.29917 23.1698 7.72474 23.1701 6.12924L11.1701 6.12699C11.1701 6.10063 11.1757 6.08034 11.1804 6.06941L22.2245 10.7628ZM23.1701 6.12811C23.1701 -0.79125 17.3591 -6 10.7759 -6V6C10.9427 6 11.0654 6.06281 11.1389 6.13327C11.1739 6.16677 11.1827 6.18819 11.1808 6.18383C11.1766 6.17432 11.1701 6.15104 11.1701 6.12811H23.1701ZM10.7759 9.52932C9.23051 9.52932 7.48918 8.22298 7.48918 6.12791H19.4892C19.4892 1.11703 15.3691 -2.47068 10.7759 -2.47068V9.52932ZM7.48918 6.12791C7.48918 4.03263 9.23115 2.7265 10.7759 2.7265V14.7265C15.3684 14.7265 19.4892 11.1398 19.4892 6.12791H7.48918ZM10.7759 2.7265C12.3185 2.7265 14.0618 4.0306 14.0618 6.12791H2.06177C2.06177 11.1414 6.1851 14.7265 10.7759 14.7265V2.7265ZM14.0618 6.12791C14.0618 8.22532 12.3191 9.52932 10.7759 9.52932V-2.47068C6.18499 -2.47068 2.06177 1.1151 2.06177 6.12791H14.0618Z" fill="white" mask="url(#path-2-inside-1_9832_65609)"/>
</g>
<defs>
<clipPath id="clip0_9832_65609">
<rect width="21.551" height="20.7059" fill="white"/>
</clipPath>
</defs>
</svg>
