<svg width="17" height="15" viewBox="0 0 17 15" fill="none" xmlns="http://www.w3.org/2000/svg">
    <path
        d="M14.4412 7.41553H6.75735M12.8235 9.75928L15.25 7.41553L12.8235 5.07178M8.77941 3.50928V2.72803C8.77941 2.31363 8.60898 1.9162 8.30561 1.62317C8.00225 1.33015 7.59079 1.16553 7.16176 1.16553H3.11765C2.68862 1.16553 2.27717 1.33015 1.9738 1.62317C1.67043 1.9162 1.5 2.31363 1.5 2.72803V12.103C1.5 12.5174 1.67043 12.9149 1.9738 13.2079C2.27717 13.5009 2.68862 13.6655 3.11765 13.6655H7.16176C7.59079 13.6655 8.00225 13.5009 8.30561 13.2079C8.60898 12.9149 8.77941 12.5174 8.77941 12.103V11.3218"
        stroke="#FF0000" stroke-width="1.7" stroke-linecap="round" stroke-linejoin="round" />
</svg>
