<svg width="20" height="19" viewBox="0 0 20 19" fill="none" xmlns="http://www.w3.org/2000/svg">
    <path
        d="M1.66675 9.41536C1.66675 14.0179 5.39758 17.7487 10.0001 17.7487C14.6026 17.7487 18.3334 14.0179 18.3334 9.41536C18.3334 4.81286 14.6026 1.08203 10.0001 1.08203C5.39758 1.08203 1.66675 4.81286 1.66675 9.41536Z"
        stroke="#A0A0A0" stroke-width="1.5" stroke-linecap="round" stroke-linejoin="round" />
    <path
        d="M10.8333 1.12354C10.8333 1.12354 13.3333 4.4152 13.3333 9.4152C13.3333 14.4152 10.8333 17.7069 10.8333 17.7069M9.16665 17.7069C9.16665 17.7069 6.66665 14.4152 6.66665 9.4152C6.66665 4.4152 9.16665 1.12354 9.16665 1.12354M2.19165 12.3319H17.8083M2.19165 6.49854H17.8083"
        stroke="#A0A0A0" stroke-width="1.5" stroke-linecap="round" stroke-linejoin="round" />
</svg>
