<svg width="20" height="20" viewBox="0 0 20 20" fill="none" xmlns="http://www.w3.org/2000/svg">
    <path
        d="M13.4997 2.91699C12.6663 2.08366 11.583 1.66699 10.583 1.66699C9.58301 1.66699 8.41634 2.08366 7.66634 2.91699L2.83301 7.58366C1.16634 9.25033 1.16634 11.8337 2.83301 13.5003C4.49967 15.167 7.08301 15.167 8.74968 13.5003L13.4997 8.75033C15.083 7.16699 15.083 4.50033 13.4997 2.91699ZM12.333 7.58366L9.99967 9.91699L6.99967 7.00033L3.33301 10.667C3.33301 10.0003 3.49967 9.25033 4.08301 8.75033L8.83301 4.00033C9.24968 3.58366 9.91634 3.33366 10.4997 3.33366C11.083 3.33366 11.7497 3.58366 12.2497 4.00033C13.2497 5.08366 13.2497 6.58366 12.333 7.58366ZM16.333 5.91699C16.333 6.58366 16.1663 7.16699 15.9997 7.83366C16.833 8.83366 16.833 10.3337 15.9163 11.2503L13.583 13.5837L12.333 12.3337L9.99967 14.667C8.91634 15.7503 7.41634 16.3337 5.99967 16.3337C6.16634 16.5837 6.33301 16.8337 6.58301 17.0837C8.24967 18.7503 10.833 18.7503 12.4997 17.0837L17.2497 12.3337C18.9163 10.667 18.9163 8.08366 17.2497 6.41699C16.833 6.25033 16.583 6.08366 16.333 5.91699Z"
        fill="#FF960A" />
</svg>
