<svg width="20" height="20" viewBox="0 0 20 20" fill="none" xmlns="http://www.w3.org/2000/svg">
    <g clip-path="url(#clip0_9629_34932)">
        <path
            d="M10.0003 1.66699C14.6028 1.66699 18.3337 5.39783 18.3337 10.0003C18.3337 14.6028 14.6028 18.3337 10.0003 18.3337C5.39783 18.3337 1.66699 14.6028 1.66699 10.0003C1.66699 5.39783 5.39783 1.66699 10.0003 1.66699ZM10.0003 3.33366C8.34178 3.33456 6.74313 3.95365 5.51657 5.07002C4.29 6.1864 3.5236 7.71989 3.36705 9.37103C3.21049 11.0222 3.67501 12.6724 4.6699 13.9994C5.66479 15.3264 7.1186 16.2349 8.74742 16.5475C10.3762 16.8601 12.0631 16.5543 13.4785 15.6899C14.894 14.8255 15.9364 13.4645 16.4023 11.8727C16.8681 10.281 16.7238 8.57269 15.9977 7.08156C15.2716 5.59042 14.0157 4.42349 12.4753 3.80866C12.5488 4.31523 12.465 4.83214 12.2353 5.28956C12.0056 5.74698 11.641 6.12286 11.1908 6.36642C10.7405 6.60997 10.2264 6.70946 9.71785 6.65144C9.20928 6.59342 8.73078 6.38069 8.34699 6.04199C8.1876 5.90189 8.08767 5.70626 8.06757 5.495C8.04748 5.28374 8.10874 5.07278 8.23885 4.90514C8.36897 4.7375 8.55814 4.62581 8.76778 4.59286C8.97741 4.55991 9.19172 4.60818 9.36699 4.72783L9.44949 4.79199C9.55063 4.88119 9.6719 4.9445 9.8029 4.97651C9.93389 5.00852 10.0707 5.00826 10.2016 4.97575C10.3324 4.94324 10.4535 4.87946 10.5543 4.78988C10.6551 4.7003 10.7326 4.5876 10.7803 4.46145C10.8279 4.3353 10.8442 4.19947 10.8278 4.06562C10.8114 3.93177 10.7628 3.8039 10.6861 3.69299C10.6094 3.58208 10.5069 3.49144 10.3875 3.42885C10.268 3.36627 10.1352 3.3336 10.0003 3.33366ZM12.2003 12.6937C12.37 12.8351 12.4766 13.0382 12.4966 13.2582C12.5166 13.4783 12.4484 13.6972 12.307 13.867C11.747 14.5395 10.937 15.0003 10.0003 15.0003C9.06366 15.0003 8.25366 14.5395 7.69366 13.867C7.55844 13.6966 7.49522 13.48 7.51752 13.2636C7.53981 13.0472 7.64585 12.8481 7.81298 12.7088C7.9801 12.5696 8.19507 12.5012 8.41194 12.5183C8.62882 12.5354 8.83042 12.6366 8.97366 12.8003C9.27283 13.1587 9.63866 13.3337 10.0003 13.3337C10.362 13.3337 10.7278 13.1587 11.027 12.8003C11.1685 12.6306 11.3716 12.5241 11.5916 12.5041C11.8116 12.4841 12.0306 12.5523 12.2003 12.6937ZM7.08366 8.33366C7.41518 8.33366 7.73312 8.46535 7.96754 8.69978C8.20196 8.9342 8.33366 9.25214 8.33366 9.58366C8.33366 9.91518 8.20196 10.2331 7.96754 10.4675C7.73312 10.702 7.41518 10.8337 7.08366 10.8337C6.75214 10.8337 6.4342 10.702 6.19978 10.4675C5.96535 10.2331 5.83366 9.91518 5.83366 9.58366C5.83366 9.25214 5.96535 8.9342 6.19978 8.69978C6.4342 8.46535 6.75214 8.33366 7.08366 8.33366ZM12.917 8.33366C13.2485 8.33366 13.5665 8.46535 13.8009 8.69978C14.0353 8.9342 14.167 9.25214 14.167 9.58366C14.167 9.91518 14.0353 10.2331 13.8009 10.4675C13.5665 10.702 13.2485 10.8337 12.917 10.8337C12.5855 10.8337 12.2675 10.702 12.0331 10.4675C11.7987 10.2331 11.667 9.91518 11.667 9.58366C11.667 9.25214 11.7987 8.9342 12.0331 8.69978C12.2675 8.46535 12.5855 8.33366 12.917 8.33366Z"
            fill="#FF960A" />
    </g>
    <defs>
        <clipPath id="clip0_9629_34932">
            <rect width="20" height="20" fill="white" />
        </clipPath>
    </defs>
</svg>
