<svg width="39" height="36" viewBox="0 0 39 36" fill="none" xmlns="http://www.w3.org/2000/svg">
    <path
        d="M36.25 0H26.5833C25.2542 0 24.1667 1.0125 24.1667 2.25C24.1667 3.4875 25.2542 4.5 26.5833 4.5H30.4017L20.8075 13.4325C18.6808 12.06 16.095 11.25 13.2917 11.25C5.945 11.25 0 16.785 0 23.625C0 30.465 5.945 36 13.2917 36C20.6383 36 26.5833 30.465 26.5833 23.625C26.5833 21.015 25.7133 18.6075 24.2392 16.605L33.8333 7.695V11.25C33.8333 12.4875 34.9208 13.5 36.25 13.5C37.5792 13.5 38.6667 12.4875 38.6667 11.25V2.25C38.6667 1.0125 37.5792 0 36.25 0ZM13.2917 31.5C8.6275 31.5 4.83333 27.9675 4.83333 23.625C4.83333 19.2825 8.6275 15.75 13.2917 15.75C17.9558 15.75 21.75 19.2825 21.75 23.625C21.75 27.9675 17.9558 31.5 13.2917 31.5Z"
        fill="white" />
</svg>
