<svg width="29" height="18" viewBox="0 0 29 18" fill="none" xmlns="http://www.w3.org/2000/svg">
    <path
        d="M3.97653 2.11574C4.17086 1.7273 4.45467 1.39058 4.80461 1.13331C5.15454 0.876032 5.56058 0.70556 5.9893 0.635931C6.41801 0.566301 6.85713 0.599505 7.2705 0.732808C7.68387 0.866111 8.05966 1.0957 8.36693 1.40267L9.70533 2.7392C9.79211 2.82598 9.86094 2.929 9.90791 3.04238C9.95487 3.15576 9.97904 3.27728 9.97904 3.4C9.97904 3.52272 9.95487 3.64424 9.90791 3.75763C9.86094 3.87101 9.79211 3.97403 9.70533 4.0608C9.61855 4.14758 9.51553 4.21642 9.40215 4.26338C9.28877 4.31034 9.16725 4.33452 9.04453 4.33452C8.92181 4.33452 8.80029 4.31034 8.68691 4.26338C8.57353 4.21642 8.47051 4.14758 8.38373 4.0608L7.0472 2.7224C6.94909 2.62475 6.82921 2.55176 6.69742 2.50941C6.56563 2.46707 6.42568 2.45657 6.28905 2.4788C6.15242 2.50103 6.02301 2.55533 5.91143 2.63727C5.79986 2.7192 5.7093 2.82642 5.6472 2.95014L3.08613 8.06667H10.4389C11.964 8.06667 13.2389 9.1232 13.5992 10.54C13.9409 10.4525 14.2918 10.4055 14.6445 10.4C15.0179 10.4 15.3632 10.4635 15.688 10.54C15.8648 9.83506 16.2715 9.20916 16.8439 8.76123C17.4162 8.31331 18.1215 8.06891 18.8483 8.06667H26.2011L23.6437 2.952C23.5819 2.82782 23.4914 2.72011 23.3798 2.63775C23.2681 2.5554 23.1385 2.50076 23.0016 2.47833C22.8647 2.45591 22.7244 2.46635 22.5923 2.50878C22.4602 2.55122 22.3401 2.62443 22.2419 2.7224L20.9053 4.0608C20.7301 4.23581 20.4925 4.33403 20.2448 4.33385C19.9971 4.33368 19.7597 4.23512 19.5847 4.05987C19.4097 3.88461 19.3114 3.64702 19.3116 3.39934C19.3118 3.15167 19.4103 2.91421 19.5856 2.7392L20.9221 1.40267C21.2296 1.09609 21.6054 0.866848 22.0187 0.733783C22.432 0.600718 22.871 0.567629 23.2996 0.637236C23.7281 0.706843 24.1341 0.877158 24.484 1.13418C24.834 1.39121 25.1179 1.72761 25.3125 2.11574L28.5344 8.55574C28.6035 8.6864 28.6445 8.83947 28.6445 9V10.8667C28.6445 11.1142 28.5462 11.3516 28.3712 11.5266C28.1961 11.7017 27.9587 11.8 27.7112 11.8H26.7779V12.7333C26.7779 15.6995 24.9075 17.4 21.6445 17.4H20.7112C17.4483 17.4 15.5779 15.6995 15.5779 12.7333V12.4365C15.277 12.3337 14.9624 12.2765 14.6445 12.2667C14.3272 12.2667 13.9912 12.3469 13.7112 12.4365V12.7333C13.7112 15.6995 11.8408 17.4 8.57786 17.4H7.64453C4.3816 17.4 2.5112 15.6995 2.5112 12.7333V11.8H1.57786C1.33033 11.8 1.09293 11.7017 0.917898 11.5266C0.742864 11.3516 0.644531 11.1142 0.644531 10.8667V9C0.644682 8.84554 0.683165 8.69353 0.756531 8.5576L0.754665 8.55574L3.97653 2.11574ZM18.8483 9.93334C18.4761 9.93383 18.1194 10.0819 17.8562 10.345C17.5931 10.6082 17.445 10.9649 17.4445 11.3371V12.7333C17.4445 14.0363 17.8179 15.5333 20.7112 15.5333H21.6445C24.5379 15.5333 24.9112 14.0363 24.9112 12.7333V11.3389C24.9107 10.9663 24.7625 10.6091 24.499 10.3456C24.2355 10.0821 23.8782 9.93383 23.5056 9.93334H18.8483ZM5.7816 9.93334C5.40961 9.93432 5.05313 10.0825 4.7901 10.3456C4.52706 10.6086 4.37885 10.9651 4.37786 11.3371V12.7333C4.37786 14.0363 4.74933 15.5333 7.64453 15.5333H8.57786C11.4731 15.5333 11.8445 14.0363 11.8445 12.7333V11.3371C11.844 10.9646 11.6957 10.6076 11.4322 10.3444C11.1686 10.0812 10.8114 9.93334 10.4389 9.93334H5.7816Z"
        fill="#FF960A" />
</svg>
