<svg width="20" height="20" viewBox="0 0 20 20" fill="none" xmlns="http://www.w3.org/2000/svg">
    <path
        d="M10 9.79199C10.1658 9.79199 10.3247 9.85784 10.4419 9.97505C10.5592 10.0923 10.625 10.2512 10.625 10.417V11.042H11.25C11.4158 11.042 11.5747 11.1078 11.6919 11.2251C11.8092 11.3423 11.875 11.5012 11.875 11.667C11.875 11.8328 11.8092 11.9917 11.6919 12.1089C11.5747 12.2261 11.4158 12.292 11.25 12.292H10.625V12.917C10.625 13.0828 10.5592 13.2417 10.4419 13.3589C10.3247 13.4761 10.1658 13.542 10 13.542C9.83424 13.542 9.67527 13.4761 9.55806 13.3589C9.44085 13.2417 9.375 13.0828 9.375 12.917V12.292H8.75C8.58424 12.292 8.42527 12.2261 8.30806 12.1089C8.19085 11.9917 8.125 11.8328 8.125 11.667C8.125 11.5012 8.19085 11.3423 8.30806 11.2251C8.42527 11.1078 8.58424 11.042 8.75 11.042H9.375V10.417C9.375 10.2512 9.44085 10.0923 9.55806 9.97505C9.67527 9.85784 9.83424 9.79199 10 9.79199Z"
        fill="#FF960A" />
    <path fill-rule="evenodd" clip-rule="evenodd"
        d="M10.0003 7.70801C8.95051 7.70801 7.94369 8.12505 7.20136 8.86738C6.45903 9.60971 6.04199 10.6165 6.04199 11.6663C6.04199 12.7162 6.45903 13.723 7.20136 14.4653C7.94369 15.2076 8.95051 15.6247 10.0003 15.6247C11.0501 15.6247 12.057 15.2076 12.7993 14.4653C13.5416 13.723 13.9587 12.7162 13.9587 11.6663C13.9587 10.6165 13.5416 9.60971 12.7993 8.86738C12.057 8.12505 11.0501 7.70801 10.0003 7.70801ZM7.29199 11.6663C7.29199 10.948 7.57733 10.2592 8.08524 9.75126C8.59316 9.24335 9.28203 8.95801 10.0003 8.95801C10.7186 8.95801 11.4075 9.24335 11.9154 9.75126C12.4233 10.2592 12.7087 10.948 12.7087 11.6663C12.7087 12.3846 12.4233 13.0735 11.9154 13.5814C11.4075 14.0893 10.7186 14.3747 10.0003 14.3747C9.28203 14.3747 8.59316 14.0893 8.08524 13.5814C7.57733 13.0735 7.29199 12.3846 7.29199 11.6663Z"
        fill="#FF960A" />
    <path fill-rule="evenodd" clip-rule="evenodd"
        d="M9.95699 1.04199C9.20783 1.04199 8.58366 1.04199 8.08866 1.10866C7.56533 1.17866 7.09283 1.33366 6.71366 1.71283C6.33366 2.09283 6.17866 2.56533 6.10866 3.08783C6.05866 3.45449 6.04616 3.89116 6.04283 4.39616C5.50283 4.41366 5.02116 4.44616 4.59283 4.50283C3.61616 4.63449 2.82533 4.91116 2.20116 5.53449C1.57783 6.15866 1.30116 6.94949 1.16949 7.92616C1.04199 8.87616 1.04199 10.0887 1.04199 11.6203V11.7137C1.04199 13.2453 1.04199 14.4587 1.16949 15.4078C1.30116 16.3845 1.57783 17.1753 2.20116 17.7995C2.82533 18.4228 3.61616 18.6995 4.59283 18.8312C5.54283 18.9587 6.75533 18.9587 8.28699 18.9587H11.7137C13.2453 18.9587 14.4587 18.9587 15.4078 18.8312C16.3845 18.6995 17.1753 18.4228 17.7995 17.7995C18.4228 17.1753 18.6995 16.3845 18.8312 15.4078C18.9587 14.4578 18.9587 13.2453 18.9587 11.7137V11.6203C18.9587 10.0887 18.9587 8.87533 18.8312 7.92616C18.6995 6.94949 18.4228 6.15866 17.7995 5.53449C17.1753 4.91116 16.3845 4.63449 15.4078 4.50283C14.9266 4.44312 14.4426 4.40752 13.9578 4.39616C13.9545 3.89116 13.9412 3.45449 13.892 3.08783C13.822 2.56533 13.667 2.09283 13.287 1.71283C12.9078 1.33366 12.4353 1.17949 11.912 1.10866C11.417 1.04199 10.792 1.04199 10.0437 1.04199H9.95699ZM12.707 4.37699C12.7037 3.90199 12.692 3.54366 12.6537 3.25449C12.6012 2.87033 12.512 2.70533 12.4037 2.59699C12.2953 2.48866 12.1303 2.39949 11.7453 2.34699C11.3437 2.29366 10.8037 2.29199 10.0003 2.29199C9.19699 2.29199 8.65699 2.29366 8.25449 2.34783C7.87033 2.39949 7.70533 2.48866 7.59699 2.59783C7.48866 2.70616 7.39949 2.87033 7.34699 3.25449C7.30866 3.54283 7.29699 3.90116 7.29366 4.37699C7.60866 4.37533 7.93949 4.37533 8.28699 4.37533H11.7137C12.0612 4.37533 12.392 4.37533 12.707 4.37699ZM3.08533 6.41866C3.43783 6.06616 3.92116 5.85449 4.75949 5.74199C5.61616 5.62699 6.74449 5.62533 8.33366 5.62533H11.667C13.2562 5.62533 14.3853 5.62699 15.242 5.74199C16.0795 5.85449 16.5628 6.06616 16.9153 6.41866C17.2678 6.77116 17.4795 7.25449 17.592 8.09283C17.707 8.94866 17.7087 10.0778 17.7087 11.667C17.7087 13.2562 17.707 14.3853 17.592 15.242C17.4795 16.0795 17.2678 16.5628 16.9153 16.9153C16.5628 17.2678 16.0795 17.4795 15.2412 17.592C14.3853 17.707 13.2562 17.7087 11.667 17.7087H8.33366C6.74449 17.7087 5.61616 17.707 4.75866 17.592C3.92116 17.4795 3.43783 17.2678 3.08533 16.9153C2.73283 16.5628 2.52116 16.0795 2.40866 15.2412C2.29366 14.3853 2.29199 13.2562 2.29199 11.667C2.29199 10.0778 2.29366 8.94949 2.40866 8.09199C2.52116 7.25449 2.73283 6.77116 3.08533 6.41866Z"
        fill="#FF960A" />
</svg>
