<svg width="36" height="36" viewBox="0 0 36 36" fill="none" xmlns="http://www.w3.org/2000/svg">
<path fill-rule="evenodd" clip-rule="evenodd" d="M16.9021 35.866L16.9079 35.868C17.2879 36.0349 17.5 35.9961 17.5 35.9961C17.5 35.9961 17.7121 36.0349 18.094 35.868L18.0979 35.866L18.1094 35.8602L18.1441 35.8447C18.3272 35.7591 18.5079 35.6685 18.6861 35.573C19.0448 35.3866 19.5462 35.1071 20.146 34.7325C21.3417 33.9872 22.9328 32.8576 24.5316 31.3068C27.7253 28.209 31 23.3664 31 16.5866C31 14.8024 30.6508 13.0357 29.9724 11.3872C29.2939 9.73884 28.2995 8.24106 27.0459 6.97943C25.7924 5.7178 24.3041 4.71701 22.6662 4.03422C21.0283 3.35143 19.2728 3 17.5 3C15.7272 3 13.9717 3.35143 12.3338 4.03422C10.6959 4.71701 9.20765 5.7178 7.95406 6.97943C6.70047 8.24106 5.70606 9.73884 5.02763 11.3872C4.34919 13.0357 4 14.8024 4 16.5866C4 23.3644 7.27471 28.209 10.4704 31.3068C11.8083 32.6001 13.2776 33.7483 14.854 34.7325C15.4646 35.1141 16.0927 35.4664 16.7363 35.7884L16.8559 35.8447L16.8906 35.8602L16.9021 35.866Z" fill="#FF960A"/>
<path d="M19.8958 8.5H19.8958C19.4107 8.49999 18.9354 8.65641 18.535 8.95096C18.1342 9.24574 17.8274 9.66521 17.6601 10.1543L17.5445 10.4925H17.187H9.13535V10.9903L11.0792 12.357L11.2916 12.5063V12.766V25V25.5V25.5075H23.7083V25.5V25V12.7485V12.5064L23.8982 12.3562L25.6249 10.9914V10.492H22.6045H22.2471L22.1314 10.1539C21.9641 9.66487 21.6572 9.24549 21.2565 8.95079C20.8561 8.65632 20.3808 8.49996 19.8958 8.5ZM18.9166 12.5V12H18.4583H17.9583V11.5V10.5V10H18.4583H18.9166V9.5V9H19.4166H20.3749H20.8749V9.5V10H21.3333H21.8333V10.5V11.5V12H21.3333H20.8749V12.5V13H20.3749H19.4166H18.9166V12.5ZM12.2083 17V16.5H12.7083H16.5416H17.0416V17V25V25.5H16.5416H12.7083H12.2083V25V17ZM18.4374 17V16.5H18.9374H22.2916H22.7916V17V20.5V21H22.2916H18.9374H18.4374V20.5V17Z" stroke="white"/>
<rect opacity="0.5" width="1.91667" height="6" transform="matrix(-1 0 0 1 15.5837 18.0005)" fill="white"/>
<rect opacity="0.5" width="1.91667" height="2" transform="matrix(-1 0 0 1 21.3333 18.0005)" fill="white"/>
</svg>
