<svg width="36" height="36" viewBox="0 0 36 36" fill="none" xmlns="http://www.w3.org/2000/svg">
<path fill-rule="evenodd" clip-rule="evenodd" d="M16.9021 35.866L16.9079 35.868C17.2879 36.0349 17.5 35.9961 17.5 35.9961C17.5 35.9961 17.7121 36.0349 18.094 35.868L18.0979 35.866L18.1094 35.8602L18.1441 35.8447C18.3272 35.7591 18.5079 35.6685 18.6861 35.573C19.0448 35.3866 19.5462 35.1071 20.146 34.7325C21.3417 33.9872 22.9328 32.8576 24.5316 31.3068C27.7253 28.209 31 23.3664 31 16.5866C31 14.8024 30.6508 13.0357 29.9724 11.3872C29.2939 9.73884 28.2995 8.24106 27.0459 6.97943C25.7924 5.7178 24.3041 4.71701 22.6662 4.03422C21.0283 3.35143 19.2728 3 17.5 3C15.7272 3 13.9717 3.35143 12.3338 4.03422C10.6959 4.71701 9.20765 5.7178 7.95406 6.97943C6.70047 8.24106 5.70606 9.73884 5.02763 11.3872C4.34919 13.0357 4 14.8024 4 16.5866C4 23.3644 7.27471 28.209 10.4704 31.3068C11.8083 32.6001 13.2776 33.7483 14.854 34.7325C15.4646 35.1141 16.0927 35.4664 16.7363 35.7884L16.8559 35.8447L16.8906 35.8602L16.9021 35.866Z" fill="#FF960A"/>
<path fill-rule="evenodd" clip-rule="evenodd" d="M15.2798 10.599C15.0292 11.1866 15.0089 11.9388 15.0341 12.6491H23.2814C23.5249 12.6491 23.7252 12.8476 23.6974 13.0893C23.5275 14.5738 22.5067 15.8655 21.0213 16.6613C21.0588 16.8347 21.0756 17.0133 21.0756 17.1942C21.0756 17.9967 20.4681 18.6302 19.8188 19.0325C19.3889 19.2954 18.9196 19.4874 18.4287 19.6011V18.6893C18.7542 18.5956 19.0656 18.4586 19.3547 18.2821C19.9185 17.9331 20.1933 17.5308 20.1933 17.1942C20.1933 17.1395 20.1911 17.0875 20.1871 17.0372C19.5267 17.2829 18.8019 17.4395 18.0383 17.4867V21.0309H17.156V17.492C14.113 17.3429 11.6672 15.4627 11.3955 13.0893C11.3677 12.8476 11.5675 12.6491 11.8115 12.6491H14.1513C14.1262 11.9287 14.1421 11.0177 14.4681 10.2532C14.6551 9.81423 14.9489 9.41058 15.4002 9.12118C15.8502 8.83311 16.4224 8.67871 17.1309 8.67871C17.9986 8.67871 18.7044 8.99369 19.1848 9.29897C19.4262 9.45205 19.615 9.60557 19.7451 9.72203C19.8164 9.78599 19.885 9.85296 19.9507 9.92275L19.9551 9.92716L19.956 9.92893L19.9569 9.92937C19.9569 9.92937 19.9569 9.93025 19.633 10.2174L19.9573 9.93025C20.0324 10.0181 20.0701 10.1319 20.0622 10.2472C20.0543 10.3625 20.0015 10.4701 19.915 10.5468C19.8286 10.6236 19.7156 10.6634 19.6001 10.6576C19.4847 10.6519 19.3761 10.6011 19.2978 10.5161L19.2934 10.5112C19.2495 10.4654 19.2038 10.4213 19.1566 10.3789C19.0178 10.2552 18.869 10.1431 18.7119 10.0436C18.3237 9.79747 17.7815 9.56101 17.1309 9.56101C16.5503 9.56101 16.1537 9.6863 15.8767 9.86364C15.6014 10.0401 15.4113 10.2902 15.2798 10.599ZM12.3876 13.5314C12.906 15.1901 14.8876 16.6194 17.5464 16.6194C20.2052 16.6194 22.1873 15.1901 22.7052 13.5314H12.3876Z" fill="white"/>
<path d="M14.0173 25.4424V26.3247H21.0757V25.4424H19.7438C20.035 25.0842 20.1934 24.6329 20.1934 24.119C20.1934 23.4374 19.9146 22.8661 19.4183 22.4761C18.933 22.0954 18.2766 21.9132 17.5465 21.9132C16.8922 21.9132 16.3112 21.8559 15.9058 21.6754C15.7113 21.589 15.5763 21.4822 15.4885 21.3569C15.4029 21.2347 15.3407 21.064 15.3407 20.8099C15.3407 20.5567 15.4025 20.3864 15.4885 20.2638C15.5763 20.1385 15.7113 20.0317 15.9058 19.9453C16.1163 19.8517 16.3735 19.7909 16.6642 19.7547V18.8662C16.2698 18.9086 15.8833 18.9897 15.5476 19.1388C15.2459 19.273 14.9675 19.4697 14.7655 19.7578C14.5617 20.0489 14.4584 20.4023 14.4584 20.8104C14.4584 21.2184 14.5617 21.5718 14.7655 21.8629C14.9675 22.151 15.2463 22.3478 15.5476 22.4819C16.1343 22.7426 16.8772 22.7951 17.5465 22.7951C18.1403 22.7951 18.5858 22.9442 18.873 23.1701C19.1487 23.3862 19.3111 23.6977 19.3111 24.1185C19.3111 24.5403 19.1487 24.8513 18.873 25.0679C18.6714 25.2263 18.3921 25.3467 18.0383 25.4045V23.6778H17.156V25.4424H14.0173Z" fill="white"/>
</svg>
