<svg width="36" height="36" viewBox="0 0 36 36" fill="none" xmlns="http://www.w3.org/2000/svg">
    <path fill-rule="evenodd" clip-rule="evenodd"
        d="M16.9021 35.866L16.9079 35.868C17.2879 36.0349 17.5 35.9961 17.5 35.9961C17.5 35.9961 17.7121 36.0349 18.094 35.868L18.0979 35.866L18.1094 35.8602L18.1441 35.8447C18.3272 35.7591 18.5079 35.6685 18.6861 35.573C19.0448 35.3866 19.5462 35.1071 20.146 34.7325C21.3417 33.9872 22.9328 32.8576 24.5316 31.3068C27.7253 28.209 31 23.3664 31 16.5866C31 14.8024 30.6508 13.0357 29.9724 11.3872C29.2939 9.73884 28.2995 8.24106 27.0459 6.97943C25.7924 5.7178 24.3041 4.71701 22.6662 4.03422C21.0283 3.35143 19.2728 3 17.5 3C15.7272 3 13.9717 3.35143 12.3338 4.03422C10.6959 4.71701 9.20765 5.7178 7.95406 6.97943C6.70047 8.24106 5.70606 9.73884 5.02763 11.3872C4.34919 13.0357 4 14.8024 4 16.5866C4 23.3644 7.27471 28.209 10.4704 31.3068C11.8083 32.6001 13.2776 33.7483 14.854 34.7325C15.4646 35.1141 16.0927 35.4664 16.7363 35.7884L16.8559 35.8447L16.8906 35.8602L16.9021 35.866Z"
        fill="#FF960A" />
    <path
        d="M16.5 13.0906C14.375 11.9353 10.125 10.8714 10.125 15.8631C10.125 19.7532 10.9665 22.7736 12.2535 24.4629C12.7104 25.0629 13.8232 24.8766 14.2992 24.2752C14.3519 24.2045 14.3935 24.1262 14.4225 24.0429L15.1754 22.0596C15.6387 20.8412 17.3613 20.8412 17.8246 22.0596L18.5775 24.0429C18.6094 24.1251 18.6463 24.2058 18.7008 24.2752C19.1768 24.8773 20.2896 25.0629 20.7465 24.4629C22.0335 22.7736 22.875 19.7539 22.875 15.8631C22.875 10.8721 18.625 11.9353 16.5 13.0906ZM16.5 13.0906L18.625 14.2502"
        stroke="white" stroke-width="2" stroke-linecap="round" stroke-linejoin="round" />
</svg>
