<svg width="24" height="23" viewBox="0 0 24 23" fill="none" xmlns="http://www.w3.org/2000/svg">
    <path
        d="M0.644531 20.6131V16.314C0.644531 14.7166 1.20228 13.3618 2.31778 12.2498C3.43328 11.1377 4.7922 10.5822 6.39453 10.5831H21.8117C22.3216 10.5831 22.7547 10.7551 23.1112 11.099C23.4668 11.4449 23.6445 11.87 23.6445 12.3745C23.6445 12.8025 23.5185 13.1756 23.2665 13.4937C23.0135 13.8128 22.6872 14.0311 22.2875 14.1486L18.1705 15.2535V20.6705C18.1705 21.0774 18.0795 21.4462 17.8974 21.7768C17.7153 22.1073 17.47 22.3796 17.1614 22.5936C16.849 22.8057 16.5073 22.9356 16.1365 22.9834C15.7656 23.0312 15.3832 22.9758 14.9893 22.8172L9.39747 20.6146L0.644531 20.6131ZM16.733 16.314H8.09366C7.77932 16.314 7.52057 16.4167 7.31741 16.6221C7.11328 16.8275 7.00834 17.0725 7.00259 17.3572C6.99684 17.5693 7.05195 17.7747 7.16791 17.9734C7.28386 18.1722 7.46834 18.3236 7.72134 18.4277L15.5169 21.4959C15.8121 21.6058 16.0886 21.5738 16.3463 21.3999C16.6051 21.225 16.7345 20.9814 16.7345 20.669V16.3154L16.733 16.314ZM2.08203 19.1815H6.67628C6.35236 18.9828 6.08595 18.7277 5.87703 18.4163C5.66907 18.1048 5.56509 17.7671 5.56509 17.4031C5.56509 16.7133 5.81378 16.121 6.31116 15.6261C6.80853 15.1312 7.4027 14.8828 8.09366 14.8809H13.7862L21.9195 12.7686C22.0393 12.7208 22.1232 12.6611 22.1711 12.5894C22.219 12.5178 22.231 12.4342 22.207 12.3386C22.1831 12.2431 22.1409 12.1652 22.0805 12.1051C22.0202 12.0449 21.9306 12.0153 21.8117 12.0162H6.39453C5.19661 12.0162 4.17839 12.4342 3.33984 13.2701C2.5013 14.1061 2.08203 15.1212 2.08203 16.3154V19.1815ZM9.26953 8.59836C8.08311 8.59836 7.06776 8.17752 6.22347 7.33583C5.37918 6.49415 4.95703 5.48193 4.95703 4.29918C4.95703 3.11643 5.37918 2.10421 6.22347 1.26253C7.06776 0.420842 8.08311 0 9.26953 0C10.4559 0 11.4713 0.420842 12.3156 1.26253C13.1599 2.10421 13.582 3.11643 13.582 4.29918C13.582 5.48193 13.1599 6.49415 12.3156 7.33583C11.4713 8.17752 10.4559 8.59836 9.26953 8.59836ZM9.26953 7.1653C10.0602 7.1653 10.7372 6.88442 11.3007 6.32266C11.8642 5.7609 12.1455 5.08641 12.1445 4.29918C12.1445 3.511 11.8628 2.83603 11.2993 2.27427C10.7358 1.71251 10.0592 1.4321 9.26953 1.43306C8.47891 1.43306 7.80184 1.71394 7.23834 2.2757C6.67484 2.83746 6.39357 3.51195 6.39453 4.29918C6.39453 5.08736 6.67628 5.76233 7.23978 6.32409C7.80328 6.88585 8.47986 7.16625 9.26953 7.1653Z"
        fill="#FF960A" />
</svg>
