<svg width="28" height="28" viewBox="0 0 28 28" fill="none" xmlns="http://www.w3.org/2000/svg">
    <g id="healthicons:pharmacy-outline">
        <g id="Group">
            <path id="Vector" fill-rule="evenodd" clip-rule="evenodd"
                d="M10.7281 3.82995C10.3588 4.6959 10.3289 5.80435 10.366 6.85103H22.5199C22.8787 6.85103 23.1739 7.14358 23.1329 7.49985C22.8826 9.68748 21.3783 11.591 19.1893 12.7638C19.2446 13.0193 19.2693 13.2826 19.2693 13.5492C19.2693 14.7317 18.3741 15.6653 17.4171 16.2582C16.7837 16.6456 16.092 16.9286 15.3686 17.0962V15.7524C15.8483 15.6144 16.3072 15.4125 16.7332 15.1523C17.564 14.6381 17.969 14.0452 17.969 13.5492C17.969 13.4685 17.9658 13.3918 17.9599 13.3177C16.9867 13.6798 15.9186 13.9106 14.7932 13.9802V19.2032H13.493V13.988C9.00852 13.7683 5.40428 10.9975 5.00381 7.49985C4.96286 7.14358 5.25736 6.85103 5.61687 6.85103H9.06508C9.02802 5.78939 9.05143 4.44691 9.53186 3.32026C9.80751 2.6734 10.2405 2.07854 10.9056 1.65206C11.5687 1.22754 12.4119 1 13.456 1C14.7347 1 15.7749 1.46418 16.4829 1.91406C16.8385 2.13965 17.1167 2.36589 17.3085 2.53752C17.4137 2.63178 17.5147 2.73047 17.6115 2.83332L17.618 2.83982L17.6193 2.84242L17.6206 2.84308C17.6206 2.84308 17.6206 2.84438 17.1434 3.2676L17.6212 2.84438C17.732 2.9738 17.7875 3.14151 17.7758 3.31143C17.7642 3.48135 17.6863 3.63992 17.559 3.75303C17.4316 3.86615 17.265 3.92477 17.0949 3.9163C16.9248 3.90782 16.7648 3.83293 16.6493 3.70773L16.6428 3.70058C16.5781 3.63305 16.5109 3.56799 16.4413 3.50554C16.2367 3.32329 16.0175 3.15804 15.786 3.01145C15.2139 2.64869 14.4149 2.30023 13.456 2.30023C12.6004 2.30023 12.016 2.48486 11.6077 2.74621C11.202 3.00625 10.9218 3.37487 10.7281 3.82995ZM6.46592 8.15126C7.22981 10.5957 10.1501 12.7021 14.0684 12.7021C17.9866 12.7021 20.9076 10.5957 21.6708 8.15126H6.46592Z"
                fill="#FF960A" />
            <path id="Vector_2"
                d="M8.86768 25.704V27.0042H19.2695V25.704H17.3068C17.7359 25.1761 17.9693 24.511 17.9693 23.7536C17.9693 22.7492 17.5584 21.9073 16.827 21.3326C16.1119 20.7715 15.1445 20.503 14.0686 20.503C13.1045 20.503 12.2483 20.4185 11.6508 20.1526C11.3641 20.0252 11.1652 19.8679 11.0358 19.6832C10.9097 19.5032 10.818 19.2516 10.818 18.8771C10.818 18.5039 10.909 18.253 11.0358 18.0723C11.1652 17.8876 11.3641 17.7303 11.6508 17.6029C11.9609 17.4651 12.3399 17.3753 12.7684 17.322V16.0127C12.1872 16.0751 11.6177 16.1947 11.1229 16.4145C10.6782 16.6121 10.268 16.9021 9.97027 17.3266C9.66992 17.7557 9.51779 18.2764 9.51779 18.8778C9.51779 19.4791 9.66992 19.9998 9.97027 20.4289C10.268 20.8534 10.6789 21.1434 11.1229 21.341C11.9876 21.7253 13.0824 21.8026 14.0686 21.8026C14.9436 21.8026 15.6003 22.0224 16.0235 22.3552C16.4298 22.6738 16.6691 23.1328 16.6691 23.753C16.6691 24.3745 16.4298 24.8328 16.0235 25.152C15.7264 25.3854 15.3149 25.5629 14.7935 25.648V23.1035H13.4932V25.704H8.86768Z"
                fill="#FF960A" />
        </g>
    </g>
</svg>
