<svg width="36" height="36" viewBox="0 0 36 36" fill="none" xmlns="http://www.w3.org/2000/svg">
<path fill-rule="evenodd" clip-rule="evenodd" d="M16.9021 35.866L16.9079 35.868C17.2879 36.0349 17.5 35.9961 17.5 35.9961C17.5 35.9961 17.7121 36.0349 18.094 35.868L18.0979 35.866L18.1094 35.8602L18.1441 35.8447C18.3272 35.7591 18.5079 35.6685 18.6861 35.573C19.0448 35.3866 19.5462 35.1071 20.146 34.7325C21.3417 33.9872 22.9328 32.8576 24.5316 31.3068C27.7253 28.209 31 23.3664 31 16.5866C31 14.8024 30.6508 13.0357 29.9724 11.3872C29.2939 9.73884 28.2995 8.24106 27.0459 6.97943C25.7924 5.7178 24.3041 4.71701 22.6662 4.03422C21.0283 3.35143 19.2728 3 17.5 3C15.7272 3 13.9717 3.35143 12.3338 4.03422C10.6959 4.71701 9.20765 5.7178 7.95406 6.97943C6.70047 8.24106 5.70606 9.73884 5.02763 11.3872C4.34919 13.0357 4 14.8024 4 16.5866C4 23.3644 7.27471 28.209 10.4704 31.3068C11.8083 32.6001 13.2776 33.7483 14.854 34.7325C15.4646 35.1141 16.0927 35.4664 16.7363 35.7884L16.8559 35.8447L16.8906 35.8602L16.9021 35.866Z" fill="#FF960A"/>
<path fill-rule="evenodd" clip-rule="evenodd" d="M16.4062 7.75H18.1562C19.8065 7.75 20.6307 7.75 21.1435 8.26275C21.6562 8.7755 21.6562 9.59975 21.6562 11.25V24.5938H26.0312C26.2053 24.5938 26.3722 24.6629 26.4953 24.786C26.6184 24.909 26.6875 25.076 26.6875 25.25C26.6875 25.424 26.6184 25.591 26.4953 25.714C26.3722 25.8371 26.2053 25.9062 26.0312 25.9062H8.53125C8.3572 25.9062 8.19028 25.8371 8.06721 25.714C7.94414 25.591 7.875 25.424 7.875 25.25C7.875 25.076 7.94414 24.909 8.06721 24.786C8.19028 24.6629 8.3572 24.5938 8.53125 24.5938H12.9062V11.25C12.9062 9.59975 12.9062 8.7755 13.419 8.26275C13.9317 7.75 14.756 7.75 16.4062 7.75ZM17.2812 9.71875C17.4553 9.71875 17.6222 9.78789 17.7453 9.91096C17.8684 10.034 17.9375 10.201 17.9375 10.375V11.4688H19.0312C19.2053 11.4688 19.3722 11.5379 19.4953 11.661C19.6184 11.784 19.6875 11.951 19.6875 12.125C19.6875 12.299 19.6184 12.466 19.4953 12.589C19.3722 12.7121 19.2053 12.7812 19.0312 12.7812H17.9375V13.875C17.9375 14.049 17.8684 14.216 17.7453 14.339C17.6222 14.4621 17.4553 14.5312 17.2812 14.5312C17.1072 14.5312 16.9403 14.4621 16.8172 14.339C16.6941 14.216 16.625 14.049 16.625 13.875V12.7812H15.5312C15.3572 12.7812 15.1903 12.7121 15.0672 12.589C14.9441 12.466 14.875 12.299 14.875 12.125C14.875 11.951 14.9441 11.784 15.0672 11.661C15.1903 11.5379 15.3572 11.4688 15.5312 11.4688H16.625V10.375C16.625 10.201 16.6941 10.034 16.8172 9.91096C16.9403 9.78789 17.1072 9.71875 17.2812 9.71875ZM14.875 16.5C14.875 16.326 14.9441 16.159 15.0672 16.036C15.1903 15.9129 15.3572 15.8438 15.5312 15.8438H19.0312C19.2053 15.8438 19.3722 15.9129 19.4953 16.036C19.6184 16.159 19.6875 16.326 19.6875 16.5C19.6875 16.674 19.6184 16.841 19.4953 16.964C19.3722 17.0871 19.2053 17.1562 19.0312 17.1562H15.5312C15.3572 17.1562 15.1903 17.0871 15.0672 16.964C14.9441 16.841 14.875 16.674 14.875 16.5ZM14.875 19.125C14.875 18.951 14.9441 18.784 15.0672 18.661C15.1903 18.5379 15.3572 18.4688 15.5312 18.4688H19.0312C19.2053 18.4688 19.3722 18.5379 19.4953 18.661C19.6184 18.784 19.6875 18.951 19.6875 19.125C19.6875 19.299 19.6184 19.466 19.4953 19.589C19.3722 19.7121 19.2053 19.7812 19.0312 19.7812H15.5312C15.3572 19.7812 15.1903 19.7121 15.0672 19.589C14.9441 19.466 14.875 19.299 14.875 19.125ZM17.2812 21.9688C17.4553 21.9688 17.6222 22.0379 17.7453 22.161C17.8684 22.284 17.9375 22.451 17.9375 22.625V24.5938H16.625V22.625C16.625 22.451 16.6941 22.284 16.8172 22.161C16.9403 22.0379 17.1072 21.9688 17.2812 21.9688Z" fill="white"/>
<path opacity="0.5" d="M25.2989 11.1529C25.5938 11.5939 25.5938 12.2081 25.5938 13.4375V24.5938H26.0312C26.2053 24.5938 26.3722 24.6629 26.4953 24.786C26.6184 24.909 26.6875 25.076 26.6875 25.25C26.6875 25.424 26.6184 25.591 26.4953 25.714C26.3722 25.8371 26.2053 25.9062 26.0312 25.9062H8.53125C8.3572 25.9062 8.19028 25.8371 8.06721 25.714C7.94414 25.591 7.875 25.424 7.875 25.25C7.875 25.076 7.94414 24.909 8.06721 24.786C8.19028 24.6629 8.3572 24.5938 8.53125 24.5938H8.96875V13.4375C8.96875 12.2081 8.96875 11.5939 9.26362 11.1529C9.39134 10.9617 9.55546 10.7976 9.74662 10.6699C10.1325 10.4117 11.9665 10.3794 12.9124 10.3759C12.9089 10.6305 12.9089 10.8965 12.9089 11.1721V12.3438H10.7188C10.5447 12.3438 10.3778 12.4129 10.2547 12.536C10.1316 12.659 10.0625 12.826 10.0625 13C10.0625 13.174 10.1316 13.341 10.2547 13.464C10.3778 13.5871 10.5447 13.6562 10.7188 13.6562H12.9089V14.9688H10.7188C10.5447 14.9688 10.3778 15.0379 10.2547 15.161C10.1316 15.284 10.0625 15.451 10.0625 15.625C10.0625 15.799 10.1316 15.966 10.2547 16.089C10.3778 16.2121 10.5447 16.2812 10.7188 16.2812H12.9089V17.5938H10.7188C10.5447 17.5938 10.3778 17.6629 10.2547 17.786C10.1316 17.909 10.0625 18.076 10.0625 18.25C10.0625 18.424 10.1316 18.591 10.2547 18.714C10.3778 18.8371 10.5447 18.9062 10.7188 18.9062H12.9089V24.5938H21.6589V18.9062H23.8438C24.0178 18.9062 24.1847 18.8371 24.3078 18.714C24.4309 18.591 24.5 18.424 24.5 18.25C24.5 18.076 24.4309 17.909 24.3078 17.786C24.1847 17.6629 24.0178 17.5938 23.8438 17.5938H21.6589V16.2812H23.8438C24.0178 16.2812 24.1847 16.2121 24.3078 16.089C24.4309 15.966 24.5 15.799 24.5 15.625C24.5 15.451 24.4309 15.284 24.3078 15.161C24.1847 15.0379 24.0178 14.9688 23.8438 14.9688H21.6589V13.6562H23.8438C24.0178 13.6562 24.1847 13.5871 24.3078 13.464C24.4309 13.341 24.5 13.174 24.5 13C24.5 12.826 24.4309 12.659 24.3078 12.536C24.1847 12.4129 24.0178 12.3438 23.8438 12.3438H21.6589V11.1712C21.6589 10.8965 21.6589 10.6305 21.6554 10.375C22.6013 10.3794 24.4291 10.4117 24.8159 10.6699C25.007 10.7976 25.1712 10.9617 25.2989 11.1529Z" fill="white"/>
</svg>
