<svg width="36" height="36" viewBox="0 0 36 36" fill="none" xmlns="http://www.w3.org/2000/svg">
<path fill-rule="evenodd" clip-rule="evenodd" d="M16.9021 35.866L16.9079 35.868C17.2879 36.0349 17.5 35.9961 17.5 35.9961C17.5 35.9961 17.7121 36.0349 18.094 35.868L18.0979 35.866L18.1094 35.8602L18.1441 35.8447C18.3272 35.7591 18.5079 35.6685 18.6861 35.573C19.0448 35.3866 19.5462 35.1071 20.146 34.7325C21.3417 33.9872 22.9328 32.8576 24.5316 31.3068C27.7253 28.209 31 23.3664 31 16.5866C31 14.8024 30.6508 13.0357 29.9724 11.3872C29.2939 9.73884 28.2995 8.24106 27.0459 6.97943C25.7924 5.7178 24.3041 4.71701 22.6662 4.03422C21.0283 3.35143 19.2728 3 17.5 3C15.7272 3 13.9717 3.35143 12.3338 4.03422C10.6959 4.71701 9.20765 5.7178 7.95406 6.97943C6.70047 8.24106 5.70606 9.73884 5.02763 11.3872C4.34919 13.0357 4 14.8024 4 16.5866C4 23.3644 7.27471 28.209 10.4704 31.3068C11.8083 32.6001 13.2776 33.7483 14.854 34.7325C15.4646 35.1141 16.0927 35.4664 16.7363 35.7884L16.8559 35.8447L16.8906 35.8602L16.9021 35.866Z" fill="#FF960A"/>
<path d="M11 23.4433V20.6395C11 19.5978 11.3638 18.7143 12.0913 17.989C12.8188 17.2637 13.705 16.9014 14.75 16.9021H24.8047C25.1372 16.9021 25.4197 17.0142 25.6522 17.2385C25.8841 17.4641 26 17.7413 26 18.0703C26 18.3494 25.9178 18.5928 25.7534 18.8002C25.5884 19.0083 25.3756 19.1507 25.115 19.2273L22.43 19.9479V23.4807C22.43 23.7462 22.3706 23.9867 22.2519 24.2022C22.1331 24.4178 21.9731 24.5954 21.7719 24.735C21.5681 24.8733 21.3453 24.958 21.1034 24.9892C20.8616 25.0203 20.6122 24.9842 20.3553 24.8808L16.7084 23.4443L11 23.4433ZM21.4925 20.6395H15.8581C15.6531 20.6395 15.4844 20.7065 15.3519 20.8405C15.2188 20.9744 15.1503 21.1343 15.1466 21.3199C15.1428 21.4582 15.1788 21.5922 15.2544 21.7218C15.33 21.8514 15.4503 21.9502 15.6153 22.0181L20.6994 24.0191C20.8919 24.0907 21.0722 24.0698 21.2403 23.9564C21.4091 23.8424 21.4934 23.6835 21.4934 23.4798V20.6405L21.4925 20.6395ZM11.9375 22.5097H14.9338C14.7225 22.3801 14.5487 22.2137 14.4125 22.0106C14.2769 21.8075 14.2091 21.5872 14.2091 21.3498C14.2091 20.9 14.3712 20.5137 14.6956 20.1909C15.02 19.8682 15.4075 19.7062 15.8581 19.7049H19.5706L24.875 18.3273C24.9531 18.2962 25.0078 18.2572 25.0391 18.2105C25.0703 18.1638 25.0781 18.1092 25.0625 18.0469C25.0469 17.9846 25.0194 17.9339 24.98 17.8946C24.9406 17.8553 24.8822 17.836 24.8047 17.8367H14.75C13.9688 17.8367 13.3047 18.1092 12.7578 18.6544C12.2109 19.1996 11.9375 19.8616 11.9375 20.6405V22.5097ZM16.625 15.6076C15.8513 15.6076 15.1891 15.3332 14.6384 14.7842C14.0878 14.2353 13.8125 13.5752 13.8125 12.8038C13.8125 12.0325 14.0878 11.3723 14.6384 10.8234C15.1891 10.2745 15.8513 10 16.625 10C17.3987 10 18.0609 10.2745 18.6116 10.8234C19.1622 11.3723 19.4375 12.0325 19.4375 12.8038C19.4375 13.5752 19.1622 14.2353 18.6116 14.7842C18.0609 15.3332 17.3987 15.6076 16.625 15.6076ZM16.625 14.673C17.1406 14.673 17.5822 14.4898 17.9497 14.1235C18.3172 13.7571 18.5006 13.3172 18.5 12.8038C18.5 12.2898 18.3162 11.8496 17.9487 11.4832C17.5812 11.1169 17.14 10.934 16.625 10.9346C16.1094 10.9346 15.6678 11.1178 15.3003 11.4842C14.9328 11.8505 14.7494 12.2904 14.75 12.8038C14.75 13.3178 14.9338 13.758 15.3013 14.1244C15.6688 14.4908 16.11 14.6736 16.625 14.673Z" fill="white"/>
</svg>
