<svg width="36" height="36" viewBox="0 0 36 36" fill="none" xmlns="http://www.w3.org/2000/svg">
<path fill-rule="evenodd" clip-rule="evenodd" d="M16.9021 35.866L16.9079 35.868C17.2879 36.0349 17.5 35.9961 17.5 35.9961C17.5 35.9961 17.7121 36.0349 18.094 35.868L18.0979 35.866L18.1094 35.8602L18.1441 35.8447C18.3272 35.7591 18.5079 35.6685 18.6861 35.573C19.0448 35.3866 19.5462 35.1071 20.146 34.7325C21.3417 33.9872 22.9328 32.8576 24.5316 31.3068C27.7253 28.209 31 23.3664 31 16.5866C31 14.8024 30.6508 13.0357 29.9724 11.3872C29.2939 9.73884 28.2995 8.24106 27.0459 6.97943C25.7924 5.7178 24.3041 4.71701 22.6662 4.03422C21.0283 3.35143 19.2728 3 17.5 3C15.7272 3 13.9717 3.35143 12.3338 4.03422C10.6959 4.71701 9.20765 5.7178 7.95406 6.97943C6.70047 8.24106 5.70606 9.73884 5.02763 11.3872C4.34919 13.0357 4 14.8024 4 16.5866C4 23.3644 7.27471 28.209 10.4704 31.3068C11.8083 32.6001 13.2776 33.7483 14.854 34.7325C15.4646 35.1141 16.0927 35.4664 16.7363 35.7884L16.8559 35.8447L16.8906 35.8602L16.9021 35.866Z" fill="#FF960A"/>
<path d="M23.5963 24.5784C23.5963 24.8386 23.4929 25.0881 23.3089 25.2721C23.1249 25.4561 22.8754 25.5595 22.6152 25.5595C22.355 25.5595 22.1054 25.4561 21.9214 25.2721C21.7374 25.0881 21.6341 24.8386 21.6341 24.5784V23.7226H23.5959L23.5963 24.5784ZM21.0077 26.9091H18.2176L18.2219 25.5323H17.2871L17.2858 26.9091H14.4905V23.7226H21.0077V26.9091ZM13.8421 24.5784C13.8421 24.8386 13.7387 25.0881 13.5548 25.272C13.3708 25.456 13.1213 25.5593 12.8612 25.5593C12.601 25.5593 12.3515 25.456 12.1675 25.272C11.9836 25.0881 11.8802 24.8386 11.8802 24.5784V23.7226H13.8421V24.5784ZM17.7392 6.23096C18.0721 6.231 18.4016 6.29661 18.7091 6.42404C19.0166 6.55147 19.296 6.73823 19.5312 6.97364C19.7665 7.20906 19.9531 7.48852 20.0804 7.79606C20.2077 8.10361 20.2731 8.43321 20.273 8.76605C20.2731 9.09885 20.2076 9.4284 20.0803 9.73589C19.953 10.0434 19.7664 10.3228 19.5311 10.5581C19.2958 10.7935 19.0165 10.9802 18.709 11.1076C18.4016 11.2349 18.072 11.3005 17.7392 11.3005C17.067 11.3005 16.4222 11.0334 15.9469 10.5581C15.4715 10.0827 15.2045 9.43798 15.2045 8.76572C15.2045 8.09346 15.4715 7.44873 15.9469 6.97337C16.4222 6.49801 17.067 6.23096 17.7392 6.23096ZM24.9475 22.7347H10.5297V14.3087H24.9475V22.7347ZM22.6956 15.0047H12.8364V22.0502H22.6956V15.0047Z" fill="white"/>
<path d="M18.2176 19.1695V19.788H20.0233C20.0985 19.788 20.2087 19.8556 20.2087 19.9724C20.2087 21.0257 20.0768 21.5218 19.5219 21.5218C18.9464 21.5218 18.8283 20.2759 18.2176 20.1939V21.3863H17.2526V20.1916C16.6118 20.2402 16.5084 21.5218 15.9103 21.5218C15.3557 21.5218 15.2537 21.0257 15.2537 19.9724C15.2537 19.8556 15.3643 19.788 15.4391 19.788H17.2523V19.1695H15.3751C15.3234 19.1695 15.2737 19.149 15.2372 19.1124C15.2006 19.0758 15.18 19.0262 15.18 18.9744C15.18 18.9227 15.2006 18.8731 15.2372 18.8365C15.2737 18.7999 15.3234 18.7794 15.3751 18.7794H17.2523V18.1609H15.1395C15.0877 18.1609 15.038 18.1403 15.0013 18.1036C14.9647 18.067 14.9441 18.0173 14.9441 17.9655C14.9441 17.9136 14.9647 17.8639 15.0013 17.8273C15.038 17.7906 15.0877 17.7701 15.1395 17.7701H17.2523V17.1522H15.2691C15.2434 17.1522 15.218 17.1472 15.1942 17.1374C15.1705 17.1276 15.1489 17.1132 15.1307 17.095C15.1126 17.0768 15.0982 17.0553 15.0883 17.0315C15.0785 17.0078 15.0735 16.9823 15.0735 16.9566C15.0735 16.8497 15.1612 16.7607 15.2691 16.7607H17.2523V16.1432H15.6986C15.6467 16.1432 15.5968 16.1226 15.5601 16.0858C15.5234 16.0491 15.5027 15.9993 15.5027 15.9473C15.5027 15.8954 15.5234 15.8455 15.5601 15.8088C15.5968 15.7721 15.6467 15.7514 15.6986 15.7514H17.2523V15.4099H18.2173V15.7514H19.771C19.8229 15.7514 19.8728 15.7721 19.9095 15.8088C19.9462 15.8455 19.9669 15.8954 19.9669 15.9473C19.9669 15.9993 19.9462 16.0491 19.9095 16.0858C19.8728 16.1226 19.8229 16.1432 19.771 16.1432H18.2173V16.7604H20.2064C20.2583 16.7607 20.308 16.7814 20.3446 16.8181C20.3813 16.8548 20.402 16.9044 20.4023 16.9563C20.4023 16.982 20.3973 17.0075 20.3875 17.0313C20.3776 17.055 20.3632 17.0766 20.345 17.0948C20.3268 17.113 20.3052 17.1274 20.2814 17.1372C20.2576 17.147 20.2321 17.152 20.2064 17.1519H18.2173V17.7697H20.3367C20.3885 17.7697 20.4382 17.7903 20.4748 17.827C20.5115 17.8636 20.5321 17.9133 20.5321 17.9651C20.5321 18.0169 20.5115 18.0666 20.4748 18.1033C20.4382 18.1399 20.3885 18.1605 20.3367 18.1605H18.2173V18.779H20.0948C20.1211 18.778 20.1474 18.7822 20.172 18.7915C20.1966 18.8008 20.2191 18.815 20.238 18.8333C20.257 18.8515 20.2721 18.8733 20.2824 18.8976C20.2928 18.9218 20.2981 18.9478 20.2981 18.9741C20.2981 19.0004 20.2928 19.0265 20.2824 19.0507C20.2721 19.0749 20.257 19.0967 20.238 19.115C20.2191 19.1332 20.1966 19.1474 20.172 19.1567C20.1474 19.166 20.1211 19.1703 20.0948 19.1692L18.2176 19.1695ZM20.6924 11.9209H14.8691C13.8155 11.9209 12.8407 12.483 12.2924 13.3213H23.1841C22.9235 12.894 22.5575 12.5408 22.1212 12.2956C21.6849 12.0504 21.1929 11.9214 20.6924 11.9209Z" fill="white"/>
</svg>
