<svg width="36" height="36" viewBox="0 0 36 36" fill="none" xmlns="http://www.w3.org/2000/svg">
<path fill-rule="evenodd" clip-rule="evenodd" d="M16.9021 35.866L16.9079 35.868C17.2879 36.0349 17.5 35.9961 17.5 35.9961C17.5 35.9961 17.7121 36.0349 18.094 35.868L18.0979 35.866L18.1094 35.8602L18.1441 35.8447C18.3272 35.7591 18.5079 35.6685 18.6861 35.573C19.0448 35.3866 19.5462 35.1071 20.146 34.7325C21.3417 33.9872 22.9328 32.8576 24.5316 31.3068C27.7253 28.209 31 23.3664 31 16.5866C31 14.8024 30.6508 13.0357 29.9724 11.3872C29.2939 9.73884 28.2995 8.24106 27.0459 6.97943C25.7924 5.7178 24.3041 4.71701 22.6662 4.03422C21.0283 3.35143 19.2728 3 17.5 3C15.7272 3 13.9717 3.35143 12.3338 4.03422C10.6959 4.71701 9.20765 5.7178 7.95406 6.97943C6.70047 8.24106 5.70606 9.73884 5.02763 11.3872C4.34919 13.0357 4 14.8024 4 16.5866C4 23.3644 7.27471 28.209 10.4704 31.3068C11.8083 32.6001 13.2776 33.7483 14.854 34.7325C15.4646 35.1141 16.0927 35.4664 16.7363 35.7884L16.8559 35.8447L16.8906 35.8602L16.9021 35.866Z" fill="#FF960A"/>
<path d="M9.499 13.3366C9.64474 13.0453 9.8576 12.7928 10.1201 12.5998C10.3825 12.4069 10.687 12.279 11.0086 12.2268C11.3301 12.1746 11.6595 12.1995 11.9695 12.2995C12.2795 12.3994 12.5613 12.5716 12.7918 12.8018L13.7956 13.8042C13.8607 13.8693 13.9123 13.9466 13.9475 14.0316C13.9828 14.1167 14.0009 14.2078 14.0009 14.2998C14.0009 14.3919 13.9828 14.483 13.9475 14.5681C13.9123 14.6531 13.8607 14.7304 13.7956 14.7954C13.7305 14.8605 13.6533 14.9122 13.5682 14.9474C13.4832 14.9826 13.392 15.0007 13.3 15.0007C13.208 15.0007 13.1168 14.9826 13.0318 14.9474C12.9467 14.9122 12.8695 14.8605 12.8044 14.7954L11.802 13.7916C11.7284 13.7184 11.6385 13.6637 11.5397 13.6319C11.4408 13.6001 11.3359 13.5923 11.2334 13.6089C11.1309 13.6256 11.0339 13.6663 10.9502 13.7278C10.8665 13.7892 10.7986 13.8697 10.752 13.9624L8.8312 17.7998H14.3458C15.4896 17.7998 16.4458 18.5922 16.716 19.6548C16.9723 19.5892 17.2355 19.554 17.5 19.5498C17.78 19.5498 18.039 19.5974 18.2826 19.6548C18.4152 19.1261 18.7202 18.6567 19.1495 18.3208C19.5787 17.9848 20.1077 17.8015 20.6528 17.7998H26.1674L24.2494 13.9638C24.203 13.8707 24.1352 13.7899 24.0514 13.7282C23.9677 13.6664 23.8705 13.6254 23.7678 13.6086C23.6651 13.5918 23.5599 13.5996 23.4608 13.6314C23.3618 13.6633 23.2717 13.7182 23.198 13.7916L22.1956 14.7954C22.0642 14.9267 21.886 15.0004 21.7002 15.0002C21.5145 15.0001 21.3364 14.9262 21.2051 14.7947C21.0738 14.6633 21.0002 14.4851 21.0003 14.2994C21.0004 14.1136 21.0744 13.9355 21.2058 13.8042L22.2082 12.8018C22.4388 12.5719 22.7207 12.4 23.0306 12.3002C23.3406 12.2004 23.6698 12.1756 23.9913 12.2278C24.3127 12.28 24.6172 12.4077 24.8796 12.6005C25.1421 12.7933 25.355 13.0456 25.501 13.3366L27.9174 18.1666C27.9692 18.2646 28 18.3794 28 18.4998V19.8998C28 20.0855 27.9263 20.2635 27.795 20.3948C27.6637 20.5261 27.4857 20.5998 27.3 20.5998H26.6V21.2998C26.6 23.5244 25.1972 24.7999 22.75 24.7999H22.05C19.6028 24.7999 18.2 23.5244 18.2 21.2998V21.0772C17.9743 21.0001 17.7384 20.9572 17.5 20.9498C17.262 20.9498 17.01 21.01 16.8 21.0772V21.2998C16.8 23.5244 15.3972 24.7999 12.95 24.7999H12.25C9.8028 24.7999 8.4 23.5244 8.4 21.2998V20.5998H7.7C7.51435 20.5998 7.3363 20.5261 7.20503 20.3948C7.07375 20.2635 7 20.0855 7 19.8998V18.4998C7.00011 18.384 7.02898 18.27 7.084 18.168L7.0826 18.1666L9.499 13.3366ZM20.6528 19.1998C20.3737 19.2002 20.1061 19.3113 19.9088 19.5086C19.7114 19.706 19.6004 19.9735 19.6 20.2526V21.2998C19.6 22.2771 19.88 23.3998 22.05 23.3998H22.75C24.92 23.3998 25.2 22.2771 25.2 21.2998V20.254C25.1996 19.9746 25.0884 19.7066 24.8908 19.509C24.6932 19.3114 24.4253 19.2002 24.1458 19.1998H20.6528ZM10.8528 19.1998C10.5738 19.2006 10.3065 19.3117 10.1092 19.509C9.9119 19.7063 9.80074 19.9737 9.8 20.2526V21.2998C9.8 22.2771 10.0786 23.3998 12.25 23.3998H12.95C15.1214 23.3998 15.4 22.2771 15.4 21.2998V20.2526C15.3996 19.9733 15.2884 19.7055 15.0907 19.5081C14.8931 19.3107 14.6251 19.1998 14.3458 19.1998H10.8528Z" fill="white"/>
</svg>
