<svg width="13" height="11" viewBox="0 0 13 11" fill="none" xmlns="http://www.w3.org/2000/svg">
    <path
        d="M5.86182 3.58586C5.86182 4.64497 5.00687 5.49992 3.94775 5.49992C2.88864 5.49992 2.03369 4.64497 2.03369 3.58586C2.03369 2.52674 2.88864 1.67179 3.94775 1.67179C5.00687 1.67179 5.86182 2.52674 5.86182 3.58586ZM7.77588 10.6041H0.119629V9.32804C0.119629 7.91802 1.83591 6.77596 3.94775 6.77596C6.0596 6.77596 7.77588 7.91802 7.77588 9.32804M3.30973 3.58586C3.30973 3.93677 3.59684 4.22388 3.94775 4.22388C4.29867 4.22388 4.58577 3.93677 4.58577 3.58586C4.58577 3.23494 4.29867 2.94784 3.94775 2.94784C3.59684 2.94784 3.30973 3.23494 3.30973 3.58586ZM1.39567 9.32804H6.49984C6.49984 8.62622 5.35778 8.052 3.94775 8.052C2.53773 8.052 1.39567 8.62622 1.39567 9.32804ZM12.88 5.49992V6.77596H7.13786V5.49992M12.88 2.94784V4.22388H7.13786V2.94784M12.88 0.395752V1.67179H7.13786V0.395752H12.88Z"
        fill="#A0A0A0" />
</svg>
