<?xml version="1.0" encoding="UTF-8"?>
<svg xmlns="http://www.w3.org/2000/svg" width="480pt" height="480pt" viewBox="0 0 480 480"
    version="1.1">
    <g id="surface1">
        <path style="stroke:none;fill:#1CC9BC;"
            d="M 236.84375 31.578125 C 140.933594 31.578125 63.15625 109.355469 63.15625 205.261719 C 63.15625 319.488281 176.089844 374.136719 190.214844 386.902344 C 204.707031 399.855469 216.613281 429.03125 221.421875 445.558594 C 223.765625 453.578125 230.367188 457.585938 236.84375 457.769531 C 243.378906 457.585938 249.917969 453.515625 252.261719 445.558594 C 257.074219 429.03125 268.976563 399.917969 283.46875 386.902344 C 297.59375 374.136719 410.527344 319.488281 410.527344 205.261719 C 410.527344 109.355469 332.75 31.578125 236.84375 31.578125 Z M 198.355469 189.226563 C 195.578125 188.980469 191.199219 186.203125 189.90625 175.226563 C 189.226563 169.367188 191.941406 166.035156 193.667969 164.988281 C 193.667969 164.988281 189.472656 155.488281 189.472656 146.050781 C 189.472656 117.988281 203.351563 94.738281 236.84375 94.738281 C 254.914063 94.738281 260.527344 107.566406 260.527344 107.566406 C 276.6875 107.566406 284.210938 125.265625 284.210938 146.050781 C 284.210938 156.414063 280.015625 164.988281 280.015625 164.988281 C 281.742188 166.035156 284.457031 169.367188 283.777344 175.226563 C 282.484375 186.203125 278.105469 188.980469 275.328125 189.226563 C 274.21875 199.464844 264.105469 212.542969 260.527344 214.453125 L 260.527344 231.539063 C 267.621094 254.605469 319.183594 243.316406 329.605469 284.210938 L 144.078125 284.210938 C 154.503906 243.316406 206.066406 254.605469 213.15625 231.539063 L 213.15625 214.453125 C 209.582031 212.601563 199.464844 199.464844 198.355469 189.226563 Z " />
    </g>
</svg>
