<svg width="36" height="36" viewBox="0 0 36 36" fill="none" xmlns="http://www.w3.org/2000/svg">
<path fill-rule="evenodd" clip-rule="evenodd" d="M16.9021 35.866L16.9079 35.868C17.2879 36.0349 17.5 35.9961 17.5 35.9961C17.5 35.9961 17.7121 36.0349 18.094 35.868L18.0979 35.866L18.1094 35.8602L18.1441 35.8447C18.3272 35.7591 18.5079 35.6685 18.6861 35.573C19.0448 35.3866 19.5462 35.1071 20.146 34.7325C21.3417 33.9872 22.9328 32.8576 24.5316 31.3068C27.7253 28.209 31 23.3664 31 16.5866C31 14.8024 30.6508 13.0357 29.9724 11.3872C29.2939 9.73884 28.2995 8.24106 27.0459 6.97943C25.7924 5.7178 24.3041 4.71701 22.6662 4.03422C21.0283 3.35143 19.2728 3 17.5 3C15.7272 3 13.9717 3.35143 12.3338 4.03422C10.6959 4.71701 9.20765 5.7178 7.95406 6.97943C6.70047 8.24106 5.70606 9.73884 5.02763 11.3872C4.34919 13.0357 4 14.8024 4 16.5866C4 23.3644 7.27471 28.209 10.4704 31.3068C11.8083 32.6001 13.2776 33.7483 14.854 34.7325C15.4646 35.1141 16.0927 35.4664 16.7363 35.7884L16.8559 35.8447L16.8906 35.8602L16.9021 35.866Z" fill="#FF960A"/>
<path d="M9.45502 24.4451V24.4444V20.5556C9.45502 20.2623 9.55408 20.0231 9.76721 19.8109C9.98038 19.5987 10.2214 19.4996 10.5172 19.5L11.0178 19.5006V19V15.675V15.3939L10.7776 15.2478C10.6075 15.1443 10.475 15.0139 10.3739 14.854C10.2868 14.7163 10.2364 14.5486 10.2364 14.3333V13.5556C10.2364 13.2623 10.3355 13.0231 10.5486 12.8109C10.7618 12.5987 11.0028 12.4996 11.2986 12.5H11.2992H15.2061C15.5028 12.5 15.7443 12.5995 15.9575 12.8117C16.1706 13.0238 16.2692 13.2626 16.2689 13.5549V13.5556V14.3333C16.2689 14.5479 16.2185 14.7154 16.1314 14.8533C16.0301 15.0135 15.8971 15.1448 15.7263 15.2494L15.4875 15.3957V15.6758V19V19.5H15.9875H19.113H19.613V19V15.675V15.3939L19.3729 15.2478C19.2027 15.1443 19.0702 15.0139 18.9691 14.854C18.8821 14.7163 18.8316 14.5486 18.8316 14.3333V13.5556C18.8316 13.2623 18.9307 13.0231 19.1438 12.8109C19.357 12.5987 19.598 12.4996 19.8938 12.5H19.8944H23.8013C24.0981 12.5 24.3395 12.5995 24.5527 12.8117C24.7658 13.0238 24.8645 13.2626 24.8641 13.5549V13.5556V14.3333C24.8641 14.5479 24.8138 14.7154 24.7266 14.8533C24.6253 15.0135 24.4924 15.1448 24.3215 15.2494L24.0827 15.3957V15.6758V19V19.5H24.5827C24.8794 19.5 25.1209 19.5995 25.3341 19.8117C25.5472 20.0238 25.6458 20.2626 25.6455 20.5549V20.5556V24.4444C25.6455 24.7377 25.5464 24.9769 25.3333 25.1891C25.1201 25.4013 24.8791 25.5004 24.5833 25.5H24.5827H10.5178C10.2211 25.5 9.97962 25.4005 9.76643 25.1883C9.55332 24.9762 9.45466 24.7374 9.45502 24.4451ZM20.1758 19V19.5H20.6758H23.02H23.52V19V15.8889V15.3889H23.02H20.6758H20.1758V15.8889V19ZM11.5806 19V19.5H12.0806H14.4247H14.9247V19V15.8889V15.3889H14.4247H12.0806H11.5806V15.8889V19ZM25.1492 15.1204C25.006 15.347 24.8171 15.5321 24.5827 15.6758V18.5V19C25.0125 19 25.3805 19.1524 25.6868 19.4573C25.9931 19.7622 26.146 20.1283 26.1455 20.5556V24.4444C26.1455 24.8722 25.9923 25.2386 25.686 25.5434C25.3797 25.8483 25.012 26.0005 24.5827 26H10.5178C10.088 26 9.71999 25.8476 9.41369 25.5427C9.10739 25.2378 8.9545 24.8717 8.95502 24.4444L25.1492 15.1204Z" stroke="white"/>
</svg>
