<svg width="16" height="18" viewBox="0 0 16 18" fill="none" xmlns="http://www.w3.org/2000/svg">
<path d="M12.6665 5.66667C12.5339 5.66667 12.4067 5.61399 12.313 5.52022C12.2192 5.42645 12.1665 5.29927 12.1665 5.16667V2C12.1665 1.86739 12.1138 1.74021 12.0201 1.64645C11.9263 1.55268 11.7991 1.5 11.6665 1.5H4.33317C4.26751 1.5 4.20249 1.51293 4.14183 1.53806C4.08117 1.56319 4.02605 1.60002 3.97962 1.64645C3.93319 1.69288 3.89636 1.748 3.87123 1.80866C3.8461 1.86932 3.83317 1.93434 3.83317 2V5.16667C3.83317 5.29927 3.78049 5.42645 3.68672 5.52022C3.59296 5.61399 3.46578 5.66667 3.33317 5.66667H1.83317C1.76751 5.66667 1.70249 5.6796 1.64183 5.70473C1.58117 5.72985 1.52605 5.76668 1.47962 5.81311C1.43319 5.85954 1.39636 5.91466 1.37123 5.97532C1.3461 6.03599 1.33317 6.10101 1.33317 6.16667V16C1.33317 16.0657 1.3461 16.1307 1.37123 16.1913C1.39636 16.252 1.43319 16.3071 1.47962 16.3536C1.52605 16.4 1.58117 16.4368 1.64183 16.4619C1.70249 16.4871 1.76751 16.5 1.83317 16.5H14.1665C14.2991 16.5 14.4263 16.4473 14.5201 16.3536C14.6138 16.2598 14.6665 16.1326 14.6665 16V6.16667C14.6665 6.03406 14.6138 5.90688 14.5201 5.81311C14.4263 5.71934 14.2991 5.66667 14.1665 5.66667H12.6665Z" stroke="#535353" stroke-width="1.5"/>
<path d="M9.67301 5.66667H8.00634M8.00634 5.66667H6.33967M8.00634 5.66667V4M8.00634 5.66667V7.33333M4.66634 13.175L4.65801 13.1658M4.66634 9.84167L4.65801 9.8325M7.99967 9.84167L7.99134 9.8325M11.333 9.84167L11.3247 9.8325M11.333 13.175L11.3247 13.1658M7.99967 13.175L7.99134 13.1658" stroke="#535353" stroke-width="1.5" stroke-linecap="round" stroke-linejoin="round"/>
</svg>
