<svg width="27" height="28" viewBox="0 0 27 28" fill="none" xmlns="http://www.w3.org/2000/svg">
    <path d="M20.0664 2.6543L24.6 7.38022V25.3518H7.66406V25.4104H24.6578V7.4397L20.0664 2.6543Z"
        fill="white" />
    <path d="M20.0094 2.5918H7.60547V25.3479H24.5992V7.3772L20.0094 2.5918Z" fill="#F4F4F4" />
    <path d="M7.4801 3.81445H2.27344V9.37719H18.6512V3.81445H7.4801Z" fill="#7A7B7C" />
    <path d="M18.7418 9.28361H2.38281V3.7168H18.7418V9.28361Z" fill="#DD2025" />
    <path
        d="M7.80324 4.65882H6.73828V8.56993H7.57591V7.25075L7.76087 7.26134C7.9406 7.25825 8.11863 7.22605 8.28806 7.16601C8.4366 7.11492 8.57325 7.03426 8.68976 6.9289C8.80832 6.82853 8.90179 6.70185 8.96273 6.55897C9.04445 6.32145 9.07364 6.06902 9.04828 5.81912C9.04319 5.6406 9.01189 5.4638 8.95539 5.29438C8.90396 5.17208 8.82762 5.06183 8.73125 4.97065C8.63487 4.87946 8.52057 4.80934 8.39561 4.76475C8.28758 4.72564 8.17595 4.69725 8.06236 4.68001C7.97633 4.66673 7.88947 4.65965 7.80243 4.65882M7.64843 6.52801H7.57591V5.32208H7.73317C7.80258 5.31708 7.87222 5.32773 7.93695 5.35326C8.00169 5.37879 8.05986 5.41853 8.10717 5.46956C8.20521 5.60076 8.25758 5.76045 8.25628 5.92423C8.25628 6.12467 8.25628 6.30638 8.07539 6.4343C7.94508 6.50598 7.79674 6.53906 7.64843 6.52801ZM10.6396 4.64823C10.5492 4.64823 10.4612 4.65475 10.3992 4.65719L10.2053 4.66208H9.56976V8.57319H10.3178C10.6036 8.58103 10.8882 8.53258 11.1554 8.4306C11.3704 8.34531 11.5609 8.20781 11.7095 8.03053C11.854 7.85164 11.9577 7.64336 12.0134 7.42023C12.0774 7.16753 12.1086 6.90764 12.1063 6.64697C12.1221 6.3391 12.0983 6.03047 12.0354 5.72867C11.9757 5.50653 11.864 5.30179 11.7095 5.13141C11.5882 4.99384 11.4398 4.88287 11.2735 4.80549C11.1308 4.73942 10.9806 4.69073 10.8262 4.66045C10.7648 4.65031 10.7026 4.64567 10.6404 4.6466M10.4921 7.85453H10.4107V5.35793H10.4212C10.5892 5.33861 10.7592 5.36892 10.9101 5.44512C11.0207 5.53338 11.1107 5.64458 11.1741 5.77104C11.2425 5.90413 11.282 6.0502 11.2898 6.19964C11.2972 6.3789 11.2898 6.52556 11.2898 6.64697C11.2932 6.78682 11.2842 6.9267 11.2629 7.06497C11.2378 7.20693 11.1914 7.34429 11.1252 7.47238C11.0504 7.59147 10.9492 7.69181 10.8295 7.76571C10.7289 7.83073 10.6099 7.86107 10.4905 7.85208M14.6298 4.66208H12.6498V8.57319H13.4874V7.02178H14.5467V6.29497H13.4874V5.3889H14.6281V4.66208"
        fill="#464648" />
    <path
        d="M18.1732 17.4652C18.1732 17.4652 20.7708 16.9942 20.7708 17.8816C20.7708 18.7689 19.1615 18.4079 18.1732 17.4652ZM16.2526 17.5328C15.8399 17.624 15.4377 17.7575 15.0524 17.9313L15.3783 17.1979C15.7043 16.4646 16.0424 15.4648 16.0424 15.4648C16.4313 16.1194 16.8838 16.734 17.3934 17.2998C17.0091 17.3571 16.6283 17.4354 16.2526 17.5345V17.5328ZM15.2243 12.2365C15.2243 11.4633 15.4745 11.2522 15.6692 11.2522C15.864 11.2522 16.0832 11.3459 16.0905 12.0173C16.027 12.6925 15.8857 13.358 15.6692 14.0006C15.3727 13.4611 15.2193 12.8546 15.2235 12.239L15.2243 12.2365ZM11.4363 20.8051C10.6394 20.3285 13.1075 18.861 13.5548 18.8137C13.5523 18.8145 12.2706 21.3038 11.4363 20.8051ZM21.5294 17.9867C21.5212 17.9052 21.4479 17.0032 19.8427 17.0415C19.1736 17.0307 18.5049 17.0779 17.844 17.1825C17.2037 16.5375 16.6524 15.8099 16.2046 15.0191C16.4867 14.2038 16.6575 13.3542 16.7122 12.4932C16.6886 11.5154 16.4547 10.9548 15.7051 10.963C14.9555 10.9711 14.8463 11.6271 14.9449 12.6032C15.0414 13.2592 15.2236 13.8996 15.4867 14.5082C15.4867 14.5082 15.1404 15.5862 14.6825 16.6585C14.2246 17.7308 13.9117 18.2931 13.9117 18.2931C13.1154 18.5523 12.3658 18.9374 11.6913 19.4338C11.0199 20.0588 10.7469 20.5387 11.1006 21.0186C11.4053 21.4325 12.4719 21.5262 13.4252 20.2771C13.9318 19.632 14.3945 18.9536 14.8104 18.2466C14.8104 18.2466 16.264 17.8482 16.7163 17.739C17.1685 17.6298 17.7152 17.5434 17.7152 17.5434C17.7152 17.5434 19.0426 18.8789 20.3226 18.8316C21.6027 18.7844 21.5408 18.0665 21.5326 17.9883"
        fill="#DD2025" />
    <path d="M19.9453 2.6582V7.44361H24.5352L19.9453 2.6582Z" fill="white" />
    <path d="M20.0117 2.5918V7.3772H24.6016L20.0117 2.5918Z" fill="#F4F4F4" />
    <path
        d="M7.73684 4.60023H6.67188V8.51134H7.51276V7.19297L7.69854 7.20356C7.87827 7.20047 8.0563 7.16827 8.22573 7.10823C8.37426 7.05712 8.51091 6.97646 8.62743 6.87112C8.7451 6.77048 8.83771 6.64383 8.89795 6.50119C8.97967 6.26367 9.00886 6.01124 8.9835 5.76134C8.97842 5.58282 8.94712 5.40602 8.89062 5.2366C8.83918 5.1143 8.76284 5.00405 8.66647 4.91287C8.5701 4.82168 8.45579 4.75156 8.33084 4.70697C8.2223 4.66748 8.11013 4.63882 7.99595 4.62141C7.90993 4.60814 7.82306 4.60106 7.73602 4.60023M7.58202 6.46941H7.5095V5.26349H7.66758C7.73698 5.25848 7.80663 5.26914 7.87136 5.29466C7.9361 5.32019 7.99427 5.35994 8.04158 5.41097C8.13962 5.54217 8.19199 5.70186 8.19069 5.86564C8.19069 6.06608 8.19069 6.24778 8.0098 6.37571C7.87949 6.44738 7.73115 6.47966 7.58284 6.4686M10.5732 4.58964C10.4828 4.58964 10.3948 4.59615 10.3328 4.5986L10.1414 4.60349H9.5058V8.5146H10.2538C10.5397 8.52243 10.8243 8.47398 11.0914 8.37201C11.3065 8.28671 11.4969 8.14922 11.6455 7.97193C11.79 7.79304 11.8937 7.58476 11.9494 7.36164C12.0134 7.10894 12.0447 6.84905 12.0423 6.58838C12.0581 6.2805 12.0343 5.97188 11.9714 5.67008C11.9118 5.44793 11.8 5.24319 11.6455 5.07282C11.5243 4.93525 11.3758 4.82428 11.2096 4.7469C11.0668 4.68083 10.9166 4.63213 10.7622 4.60186C10.7009 4.59172 10.6387 4.58708 10.5765 4.58801M10.4282 7.79593H10.3467V5.29934H10.3573C10.5253 5.28001 10.6952 5.31032 10.8462 5.38652C10.9567 5.47479 11.0468 5.58599 11.1102 5.71245C11.1786 5.84554 11.218 5.99161 11.2259 6.14104C11.2332 6.3203 11.2259 6.46697 11.2259 6.58838C11.2292 6.72823 11.2202 6.8681 11.199 7.00638C11.1739 7.14834 11.1274 7.28569 11.0613 7.41378C10.9864 7.53287 10.8852 7.63322 10.7655 7.70712C10.665 7.77214 10.5459 7.80247 10.4265 7.79349M14.5634 4.60349H12.5834V8.5146H13.421V6.96319H14.4802V6.23638H13.421V5.3303H14.5617V4.60349"
        fill="white" />
</svg>
