<svg width="36" height="36" viewBox="0 0 36 36" fill="none" xmlns="http://www.w3.org/2000/svg">
    <path fill-rule="evenodd" clip-rule="evenodd"
        d="M16.9021 35.866L16.9079 35.868C17.2879 36.0349 17.5 35.9961 17.5 35.9961C17.5 35.9961 17.7121 36.0349 18.094 35.868L18.0979 35.866L18.1094 35.8602L18.1441 35.8447C18.3272 35.7591 18.5079 35.6685 18.6861 35.573C19.0448 35.3866 19.5462 35.1071 20.146 34.7325C21.3417 33.9872 22.9328 32.8576 24.5316 31.3068C27.7253 28.209 31 23.3664 31 16.5866C31 14.8024 30.6508 13.0357 29.9724 11.3872C29.2939 9.73884 28.2995 8.24106 27.0459 6.97943C25.7924 5.7178 24.3041 4.71701 22.6662 4.03422C21.0283 3.35143 19.2728 3 17.5 3C15.7272 3 13.9717 3.35143 12.3338 4.03422C10.6959 4.71701 9.20765 5.7178 7.95406 6.97943C6.70047 8.24106 5.70606 9.73884 5.02763 11.3872C4.34919 13.0357 4 14.8024 4 16.5866C4 23.3644 7.27471 28.209 10.4704 31.3068C11.8083 32.6001 13.2776 33.7483 14.854 34.7325C15.4646 35.1141 16.0927 35.4664 16.7363 35.7884L16.8559 35.8447L16.8906 35.8602L16.9021 35.866Z"
        fill="#FF960A" />
    <path fill-rule="evenodd" clip-rule="evenodd"
        d="M14.5902 11.6917L14.612 11.5967C14.6536 11.4202 14.7217 11.1605 14.8622 10.9048C15.0055 10.6443 15.2275 10.3803 15.5759 10.2065C15.923 10.0335 16.358 9.96903 16.896 10.0403C17.4897 10.1194 18.6824 10.3158 19.7361 10.8517C20.7957 11.3909 21.7885 12.3183 21.7885 13.8628C21.7885 14.6608 21.4797 15.517 21.1805 16.0752C21.0368 16.3435 20.8662 16.6 20.6952 16.7382C20.656 16.7698 20.6002 16.8094 20.5309 16.8371C20.3409 17.4616 19.9627 18.0121 19.4479 18.4134C18.9331 18.8148 18.307 19.0473 17.6551 19.0793C17.0031 19.1112 16.3572 18.9411 15.8057 18.592C15.2541 18.243 14.8238 17.7321 14.5736 17.1293L14.5641 17.1308L14.4236 16.9602L14.4232 16.9594L14.4224 16.9587L14.4204 16.9559L14.4137 16.948C14.3798 16.9058 14.3472 16.8626 14.3159 16.8185C14.2305 16.7 14.1499 16.578 14.0745 16.4528C13.8884 16.1448 13.664 15.7062 13.5203 15.1944C13.377 14.6826 13.3113 14.0825 13.4617 13.4634C13.6082 12.861 13.9537 12.268 14.5796 11.7384L14.5902 11.6917ZM15.2552 16.6942C15.4269 17.1879 15.7566 17.6113 16.1932 17.8986C16.6298 18.186 17.149 18.3214 17.6703 18.2838C18.1917 18.2463 18.6861 18.0379 19.077 17.6909C19.4679 17.3439 19.7335 16.8777 19.8327 16.3645L19.8774 16.3795C19.8758 16.3572 19.875 16.3347 19.875 16.3123C19.875 15.6572 19.784 15.2 19.6993 14.915C19.6827 14.8595 19.6644 14.8046 19.6442 14.7503L19.628 14.7511H19.6122C19.3162 14.7575 19.0203 14.7349 18.7287 14.6838C18.049 14.569 17.1287 14.2824 16.0449 13.6186C16.0212 13.6717 15.9974 13.7314 15.9737 13.7979C15.8961 14.0176 15.8324 14.2785 15.7774 14.554C15.7287 14.7966 15.6887 15.0408 15.6507 15.2696L15.636 15.3599C15.5953 15.6053 15.5545 15.8464 15.507 16.0209C15.4239 16.3241 15.3392 16.5395 15.2552 16.6938V16.6942ZM14.7011 15.9568C14.5223 15.6499 14.3819 15.3222 14.2831 14.9811C14.1647 14.5591 14.1212 14.1023 14.2312 13.6507C14.3381 13.2113 14.5966 12.7494 15.1282 12.3116C15.224 12.2467 15.2675 12.1596 15.2794 12.1362V12.1358C15.3002 12.093 15.3169 12.0484 15.3293 12.0024C15.3419 11.9573 15.3558 11.8955 15.3689 11.8401L15.3827 11.778C15.4203 11.6185 15.469 11.4447 15.5561 11.286C15.6408 11.1324 15.7568 11.001 15.9294 10.9151C16.1027 10.8284 16.3711 10.769 16.7915 10.8252C17.3666 10.9016 18.4484 11.0849 19.3771 11.5575C20.2994 12.0266 20.9968 12.7367 20.9968 13.8628C20.9968 14.3814 20.8226 14.9712 20.6129 15.4363C20.5733 15.1331 20.5163 14.8853 20.4577 14.6889C20.4168 14.5486 20.3659 14.4114 20.3053 14.2785C20.2824 14.2292 20.2573 14.181 20.2301 14.134L20.2234 14.1233L20.221 14.1193L20.2198 14.1174L20.219 14.1162L20.0725 13.889L19.8105 13.9416L19.805 13.9428L19.7666 13.9479C19.7077 13.9545 19.6485 13.9585 19.5892 13.9598C19.3452 13.9645 19.1012 13.9454 18.8609 13.9028C18.2224 13.7952 17.2843 13.5018 16.1447 12.743L15.8676 12.5582L15.6384 12.7996C15.4496 12.9983 15.3214 13.2695 15.2275 13.5335C15.1317 13.8047 15.0593 14.1075 15.0011 14.398C14.9529 14.6453 14.9091 14.8934 14.8697 15.1422L14.8547 15.2308C14.8123 15.4885 14.7779 15.6853 14.743 15.8127C14.73 15.861 14.7161 15.9091 14.7011 15.9568Z"
        fill="white" />
    <path fill-rule="evenodd" clip-rule="evenodd"
        d="M15.091 19.4218C15.007 19.2548 14.9037 19.0486 14.7292 19.0885C12.5901 19.5754 10.375 20.981 10.375 22.4757V24.6251H24.625V22.4757C24.625 21.2985 23.2507 20.1763 21.6218 19.5148L21.6198 19.5109C21.618 19.5073 21.6162 19.5037 21.6143 19.5002L21.6012 19.5065C21.1686 19.3324 20.7181 19.1899 20.2708 19.0885C20.0717 19.043 19.8659 19.3169 19.776 19.4883H15.125C15.1139 19.4677 15.1028 19.4448 15.091 19.4218ZM20.4304 19.9443C20.6033 19.9922 20.7755 20.0461 20.9453 20.1054C20.9501 20.2408 20.9398 20.4007 20.9176 20.5638C20.8951 20.7326 20.8591 20.8994 20.81 21.0626H20.2708C20.1973 21.0626 20.1253 21.0831 20.0628 21.1217C20.0003 21.1604 19.9498 21.2157 19.917 21.2814L19.5211 22.0731C19.4936 22.128 19.4792 22.1886 19.4792 22.2501V23.0417C19.4792 23.1467 19.5209 23.2474 19.5951 23.3216C19.6693 23.3958 19.77 23.4376 19.875 23.4376H20.6667V22.6459H20.2708V22.3435L20.5155 21.8542H21.6095L21.8542 22.3435V22.6459H21.4583V23.4376H22.25C22.355 23.4376 22.4557 23.3958 22.5299 23.3216C22.6041 23.2474 22.6458 23.1467 22.6458 23.0417V22.2501C22.6458 22.1886 22.6314 22.128 22.6039 22.0731L22.208 21.2814C22.1752 21.2157 22.1247 21.1604 22.0622 21.1217C21.9997 21.0831 21.9277 21.0626 21.8542 21.0626H21.6301C21.679 20.8531 21.7119 20.6401 21.7283 20.4257C22.1142 20.6081 22.4729 20.8175 22.7836 21.0439C23.5444 21.5989 23.8333 22.1182 23.8333 22.4757V23.8334H11.1667V22.4757C11.1667 22.1182 11.4556 21.5989 12.2164 21.0439C12.5988 20.7649 13.0552 20.5123 13.5444 20.3033C13.558 20.6188 13.6086 20.9315 13.6952 21.2351L13.6984 21.2462C13.4618 21.3959 13.2856 21.6244 13.2011 21.8914C13.1166 22.1584 13.1292 22.4466 13.2366 22.7052C13.344 22.9638 13.5393 23.1762 13.7881 23.3047C14.0369 23.4333 14.3231 23.4698 14.5962 23.4078C14.8692 23.3458 15.1116 23.1893 15.2805 22.966C15.4494 22.7426 15.5339 22.4667 15.5191 22.1871C15.5044 21.9075 15.3912 21.6421 15.1998 21.4377C15.0083 21.2334 14.7508 21.1033 14.4727 21.0705C14.4221 20.9049 14.385 20.7354 14.3618 20.5638C14.3398 20.4103 14.3307 20.2553 14.3345 20.1003C14.3357 20.0707 14.3376 20.0411 14.3405 20.0116C14.388 19.997 14.4355 19.9827 14.483 19.9693L14.6472 20.2804H20.2538L20.4304 19.9447V19.9443ZM14.3333 22.6522C14.5463 22.6522 14.7292 22.4781 14.7292 22.2504C14.7292 22.0232 14.5463 21.8487 14.3333 21.8487C14.1204 21.8487 13.9375 22.0228 13.9375 22.2504C13.9375 22.4777 14.1204 22.6522 14.3333 22.6522Z"
        fill="white" />
</svg>
