<svg width="29" height="29" viewBox="0 0 29 29" fill="none" xmlns="http://www.w3.org/2000/svg">
    <g clip-path="url(#clip0_9685_50148)">
        <path
            d="M6.27905 25.641C6.27905 25.988 6.41687 26.3207 6.66219 26.566C6.90751 26.8114 7.24023 26.9492 7.58717 26.9492C7.93411 26.9492 8.26684 26.8114 8.51216 26.566C8.75748 26.3207 8.8953 25.988 8.8953 25.641V24.5H6.27948L6.27905 25.641ZM9.73048 28.7486H13.4505L13.4449 26.9129H14.6913L14.693 28.7486H18.4201V24.5H9.73048V28.7486ZM19.2846 25.641C19.2846 25.9879 19.4224 26.3206 19.6677 26.5659C19.913 26.8112 20.2456 26.949 20.5925 26.949C20.9394 26.949 21.2721 26.8112 21.5173 26.5659C21.7626 26.3206 21.9004 25.9879 21.9004 25.641V24.5H19.2846V25.641ZM14.0884 1.1778C13.6446 1.17785 13.2052 1.26533 12.7952 1.43524C12.3853 1.60515 12.0128 1.85416 11.6991 2.16805C11.3853 2.48193 11.1365 2.85454 10.9668 3.2646C10.7971 3.67466 10.7099 4.11414 10.71 4.55792C10.7099 5.00165 10.7972 5.44105 10.967 5.85104C11.1367 6.26102 11.3855 6.63355 11.6992 6.94736C12.013 7.26116 12.3854 7.51009 12.7954 7.67992C13.2053 7.84976 13.6447 7.93717 14.0884 7.93717C14.9848 7.93717 15.8444 7.5811 16.4782 6.94728C17.112 6.31347 17.4681 5.45383 17.4681 4.55748C17.4681 3.66113 17.112 2.8015 16.4782 2.16768C15.8444 1.53387 14.9848 1.1778 14.0884 1.1778ZM4.47742 23.1827H23.7012V11.9482H4.47742V23.1827ZM7.47998 12.8761H20.6255V22.2701H7.47998V12.8761Z"
            fill="#FF960A" />
        <path
            d="M13.4502 18.4293V19.254H11.0426C10.9425 19.254 10.7955 19.3442 10.7955 19.4999C10.7955 20.9043 10.9713 21.5658 11.7111 21.5658C12.4785 21.5658 12.636 19.9046 13.4502 19.7952V21.3851H14.7369V19.7922C15.5913 19.8569 15.7291 21.5658 16.5267 21.5658C17.2661 21.5658 17.4021 20.9043 17.4021 19.4999C17.4021 19.3442 17.2547 19.254 17.155 19.254H14.7373V18.4293H17.2403C17.3093 18.4293 17.3754 18.4019 17.4242 18.3532C17.473 18.3044 17.5004 18.2382 17.5004 18.1692C17.5004 18.1003 17.473 18.0341 17.4242 17.9853C17.3754 17.9366 17.3093 17.9092 17.2403 17.9092H14.7373V17.0845H17.5544C17.6235 17.0845 17.6898 17.057 17.7386 17.0082C17.7875 16.9593 17.8149 16.893 17.8149 16.8239C17.8149 16.7548 17.7875 16.6886 17.7386 16.6397C17.6898 16.5908 17.6235 16.5634 17.5544 16.5634H14.7373V15.7396H17.3816C17.4158 15.7396 17.4498 15.7329 17.4814 15.7199C17.5131 15.7068 17.5419 15.6876 17.5661 15.6633C17.5903 15.6391 17.6095 15.6104 17.6226 15.5787C17.6357 15.547 17.6424 15.5131 17.6423 15.4788C17.6423 15.3362 17.5255 15.2176 17.3816 15.2176H14.7373V14.3943H16.8089C16.8782 14.3943 16.9446 14.3668 16.9936 14.3178C17.0426 14.2688 17.0701 14.2024 17.0701 14.1331C17.0701 14.0638 17.0426 13.9974 16.9936 13.9484C16.9446 13.8994 16.8782 13.8719 16.8089 13.8719H14.7373V13.4165H13.4506V13.8719H11.3791C11.3098 13.8719 11.2434 13.8994 11.1944 13.9484C11.1454 13.9974 11.1179 14.0638 11.1179 14.1331C11.1179 14.2024 11.1454 14.2688 11.1944 14.3178C11.2434 14.3668 11.3098 14.3943 11.3791 14.3943H13.4506V15.2172H10.7985C10.7294 15.2176 10.6631 15.2452 10.6142 15.2941C10.5653 15.343 10.5377 15.4092 10.5373 15.4784C10.5373 15.5127 10.544 15.5467 10.5571 15.5784C10.5702 15.61 10.5895 15.6388 10.6137 15.6631C10.638 15.6873 10.6668 15.7065 10.6985 15.7195C10.7302 15.7326 10.7642 15.7393 10.7985 15.7392H13.4506V16.563H10.6248C10.5557 16.563 10.4895 16.5904 10.4406 16.6393C10.3918 16.6881 10.3643 16.7544 10.3643 16.8235C10.3643 16.8926 10.3918 16.9589 10.4406 17.0077C10.4895 17.0566 10.5557 17.084 10.6248 17.084H13.4506V17.9087H10.9473C10.9122 17.9073 10.8772 17.9129 10.8444 17.9254C10.8116 17.9378 10.7817 17.9567 10.7563 17.981C10.731 18.0053 10.7109 18.0345 10.6971 18.0667C10.6834 18.099 10.6763 18.1337 10.6763 18.1688C10.6763 18.2039 10.6834 18.2386 10.6971 18.2709C10.7109 18.3032 10.731 18.3323 10.7563 18.3566C10.7817 18.3809 10.8116 18.3998 10.8444 18.4123C10.8772 18.4247 10.9122 18.4303 10.9473 18.4289L13.4502 18.4293ZM10.1506 8.76453H17.9149C19.3197 8.76453 20.6195 9.51396 21.3506 10.6318H6.82821C7.17571 10.062 7.66373 9.59113 8.24549 9.26417C8.82725 8.9372 9.48324 8.76516 10.1506 8.76453Z"
            fill="#FF960A" />
    </g>
    <defs>
        <clipPath id="clip0_9685_50148">
            <rect width="28" height="28" fill="white"
                transform="matrix(-1 0 0 1 28.4072 0.870117)" />
        </clipPath>
    </defs>
</svg>
