<svg width="22" height="19" viewBox="0 0 22 19" fill="none" xmlns="http://www.w3.org/2000/svg">
    <path
        d="M18.5 2.25C18.5 1.65326 18.2629 1.08097 17.841 0.65901C17.419 0.237053 16.8467 0 16.25 0H6.75C6.15326 0 5.58097 0.237053 5.15901 0.65901C4.73705 1.08097 4.5 1.65326 4.5 2.25V11H0.5V14.75C0.5 15.1768 0.584063 15.5994 0.747391 15.9937C0.910719 16.388 1.15011 16.7463 1.4519 17.0481C1.75369 17.3499 2.11197 17.5893 2.50628 17.7526C2.90059 17.9159 3.3232 18 3.75 18H9.55C9.517 17.838 9.5 17.671 9.5 17.5V16.5H6V2.25C6 2.05109 6.07902 1.86032 6.21967 1.71967C6.36032 1.57902 6.55109 1.5 6.75 1.5H16.25C16.4489 1.5 16.6397 1.57902 16.7803 1.71967C16.921 1.86032 17 2.05109 17 2.25V11H18.5V2.25ZM4.5 16.5H3.75C3.28587 16.5 2.84075 16.3156 2.51256 15.9874C2.18438 15.6592 2 15.2141 2 14.75V12.5H4.5V16.5ZM14.25 4C14.4489 4 14.6397 4.07902 14.7803 4.21967C14.921 4.36032 15 4.55109 15 4.75C15 4.94891 14.921 5.13968 14.7803 5.28033C14.6397 5.42098 14.4489 5.5 14.25 5.5H8.75C8.55109 5.5 8.36032 5.42098 8.21967 5.28033C8.07902 5.13968 8 4.94891 8 4.75C8 4.55109 8.07902 4.36032 8.21967 4.21967C8.36032 4.07902 8.55109 4 8.75 4H14.25ZM15 8.75C15 8.55109 14.921 8.36032 14.7803 8.21967C14.6397 8.07902 14.4489 8 14.25 8H8.75C8.55109 8 8.36032 8.07902 8.21967 8.21967C8.07902 8.36032 8 8.55109 8 8.75C8 8.94891 8.07902 9.13968 8.21967 9.28033C8.36032 9.42098 8.55109 9.5 8.75 9.5H14.25C14.4489 9.5 14.6397 9.42098 14.7803 9.28033C14.921 9.13968 15 8.94891 15 8.75ZM20 12C20.3978 12 20.7794 12.158 21.0607 12.4393C21.342 12.7206 21.5 13.1022 21.5 13.5V17.5C21.5 17.8978 21.342 18.2794 21.0607 18.5607C20.7794 18.842 20.3978 19 20 19H12C11.6022 19 11.2206 18.842 10.9393 18.5607C10.658 18.2794 10.5 17.8978 10.5 17.5V13.5C10.5 13.1022 10.658 12.7206 10.9393 12.4393C11.2206 12.158 11.6022 12 12 12H20ZM12.5 13C12.5 13.2652 12.3946 13.5196 12.2071 13.7071C12.0196 13.8946 11.7652 14 11.5 14V15C12.0304 15 12.5391 14.7893 12.9142 14.4142C13.2893 14.0391 13.5 13.5304 13.5 13H12.5ZM13.5 18C13.5 17.4696 13.2893 16.9609 12.9142 16.5858C12.5391 16.2107 12.0304 16 11.5 16V17C11.7652 17 12.0196 17.1054 12.2071 17.2929C12.3946 17.4804 12.5 17.7348 12.5 18H13.5ZM20.5 14C20.2348 14 19.9804 13.8946 19.7929 13.7071C19.6054 13.5196 19.5 13.2652 19.5 13H18.5C18.5 13.5304 18.7107 14.0391 19.0858 14.4142C19.4609 14.7893 19.9696 15 20.5 15V14ZM20.5 16C19.9696 16 19.4609 16.2107 19.0858 16.5858C18.7107 16.9609 18.5 17.4696 18.5 18H19.5C19.5 17.7348 19.6054 17.4804 19.7929 17.2929C19.9804 17.1054 20.2348 17 20.5 17V16ZM16 13.75C15.5359 13.75 15.0908 13.9344 14.7626 14.2626C14.4344 14.5908 14.25 15.0359 14.25 15.5C14.25 15.9641 14.4344 16.4092 14.7626 16.7374C15.0908 17.0656 15.5359 17.25 16 17.25C16.4641 17.25 16.9092 17.0656 17.2374 16.7374C17.5656 16.4092 17.75 15.9641 17.75 15.5C17.75 15.0359 17.5656 14.5908 17.2374 14.2626C16.9092 13.9344 16.4641 13.75 16 13.75Z"
        fill="#18C0B3" />
</svg>
