<svg width="16" height="16" viewBox="0 0 16 16" fill="none" xmlns="http://www.w3.org/2000/svg">
    <path fill-rule="evenodd" clip-rule="evenodd"
        d="M11.0628 1.88558L11.0399 1.78558C10.9961 1.59975 10.9244 1.32641 10.7765 1.05725C10.6257 0.783081 10.3919 0.505164 10.0253 0.322248C9.65985 0.140164 9.20194 0.0722475 8.63569 0.147248C8.01069 0.230581 6.75527 0.437248 5.6461 1.00141C4.53069 1.56891 3.48569 2.54516 3.48569 4.171C3.48569 5.011 3.81069 5.91225 4.12569 6.49975C4.27694 6.78225 4.45652 7.05225 4.63652 7.19766C4.67777 7.231 4.73652 7.27267 4.80944 7.30183C5.00945 7.95915 5.4076 8.53865 5.94945 8.9611C6.4913 9.38355 7.15041 9.62834 7.83666 9.66199C8.52291 9.69564 9.2028 9.51651 9.78339 9.1491C10.364 8.78169 10.8169 8.24393 11.0803 7.60933L11.0903 7.611L11.2382 7.43141L11.2386 7.43058L11.2394 7.42975L11.2415 7.42683L11.2486 7.4185C11.2843 7.37412 11.3186 7.32868 11.3515 7.28225C11.4415 7.15746 11.5263 7.02902 11.6057 6.89725C11.8015 6.57308 12.0378 6.11141 12.189 5.57266C12.3399 5.03391 12.409 4.40225 12.2507 3.75058C12.0965 3.11641 11.7328 2.49225 11.074 1.93475L11.0628 1.88558ZM10.3628 7.15141C10.1821 7.6711 9.83504 8.1167 9.37545 8.41919C8.91586 8.72169 8.36935 8.86421 7.82057 8.82468C7.27179 8.78515 6.75135 8.56577 6.33986 8.20053C5.92837 7.83528 5.6488 7.34455 5.54444 6.80433L5.49735 6.82016C5.49901 6.79659 5.49985 6.77296 5.49985 6.74933C5.49985 6.05975 5.59569 5.5785 5.68485 5.2785C5.70226 5.2201 5.72158 5.1623 5.74277 5.10516L5.75985 5.106H5.77652C6.08809 5.11273 6.39957 5.089 6.70652 5.03516C7.42194 4.91433 8.39069 4.61266 9.53152 3.91391C9.55652 3.96975 9.58152 4.03266 9.60652 4.10266C9.68819 4.33391 9.75527 4.6085 9.81319 4.8985C9.86444 5.15391 9.90652 5.411 9.94652 5.65183L9.96194 5.74683C10.0049 6.00516 10.0478 6.25891 10.0978 6.44266C10.1853 6.76183 10.2744 6.9885 10.3628 7.151V7.15141ZM10.9461 6.37516C11.1343 6.05213 11.2821 5.70718 11.3861 5.34808C11.5107 4.90391 11.5565 4.42308 11.4407 3.94766C11.3282 3.48516 11.0561 2.99891 10.4965 2.53808C10.3957 2.46975 10.3499 2.37808 10.3374 2.3535V2.35308C10.3155 2.30803 10.2979 2.26102 10.2849 2.21266C10.2715 2.16516 10.2569 2.10016 10.2432 2.04183L10.2286 1.97641C10.189 1.8085 10.1378 1.62558 10.0461 1.4585C9.95694 1.29683 9.83485 1.1585 9.65319 1.06808C9.47069 0.976831 9.18819 0.914331 8.74569 0.973498C8.14027 1.05391 7.00152 1.24683 6.02402 1.74433C5.05319 2.23808 4.31902 2.98558 4.31902 4.171C4.31902 4.71683 4.50235 5.33766 4.72319 5.82725C4.76485 5.50808 4.82485 5.24725 4.88652 5.04058C4.9295 4.89287 4.98312 4.74847 5.04694 4.6085C5.071 4.55662 5.09741 4.50588 5.1261 4.45641L5.13319 4.44516L5.13569 4.441L5.13694 4.43891L5.13777 4.43766L5.29194 4.1985L5.56777 4.25391L5.5736 4.25516L5.61402 4.26058C5.67603 4.26749 5.73831 4.27166 5.80069 4.27308C6.05758 4.27805 6.31435 4.25795 6.56735 4.21308C7.23944 4.09975 8.22694 3.791 9.42652 2.99225L9.71819 2.79766L9.95944 3.05183C10.1582 3.261 10.2932 3.54641 10.3919 3.82433C10.4928 4.10975 10.569 4.4285 10.6303 4.73433C10.6811 4.9946 10.7272 5.25575 10.7686 5.51766L10.7844 5.611C10.829 5.88225 10.8653 6.08933 10.9019 6.2235C10.9156 6.27435 10.9303 6.32492 10.9461 6.37516Z"
        fill="#535353" />
    <path fill-rule="evenodd" clip-rule="evenodd"
        d="M10.5358 10.0241C10.6242 9.84827 10.7329 9.63118 10.9167 9.67327C13.1683 10.1858 15.5 11.6654 15.5 13.2387V15.5012H0.5V13.2387C0.5 11.9995 1.94667 10.8183 3.66125 10.122L3.66333 10.1179C3.66524 10.1141 3.66718 10.1103 3.66917 10.1066L3.68292 10.1133C4.13833 9.92993 4.6125 9.77993 5.08333 9.67327C5.29292 9.62535 5.50958 9.91368 5.60417 10.0941H10.5C10.5117 10.0724 10.5233 10.0483 10.5358 10.0241ZM4.91542 10.5741C4.73333 10.6245 4.55208 10.6812 4.37333 10.7437C4.36833 10.8862 4.37917 11.0545 4.4025 11.2262C4.42626 11.4039 4.46416 11.5795 4.51583 11.7512H5.08333C5.16069 11.7512 5.23651 11.7728 5.3023 11.8135C5.36809 11.8542 5.42125 11.9124 5.45583 11.9816L5.8725 12.8149C5.90148 12.8727 5.9166 12.9365 5.91667 13.0012V13.8345C5.91667 13.945 5.87277 14.051 5.79463 14.1291C5.71649 14.2073 5.61051 14.2512 5.5 14.2512H4.66667V13.4179H5.08333V13.0995L4.82583 12.5845H3.67417L3.41667 13.0995V13.4179H3.83333V14.2512H3C2.88949 14.2512 2.78351 14.2073 2.70537 14.1291C2.62723 14.051 2.58333 13.945 2.58333 13.8345V13.0012C2.5834 12.9365 2.59852 12.8727 2.6275 12.8149L3.04417 11.9816C3.07875 11.9124 3.13191 11.8542 3.1977 11.8135C3.26349 11.7728 3.33931 11.7512 3.41667 11.7512H3.6525C3.60102 11.5307 3.56647 11.3065 3.54917 11.0808C3.14292 11.2729 2.76542 11.4933 2.43833 11.7316C1.6375 12.3158 1.33333 12.8624 1.33333 13.2387V14.6679H14.6667V13.2387C14.6667 12.8624 14.3625 12.3158 13.5617 11.7316C13.1592 11.4378 12.6788 11.172 12.1638 10.952C12.1494 11.2841 12.0962 11.6133 12.005 11.9329L12.0017 11.9445C12.2508 12.1021 12.4362 12.3426 12.5251 12.6237C12.6141 12.9047 12.6008 13.2081 12.4878 13.4803C12.3747 13.7525 12.1691 13.976 11.9072 14.1114C11.6454 14.2467 11.3441 14.2851 11.0567 14.2199C10.7692 14.1546 10.5141 13.9899 10.3363 13.7548C10.1585 13.5197 10.0696 13.2293 10.0851 12.9349C10.1007 12.6406 10.2197 12.3612 10.4213 12.1461C10.6229 11.931 10.8939 11.7941 11.1867 11.7595C11.2399 11.5852 11.2789 11.4068 11.3033 11.2262C11.3265 11.0646 11.3361 10.9014 11.3321 10.7383C11.3309 10.7071 11.3288 10.676 11.3258 10.6449C11.2758 10.6295 11.2258 10.6145 11.1758 10.6004L11.0029 10.9279H5.10125L4.91542 10.5745V10.5741ZM11.3333 13.4245C11.1092 13.4245 10.9167 13.2412 10.9167 13.0016C10.9167 12.7624 11.1092 12.5787 11.3333 12.5787C11.5575 12.5787 11.75 12.762 11.75 13.0016C11.75 13.2408 11.5575 13.4245 11.3333 13.4245Z"
        fill="#535353" />
</svg>
