<svg width="18" height="18" viewBox="0 0 18 18" fill="none" xmlns="http://www.w3.org/2000/svg">
    <g clip-path="url(#clip0_6466_39946)">
        <path
            d="M7.64313 0.964844C6.66227 0.981367 5.77633 1.56637 5.37555 2.47094L10.1744 3.92043C10.3853 2.66219 9.62946 1.44227 8.41305 1.07207C8.19508 1.00598 7.96657 0.969766 7.73805 0.964844H7.64313ZM5.19274 3.07703C4.97828 4.33879 5.73414 5.56223 6.95407 5.93137C8.1775 6.30051 9.4818 5.69582 9.99508 4.52512L5.19274 3.07703ZM14.5267 4.6341C13.6373 4.63762 12.6916 5.06652 11.9779 6.07551L7.59039 12.2946C6.41266 13.9611 6.92594 15.7048 8.0861 16.5275C9.24977 17.3536 11.0603 17.2587 12.238 15.5923L16.622 9.37668C17.7998 7.70676 17.2865 5.96652 16.1263 5.14035C15.6904 4.83098 15.1666 4.65168 14.6146 4.6341H14.5267ZM14.4634 5.2423C14.5091 5.2423 14.5548 5.2423 14.597 5.24582C15.0224 5.2634 15.4232 5.41457 15.7607 5.65715C16.6642 6.29699 17.1177 7.57316 16.1017 9.01105L13.8341 12.2279C12.5755 11.8904 10.9584 10.7407 10.2236 9.66145L12.4982 6.44113C13.0923 5.6009 13.799 5.25637 14.4634 5.2423ZM3.20817 7.92121C2.86996 7.92473 2.53633 7.99504 2.22625 8.13215C1.06223 8.64191 0.456487 9.9427 0.811565 11.1661L5.40719 9.15871C4.94664 8.38176 4.10992 7.91066 3.20817 7.92121ZM5.6568 9.73527L1.06188 11.7462C1.71051 12.8501 3.07633 13.2931 4.24703 12.7833C5.41422 12.27 6.01891 10.9622 5.6568 9.73527Z"
            fill="white" />
    </g>
    <defs>
        <clipPath id="clip0_6466_39946">
            <rect width="18" height="18" fill="white" />
        </clipPath>
    </defs>
</svg>
