<svg width="25" height="24" viewBox="0 0 25 24" fill="none" xmlns="http://www.w3.org/2000/svg">
    <path
        d="M16.5 8.5L12.522 4.5L8.5 8.5M12.522 4.521V16.5M9.5 11.5H7.5C6.96957 11.5 6.46086 11.7107 6.08579 12.0858C5.71071 12.4609 5.5 12.9696 5.5 13.5V17.5C5.5 18.0304 5.71071 18.5391 6.08579 18.9142C6.46086 19.2893 6.96957 19.5 7.5 19.5H17.5C18.0304 19.5 18.5391 19.2893 18.9142 18.9142C19.2893 18.5391 19.5 18.0304 19.5 17.5V13.5C19.5 12.9696 19.2893 12.4609 18.9142 12.0858C18.5391 11.7107 18.0304 11.5 17.5 11.5H15.5"
        stroke="black" stroke-linecap="round" stroke-linejoin="round" />
</svg>
