<svg width="30" height="26" viewBox="0 0 30 26" fill="none" xmlns="http://www.w3.org/2000/svg">
    <path
        d="M29.7253 13.6633L26.9128 16.4758C26.8258 16.5629 26.7224 16.6321 26.6086 16.6792C26.4947 16.7264 26.3727 16.7507 26.2495 16.7507C26.1263 16.7507 26.0044 16.7264 25.8905 16.6792C25.7767 16.6321 25.6733 16.5629 25.5863 16.4758L22.7738 13.6633C22.5979 13.4873 22.499 13.2487 22.499 13C22.499 12.7512 22.5979 12.5126 22.7738 12.3367C22.9497 12.1608 23.1883 12.0619 23.437 12.0619C23.6858 12.0619 23.9244 12.1608 24.1003 12.3367L25.312 13.5496V13C25.3131 10.8163 24.621 8.68872 23.3355 6.92362C22.0499 5.15852 20.2372 3.84706 18.1586 3.17815C16.0799 2.50924 13.8426 2.51742 11.7688 3.20151C9.69513 3.8856 7.89209 5.21028 6.61947 6.98474C6.47432 7.18676 6.25487 7.32284 6.00939 7.36306C5.76391 7.40328 5.5125 7.34433 5.31048 7.19919C5.10846 7.05405 4.97237 6.83459 4.93216 6.58911C4.89194 6.34363 4.95089 6.09223 5.09603 5.8902C6.60012 3.79316 8.73105 2.22768 11.1818 1.41929C13.6326 0.610897 16.2768 0.601325 18.7334 1.39195C21.1899 2.18258 23.3321 3.73259 24.8514 5.81869C26.3706 7.90479 27.1884 10.4193 27.187 13V13.5496L28.3988 12.3367C28.5747 12.1608 28.8133 12.0619 29.062 12.0619C29.3108 12.0619 29.5494 12.1608 29.7253 12.3367C29.9012 12.5126 30.0001 12.7512 30.0001 13C30.0001 13.2487 29.9012 13.4873 29.7253 13.6633ZM24.8995 20.1086C23.395 22.204 21.2644 23.7681 18.8144 24.5755C16.3644 25.383 13.7214 25.3922 11.2658 24.6019C8.81016 23.8116 6.66865 22.2625 5.14951 20.1776C3.63037 18.0928 2.81194 15.5796 2.81204 13V12.4504L1.60033 13.6633C1.42441 13.8392 1.18582 13.938 0.937045 13.938C0.688266 13.938 0.449677 13.8392 0.273764 13.6633C0.0978504 13.4873 -0.000976562 13.2487 -0.000976562 13C-0.000976563 12.7512 0.0978504 12.5126 0.273764 12.3367L3.08626 9.52419C3.17333 9.43702 3.27673 9.36788 3.39054 9.3207C3.50435 9.27352 3.62634 9.24923 3.74954 9.24923C3.87275 9.24923 3.99474 9.27352 4.10855 9.3207C4.22236 9.36788 4.32576 9.43702 4.41283 9.52419L7.22533 12.3367C7.40124 12.5126 7.50007 12.7512 7.50007 13C7.50007 13.2487 7.40124 13.4873 7.22533 13.6633C7.04941 13.8392 6.81082 13.938 6.56204 13.938C6.31327 13.938 6.07468 13.8392 5.89876 13.6633L4.68704 12.4504V13C4.68482 15.5244 5.61265 17.9612 7.29329 19.8449C8.33888 18.3298 9.8091 17.1576 11.5191 16.4758C10.6005 15.7523 9.93028 14.7606 9.6015 13.6385C9.27273 12.5165 9.30177 11.3198 9.68461 10.2151C10.0674 9.11028 10.785 8.15226 11.7376 7.47422C12.6901 6.79618 13.8303 6.43182 14.9995 6.43182C16.1688 6.43182 17.3089 6.79618 18.2615 7.47422C19.2141 8.15226 19.9316 9.11028 20.3145 10.2151C20.6973 11.3198 20.7264 12.5165 20.3976 13.6385C20.0688 14.7606 19.3985 15.7523 18.48 16.4758C20.1915 17.1578 21.6628 18.3313 22.7081 19.8484C22.9451 19.5822 23.1685 19.3041 23.3773 19.0152C23.5224 18.8132 23.7419 18.6771 23.9874 18.6369C24.2328 18.5967 24.4842 18.6556 24.6863 18.8008C24.8883 18.9459 25.0244 19.1653 25.0646 19.4108C25.1048 19.6563 25.0459 19.9077 24.9007 20.1097L24.8995 20.1086ZM14.9995 15.8125C15.7412 15.8125 16.4662 15.5925 17.0829 15.1805C17.6996 14.7684 18.1803 14.1828 18.4641 13.4975C18.7479 12.8123 18.8222 12.0583 18.6775 11.3309C18.5328 10.6035 18.1756 9.93527 17.6512 9.41082C17.1267 8.88637 16.4586 8.52922 15.7311 8.38453C15.0037 8.23983 14.2497 8.31409 13.5645 8.59792C12.8793 8.88175 12.2936 9.3624 11.8815 9.97908C11.4695 10.5958 11.2495 11.3208 11.2495 12.0625C11.2495 13.057 11.6446 14.0109 12.3479 14.7141C13.0512 15.4174 14.005 15.8125 14.9995 15.8125ZM14.9995 23.3125C17.2876 23.3095 19.5099 22.5474 21.3183 21.1457C20.6401 20.085 19.7058 19.2121 18.6015 18.6075C17.4972 18.0028 16.2585 17.6859 14.9995 17.6859C13.7406 17.6859 12.5019 18.0028 11.3976 18.6075C10.2933 19.2121 9.359 20.085 8.68079 21.1457C10.4865 22.5524 12.7106 23.3151 14.9995 23.3125Z"
        fill="white" />
</svg>
