<svg width="18" height="18" viewBox="0 0 18 18" fill="none" xmlns="http://www.w3.org/2000/svg">
    <path
        d="M3.49971 6.91574C4.04137 6.91574 4.55526 7.01296 5.04137 7.20741C5.52748 7.40185 5.97193 7.68657 6.37471 8.06157L14.333 15.6657H14.833C15.0692 15.6657 15.2672 15.5857 15.4272 15.4257C15.5872 15.2657 15.6669 15.068 15.6664 14.8324C15.6664 14.7213 15.6558 14.6032 15.6347 14.4782C15.6136 14.3532 15.5408 14.2282 15.4164 14.1032L11.6039 10.2907L10.1247 5.83241L8.58304 6.20741C8.05526 6.34629 7.5761 6.24907 7.14554 5.91574C6.71498 5.58241 6.49971 5.14491 6.49971 4.60324V2.85324L5.91637 2.56157L2.70804 6.85324C2.69415 6.86713 2.68721 6.87741 2.68721 6.88407C2.68721 6.89074 2.68026 6.90129 2.66637 6.91574H3.49971ZM3.49971 8.58241H2.54137C2.58304 8.67963 2.63526 8.76991 2.69804 8.85324C2.76082 8.93657 2.8336 9.01296 2.91637 9.08241L9.66637 15.2282C9.81915 15.381 9.99276 15.4921 10.1872 15.5616C10.3817 15.631 10.583 15.6657 10.7914 15.6657H11.9164L5.22887 9.26991C4.99276 9.03379 4.72554 8.86018 4.42721 8.74907C4.12887 8.63796 3.81971 8.58241 3.49971 8.58241ZM10.7914 17.3324C10.3747 17.3324 9.97887 17.256 9.60387 17.1032C9.22887 16.9505 8.88165 16.7352 8.56221 16.4574L1.79137 10.3116C1.15248 9.72824 0.794707 9.01296 0.71804 8.16574C0.641374 7.31852 0.860263 6.54768 1.37471 5.85324L4.58304 1.56157C4.81915 1.24213 5.13526 1.03018 5.53137 0.925738C5.92748 0.821294 6.30582 0.866571 6.66637 1.06157L7.24971 1.35324C7.54137 1.50602 7.76721 1.71435 7.92721 1.97824C8.08721 2.24213 8.16693 2.53379 8.16637 2.85324V4.60324L9.70804 4.20741C10.1247 4.09629 10.5275 4.14852 10.9164 4.36407C11.3053 4.57963 11.5692 4.88852 11.708 5.29074L13.0622 9.37407L16.6039 12.9157C16.8817 13.1935 17.0728 13.4921 17.1772 13.8116C17.2817 14.131 17.3336 14.4713 17.333 14.8324C17.333 15.5268 17.09 16.1171 16.6039 16.6032C16.1178 17.0893 15.5275 17.3324 14.833 17.3324H10.7914Z"
        fill="#18C0B3" />
</svg>
