<svg width="22" height="23" viewBox="0 0 22 23" fill="none" xmlns="http://www.w3.org/2000/svg">
    <path fill-rule="evenodd" clip-rule="evenodd"
        d="M6.71188 3.44059L6.74396 3.30059C6.80521 3.04043 6.90554 2.65776 7.11263 2.28093C7.32379 1.89709 7.65104 1.50801 8.16438 1.25193C8.67596 0.997011 9.31704 0.901928 10.1098 1.00693C10.9848 1.12359 12.7424 1.41293 14.2952 2.20276C15.8568 2.99726 17.3198 4.36401 17.3198 6.64018C17.3198 7.81618 16.8648 9.07793 16.4238 9.90043C16.212 10.2959 15.9606 10.6739 15.7086 10.8775C15.6509 10.9242 15.5686 10.9825 15.4665 11.0233C15.1865 11.9436 14.6291 12.7549 13.8705 13.3463C13.1119 13.9378 12.1892 14.2805 11.2284 14.3276C10.2677 14.3747 9.31583 14.1239 8.50302 13.6095C7.6902 13.0951 7.05609 12.3423 6.68738 11.4538L6.67338 11.4562L6.46629 11.2048L6.46571 11.2036L6.46454 11.2024L6.46163 11.1983L6.45171 11.1867C6.40179 11.1245 6.35374 11.0609 6.30763 10.9959C6.18167 10.8212 6.06295 10.6414 5.95179 10.4569C5.67763 10.0031 5.34688 9.35676 5.13513 8.60251C4.92396 7.84826 4.82713 6.96393 5.04879 6.05159C5.26463 5.16376 5.77388 4.28993 6.69613 3.50943L6.71188 3.44059ZM7.69188 10.8128C7.94487 11.5403 8.4307 12.1642 9.07413 12.5877C9.71755 13.0112 10.4827 13.2107 11.251 13.1553C12.0193 13.1 12.7479 12.7929 13.324 12.2815C13.9 11.7702 14.2914 11.0831 14.4375 10.3268L14.5035 10.349C14.5011 10.316 14.5 10.2829 14.5 10.2498C14.5 9.28443 14.3658 8.61068 14.241 8.19068C14.2166 8.10893 14.1895 8.02799 14.1599 7.94801L14.136 7.94918H14.1126C13.6764 7.9586 13.2404 7.92538 12.8106 7.85001C11.809 7.68084 10.4528 7.25851 8.85563 6.28026C8.82063 6.35843 8.78563 6.44651 8.75063 6.54451C8.63629 6.86826 8.54238 7.25268 8.4613 7.65868C8.38954 8.01626 8.33063 8.37618 8.27463 8.71334L8.25304 8.84634C8.19296 9.20801 8.13288 9.56326 8.06288 9.82051C7.94038 10.2673 7.81554 10.5847 7.69188 10.8122V10.8128ZM6.87521 9.72601C6.61174 9.27376 6.40485 8.79083 6.25921 8.28809C6.08479 7.66626 6.02063 6.99309 6.18279 6.32751C6.34029 5.68001 6.72121 4.99926 7.50463 4.35409C7.64579 4.25843 7.70996 4.13009 7.72746 4.09568V4.09509C7.75809 4.03203 7.7827 3.96621 7.80096 3.89851C7.81963 3.83201 7.84004 3.74101 7.85929 3.65934L7.87971 3.56776C7.93513 3.33268 8.00688 3.07659 8.13521 2.84268C8.26005 2.61634 8.43096 2.42268 8.68529 2.29609C8.94079 2.16834 9.33629 2.08084 9.95579 2.16368C10.8034 2.27626 12.3976 2.54634 13.7661 3.24284C15.1253 3.93409 16.1531 4.98059 16.1531 6.64018C16.1531 7.40434 15.8965 8.27351 15.5873 8.95893C15.529 8.51209 15.445 8.14693 15.3586 7.85759C15.2985 7.6508 15.2234 7.44864 15.134 7.25268C15.1004 7.18006 15.0634 7.10901 15.0232 7.03976L15.0133 7.02401L15.0098 7.01818L15.008 7.01526L15.0069 7.01351L14.791 6.67868L14.4049 6.75626L14.3967 6.75801L14.3401 6.76559C14.2533 6.77527 14.1661 6.78111 14.0788 6.78309C13.7191 6.79004 13.3597 6.76191 13.0055 6.69909C12.0645 6.54043 10.682 6.10818 9.00263 4.98993L8.59429 4.71751L8.25655 5.07334C7.9783 5.36618 7.7893 5.76576 7.65105 6.15484C7.50988 6.55443 7.40313 7.00068 7.31738 7.42884C7.24629 7.79322 7.18172 8.15883 7.12371 8.52551L7.10154 8.65618C7.03913 9.03593 6.98838 9.32584 6.93704 9.51368C6.91789 9.58487 6.89728 9.65566 6.87521 9.72601Z"
        fill="#FF960A" />
    <path fill-rule="evenodd" clip-rule="evenodd"
        d="M7.44983 14.8326C7.32617 14.5864 7.17392 14.2825 6.91667 14.3414C3.76433 15.0589 0.5 17.1303 0.5 19.333V22.5005H21.5V19.333C21.5 17.5982 19.4747 15.9444 17.0742 14.9697L17.0713 14.9638C17.0687 14.9585 17.0659 14.9533 17.0632 14.9481L17.0439 14.9574C16.4063 14.7007 15.7425 14.4907 15.0833 14.3414C14.7899 14.2743 14.4866 14.678 14.3542 14.9306H7.5C7.48367 14.9002 7.46733 14.8664 7.44983 14.8326ZM15.3184 15.6026C15.5733 15.6732 15.8271 15.7525 16.0773 15.84C16.0843 16.0395 16.0692 16.2752 16.0365 16.5155C16.0032 16.7643 15.9502 17.0101 15.8778 17.2505H15.0833C14.975 17.2505 14.8689 17.2808 14.7768 17.3377C14.6847 17.3947 14.6102 17.4762 14.5618 17.5731L13.9785 18.7397C13.9379 18.8207 13.9168 18.9099 13.9167 19.0005V20.1672C13.9167 20.3219 13.9781 20.4702 14.0875 20.5796C14.1969 20.689 14.3453 20.7505 14.5 20.7505H15.6667V19.5838H15.0833V19.1382L15.4438 18.4172H17.0562L17.4167 19.1382V19.5838H16.8333V20.7505H18C18.1547 20.7505 18.3031 20.689 18.4125 20.5796C18.5219 20.4702 18.5833 20.3219 18.5833 20.1672V19.0005C18.5832 18.9099 18.5621 18.8207 18.5215 18.7397L17.9382 17.5731C17.8898 17.4762 17.8153 17.3947 17.7232 17.3377C17.6311 17.2808 17.525 17.2505 17.4167 17.2505H17.0865C17.1586 16.9418 17.2069 16.628 17.2312 16.3119C17.7999 16.5808 18.3284 16.8894 18.7863 17.2231C19.9075 18.0409 20.3333 18.8062 20.3333 19.333V21.3338H1.66667V19.333C1.66667 18.8062 2.0925 18.0409 3.21367 17.2231C3.77717 16.8118 4.44975 16.4397 5.17075 16.1317C5.19078 16.5965 5.26537 17.0574 5.393 17.5048L5.39767 17.5212C5.04893 17.7418 4.78937 18.0785 4.66485 18.472C4.54032 18.8654 4.55883 19.2902 4.71711 19.6713C4.87538 20.0524 5.16325 20.3653 5.52985 20.5547C5.89646 20.7442 6.31822 20.798 6.72065 20.7066C7.12308 20.6153 7.48028 20.3847 7.72916 20.0555C7.97804 19.7263 8.1026 19.3198 8.08083 18.9077C8.05906 18.4956 7.89236 18.1045 7.61017 17.8034C7.32799 17.5023 6.94848 17.3106 6.53867 17.2622C6.46413 17.0181 6.4095 16.7684 6.37533 16.5155C6.34286 16.2893 6.32939 16.0608 6.33508 15.8324C6.33677 15.7888 6.33969 15.7452 6.34383 15.7017C6.41383 15.6802 6.48383 15.6592 6.55383 15.6393L6.79592 16.0978H15.0582L15.3184 15.6032V15.6026ZM6.33333 19.5932C6.64717 19.5932 6.91667 19.3365 6.91667 19.0011C6.91667 18.6662 6.64717 18.409 6.33333 18.409C6.0195 18.409 5.75 18.6657 5.75 19.0011C5.75 19.3359 6.0195 19.5932 6.33333 19.5932Z"
        fill="#FF960A" />
</svg>
