<svg width="16" height="18" viewBox="0 0 16 18" fill="none" xmlns="http://www.w3.org/2000/svg">
<path d="M14.25 2.4375V2.75H13.625C13.4592 2.75 13.3003 2.68415 13.1831 2.56694C13.0658 2.44973 13 2.29076 13 2.125V1.5H13.3125C13.5611 1.5 13.7996 1.59877 13.9754 1.77459C14.1512 1.9504 14.25 2.18886 14.25 2.4375ZM13.3125 0.25H7.6875C6.48 0.25 5.5 1.23 5.5 2.4375V3.11625L1.78125 6.835C1.375 7.24129 1.05276 7.72362 0.832924 8.25444C0.613087 8.78527 0.499959 9.3542 0.5 9.92875V17.125C0.5 17.2908 0.565847 17.4497 0.683058 17.5669C0.800268 17.6842 0.95924 17.75 1.125 17.75C1.29076 17.75 1.44973 17.6842 1.56694 17.5669C1.68415 17.4497 1.75 17.2908 1.75 17.125V9.92875C1.74992 9.51834 1.83069 9.11193 1.98769 8.73274C2.14468 8.35355 2.37484 8.00899 2.665 7.71875L5.5 4.88375V8.115L4.4325 9.1825C4.31514 9.29969 4.24914 9.4587 4.24903 9.62456C4.24891 9.79041 4.31468 9.94952 4.43188 10.0669C4.54907 10.1842 4.70808 10.2502 4.87393 10.2503C5.03979 10.2505 5.19889 10.1847 5.31625 10.0675L6.545 8.8375C6.55984 8.82402 6.57402 8.80984 6.5875 8.795L8.1175 7.265C8.20258 7.1767 8.30442 7.10624 8.41705 7.05776C8.52968 7.00927 8.65084 6.98372 8.77346 6.98261C8.89608 6.9815 9.01769 7.00485 9.13118 7.05129C9.24467 7.09773 9.34776 7.16633 9.43443 7.25308C9.5211 7.33983 9.5896 7.44299 9.63593 7.55652C9.68226 7.67006 9.70549 7.79169 9.70426 7.91431C9.70304 8.03693 9.67738 8.15807 9.62878 8.27065C9.58019 8.38324 9.50964 8.485 9.42125 8.57L7.5575 10.4325C7.49927 10.4905 7.45307 10.5595 7.42154 10.6354C7.39001 10.7114 7.37377 10.7928 7.37375 10.875V12.125C7.37375 12.4563 7.24223 12.7741 7.00807 13.0084C6.77392 13.2428 6.4563 13.3747 6.125 13.375C5.95924 13.375 5.80027 13.4408 5.68306 13.5581C5.56585 13.6753 5.5 13.8342 5.5 14V15.5625C5.5 16.1427 5.73047 16.6991 6.1407 17.1093C6.55094 17.5195 7.10734 17.75 7.6875 17.75H13.3125C13.8927 17.75 14.4491 17.5195 14.8593 17.1093C15.2695 16.6991 15.5 16.1427 15.5 15.5625V2.4375C15.5 1.23 14.52 0.25 13.3125 0.25ZM8 16.5H7.6875C7.43886 16.5 7.2004 16.4012 7.02459 16.2254C6.84877 16.0496 6.75 15.8111 6.75 15.5625V15.25H7.375C7.54076 15.25 7.69973 15.3158 7.81694 15.4331C7.93415 15.5503 8 15.7092 8 15.875V16.5ZM7.7375 14.035C8.01565 13.8008 8.23921 13.5086 8.39252 13.1789C8.54583 12.8491 8.62517 12.4899 8.625 12.1263V11.1337L8.86625 10.8925C9.17434 11.158 9.54255 11.3443 9.93895 11.4353C10.3354 11.5263 10.748 11.5192 11.141 11.4147C11.534 11.3101 11.8956 11.1112 12.1944 10.8353C12.4932 10.5594 12.7202 10.2147 12.8556 9.8312C12.991 9.44771 13.0309 9.03696 12.9716 8.63459C12.9124 8.23221 12.7559 7.85037 12.5157 7.52217C12.2755 7.19398 11.9588 6.92934 11.5932 6.75121C11.2276 6.57309 10.824 6.48686 10.4175 6.5C10.2225 6.27319 9.98285 6.08907 9.71343 5.95919C9.44402 5.8293 9.15069 5.75645 8.85181 5.74518C8.55294 5.73392 8.25496 5.78449 7.97653 5.89372C7.6981 6.00296 7.44523 6.16851 7.23375 6.38L6.75 6.865V4H7.375C7.87228 4 8.34919 3.80246 8.70083 3.45083C9.05246 3.09919 9.25 2.62228 9.25 2.125V1.5H11.75V2.125C11.75 2.62228 11.9475 3.09919 12.2992 3.45083C12.6508 3.80246 13.1277 4 13.625 4H14.25V14H13.625C13.1277 14 12.6508 14.1975 12.2992 14.5492C11.9475 14.9008 11.75 15.3777 11.75 15.875V16.5H9.25V15.875C9.25009 15.4406 9.09932 15.0196 8.82345 14.684C8.54758 14.3484 8.16374 14.119 7.7375 14.035ZM7.375 2.75H6.75V2.4375C6.75 2.18886 6.84877 1.9504 7.02459 1.77459C7.2004 1.59877 7.43886 1.5 7.6875 1.5H8V2.125C8 2.29076 7.93415 2.44973 7.81694 2.56694C7.69973 2.68415 7.54076 2.75 7.375 2.75ZM14.25 15.25V15.5625C14.25 16.08 13.83 16.5 13.3125 16.5H13V15.875C13 15.7092 13.0658 15.5503 13.1831 15.4331C13.3003 15.3158 13.4592 15.25 13.625 15.25H14.25ZM9.755 10.0038L10.305 9.45375C10.5179 9.24185 10.6843 8.98791 10.7936 8.70813C10.903 8.42835 10.9528 8.12886 10.94 7.82875C11.1069 7.89208 11.2582 7.99041 11.3839 8.11713C11.5096 8.24384 11.6067 8.39601 11.6687 8.56339C11.7307 8.73077 11.7561 8.90948 11.7432 9.0875C11.7304 9.26552 11.6795 9.43873 11.5941 9.59546C11.5088 9.75219 11.3908 9.88882 11.2482 9.99615C11.1056 10.1035 10.9416 10.179 10.7674 10.2177C10.5932 10.2564 10.4126 10.2573 10.238 10.2204C10.0634 10.1835 9.89869 10.1096 9.755 10.0038Z" fill="#535353"/>
</svg>
