<svg width="18" height="18" viewBox="0 0 18 18" fill="none" xmlns="http://www.w3.org/2000/svg">
    <path
        d="M3.36963 3.0001C3.2105 3.0001 3.05789 3.06331 2.94536 3.17583C2.83284 3.28836 2.76963 3.44097 2.76963 3.6001C2.76963 3.75923 2.83284 3.91184 2.94536 4.02436C3.05789 4.13688 3.2105 4.2001 3.36963 4.2001H14.1696C14.3288 4.2001 14.4814 4.13688 14.5939 4.02436C14.7064 3.91184 14.7696 3.75923 14.7696 3.6001C14.7696 3.44097 14.7064 3.28836 14.5939 3.17583C14.4814 3.06331 14.3288 3.0001 14.1696 3.0001H3.36963ZM4.56963 10.2001C5.04702 10.2001 5.50486 10.0105 5.84242 9.67289C6.17999 9.33532 6.36963 8.87749 6.36963 8.4001C6.36963 7.92271 6.17999 7.46487 5.84242 7.12731C5.50486 6.78974 5.04702 6.6001 4.56963 6.6001C4.09224 6.6001 3.6344 6.78974 3.29684 7.12731C2.95927 7.46487 2.76963 7.92271 2.76963 8.4001C2.76963 8.87749 2.95927 9.33532 3.29684 9.67289C3.6344 10.0105 4.09224 10.2001 4.56963 10.2001ZM4.56963 9.0001C4.4105 9.0001 4.25789 8.93688 4.14536 8.82436C4.03284 8.71184 3.96963 8.55923 3.96963 8.4001C3.96963 8.24097 4.03284 8.08835 4.14536 7.97583C4.25789 7.86331 4.4105 7.8001 4.56963 7.8001C4.72876 7.8001 4.88137 7.86331 4.99389 7.97583C5.10641 8.08835 5.16963 8.24097 5.16963 8.4001C5.16963 8.55923 5.10641 8.71184 4.99389 8.82436C4.88137 8.93688 4.72876 9.0001 4.56963 9.0001ZM6.36963 13.2001C6.36963 13.6775 6.17999 14.1353 5.84242 14.4729C5.50486 14.8105 5.04702 15.0001 4.56963 15.0001C4.09224 15.0001 3.6344 14.8105 3.29684 14.4729C2.95927 14.1353 2.76963 13.6775 2.76963 13.2001C2.76963 12.7227 2.95927 12.2649 3.29684 11.9273C3.6344 11.5897 4.09224 11.4001 4.56963 11.4001C5.04702 11.4001 5.50486 11.5897 5.84242 11.9273C6.17999 12.2649 6.36963 12.7227 6.36963 13.2001ZM5.16963 13.2001C5.16963 13.041 5.10641 12.8884 4.99389 12.7758C4.88137 12.6633 4.72876 12.6001 4.56963 12.6001C4.4105 12.6001 4.25789 12.6633 4.14536 12.7758C4.03284 12.8884 3.96963 13.041 3.96963 13.2001C3.96963 13.3592 4.03284 13.5118 4.14536 13.6244C4.25789 13.7369 4.4105 13.8001 4.56963 13.8001C4.72876 13.8001 4.88137 13.7369 4.99389 13.6244C5.10641 13.5118 5.16963 13.3592 5.16963 13.2001ZM7.56963 8.4001C7.56963 8.24097 7.63284 8.08835 7.74536 7.97583C7.85789 7.86331 8.0105 7.8001 8.16963 7.8001H14.1696C14.3288 7.8001 14.4814 7.86331 14.5939 7.97583C14.7064 8.08835 14.7696 8.24097 14.7696 8.4001C14.7696 8.55923 14.7064 8.71184 14.5939 8.82436C14.4814 8.93688 14.3288 9.0001 14.1696 9.0001H8.16963C8.0105 9.0001 7.85789 8.93688 7.74536 8.82436C7.63284 8.71184 7.56963 8.55923 7.56963 8.4001ZM8.16963 12.6001C8.0105 12.6001 7.85789 12.6633 7.74536 12.7758C7.63284 12.8884 7.56963 13.041 7.56963 13.2001C7.56963 13.3592 7.63284 13.5118 7.74536 13.6244C7.85789 13.7369 8.0105 13.8001 8.16963 13.8001H14.1696C14.3288 13.8001 14.4814 13.7369 14.5939 13.6244C14.7064 13.5118 14.7696 13.3592 14.7696 13.2001C14.7696 13.041 14.7064 12.8884 14.5939 12.7758C14.4814 12.6633 14.3288 12.6001 14.1696 12.6001H8.16963ZM3.96963 0.600098C3.01485 0.600098 2.09918 0.979382 1.42404 1.65451C0.748914 2.32964 0.369629 3.24532 0.369629 4.2001V13.8001C0.369629 14.7549 0.748914 15.6706 1.42404 16.3457C2.09918 17.0208 3.01485 17.4001 3.96963 17.4001H13.5696C14.5244 17.4001 15.4401 17.0208 16.1152 16.3457C16.7903 15.6706 17.1696 14.7549 17.1696 13.8001V4.2001C17.1696 3.24532 16.7903 2.32964 16.1152 1.65451C15.4401 0.979382 14.5244 0.600098 13.5696 0.600098H3.96963ZM1.56963 4.2001C1.56963 3.56358 1.82249 2.95313 2.27257 2.50304C2.72266 2.05295 3.33311 1.8001 3.96963 1.8001H13.5696C14.2061 1.8001 14.8166 2.05295 15.2667 2.50304C15.7168 2.95313 15.9696 3.56358 15.9696 4.2001V13.8001C15.9696 14.4366 15.7168 15.0471 15.2667 15.4972C14.8166 15.9472 14.2061 16.2001 13.5696 16.2001H3.96963C3.33311 16.2001 2.72266 15.9472 2.27257 15.4972C1.82249 15.0471 1.56963 14.4366 1.56963 13.8001V4.2001Z"
        fill="#A0A0A0" />
</svg>
