<svg width="20" height="20" viewBox="0 0 20 20" fill="none" xmlns="http://www.w3.org/2000/svg">
    <path
        d="M19.4946 17.8751C18.0668 15.4067 15.8665 13.6367 13.2986 12.7976C14.5688 12.0415 15.5556 10.8893 16.1076 9.51804C16.6596 8.14678 16.7461 6.63224 16.354 5.20701C15.9619 3.78178 15.1128 2.52467 13.9371 1.62873C12.7613 0.732786 11.324 0.247559 9.84583 0.247559C8.36765 0.247559 6.93033 0.732786 5.75461 1.62873C4.57889 2.52467 3.72977 3.78178 3.33765 5.20701C2.94554 6.63224 3.03211 8.14678 3.58407 9.51804C4.13603 10.8893 5.12287 12.0415 6.39302 12.7976C3.82521 13.6357 1.6249 15.4057 0.197085 17.8751C0.144724 17.9605 0.109994 18.0555 0.0949431 18.1545C0.0798921 18.2535 0.0848252 18.3545 0.109451 18.4516C0.134078 18.5487 0.177898 18.6399 0.238327 18.7197C0.298756 18.7996 0.37457 18.8666 0.461296 18.9167C0.548021 18.9667 0.643902 18.999 0.74328 19.0114C0.842658 19.0238 0.943521 19.0163 1.03992 18.9891C1.13631 18.9619 1.22629 18.9157 1.30454 18.8532C1.38279 18.7907 1.44773 18.7131 1.49552 18.6251C3.26177 15.5726 6.38365 13.7501 9.84583 13.7501C13.308 13.7501 16.4299 15.5726 18.1961 18.6251C18.2439 18.7131 18.3089 18.7907 18.3871 18.8532C18.4654 18.9157 18.5554 18.9619 18.6518 18.9891C18.7481 19.0163 18.849 19.0238 18.9484 19.0114C19.0478 18.999 19.1436 18.9667 19.2304 18.9167C19.3171 18.8666 19.3929 18.7996 19.4533 18.7197C19.5138 18.6399 19.5576 18.5487 19.5822 18.4516C19.6068 18.3545 19.6118 18.2535 19.5967 18.1545C19.5817 18.0555 19.5469 17.9605 19.4946 17.8751ZM4.59583 7.00011C4.59583 5.96176 4.90374 4.94672 5.48062 4.08337C6.0575 3.22001 6.87743 2.5471 7.83675 2.14974C8.79606 1.75238 9.85166 1.64841 10.8701 1.85099C11.8885 2.05356 12.8239 2.55357 13.5581 3.2878C14.2924 4.02202 14.7924 4.95748 14.995 5.97589C15.1975 6.99429 15.0936 8.04989 14.6962 9.0092C14.2988 9.96851 13.6259 10.7884 12.7626 11.3653C11.8992 11.9422 10.8842 12.2501 9.84583 12.2501C8.45391 12.2486 7.11941 11.695 6.13517 10.7108C5.15093 9.72653 4.59732 8.39204 4.59583 7.00011Z"
        fill="#A0A0A0" />
</svg>
