<svg width="17" height="20" viewBox="0 0 17 20" fill="none" xmlns="http://www.w3.org/2000/svg">
    <path
        d="M15.2807 3.10665L15.2807 3.10712C15.2804 3.10715 15.28 3.10719 15.2797 3.10723C14.8597 3.14902 11.2558 3.50762 8.67599 0.919278C8.56858 0.810991 8.42223 0.75 8.26965 0.75C8.11711 0.75 7.97078 0.810966 7.86337 0.919216C5.28906 3.50836 1.70089 3.15111 1.26328 3.10754C1.26166 3.10738 1.26009 3.10722 1.25856 3.10707L1.25863 3.10665C1.09962 3.08215 0.937364 3.12551 0.811807 3.22699L0.811728 3.22705C0.685028 3.32953 0.607774 3.48127 0.599869 3.64433C0.512578 5.37825 0.459377 7.47505 0.640928 9.43254C0.821548 11.38 1.23778 13.2343 2.12168 14.45L2.12242 14.451C3.02343 15.6772 4.34716 16.7328 5.50625 17.5004C6.08769 17.8854 6.63211 18.2009 7.06838 18.4318C7.49857 18.6595 7.83808 18.8128 8.00507 18.8646L8.00541 18.8647C8.17749 18.9179 8.36171 18.9179 8.53379 18.8647L8.53418 18.8646C8.70088 18.8128 9.041 18.6599 9.47232 18.4323C9.90962 18.2016 10.4553 17.8863 11.0377 17.5012C12.1984 16.7336 13.5226 15.677 14.4174 14.4468C15.3014 13.2325 15.7176 11.3789 15.8982 9.43192C16.0766 7.50864 16.0282 5.45048 15.9437 3.73446L15.9395 3.64516C15.9318 3.48178 15.8545 3.32971 15.7276 3.22705L15.7275 3.22698C15.6019 3.12551 15.4397 3.08215 15.2807 3.10665ZM8.96663 17.4062C8.64206 17.5787 8.39973 17.6915 8.26968 17.7438C8.13979 17.6914 7.89755 17.5784 7.57288 17.4054C7.17698 17.1945 6.6741 16.9028 6.13474 16.546C5.05181 15.8295 3.84062 14.8626 3.04518 13.7718C2.33243 12.7923 1.95663 11.212 1.78757 9.42181C1.6279 7.73099 1.65569 5.89326 1.73199 4.28292C2.98033 4.33913 5.88762 4.20519 8.28547 2.09709C10.6803 4.20842 13.5808 4.34237 14.822 4.28375C14.891 5.89407 14.915 7.73111 14.7535 9.42145C14.5824 11.212 14.2066 12.7924 13.4937 13.772L13.4635 13.8136C12.6679 14.8903 11.4738 15.8417 10.4047 16.5483C9.86536 16.9047 9.36251 17.1957 8.96663 17.4062ZM7.4573 10.7935L6.1984 9.50392C6.09734 9.3823 5.95051 9.3082 5.79304 9.29856L5.79303 9.29856C5.62995 9.28859 5.47057 9.34869 5.35473 9.46377C5.24581 9.57196 5.18507 9.71911 5.18555 9.87202H4.96249L5.31446 10.232C5.336 10.2584 5.35999 10.283 5.38624 10.3054L7.06739 12.0249C7.175 12.1372 7.32324 12.2004 7.47817 12.2012L7.47816 12.2015L7.49039 12.201C7.64368 12.1942 7.78853 12.1279 7.89388 12.0158L7.8939 12.0159L7.89633 12.0132L11.1789 8.41776C11.1792 8.41744 11.1795 8.41711 11.1798 8.41679C11.2835 8.30471 11.3378 8.15605 11.3314 8.00409C11.3268 7.89287 11.2898 7.78626 11.2263 7.6968L11.2263 7.66958L11.1412 7.59506C10.9087 7.39138 10.5562 7.40891 10.3452 7.63526L10.3435 7.63703L7.4573 10.7935Z"
        fill="#A0A0A0" stroke="#A0A0A0" stroke-width="0.5" />
</svg>
