<svg width="16" height="20" viewBox="0 0 16 20" fill="none" xmlns="http://www.w3.org/2000/svg">
    <path
        d="M4.768 0.191671C5.7985 0.0506712 6.66451 0.681171 7.07451 1.50067L8.08301 3.51717C8.64251 4.63617 8.321 5.94917 7.473 6.77517C6.972 7.26267 6.46851 7.81967 6.17651 8.31117C6.15716 8.3462 6.15113 8.38704 6.15951 8.42617C6.42951 9.88917 7.42101 11.3347 8.30551 12.3712C8.34999 12.4206 8.40805 12.4558 8.47243 12.4724C8.5368 12.4891 8.60465 12.4864 8.66751 12.4647L10.655 11.8437C11.1904 11.6763 11.7653 11.6849 12.2955 11.8681C12.8256 12.0513 13.2832 12.3995 13.601 12.8617L15.0395 14.9537C15.4295 15.5217 15.627 16.2917 15.328 17.0322C15.061 17.6937 14.5445 18.6477 13.605 19.2822C12.63 19.9402 11.2945 20.1902 9.54701 19.5912C7.59451 18.9212 5.75001 17.2412 4.22051 15.0927C2.68201 12.9307 1.41551 10.2302 0.647505 7.41417C-0.0779945 4.75517 0.360005 2.96517 1.39101 1.81267C2.38551 0.700671 3.8105 0.323171 4.768 0.191671ZM5.95651 2.05967C5.72801 1.60317 5.32051 1.37767 4.938 1.43017C4.0875 1.54717 3.02251 1.86367 2.32301 2.64617C1.66001 3.38767 1.20101 4.69367 1.85301 7.08517C2.58551 9.76917 3.79151 12.3342 5.23901 14.3677C6.69551 16.4142 8.35051 17.8592 9.95251 18.4087C11.38 18.8982 12.2975 18.6562 12.9055 18.2462C13.5485 17.8117 13.944 17.1212 14.169 16.5642C14.272 16.3092 14.2275 15.9792 14.0095 15.6622L12.571 13.5702C12.4046 13.3281 12.1649 13.1456 11.8873 13.0496C11.6096 12.9536 11.3085 12.9491 11.028 13.0367L9.04051 13.6577C8.44651 13.8432 7.7775 13.6777 7.355 13.1827C6.4345 12.1042 5.26151 10.4502 4.93001 8.65267C4.86664 8.31579 4.92776 7.96737 5.10201 7.67217C5.48101 7.03517 6.08101 6.38567 6.60051 5.87967C7.10801 5.38567 7.25201 4.65067 6.96501 4.07617L5.95651 2.05967Z"
        fill="#A0A0A0" />
</svg>
