<svg width="16" height="16" viewBox="0 0 16 16" fill="none" xmlns="http://www.w3.org/2000/svg">
    <path fill-rule="evenodd" clip-rule="evenodd"
        d="M7.296 0.832031H8.704C9.92933 0.832031 10.9 0.832031 11.6593 0.934031C12.4407 1.03936 13.0733 1.2607 13.5727 1.75936C14.0713 2.2587 14.2927 2.89136 14.398 3.6727C14.5 4.4327 14.5 5.4027 14.5 6.62803V9.36936C14.5 10.5947 14.5 11.5654 14.398 12.3247C14.2927 13.106 14.0713 13.7387 13.5727 14.238C13.0733 14.7367 12.4407 14.958 11.6593 15.0634C10.8993 15.1654 9.92933 15.1654 8.704 15.1654H7.296C6.07067 15.1654 5.1 15.1654 4.34067 15.0634C3.55933 14.958 2.92667 14.7367 2.42733 14.238C1.92867 13.7387 1.70733 13.106 1.602 12.3247C1.5 11.5647 1.5 10.5947 1.5 9.36936V6.62803C1.5 5.4027 1.5 4.43203 1.602 3.6727C1.70733 2.89136 1.92867 2.2587 2.42733 1.75936C2.92667 1.2607 3.55933 1.03936 4.34067 0.934031C5.10067 0.832031 6.07067 0.832031 7.296 0.832031ZM4.47333 1.92536C3.80267 2.01536 3.416 2.1847 3.13333 2.4667C2.852 2.7487 2.68267 3.13536 2.59267 3.80603C2.50067 4.49136 2.49933 5.39403 2.49933 6.66536V9.33203C2.49933 10.6034 2.50067 11.5067 2.59267 12.192C2.68267 12.862 2.852 13.2487 3.134 13.5307C3.416 13.8127 3.80267 13.982 4.47333 14.072C5.15867 14.164 6.06133 14.1654 7.33267 14.1654H8.666C9.93733 14.1654 10.8407 14.164 11.526 14.072C12.196 13.982 12.5827 13.8127 12.8647 13.5307C13.1467 13.2487 13.316 12.862 13.406 12.1914C13.498 11.5067 13.4993 10.6034 13.4993 9.33203V6.66536C13.4993 5.39403 13.498 4.49136 13.406 3.80536C13.316 3.13536 13.1467 2.7487 12.8647 2.4667C12.5827 2.1847 12.196 2.01536 11.5253 1.92536C10.8407 1.83336 9.93733 1.83203 8.666 1.83203H7.33267C6.06133 1.83203 5.15933 1.83336 4.47333 1.92536ZM8 3.4987C8.13261 3.4987 8.25979 3.55138 8.35355 3.64514C8.44732 3.73891 8.5 3.86609 8.5 3.9987V4.83203H9.33333C9.46594 4.83203 9.59312 4.88471 9.68689 4.97848C9.78065 5.07225 9.83333 5.19942 9.83333 5.33203C9.83333 5.46464 9.78065 5.59182 9.68689 5.68558C9.59312 5.77935 9.46594 5.83203 9.33333 5.83203H8.5V6.66536C8.5 6.79797 8.44732 6.92515 8.35355 7.01892C8.25979 7.11269 8.13261 7.16536 8 7.16536C7.86739 7.16536 7.74022 7.11269 7.64645 7.01892C7.55268 6.92515 7.5 6.79797 7.5 6.66536V5.83203H6.66667C6.53406 5.83203 6.40688 5.77935 6.31311 5.68558C6.21935 5.59182 6.16667 5.46464 6.16667 5.33203C6.16667 5.19942 6.21935 5.07225 6.31311 4.97848C6.40688 4.88471 6.53406 4.83203 6.66667 4.83203H7.5V3.9987C7.5 3.86609 7.55268 3.73891 7.64645 3.64514C7.74022 3.55138 7.86739 3.4987 8 3.4987ZM4.83333 9.33203C4.83333 9.19942 4.88601 9.07225 4.97978 8.97848C5.07355 8.88471 5.20073 8.83203 5.33333 8.83203H10.6667C10.7993 8.83203 10.9265 8.88471 11.0202 8.97848C11.114 9.07225 11.1667 9.19942 11.1667 9.33203C11.1667 9.46464 11.114 9.59182 11.0202 9.68558C10.9265 9.77935 10.7993 9.83203 10.6667 9.83203H5.33333C5.20073 9.83203 5.07355 9.77935 4.97978 9.68558C4.88601 9.59182 4.83333 9.46464 4.83333 9.33203ZM5.5 11.9987C5.5 11.8661 5.55268 11.7389 5.64645 11.6451C5.74022 11.5514 5.86739 11.4987 6 11.4987H10C10.1326 11.4987 10.2598 11.5514 10.3536 11.6451C10.4473 11.7389 10.5 11.8661 10.5 11.9987C10.5 12.1313 10.4473 12.2585 10.3536 12.3523C10.2598 12.446 10.1326 12.4987 10 12.4987H6C5.86739 12.4987 5.74022 12.446 5.64645 12.3523C5.55268 12.2585 5.5 12.1313 5.5 11.9987Z"
        fill="#18C0B3" />
</svg>
