<svg width="17" height="17" viewBox="0 0 17 17" fill="none" xmlns="http://www.w3.org/2000/svg">
    <path
        d="M14.1134 2.51897C13.3629 1.76086 12.469 1.15978 11.4837 0.75078C10.4985 0.34178 9.44163 0.133051 8.37487 0.136768C3.90516 0.136768 0.262268 3.77966 0.262268 8.24937C0.262268 9.68196 0.638836 11.0736 1.34286 12.3016L0.196777 16.5093L4.49457 15.3796C5.68158 16.0263 7.01594 16.3702 8.37487 16.3702C12.8446 16.3702 16.4875 12.7273 16.4875 8.25755C16.4875 6.08819 15.6443 4.04981 14.1134 2.51897ZM8.37487 14.9949C7.1633 14.9949 5.97629 14.6674 4.93663 14.0534L4.69104 13.9061L2.13692 14.5774L2.81639 12.0887L2.65266 11.835C1.97954 10.7601 1.62212 9.51762 1.62119 8.24937C1.62119 4.5328 4.65011 1.50388 8.36668 1.50388C10.1677 1.50388 11.8622 2.2079 13.1311 3.48495C13.7594 4.11036 14.2573 4.85424 14.5959 5.67349C14.9346 6.49275 15.1073 7.37107 15.104 8.25755C15.1204 11.9741 12.0914 14.9949 8.37487 14.9949ZM12.0751 9.95211C11.8704 9.85388 10.8717 9.3627 10.6916 9.28902C10.5033 9.22353 10.3723 9.19079 10.2332 9.38726C10.094 9.59192 9.70923 10.0503 9.59462 10.1813C9.48001 10.3205 9.35722 10.3369 9.15256 10.2304C8.9479 10.1322 8.293 9.91118 7.52349 9.22353C6.91771 8.68324 6.51658 8.02015 6.39379 7.81549C6.27918 7.61084 6.37741 7.50442 6.48384 7.39799C6.57388 7.30794 6.68849 7.16059 6.78673 7.04598C6.88496 6.93138 6.9259 6.84133 6.99139 6.71035C7.05688 6.57118 7.02413 6.45657 6.97501 6.35834C6.9259 6.2601 6.51658 5.26138 6.35286 4.85206C6.18913 4.45912 6.01722 4.50824 5.89442 4.50005H5.50148C5.36232 4.50005 5.14947 4.54917 4.96119 4.75383C4.78109 4.95848 4.25717 5.44966 4.25717 6.44839C4.25717 7.44711 4.98575 8.41309 5.08398 8.54407C5.18222 8.68324 6.51658 10.7298 8.54678 11.6057C9.02977 11.8186 9.40634 11.9414 9.70104 12.0314C10.184 12.187 10.6261 12.1624 10.9781 12.1133C11.371 12.056 12.1815 11.6221 12.3452 11.1473C12.5171 10.6725 12.5171 10.2714 12.4598 10.1813C12.4025 10.0913 12.2797 10.0503 12.0751 9.95211Z"
        fill="#535353" />
</svg>
